<?xml version="1.0" encoding="UTF-8"?>
<svg width="100px" height="39px" viewBox="0 0 100 39" version="1.1" xmlns="http://www.w3.org/2000/svg" xmlns:xlink="http://www.w3.org/1999/xlink">
    <title>E6F50114-9437-4BEF-A6E3-B4D4711D1FF3</title>
    <g id="Page-1" stroke="none" stroke-width="1" fill="none" fill-rule="evenodd">
        <g id="Export-Logo" transform="translate(-159.000000, -1045.000000)" fill="#53555A">
            <g id="emaar-turkey-logo-en" transform="translate(159.000000, 1045.000000)">
                <path d="M90.1307022,10.6688262 L90.9565036,10.586186 C93.7341176,10.1774924 96.1006338,8.56315265 96.1006338,5.56796948 C96.1006338,-0.106260336 89.2763522,0.156385404 86.386047,0.156385404 L82.1548662,0.156385404 C82.7369541,1.47592481 82.6999914,2.31494873 82.6999914,3.26215625 L82.6999914,16.7842047 C82.6999914,17.7644683 82.7369541,18.5316704 82.1548662,19.8920791 L86.4668842,19.8920791 C85.9148474,18.5316704 85.9148474,17.7644683 85.9148474,16.7842047 L85.9148474,10.7099961 C86.3277481,10.7340369 86.9687359,10.8686654 87.8747736,11.940284 C91.0517653,15.7219019 93.5883702,18.1079513 95.5485969,19.9053016 L99.5300539,19.9053016 C99.1390904,19.5227524 90.1307022,10.6688262 90.1307022,10.6688262 M85.9139458,9.730634 L85.9139458,1.32026063 C92.1050529,1.07203937 92.7400305,4.15196636 92.8073447,5.56676744 C92.8662447,7.03355675 92.2529038,8.77050455 90.4318132,9.46558418 L90.440528,9.4571699 C90.440528,9.4571699 90.4101765,9.46768775 90.351577,9.49413263 C89.3776241,9.91755122 85.9139458,9.730634 85.9139458,9.730634" id="Fill-13" fill-rule="nonzero"></path>
                <path d="M78.9859883,16.6714233 L71.5123046,0.167414121 L70.6558511,0.167414121 L63.0625644,17.1453275 C62.4867873,18.4101741 62.2130226,18.8768663 61.4019462,19.8919889 L61.4148681,19.8919889 L63.681615,19.8919889 L63.9556801,19.8919889 L67.1678315,12.6683296 L73.7204521,12.6683296 L76.9755764,19.8919889 L81.3047235,19.8919889 C80.1594798,18.7882157 79.7835418,18.2839599 78.9859883,16.6714233 L78.9859883,16.6714233 Z M67.8001046,11.2928953 L70.4190492,5.40079577 L73.0902826,11.2928953 L67.8001046,11.2928953 Z" id="Fill-15" fill-rule="nonzero"></path>
                <path d="M58.4920477,16.6714233 L51.0180635,0.167414121 L50.1595064,0.167414121 L42.5683233,17.1453275 C41.9925462,18.4101741 41.7187816,18.8768663 40.905902,19.8919889 L40.920627,19.8919889 L43.1876744,19.8919889 L43.4614391,19.8919889 L46.675694,12.6683296 L53.226211,12.6683296 L56.4819363,19.8919889 L60.8107829,19.8919889 C59.6655393,18.7882157 59.2893008,18.2839599 58.4920477,16.6714233 L58.4920477,16.6714233 Z M47.306164,11.2928953 L49.9272122,5.40079577 L52.595741,11.2928953 L47.306164,11.2928953 Z" id="Fill-17" fill-rule="nonzero"></path>
                <path d="M35.876747,19.8923495 C36.0678713,18.9183967 36.0678713,17.5495736 35.9137097,16.4301739 L34.659381,7.13750316 L27.8203744,19.8836349 L26.5140574,19.8836349 L19.5575514,6.56142549 L18.207961,16.6366243 C18.0598096,17.7974943 18.0168366,19.270895 18.1403463,19.8923495 L15.6932933,19.8923495 C16.1647935,18.8817344 16.2822929,18.4468966 16.5040693,16.7889828 L18.7164239,0.167474223 L19.8445385,0.167474223 L27.9595105,15.6779973 L36.0678713,0.167474223 L36.91561,0.167474223 L39.2018901,16.7541237 C39.4299772,18.4081308 39.5997654,18.8817344 40.0559395,19.8923495 L35.876747,19.8923495 Z" id="Fill-9" fill-rule="nonzero"></path>
                <path d="M14.6415083,17.9255417 L14.346107,19.8923797 L0.238965552,19.8923797 C0.821654442,18.5319709 0.784691712,17.7647689 0.784691712,16.7845052 L0.784691712,3.27297461 C0.784691712,2.32576709 0.821654442,1.48674317 0.238965552,0.167203764 L4.46804278,0.167203764 L14.0068312,0.167203764 L14.030872,2.16920138 C13.7724334,2.06282084 13.565983,1.97356937 13.3748587,1.88852504 C12.8657947,1.69740068 12.2160921,1.51919825 11.5444523,1.52340539 L3.9968431,1.52340539 L3.9968431,9.24771443 L12.8507692,9.24771443 L12.4159313,10.7643884 L3.9968431,10.7643884 L3.9968431,18.4950082 L11.9813938,18.4950082 C13.3288806,18.5166449 14.663145,17.7560541 14.663145,17.7560541 L14.6261823,17.9255417 L14.6415083,17.9255417 Z" id="Fill-11" fill-rule="nonzero"></path>
                <g id="Group" transform="translate(22.000000, 31.000000)">
                    <path d="M1.02261744,3.8892328 C1.28004382,3.95130205 1.54906888,3.98233668 1.82969263,3.98233668 C2.06424383,3.98233668 2.30717185,3.95559407 2.55686578,3.9011184 C2.80720407,3.84697289 3.03627811,3.74759605 3.24473226,3.60397837 C3.45254205,3.46069085 3.62297828,3.2625975 3.75604098,3.01035863 C3.88845931,2.75778961 3.95515175,2.43357682 3.95515175,2.03805043 C3.95515175,1.70393298 3.90907919,1.43254509 3.81822282,1.22289629 C3.72768864,1.01291734 3.60074747,0.850150633 3.43739932,0.733605712 C3.27501772,0.617390945 3.07622914,0.537823449 2.84103357,0.494903223 C2.60648238,0.452313153 2.34100135,0.430522884 2.04523487,0.430522884 L1.02261744,0.430522884 L1.02261744,3.8892328 Z M0.0911785553,3.01564112 C0.0911785553,2.50389996 0.0815129841,2.00107301 0.062826213,1.50782056 C0.0431728849,1.01522843 0.0228751853,0.512071314 0,0 C0.182034925,0.0155173125 0.365680778,0.0293838471 0.551259746,0.0409392926 C0.736838714,0.0524947381 0.920484567,0.0581073831 1.10251949,0.0581073831 C1.19305368,0.0581073831 1.30324119,0.0548058272 1.43211547,0.046221782 C1.56066757,0.0392885147 1.69115278,0.0330155586 1.82421548,0.0293838471 C1.9566338,0.0254219801 2.08357497,0.0194791796 2.2047168,0.0118856011 C2.32585862,0.00396186703 2.42799149,0 2.51143759,0 C2.62516915,0 2.76531993,0.00396186703 2.93221213,0.0118856011 C3.09813777,0.0194791796 3.27501772,0.0429202262 3.46059669,0.0815484297 C3.64617566,0.120506789 3.82982151,0.178944328 4.01185643,0.256200735 C4.19324699,0.333787297 4.35820607,0.446700508 4.50608931,0.594280054 C4.65365036,0.741529446 4.77285908,0.925426107 4.86403763,1.14696051 C4.954894,1.36816475 5,1.64186373 5,1.96805745 C5,2.48045892 4.89271216,2.89579464 4.67620336,3.21406463 C4.46001675,3.53266477 4.1951801,3.78094177 3.88104904,3.95922579 C3.5662736,4.13817011 3.23313358,4.25801659 2.8809846,4.32074615 C2.52819125,4.38215509 2.2159933,4.41318972 1.943102,4.41318972 C1.76912172,4.41318972 1.60996198,4.41153894 1.46594497,4.40757707 C1.32192796,4.40394536 1.17436691,4.39404069 1.02261744,4.37852338 L1.02261744,5.01935537 C1.02261744,5.53142668 1.03228301,6.03623458 1.05096978,6.53311873 C1.06997874,7.03000289 1.09092081,7.51863316 1.11411818,8 C0.939171338,7.98448269 0.753592371,7.97688911 0.557059089,7.97688911 C0.359881436,7.97688911 0.174302468,7.98448269 0,8 C0.0228751853,7.51863316 0.0431728849,7.03000289 0.062826213,6.53311873 C0.0815129841,6.03623458 0.0911785553,5.53142668 0.0911785553,5.01935537 L0.0911785553,3.01564112 Z" id="Fill-1"></path>
                    <path d="M8.10122273,4.44599247 C8.29309804,4.44599247 8.49187083,4.44955652 8.69816814,4.45700863 C8.90477897,4.46478474 9.10386528,4.4686728 9.29574058,4.4686728 C9.50172437,4.4686728 9.70802168,4.46672877 9.91463251,4.46316472 C10.1209298,4.45927666 10.3275406,4.45344457 10.5341515,4.44599247 L9.30640032,1.54291037 L8.10122273,4.44599247 Z M13,8 C12.8968513,7.98477178 12.7993461,7.97699567 12.7068572,7.97699567 L12.4140279,7.97699567 L12.1211985,7.97699567 C12.0287096,7.97699567 11.9308908,7.98477178 11.8283692,8 C11.7763246,7.82503746 11.7064093,7.61313839 11.6179961,7.3655988 C11.5292695,7.11805921 11.4317642,6.85917946 11.3245398,6.58863554 C11.2179424,6.31809161 11.1094639,6.04430764 10.9987907,5.7656636 C10.888431,5.48799158 10.7846554,5.22263173 10.6887177,4.97152809 C10.4529493,4.96407598 10.2134187,4.9585679 9.96981233,4.95435584 C9.7271465,4.95046778 9.48354011,4.94884776 9.24024723,4.94884776 C9.01168988,4.94884776 8.78720831,4.95046778 8.56586196,4.95435584 C8.34482913,4.9585679 8.119407,4.96407598 7.89147669,4.97152809 C7.65539481,5.5657527 7.44125946,6.13178891 7.2500112,6.6686647 C7.05813589,7.20586449 6.91422941,7.64942692 6.81829175,8 C6.69288306,7.98477178 6.5565011,7.97699567 6.4094594,7.97699567 C6.26179066,7.97699567 6.1254087,7.98477178 6,8 C6.59725892,6.66672067 7.1794688,5.34121745 7.74757021,4.02284233 C8.31504456,2.70511522 8.88659471,1.36405978 9.46159359,0 L9.67196668,0 C9.84847942,0.442266413 10.0400412,0.920173343 10.2463385,1.4346928 C10.4529493,1.94888826 10.6626954,2.46859179 10.8771443,2.99445142 C11.0903391,3.52031104 11.3047879,4.04195861 11.5179827,4.56036613 C11.7324316,5.07812563 11.932772,5.56024462 12.1211985,6.00575108 C12.3089981,6.45125754 12.4786133,6.84945932 12.6300443,7.2000324 C12.7808483,7.55028148 12.9043759,7.81726135 13,8 L13,8 Z" id="Fill-3"></path>
                    <path d="M16,8 C16.023968,7.51863316 16.0449401,7.03000289 16.0652463,6.53311873 C16.084221,6.03623458 16.0945406,5.53109653 16.0945406,5.01935537 L16.0945406,3.01564112 C16.0945406,2.50389996 16.084221,2.00107301 16.0652463,1.50782056 C16.0449401,1.01522843 16.023968,0.512071314 16,0 C16.1018642,0.0151871569 16.2000666,0.0290536916 16.2936085,0.0409392926 C16.3881491,0.0524947381 16.4816911,0.0581073831 16.5755659,0.0581073831 C16.6697736,0.0581073831 16.7633156,0.0524947381 16.8578562,0.0409392926 C16.9510652,0.0290536916 17.0492676,0.0151871569 17.1511318,0 C17.1274967,0.512071314 17.1058589,1.01522843 17.0862184,1.50782056 C17.0669108,2.00107301 17.0565912,2.50389996 17.0565912,3.01564112 L17.0565912,3.65647311 C17.0565912,3.71854236 17.0805593,3.74957699 17.1274967,3.74957699 C17.1584554,3.74957699 17.213715,3.7145805 17.2916112,3.64491767 C17.5659121,3.41215798 17.8535286,3.14836367 18.1547936,2.85287442 C18.4560586,2.55837563 18.7593209,2.2516611 19.0649134,1.93306095 C19.3701731,1.61479097 19.6711052,1.29090834 19.9690413,0.960752755 C20.2663116,0.630927325 20.5515979,0.310676406 20.8258988,0 C20.9121172,0.0151871569 20.9943409,0.0290536916 21.0725699,0.0409392926 C21.1507989,0.0524947381 21.229028,0.0581073831 21.3075899,0.0581073831 C21.4011318,0.0581073831 21.4956724,0.0524947381 21.5892144,0.0409392926 C21.6830892,0.0290536916 21.776964,0.0151871569 21.8708389,0 C21.5968708,0.233089844 21.2879494,0.508769758 20.9434088,0.826709587 C20.5988682,1.14530973 20.2526631,1.47117329 19.9041278,1.80496059 C19.5559254,2.13874788 19.2233688,2.46659238 18.9061252,2.78882423 C18.5895473,3.11105609 18.325233,3.39234864 18.1135153,3.63303207 C18.7476698,4.33956502 19.3874834,5.05963435 20.0332889,5.79324006 C20.6790945,6.52717593 21.3348868,7.26276258 22,8 C21.88249,7.98448269 21.7653129,7.97688911 21.6478029,7.97688911 L21.2956059,7.97688911 L20.9727031,7.97688911 C20.8671771,7.97688911 20.7593209,7.98448269 20.6498003,8 C20.3681758,7.68206017 20.057257,7.31723825 19.7163782,6.90553423 C19.3758322,6.49383022 19.0432756,6.09632289 18.7183755,5.71169163 C18.3931425,5.32739053 18.0998668,4.98204779 17.8378828,4.67533325 C17.5755659,4.36861871 17.3814913,4.15368743 17.2566578,4.02954892 C17.1937417,3.96681936 17.1464714,3.93578474 17.1155126,3.93578474 C17.0765646,3.93578474 17.0565912,3.95922579 17.0565912,4.00544757 L17.0565912,5.01935537 C17.0565912,5.53109653 17.0669108,6.03623458 17.0862184,6.53311873 C17.1058589,7.03000289 17.1274967,7.51863316 17.1511318,8 C16.9707057,7.98448269 16.7786285,7.97688911 16.5755659,7.97688911 C16.3721704,7.97688911 16.1804261,7.98448269 16,8" id="Fill-5"></path>
                    <path d="M24.056118,1.50782056 C24.0387619,1.01522843 24.0202488,0.512071314 24,0 C24.0879375,0.0151871569 24.1732716,0.0290536916 24.2548452,0.0409392926 C24.3367081,0.0524947381 24.4179925,0.0581073831 24.5001446,0.0581073831 C24.581429,0.0581073831 24.6630026,0.0524947381 24.7448655,0.0409392926 C24.8261498,0.0290536916 24.9114839,0.0151871569 25,0 C24.9791727,0.512071314 24.9606595,1.01522843 24.9435927,1.50782056 C24.9265259,2.00107301 24.9181371,2.50389996 24.9181371,3.01564112 L24.9181371,5.01935537 C24.9181371,5.53142668 24.9265259,6.03623458 24.9435927,6.53311873 C24.9606595,7.03000289 24.9791727,7.51863316 25,8 C24.8432167,7.98448269 24.6765982,7.97688911 24.5001446,7.97688911 C24.3231125,7.97688911 24.1564941,7.98448269 24,8 C24.0202488,7.51863316 24.0387619,7.03000289 24.056118,6.53311873 C24.0728956,6.03623458 24.0815736,5.53142668 24.0815736,5.01935537 L24.0815736,3.01564112 C24.0815736,2.50389996 24.0728956,2.00107301 24.056118,1.50782056" id="Fill-7"></path>
                    <path d="M28.640343,6.80524851 C28.7502939,6.94393638 28.8844478,7.06862823 29.0431505,7.18091451 C29.2011617,7.2928827 29.3857963,7.38449304 29.5977457,7.45542744 C29.8090035,7.52699801 30.0448102,7.56262425 30.3051656,7.56262425 C30.5731277,7.56262425 30.815158,7.51936382 31.0302192,7.43347913 C31.2456262,7.34727634 31.4285319,7.23117296 31.5792822,7.08580517 C31.7300325,6.93980119 31.8458613,6.76739563 31.9271143,6.56954274 C32.0076758,6.37137177 32.048821,6.16015905 32.048821,5.93590457 C32.048821,5.59172962 31.9537376,5.31848907 31.7618422,5.11650099 C31.5716755,4.91451292 31.3334486,4.74624254 31.0488901,4.61168986 C30.7646774,4.47713718 30.4579905,4.3533996 30.1281377,4.24111332 C29.7989766,4.12914513 29.4915981,3.9888668 29.2077311,3.82059642 C28.9228269,3.65232604 28.6846,3.43761431 28.4940875,3.17550696 C28.3025379,2.91403579 28.2074545,2.56222664 28.2074545,2.1210338 C28.2074545,1.80675944 28.2683079,1.52079523 28.3903603,1.26250497 C28.5120669,1.0045328 28.6894406,0.781868787 28.9210981,0.595149105 C29.1524099,0.408429423 29.4307448,0.262425447 29.7567941,0.15777336 C30.0814605,0.0528031809 30.4476177,0 30.8538829,0 C31.2435516,0 31.581011,0.0435785288 31.8659152,0.129781312 C32.1508194,0.215347913 32.4146325,0.348310139 32.6587373,0.527713718 C32.5850909,0.654950298 32.5242376,0.789502982 32.4758315,0.931689861 C32.4270797,1.07355865 32.3786737,1.25328032 32.3295761,1.47021869 L32.1833207,1.47021869 C32.1421755,1.36524851 32.0875458,1.25137177 32.0187401,1.12795229 C31.9492428,1.0045328 31.8555425,0.890337972 31.7383307,0.785685885 C31.6200816,0.681033797 31.4800498,0.593240557 31.317198,0.522306163 C31.1543462,0.451053678 30.9593389,0.415427435 30.7321762,0.415427435 C30.5046677,0.415427435 30.2947929,0.449145129 30.103589,0.516262425 C29.9130766,0.583379722 29.7460757,0.679125249 29.6039693,0.802862823 C29.4611714,0.925964215 29.3515663,1.07355865 29.2744623,1.24564612 C29.1973584,1.41805169 29.1586336,1.60477137 29.1586336,1.80675944 C29.1586336,2.1582505 29.2544084,2.43499006 29.4449208,2.63697813 C29.6364705,2.8389662 29.8736602,3.00882704 30.1589102,3.14751491 C30.4434686,3.28620278 30.7505013,3.40930417 31.0796625,3.51777336 C31.4088237,3.62592445 31.7155107,3.75888668 32.0004149,3.91602386 C32.2846276,4.07316103 32.5225088,4.27514911 32.7137127,4.52166998 C32.9045709,4.76882704 33,5.0977336 33,5.50934394 C33,5.8532008 32.932923,6.17829026 32.7984233,6.48524851 C32.6649609,6.79188867 32.4699537,7.05940358 32.2137473,7.28747515 C31.957541,7.51554672 31.6442846,7.69145129 31.274324,7.81487078 C30.9047092,7.93829026 30.4835765,8 30.012309,8 C29.5078487,8 29.099509,7.93829026 28.7865984,7.81487078 C28.4736879,7.69145129 28.2112579,7.55117296 28,7.39435388 C28.0729548,7.22194831 28.124127,7.06671968 28.1524791,6.9283499 C28.1804854,6.79029821 28.2074545,6.61248509 28.2320033,6.39554672 L28.377913,6.39554672 C28.4432612,6.5300994 28.5303921,6.66656064 28.640343,6.80524851" id="Fill-9"></path>
                    <path d="M36.4888181,0.605505344 C36.2873784,0.605505344 36.0753888,0.607816433 35.8544975,0.611448145 C35.6339359,0.615410012 35.4130447,0.623333746 35.1918237,0.634559036 C34.9709325,0.646444637 34.757624,0.659981016 34.5522281,0.675498329 C34.3465026,0.691015641 34.1628661,0.710494821 34,0.733935867 C34.0385735,0.594280054 34.0580252,0.470141554 34.0580252,0.361190211 C34.0580252,0.275679914 34.0385735,0.155833437 34,0 C34.5120062,0.0155173125 35.0118138,0.0293838471 35.5004121,0.0409392926 C35.9880213,0.0524947381 36.4888181,0.0584375387 37.0004945,0.0584375387 C37.5118413,0.0584375387 38.0119787,0.0524947381 38.5002473,0.0409392926 C38.9888455,0.0293838471 39.4886532,0.0155173125 40,0 C39.9614265,0.155833437 39.9419748,0.279641781 39.9419748,0.372745656 C39.9419748,0.473773266 39.9614265,0.594280054 40,0.733935867 C39.8374636,0.710494821 39.6531678,0.691015641 39.4477719,0.675498329 C39.2427056,0.659981016 39.0293972,0.646444637 38.8081763,0.634559036 C38.587285,0.623333746 38.3663938,0.615410012 38.1458322,0.611448145 C37.9246112,0.607816433 37.7136106,0.605505344 37.5118413,0.605505344 C37.4884334,1.40514217 37.477224,2.20874087 37.477224,3.01597128 L37.477224,5.01935537 C37.477224,5.53142668 37.4861256,6.03623458 37.5062366,6.53311873 C37.5256882,7.03000289 37.5467883,7.51863316 37.5698665,8 C37.3918347,7.98481284 37.2019342,7.97688911 37.0004945,7.97688911 C36.7983955,7.97688911 36.608495,7.98481284 36.4304632,8 C36.4535414,7.51863316 36.4753008,7.03000289 36.4944228,6.53311873 C36.513215,6.03623458 36.5231057,5.53142668 36.5231057,5.01935537 L36.5231057,3.01597128 C36.5231057,2.20874087 36.5112369,1.40514217 36.4888181,0.605505344" id="Fill-11"></path>
                    <path d="M43.1009092,4.44599247 C43.2927845,4.44599247 43.4915573,4.44955652 43.6978546,4.45700863 C43.9044654,4.46478474 44.1035518,4.4686728 44.2954271,4.4686728 C44.5014108,4.4686728 44.7080217,4.46672877 44.914319,4.46316472 C45.1206163,4.45927666 45.3275406,4.45344457 45.533838,4.44599247 L44.3060868,1.54291037 L43.1009092,4.44599247 Z M48,8 C47.8965378,7.98477178 47.7990326,7.97699567 47.7065436,7.97699567 L47.4137143,7.97699567 L47.120885,7.97699567 C47.0283961,7.97699567 46.9308908,7.98477178 46.8280557,8 C46.7763246,7.82503746 46.7060958,7.61313839 46.6176826,7.3655988 C46.5292695,7.11805921 46.4314507,6.85917946 46.3242263,6.58863554 C46.2173154,6.31809161 46.1091504,6.04430764 45.9984772,5.7656636 C45.8881175,5.48799158 45.7843418,5.22263173 45.6884042,4.97152809 C45.4526358,4.96407598 45.2131052,4.9585679 44.9698123,4.95435584 C44.7271465,4.95046778 44.4832266,4.94884776 44.2402472,4.94884776 C44.0113764,4.94884776 43.7868948,4.95046778 43.5655484,4.95435584 C43.3445156,4.9585679 43.1190935,4.96407598 42.8908496,4.97152809 C42.6550813,5.5657527 42.4409459,6.13178891 42.2493842,6.6686647 C42.0578224,7.20586449 41.9139159,7.64942692 41.8179782,8 C41.6928831,7.98477178 41.5561876,7.97699567 41.4091459,7.97699567 C41.2617907,7.97699567 41.1250952,7.98477178 41,8 C41.5969454,6.66672067 42.1791553,5.34121745 42.7472567,4.02284233 C43.3150446,2.70511522 43.8862812,1.36405978 44.4612801,0 L44.6716532,0 C44.8481659,0.442266413 45.0397277,0.920173343 45.246025,1.4346928 C45.4526358,1.94888826 45.6626954,2.46859179 45.8768307,2.99445142 C46.0900255,3.52031104 46.3044744,4.04195861 46.5176692,4.56036613 C46.7321181,5.07812563 46.9324585,5.56024462 47.120885,6.00575108 C47.3086846,6.45125754 47.4786133,6.84945932 47.6297308,7.2000324 C47.7805348,7.55028148 47.9037488,7.81726135 48,8 L48,8 Z" id="Fill-13"></path>
                    <path d="M53.8159192,4.9427015 C52.8014601,3.89900195 51.7866692,2.86102827 50.772542,1.82909857 C50.7649095,2.03841107 50.7569451,2.31897889 50.7493126,2.67048392 C50.7413483,3.02198895 50.7380298,3.50073562 50.7380298,4.10672393 C50.7380298,4.26354925 50.7393572,4.45854706 50.7433393,4.69012684 C50.7469897,4.92202473 50.7513037,5.16505626 50.754954,5.41953954 C50.7589362,5.67370472 50.7649095,5.93168714 50.772542,6.19348682 C50.7805063,6.4556046 50.7881388,6.69863613 50.7961032,6.92289952 C50.8037357,7.14716291 50.8117,7.34343314 50.8193325,7.51171021 C50.8272969,7.67998728 50.8349294,7.79450475 50.8428937,7.85399022 C50.717787,7.83903933 50.5813976,7.83172293 50.4333934,7.83172293 C50.277093,7.83172293 50.1324073,7.83903933 50,7.85399022 C50.0155969,7.77955386 50.0335166,7.64086047 50.0527638,7.43918247 C50.0723428,7.23686827 50.0895989,6.99574536 50.1055276,6.71549565 C50.1211245,6.43492783 50.1390443,6.1301841 50.1582915,5.80062826 C50.1772068,5.47202672 50.1931355,5.14278898 50.2047502,4.81386934 C50.2163648,4.4846316 50.2266521,4.16302835 50.2339528,3.8487415 C50.2419171,3.53445465 50.2458993,3.25388683 50.2458993,3.00703805 C50.2458993,2.2890771 50.2439082,1.67227325 50.2405897,1.1559903 C50.2359439,0.639707344 50.2266521,0.254801384 50.2110553,0 L50.3982175,0 C50.8740874,0.494015667 51.383474,1.02302278 51.9257135,1.58797567 C52.467953,2.15261044 53.0065421,2.70992882 53.5404854,3.25961271 C54.0754243,3.80929659 54.5828198,4.3293968 55.06234,4.818959 C55.5421921,5.30883932 55.9619797,5.7261919 56.3203755,6.07038053 L56.3203755,4.54411706 C56.3203755,3.75871804 56.314734,2.99399579 56.3031194,2.24963219 C56.2911728,1.5055867 56.2659524,0.804167164 56.2271262,0.146009782 C56.3830947,0.18386417 56.5158339,0.202314207 56.6250119,0.202314207 C56.718593,0.202314207 56.8433678,0.18386417 57,0.146009782 C56.9837395,0.310787705 56.9658197,0.557636487 56.9469043,0.88687423 C56.9276572,1.21579387 56.9074144,1.567617 56.8884991,1.94107122 C56.8689201,2.31547974 56.8510003,2.68193566 56.8357353,3.04075709 C56.8198066,3.39957851 56.8121741,3.68778083 56.8121741,3.90472782 L56.8121741,4.5781542 C56.8121741,4.83200127 56.8141652,5.0976182 56.8178155,5.37468687 C56.8221295,5.65143743 56.8261117,5.93009662 56.829762,6.21034634 C56.8334123,6.49091415 56.8373945,6.75239572 56.8417085,6.99574536 C56.8453589,7.2394131 56.84735,7.45063422 56.84735,7.62972683 L56.84735,8 L56.6837489,8 C55.7861003,7.00497038 54.8300465,5.98608295 53.8159192,4.9427015" id="Fill-15"></path>
                </g>
            </g>
        </g>
    </g>
</svg>