<svg id="Layer_1" data-name="Layer 1" xmlns="http://www.w3.org/2000/svg" viewBox="0 0 213.44 59.13"><defs><style>.cls-1{fill:#fff;}.cls-2{fill:#c8ecfc;}.cls-3{fill:#7bd0ff;}.cls-4{isolation:isolate;}</style></defs><title>logo</title><g id="Layer_2" data-name="Layer 2"><g id="Layer_1-2" data-name="Layer 1-2"><path class="cls-1" d="M15.69,14.21l-14.11-.1V41.5l.8-1.1,9.31-7.9h-.55V28.29a4.11,4.11,0,0,1,4.14-4.08h0a4.17,4.17,0,0,1,2,7.82h.42L8.07,42.54h9.38a14.21,14.21,0,0,0-1.76-28.33Z"/><path class="cls-2" d="M38.81,9.21s6.89-.36,9.41-1.37-2.13-3.33-2.13-3.33S40.77,9,38.81,9.21Z"/><path class="cls-3" d="M47.47,2.57a17.06,17.06,0,0,1-3.26-.36,15.88,15.88,0,0,1-2.08,4.37,7.34,7.34,0,0,1-3.29,2.63,32.22,32.22,0,0,0,3.87-1.35C43.87,7.28,45,6.57,45,6.57S46.45,8,47.48,7.92s2.19-.45,2.84-2.45A12.85,12.85,0,0,0,51,2.21h0A17,17,0,0,1,47.47,2.57Z"/><g class="cls-4"><path class="cls-1" d="M29.94,51.54a2.6,2.6,0,0,1,1,1,3.28,3.28,0,0,1,0,3,2.59,2.59,0,0,1-1,1,2.86,2.86,0,0,1-2.8,0,2.59,2.59,0,0,1-1-1,3.28,3.28,0,0,1,0-3,2.6,2.6,0,0,1,1-1,2.86,2.86,0,0,1,2.8,0Zm-2.5.44a2,2,0,0,0-.77.82,2.87,2.87,0,0,0,0,2.48,2,2,0,0,0,.77.82,2.27,2.27,0,0,0,2.2,0,2,2,0,0,0,.77-.82,2.87,2.87,0,0,0,0-2.48,2,2,0,0,0-.77-.82,2.26,2.26,0,0,0-2.2,0Z"/><path class="cls-1" d="M36.49,56.85h-.56l-3.07-4.69v4.69h-.56v-5.6h.56l3.07,4.7v-4.7h.56Z"/><path class="cls-1" d="M38.27,51.7v2.12h2.19v.44H38.27v2.14H40.7v.46h-3V51.24h3v.45Z"/><path class="cls-1" d="M47,56.15a1.36,1.36,0,0,1-.55.55,1.87,1.87,0,0,1-.93.21,2.23,2.23,0,0,1-1-.2,1.71,1.71,0,0,1-.67-.54,1.54,1.54,0,0,1-.29-.78h.59a1.24,1.24,0,0,0,.18.49,1.18,1.18,0,0,0,.44.41,1.37,1.37,0,0,0,.69.16,1.09,1.09,0,0,0,.82-.29,1,1,0,0,0,.28-.72.94.94,0,0,0-.19-.61,1.25,1.25,0,0,0-.46-.36,6.55,6.55,0,0,0-.75-.28,6.79,6.79,0,0,1-.85-.32,1.46,1.46,0,0,1-.55-.46A1.48,1.48,0,0,1,44,51.58a1.77,1.77,0,0,1,1.23-.4,1.9,1.9,0,0,1,1.26.39,1.53,1.53,0,0,1,.55,1h-.6a1.16,1.16,0,0,0-.38-.64,1.2,1.2,0,0,0-.84-.28,1.16,1.16,0,0,0-.79.25,1,1,0,0,0-.11,1.29,1.23,1.23,0,0,0,.45.34c.18.08.42.17.73.27a6.51,6.51,0,0,1,.86.33,1.49,1.49,0,0,1,.56.48,1.41,1.41,0,0,1,.23.84A1.52,1.52,0,0,1,47,56.15Z"/><path class="cls-1" d="M51.47,51.24v.45h-1.6v5.16h-.56V51.7H47.72v-.45Z"/><path class="cls-1" d="M56.16,51.54a2.6,2.6,0,0,1,1,1,3.28,3.28,0,0,1,0,3,2.59,2.59,0,0,1-1,1,2.86,2.86,0,0,1-2.8,0,2.59,2.59,0,0,1-1-1,3.28,3.28,0,0,1,0-3,2.6,2.6,0,0,1,1-1,2.86,2.86,0,0,1,2.8,0Zm-2.5.44a2,2,0,0,0-.77.82,2.87,2.87,0,0,0,0,2.48,2,2,0,0,0,.77.82,2.27,2.27,0,0,0,2.2,0,2,2,0,0,0,.77-.82,2.87,2.87,0,0,0,0-2.48,2,2,0,0,0-.77-.82,2.26,2.26,0,0,0-2.2,0Z"/><path class="cls-1" d="M59.08,54.51v2.34h-.56V51.24h1.68a2,2,0,0,1,1.41.44,1.57,1.57,0,0,1,.47,1.2,1.53,1.53,0,0,1-.48,1.21,2.05,2.05,0,0,1-1.4.43Zm2.11-.78a1.12,1.12,0,0,0,.32-.86,1.14,1.14,0,0,0-.32-.87,1.49,1.49,0,0,0-1-.3H59.08V54h1.07A1.49,1.49,0,0,0,61.19,53.74Z"/><path class="cls-1" d="M69.33,55.54a2.3,2.3,0,0,1-1,1,3.5,3.5,0,0,1-1.6.34H65V51.24h1.7A3,3,0,0,1,68.9,52,2.73,2.73,0,0,1,69.67,54,3.1,3.1,0,0,1,69.33,55.54Zm-.84.2a2.64,2.64,0,0,0,0-3.4,2.48,2.48,0,0,0-1.81-.61H65.59v4.62h1.09A2.47,2.47,0,0,0,68.48,55.74Z"/><path class="cls-1" d="M74.64,51.54a2.6,2.6,0,0,1,1,1,3.28,3.28,0,0,1,0,3,2.59,2.59,0,0,1-1,1,2.86,2.86,0,0,1-2.8,0,2.59,2.59,0,0,1-1-1,3.28,3.28,0,0,1,0-3,2.6,2.6,0,0,1,1-1,2.86,2.86,0,0,1,2.8,0Zm-2.5.44a2,2,0,0,0-.77.82,2.87,2.87,0,0,0,0,2.48,2,2,0,0,0,.77.82,2.27,2.27,0,0,0,2.2,0,2,2,0,0,0,.77-.82,2.87,2.87,0,0,0,0-2.48,2,2,0,0,0-.77-.82,2.26,2.26,0,0,0-2.2,0Z"/><path class="cls-1" d="M81.12,51.68A2.59,2.59,0,0,1,82.06,53h-.59a2,2,0,0,0-.74-1,2.2,2.2,0,0,0-1.28-.36,2,2,0,0,0-1.05.29,2,2,0,0,0-.74.82,2.71,2.71,0,0,0-.27,1.24,2.68,2.68,0,0,0,.27,1.24,2,2,0,0,0,.74.82,2,2,0,0,0,1.05.29A2.19,2.19,0,0,0,80.73,56a2,2,0,0,0,.74-1h.59a2.59,2.59,0,0,1-.93,1.35,2.73,2.73,0,0,1-1.67.49,2.61,2.61,0,0,1-1.38-.37,2.49,2.49,0,0,1-.94-1,3.17,3.17,0,0,1-.33-1.48,3.21,3.21,0,0,1,.33-1.49,2.47,2.47,0,0,1,.94-1,2.63,2.63,0,0,1,1.38-.36A2.73,2.73,0,0,1,81.12,51.68Z"/><path class="cls-1" d="M83.6,51.24v3.4A1.89,1.89,0,0,0,84,56a1.4,1.4,0,0,0,1.08.42A1.38,1.38,0,0,0,86.14,56a1.91,1.91,0,0,0,.39-1.32v-3.4h.56v3.4a2.35,2.35,0,0,1-.55,1.7,2.2,2.2,0,0,1-2.94,0,2.35,2.35,0,0,1-.55-1.7v-3.4Z"/><path class="cls-1" d="M93.7,51.36v5.49h-.56v-4.6l-1.9,4.6h-.5l-1.91-4.58v4.58h-.56V51.36h.66L91,56.16,93,51.36Z"/><path class="cls-1" d="M95.48,51.7v2.12h2.19v.44H95.48v2.14h2.43v.46h-3V51.24h3v.45Z"/><path class="cls-1" d="M103.09,56.85h-.56l-3.07-4.69v4.69h-.56v-5.6h.56l3.07,4.7v-4.7h.56Z"/><path class="cls-1" d="M107.58,51.24v.45H106v5.16h-.56V51.7h-1.59v-.45Z"/><path class="cls-1" d="M113.64,56.15a1.36,1.36,0,0,1-.55.55,1.88,1.88,0,0,1-.93.21,2.23,2.23,0,0,1-1-.2,1.71,1.71,0,0,1-.67-.54,1.54,1.54,0,0,1-.29-.78h.59a1.24,1.24,0,0,0,.18.49,1.19,1.19,0,0,0,.44.41,1.37,1.37,0,0,0,.69.16,1.09,1.09,0,0,0,.82-.29,1,1,0,0,0,.28-.72.94.94,0,0,0-.19-.61,1.25,1.25,0,0,0-.46-.36,6.51,6.51,0,0,0-.75-.28,6.76,6.76,0,0,1-.85-.32,1.46,1.46,0,0,1-.55-.46,1.48,1.48,0,0,1,.22-1.84,1.77,1.77,0,0,1,1.23-.4,1.91,1.91,0,0,1,1.26.39,1.52,1.52,0,0,1,.55,1h-.6a1.16,1.16,0,0,0-.38-.64,1.2,1.2,0,0,0-.84-.28,1.16,1.16,0,0,0-.79.25,1,1,0,0,0-.11,1.29,1.22,1.22,0,0,0,.45.34c.18.08.42.17.73.27a6.55,6.55,0,0,1,.86.33,1.49,1.49,0,0,1,.56.48,1.4,1.4,0,0,1,.23.84A1.51,1.51,0,0,1,113.64,56.15Z"/><path class="cls-1" d="M118.79,51.54a2.6,2.6,0,0,1,1,1,3.28,3.28,0,0,1,0,3,2.59,2.59,0,0,1-1,1,2.86,2.86,0,0,1-2.8,0,2.59,2.59,0,0,1-1-1,3.28,3.28,0,0,1,0-3,2.6,2.6,0,0,1,1-1,2.86,2.86,0,0,1,2.8,0Zm-2.5.44a2,2,0,0,0-.77.82,2.87,2.87,0,0,0,0,2.48,2,2,0,0,0,.77.82,2.27,2.27,0,0,0,2.21,0,2,2,0,0,0,.77-.82,2.87,2.87,0,0,0,0-2.48,2,2,0,0,0-.77-.82,2.26,2.26,0,0,0-2.21,0Z"/><path class="cls-1" d="M121.7,56.41h2v.45h-2.6V51.24h.57Z"/><path class="cls-1" d="M125,51.24v3.4a1.89,1.89,0,0,0,.39,1.32,1.4,1.4,0,0,0,1.08.42,1.38,1.38,0,0,0,1.07-.42,1.92,1.92,0,0,0,.39-1.32v-3.4h.56v3.4a2.35,2.35,0,0,1-.55,1.7,2.2,2.2,0,0,1-2.94,0,2.35,2.35,0,0,1-.55-1.7v-3.4Z"/><path class="cls-1" d="M133,51.24v.45h-1.6v5.16h-.56V51.7h-1.59v-.45Z"/><path class="cls-1" d="M134.3,51.24v5.61h-.56V51.24Z"/><path class="cls-1" d="M139.45,51.54a2.59,2.59,0,0,1,1,1,3.28,3.28,0,0,1,0,3,2.59,2.59,0,0,1-1,1,2.86,2.86,0,0,1-2.8,0,2.59,2.59,0,0,1-1-1,3.28,3.28,0,0,1,0-3,2.59,2.59,0,0,1,1-1,2.86,2.86,0,0,1,2.8,0ZM137,52a2,2,0,0,0-.77.82,2.87,2.87,0,0,0,0,2.48,2,2,0,0,0,.77.82,2.27,2.27,0,0,0,2.2,0,2,2,0,0,0,.77-.82,2.87,2.87,0,0,0,0-2.48,2,2,0,0,0-.77-.82,2.26,2.26,0,0,0-2.2,0Z"/><path class="cls-1" d="M146,56.85h-.56l-3.07-4.69v4.69h-.56v-5.6h.56l3.07,4.7v-4.7H146Z"/><path class="cls-1" d="M150.46,56.15a1.36,1.36,0,0,1-.55.55,1.87,1.87,0,0,1-.93.21,2.23,2.23,0,0,1-1-.2,1.71,1.71,0,0,1-.67-.54,1.53,1.53,0,0,1-.29-.78h.59a1.25,1.25,0,0,0,.18.49,1.18,1.18,0,0,0,.44.41,1.37,1.37,0,0,0,.69.16,1.1,1.1,0,0,0,.82-.29,1,1,0,0,0,.28-.72.94.94,0,0,0-.19-.61,1.25,1.25,0,0,0-.46-.36,6.6,6.6,0,0,0-.75-.28,6.82,6.82,0,0,1-.85-.32,1.46,1.46,0,0,1-.54-.46,1.48,1.48,0,0,1,.22-1.84,1.77,1.77,0,0,1,1.23-.4,1.9,1.9,0,0,1,1.26.39,1.53,1.53,0,0,1,.55,1h-.6a1.16,1.16,0,0,0-.38-.64,1.2,1.2,0,0,0-.84-.28,1.16,1.16,0,0,0-.79.25,1,1,0,0,0-.11,1.29,1.23,1.23,0,0,0,.45.34c.18.08.42.17.73.27a6.48,6.48,0,0,1,.86.33,1.49,1.49,0,0,1,.56.48,1.41,1.41,0,0,1,.23.84A1.52,1.52,0,0,1,150.46,56.15Z"/></g><g class="cls-4"><path class="cls-1" d="M50,42.45A14.06,14.06,0,0,1,35.89,28.37a13.57,13.57,0,0,1,4.12-10,14.11,14.11,0,0,1,19.92,0,13.57,13.57,0,0,1,4.12,10,13.57,13.57,0,0,1-4.12,10A13.57,13.57,0,0,1,50,42.45Zm5.69-8.39a8,8,0,0,0,0-11.38,8,8,0,0,0-13.73,5.69,8,8,0,0,0,13.73,5.69Z"/><path class="cls-1" d="M92.11,38.34a14.11,14.11,0,0,1-19.92,0,13.57,13.57,0,0,1-4.12-10,13.57,13.57,0,0,1,4.12-10,14.11,14.11,0,0,1,19.92,0l0,0-4.27,4.27,0,0A8,8,0,0,0,74.1,28.37a8,8,0,0,0,13.73,5.69l0,0,4.27,4.27Z"/><path class="cls-1" d="M118.35,28.37a8,8,0,0,0-16.09,0V42.45h-6V28.37a13.57,13.57,0,0,1,4.12-10,14.11,14.11,0,0,1,19.92,0,15,15,0,0,1,1.1,1.23,14.85,14.85,0,0,1,1.1-1.23,14.11,14.11,0,0,1,19.92,0,13.57,13.57,0,0,1,4.12,10V42.45h-6V28.37a8,8,0,0,0-16.09,0V42.45h-6Z"/><path class="cls-1" d="M178.69,28.37a13.57,13.57,0,0,1-4.12,10,14.08,14.08,0,0,1-24-10,13.57,13.57,0,0,1,4.12-10,14.18,14.18,0,0,1,18-1.63V14.3h6Zm-8.39,5.69a8,8,0,0,0,0-11.38,8,8,0,0,0-13.73,5.69,8,8,0,0,0,13.73,5.69Z"/><path class="cls-1" d="M188.74,42.45h-6V28.37a13.57,13.57,0,0,1,4.12-10,14.11,14.11,0,0,1,19.92,0,13.57,13.57,0,0,1,4.12,10V42.45h-6V28.37a8,8,0,0,0-16.09,0Z"/></g><path class="cls-3" d="M32,17.71l-.21-.63a.61.61,0,0,0-.28-.34l-.19-.11a.61.61,0,0,0-.76.13l-.36.4a.61.61,0,0,0-.09.13l-.52,1a.61.61,0,0,1-.26.27L26.48,20.7c-.32.17-.14.61-.28.28s-1-2.15-1.23-2.46a5.21,5.21,0,0,1-.55-1.11L24.6,17s1.84.28,2-.18A10.72,10.72,0,0,0,27,15.39h.37a10.05,10.05,0,0,1-.47-1.59v-.15h0a.16.16,0,0,0,0-.1,2.27,2.27,0,0,0-2.43-2.1h0a2.33,2.33,0,0,0-1.83,1.25,2.1,2.1,0,0,0-.12,1.78.6.6,0,0,1-.2.13l-.62.24a.61.61,0,0,1-.41,0L19.37,14h-.22L15.39,14a.61.61,0,0,0-.49.22l-4.42,4a.61.61,0,0,1-.31.2l-1.37.21a.61.61,0,0,0-.45.51l-.09.68a.61.61,0,0,0,.92.61l.51-.31,1.05-.61.1-.07,3.64-2.23.07-.05.46-.49a.9.9,0,0,1,.57,0l.85.24a.61.61,0,0,1,.26.78l-.11.16-.07.12-2,3.73A3.73,3.73,0,0,1,13,23.4a2.7,2.7,0,0,0-1.09,1.42l-.23.7L9.58,30.37a.61.61,0,0,1-.15.21l-3,2.63-.09.1L3.65,37.07a.61.61,0,0,1-.63.24l-.55-.1a.61.61,0,0,0-.58.19l-.31.32v5.11l.12.09h0a.61.61,0,0,0,.92-.52,1.72,1.72,0,0,1,0-.32,5.8,5.8,0,0,1,1.66-3.22l5.41-4.65.18-.1a5.39,5.39,0,0,0,1.21-.51c.57-.57.44-1,.81-1.3s3.31-3,4.24-3.8a.61.61,0,0,1,.63-.12l1.65.62a.61.61,0,0,1,.2,1c-.58.53-1.36,1.25-1.83,1.72s-1,1.08-1.29,1.36a.6.6,0,0,1-.46.2c-.46,0-1.37,0-1.57.29a1.19,1.19,0,0,0-.28.64A14.1,14.1,0,0,0,14.38,36a14,14,0,0,0,1.93,2.25c.18,0-.28-1.66-.28-2.39s-.28-1.29.83-1.84,5.12-2.9,5.72-3.26a.58.58,0,0,0,.15-.12,2.84,2.84,0,0,0,.57-1c.07-.26.12-.45.15-.58a.61.61,0,0,0-.08-.44l-.83-.8a.61.61,0,0,0-.16-.17l-2.8-2.7a.61.61,0,0,1,0-1l3-2.25a.61.61,0,0,1,.85.12l0,0,.93.77a7.07,7.07,0,0,0,1.34.83.61.61,0,0,0,.29-.1l1.5-.84.1-.08,2.76-3.28a.61.61,0,0,1,.23-.18l1-.45A.61.61,0,0,0,32,17.71Z"/></g></g></svg>