<svg width="122" height="44" viewBox="0 0 122 44" fill="none" xmlns="http://www.w3.org/2000/svg">
<path fill-rule="evenodd" clip-rule="evenodd" d="M15.4094 0.338379C15.8803 0.338379 16.1165 0.584311 16.1165 1.07617V2.59875C16.1165 2.7937 16.0572 2.96265 15.9396 3.10628C15.8219 3.2499 15.6347 3.32122 15.3784 3.32122H2.98317V9.64213H12.7331C12.9177 9.64213 13.0764 9.69578 13.2097 9.80342C13.3433 9.91072 13.4103 10.093 13.4103 10.3496V11.9182C13.4103 12.1024 13.3533 12.2664 13.2407 12.41C13.128 12.5537 12.9587 12.6256 12.7331 12.6256H2.98317V20.1912H15.4394C15.9109 20.1912 16.1472 20.4325 16.1472 20.914V22.4979C16.1472 22.9491 15.9219 23.1744 15.4704 23.1744H0.676812C0.225271 23.1744 0 22.9591 0 22.5289V1.04552C0 0.574313 0.225271 0.338379 0.676812 0.338379H15.4094Z" fill="#1A1919"/>
<path fill-rule="evenodd" clip-rule="evenodd" d="M33.4775 5.32052C33.3339 5.22822 33.0986 5.04927 32.7704 4.78267C32.4425 4.51575 32.0402 4.24416 31.5634 3.96723C31.0868 3.69064 30.551 3.44204 29.9565 3.22144C29.3613 3.00117 28.7202 2.89086 28.034 2.89086C27.2236 2.89086 26.5268 2.9885 25.9423 3.18312C25.3581 3.37806 24.8762 3.63699 24.4973 3.9599C24.1174 4.28248 23.8379 4.64638 23.6592 5.0516C23.48 5.45649 23.3896 5.86437 23.3896 6.27426C23.3896 6.84843 23.5793 7.3303 23.9588 7.71952C24.3377 8.10942 24.8406 8.44732 25.4657 8.73458C26.0909 9.02183 26.8014 9.28042 27.5958 9.51103C28.3896 9.74196 29.2004 9.98556 30.0251 10.2418C30.8506 10.4981 31.6603 10.785 32.4551 11.1029C33.2496 11.4208 33.959 11.8154 34.5852 12.2869C35.2104 12.7585 35.7129 13.3223 36.0918 13.9785C36.471 14.6346 36.6613 15.4294 36.6613 16.3621C36.6613 17.4385 36.4384 18.4152 35.9918 19.2916C35.5459 20.1681 34.9358 20.9165 34.162 21.5367C33.3882 22.1568 32.4785 22.6361 31.4324 22.9746C30.3864 23.3132 29.2647 23.4821 28.065 23.4821C27.2652 23.4821 26.4731 23.3922 25.6883 23.2129C24.9046 23.0339 24.1508 22.7723 23.428 22.4288C22.7052 22.0852 22.0314 21.6673 21.4062 21.1755C20.78 20.6833 20.2219 20.1197 19.73 19.4836C19.5964 19.32 19.5324 19.1557 19.5374 18.9914C19.5424 18.8281 19.6324 18.6738 19.807 18.5305L21.0213 17.5155C21.1959 17.3718 21.3645 17.3079 21.5292 17.3235C21.6924 17.3382 21.8421 17.4285 21.9747 17.5921L22.175 17.7921C22.6059 18.2743 23.0951 18.6918 23.6436 19.0454C24.1918 19.3993 24.7403 19.6915 25.2888 19.9218C25.8373 20.1527 26.3632 20.3247 26.8653 20.4373C27.3672 20.55 27.7928 20.6066 28.142 20.6066C28.7672 20.6066 29.4073 20.5246 30.0641 20.36C30.7196 20.1967 31.3198 19.9451 31.8633 19.6069C32.4065 19.2683 32.8523 18.8404 33.2013 18.3226C33.5495 17.8051 33.7238 17.1979 33.7238 16.5004C33.7238 15.9159 33.5518 15.4217 33.2089 15.0165C32.8647 14.6116 32.4015 14.2577 31.8173 13.9555C31.2328 13.6529 30.5483 13.3813 29.7639 13.1404C28.9798 12.8998 28.142 12.6458 27.2496 12.3792C26.0189 12.02 24.9632 11.6438 24.0815 11.2489C23.2 10.8543 22.4746 10.4184 21.9054 9.94157C21.3369 9.46504 20.9187 8.93185 20.6524 8.34235C20.3861 7.75285 20.2525 7.08903 20.2525 6.3509C20.2525 5.41816 20.4395 4.56473 20.8137 3.79061C21.1883 3.0165 21.7184 2.34768 22.4056 1.78384C23.0924 1.21966 23.9205 0.78145 24.8889 0.46887C25.858 0.15629 26.9423 0 28.142 0C28.7871 0 29.459 0.0819772 30.1561 0.245932C30.8532 0.410219 31.5327 0.638156 32.1935 0.930075C32.8547 1.22233 33.4752 1.57123 34.0543 1.97612C34.6335 2.38101 35.1337 2.82921 35.5536 3.32108C35.6972 3.47537 35.7715 3.63699 35.7765 3.80594C35.7815 3.9749 35.7022 4.13652 35.5386 4.29048L34.4466 5.33585C34.2823 5.48981 34.116 5.56179 33.9467 5.55113C33.7781 5.54146 33.6211 5.46448 33.4775 5.32052Z" fill="#1A1919"/>
<path fill-rule="evenodd" clip-rule="evenodd" d="M53.9612 7.44274C53.9612 6.89956 53.8536 6.37637 53.6383 5.87418C53.4227 5.37198 53.1281 4.92844 52.7542 4.54421C52.3793 4.15965 51.9411 3.85207 51.4396 3.62147C50.9371 3.39053 50.3986 3.27523 49.8244 3.27523H44.4419V11.6102H49.8244C50.3779 11.6102 50.9061 11.4976 51.4086 11.2717C51.9105 11.0464 52.351 10.7412 52.7309 10.3569C53.1098 9.97237 53.4094 9.52916 53.6307 9.02663C53.8509 8.52477 53.9612 7.99625 53.9612 7.44274ZM41.4744 1.07617C41.4744 0.583977 41.7096 0.338379 42.1812 0.338379H49.8244C50.8394 0.338379 51.7802 0.52766 52.6466 0.907221C53.512 1.28645 54.2635 1.80164 54.8996 2.45279C55.5348 3.10361 56.031 3.86207 56.3916 4.72849C56.7488 5.59525 56.9291 6.51 56.9291 7.47373C56.9291 8.4168 56.7521 9.31389 56.3982 10.1643C56.0443 11.0161 55.5531 11.7669 54.922 12.4174C54.2918 13.0685 53.548 13.586 52.6926 13.9706C51.8362 14.3555 50.9061 14.5474 49.901 14.5474H44.4419V22.4979C44.4419 22.9491 44.2166 23.1744 43.7657 23.1744H42.1505C41.6996 23.1744 41.4744 22.9491 41.4744 22.4979V1.07617Z" fill="#1A1919"/>
<path fill-rule="evenodd" clip-rule="evenodd" d="M64.1565 15.3935H72.5372L68.3854 4.87512L64.1565 15.3935ZM61.2817 22.6059C61.21 22.7801 61.1064 22.9184 60.9744 23.0211C60.8408 23.1234 60.6708 23.1747 60.4669 23.1747H58.836C58.3652 23.1747 58.1299 22.9954 58.1299 22.6362C58.1299 22.5649 58.1312 22.5056 58.1365 22.4596C58.1412 22.4132 58.1499 22.3699 58.1595 22.3289C58.1699 22.2879 58.1795 22.252 58.1899 22.2213L67.0631 0.907221C67.0831 0.855902 67.1097 0.797251 67.14 0.730603C67.1717 0.663955 67.2117 0.602306 67.2633 0.545988C67.3153 0.48967 67.3886 0.440684 67.4873 0.399695C67.5839 0.35904 67.7142 0.338379 67.8778 0.338379H68.8929C69.0465 0.338379 69.1735 0.35904 69.2701 0.399695C69.3671 0.440684 69.4421 0.48967 69.4941 0.545988C69.544 0.602306 69.5857 0.663955 69.6157 0.730603C69.6477 0.797251 69.6727 0.855902 69.6927 0.907221L78.4892 22.2213C78.4992 22.2726 78.5092 22.3236 78.5209 22.3749C78.5309 22.4262 78.5409 22.4749 78.5509 22.5209C78.5609 22.5672 78.5659 22.6059 78.5659 22.6362C78.5659 22.9954 78.3306 23.1747 77.8581 23.1747H76.2289C76.0232 23.1747 75.8546 23.1234 75.721 23.0211C75.5877 22.9184 75.4857 22.7801 75.4141 22.6059L73.7229 18.3764H62.9262C62.567 19.2891 62.2401 20.1146 61.9428 20.8523C61.6456 21.5908 61.4253 22.175 61.2817 22.6059Z" fill="#1A1919"/>
<path fill-rule="evenodd" clip-rule="evenodd" d="M100.418 2.26014C100.532 2.34245 100.623 2.43709 100.695 2.54473C100.767 2.65237 100.802 2.76267 100.802 2.8753C100.802 3.01893 100.762 3.1419 100.68 3.2442L99.8654 4.59783C99.6898 4.84376 99.5115 4.96672 99.3262 4.96672C99.2542 4.96672 99.1742 4.94873 99.0873 4.91307C99.0006 4.87708 98.9003 4.8181 98.7883 4.73612C98.0505 4.21293 97.2728 3.81371 96.458 3.53645C95.6432 3.25986 94.7851 3.09558 93.8817 3.04459C92.5594 3.04459 91.3391 3.28253 90.2224 3.75973C89.1054 4.23659 88.1386 4.87708 87.3242 5.68186C86.5094 6.48697 85.8699 7.41971 85.4091 8.48075C84.9485 9.54179 84.7179 10.6618 84.7179 11.8405C84.7179 13.0918 84.9532 14.2475 85.4241 15.3085C85.8966 16.3696 86.5294 17.2843 87.3242 18.0538C88.1186 18.8222 89.0401 19.422 90.0921 19.8529C91.1421 20.2831 92.2472 20.4984 93.4058 20.4984C93.8267 20.4984 94.2459 20.4678 94.6665 20.4064C95.087 20.3451 95.5146 20.2398 95.9501 20.0912C96.386 19.9426 96.8402 19.7526 97.3128 19.522C97.7833 19.2914 98.2861 19.0068 98.8187 18.6689C99.0139 18.5556 99.1726 18.4993 99.2959 18.4993C99.4798 18.4993 99.6498 18.6279 99.8034 18.8839L100.68 20.3295C100.752 20.4628 100.787 20.5857 100.787 20.6984C100.787 20.9446 100.665 21.1392 100.418 21.2825C99.4545 21.9803 98.3928 22.5262 97.2341 22.9207C96.0754 23.315 94.8251 23.5129 93.4828 23.5129C92.3958 23.5129 91.3524 23.3743 90.3523 23.0974C89.354 22.8208 88.4209 22.4259 87.5545 21.9134C86.688 21.4008 85.8983 20.7883 85.1855 20.0755C84.4743 19.3634 83.8632 18.5739 83.3556 17.7075C82.8481 16.8411 82.4575 15.9084 82.1803 14.9086C81.903 13.9092 81.7644 12.8662 81.7644 11.7792C81.7644 10.7028 81.903 9.66475 82.1803 8.66503C82.4575 7.66564 82.8514 6.73023 83.364 5.85881C83.8765 4.98739 84.4893 4.19294 85.2021 3.47514C85.9133 2.75767 86.7064 2.14484 87.5778 1.63732C88.4492 1.12979 89.3843 0.735566 90.3843 0.453311C91.3844 0.171723 92.4261 0.0307617 93.5128 0.0307617C94.7948 0.0307617 96.0104 0.220376 97.1575 0.599604C98.3061 0.978832 99.3928 1.53234 100.418 2.26014Z" fill="#1A1919"/>
<path fill-rule="evenodd" clip-rule="evenodd" d="M120.579 0.338379C121.049 0.338379 121.285 0.584311 121.285 1.07617V2.59875C121.285 2.7937 121.226 2.96265 121.108 3.10628C120.991 3.2499 120.804 3.32122 120.547 3.32122H108.152V9.64213H117.902C118.086 9.64213 118.245 9.69578 118.378 9.80342C118.512 9.91072 118.578 10.093 118.578 10.3496V11.9182C118.578 12.1024 118.522 12.2664 118.41 12.41C118.296 12.5537 118.128 12.6256 117.902 12.6256H108.152V20.1912H120.609C121.079 20.1912 121.316 20.4325 121.316 20.914V22.4979C121.316 22.9491 121.091 23.1744 120.639 23.1744H105.845C105.395 23.1744 105.169 22.9591 105.169 22.5289V1.04552C105.169 0.574313 105.395 0.338379 105.845 0.338379H120.579Z" fill="#1A1919"/>
<path fill-rule="evenodd" clip-rule="evenodd" d="M27.6041 37.8292C27.6041 37.2291 27.3478 36.8192 26.8346 36.5979C26.629 36.5112 26.3961 36.4679 26.1358 36.4679H24.1934V39.1788H26.1358C26.7826 39.1788 27.2252 38.9462 27.4621 38.4804C27.5564 38.2908 27.6041 38.0738 27.6041 37.8292ZM29.1793 43.9279H27.6517L25.8279 40.2925H24.1934V43.9279H22.8794V35.2949H26.2301C27.2092 35.2949 27.9473 35.6305 28.4445 36.3016C28.7528 36.7282 28.9071 37.2331 28.9071 37.8176C28.9071 38.7016 28.5631 39.3651 27.8763 39.8067C27.6707 39.941 27.4421 40.0396 27.1902 40.1029L29.1793 43.9279Z" fill="#1A1919"/>
<path fill-rule="evenodd" clip-rule="evenodd" d="M36.5744 43.9281H31.0559V35.2952H36.5744V36.4678H32.3699V38.9898H35.9582V40.1625H32.3699V42.7561H36.5744V43.9281Z" fill="#1A1919"/>
<path fill-rule="evenodd" clip-rule="evenodd" d="M42.6081 41.074L41.3051 37.249L39.9551 41.074H42.6081ZM44.9644 43.9279H43.5671L42.9746 42.199H39.5646L38.9717 43.9279H37.5745L40.7366 35.2949H41.8026L44.9644 43.9279Z" fill="#1A1919"/>
<path fill-rule="evenodd" clip-rule="evenodd" d="M51.8978 43.9281H46.427V35.2952H47.7406V42.7561H51.8978V43.9281Z" fill="#1A1919"/>
<path fill-rule="evenodd" clip-rule="evenodd" d="M56.9778 43.9281V35.2952H62.2117V35.875H57.6289V39.2861H61.5372V39.8662H57.6289V43.3479H62.2117V43.9281H56.9778Z" fill="#1A1919"/>
<path fill-rule="evenodd" clip-rule="evenodd" d="M69.5355 41.6077C69.5355 42.5317 69.14 43.2029 68.3502 43.6211C67.8777 43.874 67.3002 44 66.6223 44C65.6273 44 64.7975 43.7394 64.1347 43.2185C64.0081 43.1159 63.8774 42.9973 63.7441 42.863L64.2067 42.4014C64.7509 42.9466 65.3317 43.2695 65.9462 43.3722C66.1515 43.4042 66.3887 43.4198 66.6573 43.4198C67.684 43.4198 68.3619 43.0959 68.6941 42.4491C68.8127 42.2118 68.871 41.9399 68.871 41.632C68.871 41.0951 68.7141 40.6919 68.3985 40.424C68.1299 40.2187 67.821 40.0801 67.4738 40.0091C67.3801 39.9931 67.2735 39.9781 67.1549 39.9624L66.1481 39.8078C65.509 39.7135 64.9961 39.5042 64.6089 39.18C64.158 38.8011 63.9344 38.2686 63.9344 37.5814C63.9344 36.65 64.3083 35.9832 65.0578 35.5807C65.492 35.3437 66.0095 35.2251 66.6107 35.2251C67.4388 35.2251 68.1533 35.4424 68.7544 35.8763C68.8644 35.9632 68.978 36.0582 69.0967 36.1608L68.6708 36.5747C68.1732 36.1019 67.5774 35.8413 66.8829 35.7936C66.7876 35.7859 66.6857 35.7819 66.574 35.7819C65.6423 35.7819 65.0265 36.1059 64.7275 36.7527C64.6239 36.9899 64.5739 37.2579 64.5739 37.5584C64.5739 38.0633 64.7225 38.4422 65.0228 38.6951C65.3384 38.9557 65.7659 39.1333 66.3018 39.2277L67.2382 39.3696C67.8927 39.4563 68.3902 39.6342 68.7294 39.9031C68.7458 39.9105 68.7611 39.9221 68.7777 39.9381C69.2819 40.3573 69.5355 40.9132 69.5355 41.6077Z" fill="#1A1919"/>
<path fill-rule="evenodd" clip-rule="evenodd" d="M74.0766 35.8751V43.9282H73.4255V35.8751H70.8562V35.2949H76.6576V35.8751H74.0766Z" fill="#1A1919"/>
<path fill-rule="evenodd" clip-rule="evenodd" d="M80.9032 36.1716L79.1037 41.2518H82.7147L80.9032 36.1716ZM83.6744 43.9281L82.9166 41.832H78.8898L78.1436 43.9281H77.4338L80.6193 35.2952H81.1988L84.3726 43.9281H83.6744Z" fill="#1A1919"/>
<path fill-rule="evenodd" clip-rule="evenodd" d="M88.3808 35.8751V43.9282H87.7297V35.8751H85.1604V35.2949H90.9618V35.8751H88.3808Z" fill="#1A1919"/>
<path fill-rule="evenodd" clip-rule="evenodd" d="M92.8984 43.9281V35.2952H98.1323V35.875H93.5496V39.2861H97.4578V39.8662H93.5496V43.3479H98.1323V43.9281H92.8984Z" fill="#1A1919"/>
<path fill-rule="evenodd" clip-rule="evenodd" d="M22.1343 32.7311H98.4281V32.1187H22.1343V32.7311Z" fill="#F44842"/>
</svg>