<svg version="1.2" xmlns="http://www.w3.org/2000/svg" viewBox="0 0 1080 1080" width="1080" height="1080">
	<title>final digi</title>
	<style>
		tspan { white-space:pre } 
		.t0 { font-size: 69px;fill: #231f20;font-weight: 500;font-family: "Palo" } 
		.s1 { fill: #ffffff } 
		.s2 { fill: #231f20 } 
	</style>
	<g id="Layer 1">
		<text id="DIGITEXSOL
" style="transform: matrix(1,0,0,1,-870.3,380.934)" >
			<tspan x="0" y="0" class="t0">DIGITEXSOL
</tspan>
		</text>
		<g id="&lt;Group&gt;">
			<g id="&lt;Group&gt;">
				<path id="&lt;Path&gt;" class="s1" d="m415.3 581.4c4.2 1.2 7.7 2.1 11.1 3.2 18.7 5.9 37.3 12 56 17.7 3.4 1 4.1 2.4 4 5.6-0.4 17.1-0.6 34.3-1 51.5-0.1 3.4 0.8 4.7 4.4 4.6q36.9-0.1 73.9 0.1c3.5 0 5-0.9 4.9-4.8-0.1-18.8 0-37.7 0-57-27.1-8.7-54.5-17.5-82-26.4-22.5-7.4-45-15-67.6-22.3-3.3-1.1-4.2-2.5-4.1-6 0.2-21.4 0.1-42.7 0.1-64.1 0-1.8 0-3.6 0-5.9 11.8 3.6 22.8 7 33.9 10.3 30.8 9.4 61.7 18.7 92.5 28.3 31.2 9.7 62.4 19.7 93.6 29.4 3 0.9 3.8 2.2 3.8 5.2 0 46.4 0.1 92.8-0.1 139.2 0 2.9-1.4 6.6-3.4 8.7-11.9 12.9-24.1 25.4-36.4 37.8-1.7 1.6-4.8 2.4-7.2 2.4-31.3 0.2-62.6 0.2-93.9 0.2-25.9 0-51.9 0-77.9 0.1-3.5 0-4.9-0.7-4.9-4.6 0.1-49.3 0-98.5 0-147.7 0-1.5 0.2-2.9 0.3-5.5z"/>
				<path id="&lt;Path&gt;" class="s1" d="m485 473.1c-3.8-0.9-7.4-1.6-10.8-2.6-18.6-5.8-37.1-11.8-55.6-17.4-2.9-0.9-3.7-2.1-3.7-4.9 0.1-34.2 0.2-68.4 0.1-102.6 0-4.1 1.4-4.9 5.2-4.9 56.1 0 112.1-0.1 168.2 0 2.5 0 5.7 1.1 7.5 2.8q20.1 18.5 39.6 37.5c1.9 1.8 3.3 5.1 3.3 7.7 0.1 42.2 0.1 84.4 0 126.6 0 2.2-0.3 4.4-0.5 7.3-8.8-2.7-16.7-5.1-24.6-7.6-14.1-4.4-28.1-9-42.3-13.2-3.5-1.1-4.6-2.9-4.5-6.5 0.1-24.2-0.1-48.3 0.2-72.5 0.1-5.1-1.3-6.6-6.4-6.6-23.4 0.3-46.9 0.2-70.4 0.1-4.1 0-5.3 1.4-5.2 5.5 0.4 16.3 0.4 32.7 0.6 49 0 0.5-0.3 0.9-0.7 2.3z"/>
			</g>
		</g>
		<text id="DIGITEXSOL
" style="transform: matrix(1,0,0,1,-407.3,772.934)" >
			<tspan x="0" y="0" class="t0">DIGITEXSOL
</tspan>
		</text>
		<g id="&lt;Group&gt;">
			<g id="&lt;Group&gt;">
				<path id="&lt;Path&gt;" class="s2" d="m-406.7 547.4c4.2 1.2 7.7 2.1 11.1 3.2 18.7 5.9 37.3 12 56 17.7 3.4 1 4.1 2.4 4 5.6-0.4 17.1-0.6 34.3-1 51.5-0.1 3.4 0.8 4.7 4.4 4.6q36.9-0.1 73.9 0.1c3.5 0 5-0.9 4.9-4.8-0.1-18.8 0-37.7 0-57-27.1-8.7-54.5-17.5-82-26.4-22.5-7.4-45-15-67.6-22.3-3.3-1.1-4.2-2.5-4.1-6 0.2-21.4 0.1-42.7 0.1-64.1 0-1.8 0-3.6 0-5.9 11.8 3.6 22.8 7 33.9 10.3 30.8 9.4 61.7 18.7 92.5 28.3 31.2 9.7 62.4 19.7 93.6 29.4 3 0.9 3.8 2.2 3.8 5.2 0 46.4 0.1 92.8-0.1 139.2 0 2.9-1.4 6.6-3.4 8.7-11.9 12.9-24.1 25.4-36.4 37.8-1.7 1.6-4.8 2.4-7.2 2.4-31.3 0.2-62.6 0.2-93.9 0.2-25.9 0-51.9 0-77.9 0.1-3.5 0-4.9-0.7-4.9-4.6 0.1-49.3 0-98.5 0-147.7 0-1.5 0.2-2.9 0.3-5.5z"/>
				<path id="&lt;Path&gt;" class="s2" d="m-337 439.1c-3.8-0.9-7.4-1.6-10.8-2.6-18.6-5.8-37.1-11.8-55.6-17.4-2.9-0.9-3.7-2.1-3.7-4.9 0.1-34.2 0.2-68.4 0.1-102.6 0-4.1 1.4-4.9 5.2-4.9 56.1 0 112.1-0.1 168.2 0 2.5 0 5.7 1.1 7.5 2.8q20.1 18.5 39.6 37.5c1.9 1.8 3.3 5.1 3.3 7.7 0.1 42.2 0.1 84.4 0 126.6 0 2.2-0.3 4.4-0.5 7.3-8.8-2.7-16.7-5.1-24.6-7.6-14.1-4.4-28.1-9-42.3-13.2-3.5-1.1-4.6-2.9-4.5-6.5 0.1-24.2-0.1-48.3 0.2-72.5 0.1-5.1-1.3-6.6-6.4-6.6-23.4 0.3-46.9 0.2-70.4 0.1-4.1 0-5.3 1.4-5.2 5.5 0.4 16.3 0.4 32.7 0.6 49 0 0.5-0.3 0.9-0.7 2.3z"/>
			</g>
		</g>
		<g id="&lt;Group&gt;">
			<g id="&lt;Group&gt;">
				<path id="&lt;Path&gt;" class="s2" d="m-406.7-102.6c4.2 1.2 7.7 2.1 11.1 3.2 18.7 5.9 37.3 12 56 17.7 3.4 1 4.1 2.4 4 5.6-0.4 17.1-0.6 34.3-1 51.5-0.1 3.4 0.8 4.7 4.4 4.6q36.9-0.1 73.9 0.1c3.5 0 5-0.9 4.9-4.8-0.1-18.8 0-37.7 0-57-27.1-8.7-54.5-17.5-82-26.4-22.5-7.4-45-15-67.6-22.3-3.3-1.1-4.2-2.5-4.1-6 0.2-21.4 0.1-42.7 0.1-64.1 0-1.8 0-3.6 0-5.9 11.8 3.6 22.8 7 33.9 10.3 30.8 9.4 61.7 18.7 92.5 28.3 31.2 9.7 62.4 19.7 93.6 29.4 3 0.9 3.8 2.2 3.8 5.2 0 46.4 0.1 92.8-0.1 139.2 0 2.9-1.4 6.6-3.4 8.7-11.9 12.9-24.1 25.4-36.4 37.8-1.7 1.6-4.8 2.4-7.2 2.4-31.3 0.2-62.6 0.2-93.9 0.2-25.9 0-51.9 0-77.9 0.1-3.5 0-4.9-0.7-4.9-4.6 0.1-49.3 0-98.5 0-147.7 0-1.5 0.2-2.9 0.3-5.5z"/>
				<path id="&lt;Path&gt;" class="s2" d="m-337-210.9c-3.8-0.9-7.4-1.6-10.8-2.6-18.6-5.8-37.1-11.8-55.6-17.4-2.9-0.9-3.7-2.1-3.7-4.9 0.1-34.2 0.2-68.4 0.1-102.6 0-4.1 1.4-4.9 5.2-4.9 56.1 0 112.1-0.1 168.2 0 2.5 0 5.7 1.1 7.5 2.8q20.1 18.5 39.6 37.5c1.9 1.8 3.3 5.1 3.3 7.7 0.1 42.2 0.1 84.4 0 126.6 0 2.2-0.3 4.4-0.5 7.3-8.8-2.7-16.7-5.1-24.6-7.6-14.1-4.4-28.1-9-42.3-13.2-3.5-1.1-4.6-2.9-4.5-6.5 0.1-24.2-0.1-48.3 0.2-72.5 0.1-5.1-1.3-6.6-6.4-6.6-23.4 0.3-46.9 0.2-70.4 0.1-4.1 0-5.3 1.4-5.2 5.5 0.4 16.3 0.4 32.7 0.6 49 0 0.5-0.3 0.9-0.7 2.3z"/>
			</g>
		</g>
		<text id="DIGITEXSOL
" style="transform: matrix(1,0,0,1,263.7,-52.066)" >
			<tspan x="0" y="0" class="t0">DIGITEXSOL
</tspan>
		</text>
		<g id="&lt;Group&gt;">
			<g id="&lt;Group&gt;">
				<path id="&lt;Path&gt;" class="s2" d="m264.3-277.6c4.2 1.2 7.7 2.1 11.1 3.2 18.7 5.9 37.3 12 56 17.7 3.4 1 4.1 2.4 4 5.6-0.4 17.1-0.6 34.3-1 51.5-0.1 3.4 0.8 4.7 4.4 4.6q36.9-0.1 73.9 0.1c3.5 0 5-0.9 4.9-4.8-0.1-18.8 0-37.7 0-57-27.1-8.7-54.5-17.5-82-26.4-22.5-7.4-45-15-67.6-22.3-3.3-1.1-4.2-2.5-4.1-6 0.2-21.4 0.1-42.7 0.1-64.1 0-1.8 0-3.6 0-5.9 11.8 3.6 22.8 7 33.9 10.3 30.8 9.4 61.7 18.7 92.5 28.3 31.2 9.7 62.4 19.7 93.6 29.4 3 0.9 3.8 2.2 3.8 5.2 0 46.4 0.1 92.8-0.1 139.2 0 2.9-1.4 6.6-3.4 8.7-11.9 12.9-24.1 25.4-36.4 37.8-1.7 1.6-4.8 2.4-7.2 2.4-31.3 0.2-62.6 0.2-93.9 0.2-25.9 0-51.9 0-77.9 0.1-3.5 0-4.9-0.7-4.9-4.6 0.1-49.3 0-98.5 0-147.7 0-1.5 0.2-2.9 0.3-5.5z"/>
				<path id="&lt;Path&gt;" class="s2" d="m334-385.9c-3.8-0.9-7.4-1.6-10.8-2.6-18.6-5.8-37.1-11.8-55.6-17.4-2.9-0.9-3.7-2.1-3.7-4.9 0.1-34.2 0.2-68.4 0.1-102.6 0-4.1 1.4-4.9 5.2-4.9 56.1 0 112.1-0.1 168.2 0 2.5 0 5.7 1.1 7.5 2.8q20.1 18.5 39.6 37.5c1.9 1.8 3.3 5.1 3.3 7.7 0.1 42.2 0.1 84.4 0 126.6 0 2.2-0.3 4.4-0.5 7.3-8.8-2.7-16.7-5.1-24.6-7.6-14.1-4.4-28.1-9-42.3-13.2-3.5-1.1-4.6-2.9-4.5-6.5 0.1-24.2-0.1-48.3 0.2-72.5 0.1-5.1-1.3-6.6-6.4-6.6-23.4 0.3-46.9 0.2-70.4 0.1-4.1 0-5.3 1.4-5.2 5.5 0.4 16.3 0.4 32.7 0.6 49 0 0.5-0.3 0.9-0.7 2.3z"/>
			</g>
		</g>
	</g>
</svg>