<svg width="165" height="100" viewBox="0 0 165 100" fill="none" xmlns="http://www.w3.org/2000/svg">
<mask id="mask0_18847_6020" style="mask-type:luminance" maskUnits="userSpaceOnUse" x="4" y="32" width="157" height="36">
<path d="M160.07 32H4V68H160.07V32Z" fill="white"/>
</mask>
<g mask="url(#mask0_18847_6020)">
<path d="M143.565 63.1596C143.403 63.239 143.304 63.2817 143.211 63.3342C142.276 63.879 141.339 64.4241 140.402 64.9697C140.271 65.0454 140.13 65.1029 139.995 65.1737C139.612 65.3777 138.959 65.1065 138.809 64.6265C138.751 64.456 138.718 64.2778 138.71 64.0976C138.7 63.0191 138.71 61.9418 138.71 60.8645V60.4737C138.555 60.5494 138.449 60.5958 138.344 60.652C137.357 61.2285 136.37 61.8054 135.383 62.3828C135.112 62.5415 134.83 62.627 134.512 62.5183C134.309 62.449 134.134 62.3169 134.011 62.1412C133.888 61.9655 133.825 61.7554 133.829 61.5412C133.815 61.0136 133.829 60.4847 133.829 59.9534V57.469C133.689 57.3969 133.614 57.469 133.529 57.5228L130.618 59.2205C130.374 59.361 130.13 59.4868 129.848 59.4563C129.314 59.3988 129.023 59.0422 128.95 58.5084C128.944 58.4271 128.944 58.3455 128.95 58.2642C128.95 52.7434 128.95 47.2229 128.95 41.703C128.95 41.5415 128.966 41.3803 128.996 41.2217C129.065 40.8785 129.307 40.6709 129.595 40.5023C130.725 39.8509 131.854 39.1958 132.982 38.5371L141.006 33.8652C141.984 33.296 142.961 32.7207 143.938 32.1552C144.451 31.8584 145.088 31.9939 145.336 32.4776C145.427 32.6912 145.472 32.9212 145.47 33.1531C145.489 33.6197 145.47 34.0875 145.47 34.5553C145.47 35.2881 145.47 36.021 145.47 36.7538C145.47 36.8759 145.492 36.9871 145.507 37.152C145.682 37.064 145.816 37.0042 145.943 36.9297C146.877 36.389 147.807 35.8451 148.734 35.2979C148.98 35.1324 149.278 35.0621 149.572 35.1C149.759 35.1247 149.934 35.2095 150.068 35.3417C150.203 35.4739 150.29 35.6463 150.319 35.8329C150.348 36.0028 150.364 36.1747 150.366 36.3471C150.366 37.3633 150.366 38.3807 150.366 39.4006C150.366 39.5228 150.394 39.6449 150.414 39.8257C150.727 39.6522 150.993 39.5093 151.252 39.3579C152.055 38.8888 152.858 38.4178 153.658 37.9447C154.06 37.7077 154.459 37.6601 154.855 37.9447C154.953 38.0087 155.034 38.0941 155.094 38.1944C155.154 38.2947 155.191 38.4073 155.201 38.5236C155.213 38.7056 155.227 38.8901 155.227 39.0708C155.227 40.1078 155.227 41.1472 155.227 42.1818C155.227 42.3039 155.191 42.4468 155.33 42.5677C155.512 42.4651 155.696 42.365 155.877 42.2612C156.771 41.7433 157.668 41.234 158.555 40.7051C159.107 40.3753 159.767 40.5719 160.02 41.2193C160.045 41.2856 160.057 41.3553 160.059 41.4257C160.059 41.5381 160.059 41.6505 160.059 41.7616C160.059 47.3133 160.059 52.8643 160.059 58.4144C160.059 58.7344 159.993 59.0251 159.767 59.2437C159.647 59.3516 159.512 59.4435 159.368 59.5173C156.274 61.3201 153.179 63.1226 150.085 64.9245C148.407 65.9017 146.732 66.8849 145.053 67.8559C144.645 68.0929 144.076 68.0147 143.793 67.7069C143.634 67.5347 143.551 67.3068 143.559 67.073C143.559 66.1276 143.559 65.1822 143.559 64.2357L143.565 63.1596ZM130.902 56.785L131.426 56.4858C132.159 56.0656 132.878 55.643 133.607 55.2277C133.762 55.1398 133.865 55.0421 133.833 54.8491C133.828 54.778 133.828 54.7064 133.833 54.6353C133.833 51.3326 133.833 48.0303 133.833 44.7284C133.822 44.5108 133.875 44.2946 133.982 44.1054C134.091 43.9163 134.251 43.762 134.444 43.6609C136.561 42.4346 138.675 41.2034 140.787 39.9673C141.617 39.4837 142.448 39.0008 143.278 38.5187C143.374 38.4754 143.454 38.4036 143.508 38.3131C143.562 38.2227 143.586 38.1179 143.578 38.0131C143.56 37.0066 143.578 36.0002 143.569 34.995C143.569 34.8997 143.552 34.8032 143.535 34.642L130.902 42.0047V56.785ZM145.532 65.3349C146.983 64.5141 148.367 63.6872 149.762 62.8787C151.156 62.0701 152.542 61.2615 153.93 60.4517C155.319 59.6419 156.72 58.8187 158.099 58.0089C158.166 57.2687 158.134 43.5229 158.062 43.2823C158.006 43.2934 157.95 43.3106 157.897 43.3336C157.075 43.8111 156.257 44.2936 155.434 44.77C155.37 44.8013 155.318 44.8504 155.281 44.9114C155.245 44.9722 155.227 45.0423 155.23 45.1132C155.23 45.2255 155.23 45.3367 155.23 45.4491C155.23 48.7615 155.23 52.0744 155.23 55.3877C155.23 55.5709 155.213 55.7541 155.207 55.9361C155.199 56.0425 155.17 56.1461 155.12 56.2401C155.07 56.3342 155 56.4166 154.916 56.4821C154.816 56.5671 154.707 56.6415 154.592 56.7044C151.639 58.425 148.684 60.1443 145.728 61.8624C145.649 61.9024 145.583 61.9654 145.539 62.0435C145.495 62.1214 145.477 62.2107 145.484 62.2997C145.492 63.184 145.484 64.0683 145.484 64.9514C145.493 65.0784 145.507 65.2048 145.531 65.33L145.532 65.3349ZM153.333 46.0463C153.168 46.1208 153.068 46.1575 152.976 46.21C152.197 46.6607 151.424 47.1212 150.64 47.5621C150.554 47.6006 150.482 47.6652 150.435 47.7468C150.387 47.8283 150.366 47.9227 150.376 48.0165C150.385 49.2965 150.376 50.5814 150.376 51.8566C150.376 52.223 150.376 52.5895 150.376 52.9559C150.376 53.4151 150.196 53.7779 149.777 54.0039C149.533 54.1333 149.302 54.2726 149.065 54.4094C147.948 55.0607 146.829 55.7122 145.709 56.3636C145.636 56.3967 145.575 56.4511 145.532 56.5197C145.49 56.5884 145.471 56.6681 145.474 56.7484C145.482 57.6315 145.474 58.5158 145.474 59.4001C145.485 59.5047 145.504 59.6084 145.529 59.7103C145.652 59.6505 145.719 59.6187 145.786 59.5784C148.198 58.1762 150.612 56.7744 153.024 55.3731C153.123 55.3268 153.206 55.2513 153.261 55.1569C153.316 55.0623 153.342 54.9533 153.333 54.8442C153.322 52.0349 153.326 49.2367 153.326 46.4323L153.333 46.0463ZM143.545 40.6074C143.402 40.6782 143.3 40.7295 143.194 40.7845C142.092 41.4237 140.993 42.0641 139.896 42.7058C138.613 43.4541 137.329 44.202 136.044 44.9495C135.877 45.046 135.769 45.1425 135.77 45.3697C135.779 48.1435 135.77 50.9173 135.77 53.69C135.77 53.7559 135.786 53.8231 135.8 53.9342L138.708 52.2426V51.8896C138.708 50.386 138.708 48.8825 138.708 47.3789C138.708 46.8903 138.897 46.5239 139.331 46.287C139.453 46.2247 139.559 46.1575 139.673 46.0915C140.878 45.3892 142.083 44.6845 143.292 43.987C143.383 43.9446 143.459 43.8748 143.51 43.7873C143.56 43.6998 143.582 43.5989 143.573 43.4985C143.558 42.6435 143.573 41.7885 143.573 40.9335C143.565 40.8529 143.554 40.7552 143.545 40.6074ZM148.43 48.8922C148.334 48.9362 148.262 48.9606 148.197 48.9985C147.376 49.4748 146.558 49.9573 145.732 50.4251C145.65 50.4641 145.583 50.5266 145.538 50.6047C145.493 50.6826 145.472 50.7724 145.478 50.8624C145.478 51.8676 145.478 52.8716 145.478 53.8768C145.487 53.9767 145.501 54.0759 145.524 54.1736C145.577 54.1637 145.627 54.1486 145.676 54.1284C146.531 53.6313 147.386 53.1281 148.241 52.6359C148.312 52.5997 148.37 52.5427 148.408 52.4723C148.446 52.4021 148.462 52.3218 148.452 52.2426C148.445 51.2178 148.452 50.193 148.452 49.167C148.453 49.0901 148.44 49.0119 148.43 48.8922ZM138.659 54.5718C138.639 54.5718 138.616 54.562 138.603 54.5718C137.707 55.0872 136.815 55.6027 135.925 56.1181C135.869 56.1513 135.824 56.2009 135.796 56.2602C135.768 56.3194 135.759 56.3857 135.769 56.4503C135.769 57.4971 135.769 58.5426 135.769 59.5894C135.769 59.6737 135.786 59.7579 135.8 59.8886L138.674 58.2507C138.737 57.8843 138.719 54.7941 138.658 54.5718H138.659ZM143.567 51.7748L143.496 51.7174C142.541 52.2499 141.603 52.8105 140.674 53.3553C140.614 53.966 140.64 56.7752 140.71 57.0037C140.782 56.9695 140.856 56.9414 140.923 56.9011C141.717 56.4381 142.511 55.9679 143.306 55.5147C143.393 55.4761 143.465 55.4114 143.513 55.3297C143.56 55.248 143.581 55.1534 143.573 55.0592C143.56 54.0649 143.573 53.0695 143.573 52.0752L143.567 51.7748ZM148.452 43.2823C148.381 43.2978 148.313 43.3194 148.246 43.347C147.391 43.8453 146.536 44.351 145.681 44.842C145.617 44.8723 145.565 44.9212 145.529 44.982C145.495 45.0428 145.479 45.1128 145.484 45.1828C145.484 46.1269 145.484 47.0723 145.484 48.0165C145.495 48.106 145.516 48.1941 145.546 48.2791C145.676 48.207 145.765 48.1569 145.852 48.1093C146.638 47.6513 147.421 47.1871 148.213 46.7401C148.293 46.7015 148.361 46.6388 148.405 46.5608C148.447 46.4827 148.467 46.3931 148.457 46.3041C148.447 45.41 148.457 44.5159 148.457 43.6169L148.452 43.2823ZM150.397 45.4063C150.464 45.392 150.529 45.3716 150.592 45.3452C151.44 44.8567 152.285 44.3596 153.134 43.8698C153.201 43.8367 153.256 43.7839 153.293 43.7184C153.329 43.6529 153.344 43.5778 153.337 43.5033C153.327 42.6007 153.337 41.6969 153.337 40.793C153.337 40.7051 153.324 40.6171 153.317 40.5365C153.13 40.4522 153.024 40.589 152.912 40.6513C152.146 41.0825 151.391 41.5332 150.625 41.9631C150.54 42.0031 150.468 42.069 150.421 42.1515C150.374 42.2341 150.354 42.3292 150.364 42.4236C150.372 43.2957 150.364 44.169 150.364 45.0423C150.365 45.1486 150.383 45.2561 150.398 45.4063H150.397ZM140.673 51.0688C140.746 51.0431 140.818 51.013 140.888 50.9784C141.716 50.4898 142.543 50.0013 143.372 49.5237C143.438 49.4866 143.492 49.4308 143.526 49.3635C143.56 49.2962 143.574 49.2202 143.565 49.1451C143.565 48.2314 143.565 47.3129 143.565 46.4042C143.56 46.3179 143.552 46.2317 143.537 46.1465C143.444 46.1742 143.355 46.2085 143.267 46.2491C142.473 46.7132 141.679 47.1847 140.888 47.6415C140.81 47.6748 140.744 47.732 140.7 47.8048C140.656 47.8776 140.636 47.9624 140.644 48.047C140.655 48.9606 140.644 49.8791 140.644 50.7891C140.652 50.8746 140.666 50.9613 140.673 51.0688ZM148.453 37.7737C148.363 37.8055 148.274 37.8426 148.187 37.8848C147.355 38.3624 146.527 38.8461 145.693 39.3212C145.625 39.3534 145.567 39.4056 145.528 39.471C145.49 39.5365 145.473 39.612 145.478 39.6876C145.478 40.5903 145.478 41.4941 145.478 42.398C145.488 42.4894 145.506 42.5798 145.532 42.6679C145.605 42.63 145.641 42.6129 145.675 42.5934C146.541 42.0926 147.405 41.5914 148.271 41.0898C148.333 41.056 148.383 41.0046 148.416 40.9422C148.447 40.8797 148.461 40.8091 148.452 40.7393C148.452 39.866 148.452 38.9927 148.452 38.1206L148.453 37.7737ZM143.548 57.6376C142.53 58.2031 141.594 58.7662 140.671 59.3121V62.5354C140.793 62.4805 140.881 62.4451 140.965 62.3962C141.752 61.9382 142.533 61.4716 143.324 61.0209C143.404 60.9812 143.471 60.9179 143.514 60.8393C143.558 60.7607 143.576 60.6706 143.568 60.5812C143.558 59.7176 143.568 58.8541 143.568 57.9906C143.565 57.9026 143.557 57.8134 143.548 57.6376Z" fill="white"/>
<path d="M31.0199 44.0578C31.3411 44.0578 31.6123 44.0505 31.8834 44.0578C32.0434 44.0639 32.0715 44.1946 32.0728 44.3228C32.0728 44.6074 32.0728 44.892 32.0728 45.1778C32.0728 45.7238 32.0215 45.6908 32.6407 45.8313C32.8426 45.8632 33.0474 45.8721 33.2514 45.8581C33.4957 45.8581 33.569 45.7836 33.5751 45.5223C33.5812 45.2609 33.5751 45.0142 33.5751 44.7601V43.7024H34.5693C34.5914 43.8236 34.6068 43.9459 34.6157 44.0688C34.6219 44.4963 34.6157 44.9238 34.6157 45.35C34.6157 45.6701 34.6451 45.7165 34.9504 45.8007C35.3266 45.9082 35.7126 45.8655 36.1266 45.8667C36.1779 44.9702 36.1144 44.1005 36.1633 43.2248C36.4585 43.1698 36.7603 43.1595 37.0586 43.1942C37.1123 43.1942 37.1807 43.2871 37.2076 43.3506C37.2279 43.4207 37.2346 43.4941 37.2271 43.5668C37.2271 44.5537 37.2271 45.5402 37.2271 46.5263C37.2271 46.878 37.2027 46.9025 36.8436 46.9049C36.5175 46.9049 36.1926 46.9049 35.8665 46.9049C35.2008 46.9049 35.0335 46.9049 34.3421 46.5873C34.005 46.9257 33.5641 46.9379 33.1085 46.9391C32.6575 46.9485 32.2125 46.8349 31.8211 46.6105C31.7945 46.6176 31.7694 46.6292 31.7466 46.6447C31.473 46.889 31.1543 46.9611 30.7903 46.9599C28.7664 46.9501 26.7413 46.9599 24.7162 46.9599C24.1055 46.9599 23.4948 46.9525 22.8841 46.9599C22.4175 46.9783 21.9563 46.8562 21.56 46.6093C21.5307 46.6154 21.5063 46.6093 21.4929 46.6252C21.1802 46.9159 20.8052 46.9916 20.3936 46.9599C20.2004 46.9483 20.0066 46.9483 19.8134 46.9599C19.2937 46.9991 18.7755 46.8669 18.3379 46.5837C17.9715 47.0173 17.4756 46.9684 16.9858 46.9586C16.5608 46.9489 16.1308 47.0099 15.718 46.8451C15.4676 46.7449 15.2294 46.613 14.9485 46.4786C14.7548 46.656 14.5273 46.7923 14.2796 46.8794C14.032 46.9665 13.7692 47.0026 13.5072 46.9855C12.9923 46.9629 12.4968 46.7825 12.0879 46.4689C11.8437 46.6215 11.6336 46.7547 11.421 46.8817C11.3779 46.9092 11.3281 46.9244 11.2769 46.9257C10.7883 46.9135 10.2998 46.9892 9.81976 46.8585C9.37395 46.7363 9.1431 46.4334 9.02707 45.9974C8.9498 45.6401 8.92023 45.2742 8.93912 44.9091V40.5755C8.93912 40.2335 8.95378 40.2201 9.30555 40.2164H9.99809C10.0066 40.3496 10.0176 40.4473 10.0176 40.545C10.0176 42.1304 10.0176 43.7182 10.0176 45.3085C10.0176 45.885 10.0176 45.8875 10.5893 45.8814C10.7908 45.8814 10.9935 45.9046 11.1816 45.7873C11.3322 45.7038 11.4443 45.5649 11.4943 45.4001C11.6305 44.9166 11.8362 44.4554 12.105 44.0309C12.5594 43.3506 13.1774 43.0147 13.9921 43.1759C14.5186 43.2785 14.8667 43.6156 15.1354 44.0492C15.3663 44.4341 15.4634 44.8847 15.4114 45.3305C15.3821 45.6652 15.3809 45.6786 15.7192 45.7702C15.9345 45.8239 16.1546 45.8558 16.3763 45.8655C16.6512 45.8814 16.926 45.8728 17.2008 45.8655C17.533 45.8655 17.5868 45.8105 17.5892 45.4685C17.5892 44.8383 17.5892 44.208 17.5892 43.5778V43.2236C17.9183 43.1838 18.2506 43.1777 18.581 43.2052C18.6035 43.3354 18.619 43.4667 18.6274 43.5985C18.6274 44.1372 18.6274 44.6758 18.6274 45.2145C18.6253 45.3057 18.6282 45.3971 18.636 45.4881C18.635 45.5499 18.6561 45.6101 18.6956 45.6577C18.7349 45.7054 18.79 45.7375 18.8509 45.7482C19.0162 45.7956 19.1849 45.8307 19.3554 45.8533C19.7108 45.8716 20.0675 45.8679 20.4229 45.8643C20.4634 45.8695 20.5046 45.866 20.5437 45.8539C20.5827 45.8419 20.6187 45.8215 20.6492 45.7943C20.6796 45.767 20.7039 45.7336 20.7203 45.6961C20.7367 45.6587 20.7447 45.6181 20.7441 45.5772C20.7517 45.496 20.7538 45.4144 20.7502 45.3329C20.7502 44.743 20.7502 44.1531 20.7502 43.5643C20.7502 43.4544 20.76 43.3445 20.7649 43.2138H21.7261C21.7359 43.3274 21.7542 43.4434 21.7555 43.5594C21.7555 44.1494 21.7555 44.7393 21.7555 45.3281C21.7555 45.6273 21.7872 45.6847 22.073 45.7568C22.2972 45.8189 22.5281 45.8529 22.7607 45.8581C24.8469 45.8667 26.9318 45.8581 29.018 45.8655C29.5579 45.8655 30.0965 45.8655 30.6364 45.8655C30.9576 45.8655 31.0101 45.8117 31.015 45.4917C31.015 45.1461 31.015 44.8004 31.015 44.4547L31.0199 44.0578ZM12.4324 45.5736C12.6722 45.719 12.9385 45.8156 13.2159 45.8575C13.4932 45.8994 13.7762 45.886 14.0483 45.8178C14.1242 45.8044 14.1966 45.7759 14.2613 45.7338C14.3259 45.6918 14.3813 45.6372 14.4243 45.5732C14.4673 45.5092 14.497 45.4372 14.5115 45.3615C14.526 45.2858 14.5251 45.208 14.5088 45.1326C14.4587 44.8974 14.369 44.6723 14.2437 44.467C14.1282 44.2969 13.951 44.1785 13.7497 44.1368C13.5484 44.0951 13.3388 44.1333 13.1652 44.2434C12.7157 44.5586 12.5301 45.0251 12.4324 45.5736Z" fill="white"/>
<path d="M78.7389 45.5577C79.1652 45.7947 79.5793 45.8179 79.997 45.8191C80.0588 45.8256 80.1208 45.8081 80.1703 45.7705C80.2198 45.7329 80.253 45.6776 80.2633 45.6163C80.2948 45.5107 80.3132 45.4016 80.3182 45.2914C80.3243 44.7113 80.3182 44.1323 80.3182 43.5534V43.1869C80.6522 43.1525 80.9884 43.1467 81.3235 43.1698V43.5631C81.3235 44.1018 81.3235 44.6416 81.3235 45.1803C81.3235 45.5467 81.4151 45.6689 81.7827 45.7287C82.064 45.7702 82.3474 45.7959 82.6316 45.8057C82.8649 45.8166 83.0994 45.8057 83.3327 45.8057C83.3607 45.8102 83.3892 45.808 83.4162 45.7994C83.4432 45.7907 83.4678 45.776 83.488 45.7562C83.5082 45.7363 83.5235 45.712 83.5325 45.6851C83.5417 45.6583 83.5442 45.6298 83.5403 45.6017C83.5403 45.4795 83.5403 45.3574 83.5403 45.2352C83.5403 43.649 83.5403 42.0632 83.5403 40.4778C83.5403 40.3875 83.5501 40.2971 83.5562 40.1835C83.8945 40.0919 84.2243 40.1542 84.5419 40.1444C84.6237 40.3887 84.6543 46.2454 84.5822 46.806C84.482 46.8145 84.3733 46.8329 84.2658 46.8329C83.6759 46.8329 83.0847 46.8243 82.4948 46.8329C82.0545 46.8586 81.6163 46.7549 81.2343 46.5348C81.2157 46.5181 81.1941 46.5053 81.1705 46.4971C81.147 46.4888 81.122 46.4854 81.0972 46.4868C81.0723 46.4883 81.0479 46.4947 81.0255 46.5056C81.0032 46.5166 80.9832 46.5319 80.9668 46.5507C80.8511 46.6577 80.7138 46.7386 80.5642 46.7879C80.4146 46.8373 80.2562 46.8539 80.0996 46.8365C79.7442 46.8231 79.3851 46.8597 79.0443 46.7254C78.8574 46.6509 78.6779 46.5739 78.4641 46.4896C78.4092 46.5379 78.3503 46.5816 78.2882 46.6203C78.1465 46.6948 78.0012 46.8121 77.8546 46.817C77.2708 46.8365 76.6735 46.9257 76.1263 46.6118C76.0756 46.577 76.0143 46.5609 75.9531 46.5661C75.8918 46.5715 75.8343 46.598 75.7904 46.6411C75.5967 46.7922 75.3539 46.8662 75.1089 46.8487C72.4633 46.8487 69.8169 46.8487 67.1697 46.8487C66.6139 46.8487 66.2145 46.6338 65.9959 46.1159C65.9631 46.0426 65.9412 45.9648 65.9312 45.885C65.9129 45.653 65.8945 45.4185 65.8945 45.1852C65.8945 43.6608 65.8945 42.1361 65.8945 40.611C65.8945 40.4705 65.9104 40.33 65.9202 40.1676H66.8973C66.9059 40.2897 66.923 40.3923 66.923 40.4998C66.923 42.0657 66.923 43.6311 66.923 45.1962C66.923 45.2572 66.923 45.3183 66.923 45.3794C66.9364 45.6811 67.0133 45.7617 67.3065 45.7617C69.7994 45.7617 72.2923 45.7617 74.784 45.7617C75.0784 45.7617 75.2017 45.6273 75.2005 45.3378C75.2005 45.013 75.2005 44.6881 75.2005 44.3607C75.2005 44.2606 75.2005 44.1604 75.2005 44.037H76.1972C76.2155 44.5354 76.1972 45.0301 76.2082 45.5211C76.2635 45.5882 76.3325 45.6428 76.4107 45.6812C76.4888 45.7195 76.5742 45.7408 76.6613 45.7434C76.8738 45.7605 77.0864 45.7959 77.2989 45.7983C77.6274 45.7983 77.6763 45.7556 77.68 45.4319C77.6873 44.9433 77.68 44.4548 77.68 43.9662C77.68 43.6547 77.6995 43.6376 78.0073 43.6328C78.2394 43.6328 78.4714 43.6328 78.7402 43.6328L78.7389 45.5577Z" fill="white"/>
<path d="M114.307 46.3665C113.983 46.866 113.491 46.8648 112.979 46.855C112.547 46.8452 112.124 46.8147 111.748 46.5851C111.703 46.5517 111.647 46.5365 111.591 46.5427C111.535 46.5488 111.484 46.5757 111.447 46.6181C111.243 46.7892 110.98 46.8726 110.715 46.8501C110.338 46.8404 109.961 46.8501 109.585 46.8501C109.258 46.8608 108.935 46.7814 108.65 46.6205C108.586 46.5706 108.505 46.5465 108.424 46.553C108.342 46.5596 108.266 46.5963 108.211 46.6559C108.046 46.7959 107.834 46.8656 107.618 46.8501C106.102 46.8501 104.587 46.8501 103.072 46.8501C102.684 46.8569 102.303 46.7434 101.981 46.5252C101.928 46.4783 101.858 46.4533 101.786 46.4551C101.715 46.457 101.647 46.4854 101.595 46.535C101.323 46.7337 100.995 46.8418 100.657 46.844C100.047 46.8514 99.436 46.8501 98.8253 46.8501C98.7709 46.8449 98.7169 46.8355 98.6641 46.822V45.8522C98.7862 45.8461 98.8937 45.8351 99.0024 45.8339C99.4189 45.8339 99.8366 45.8412 100.253 45.8339C100.456 45.8271 100.657 45.8017 100.855 45.7582C101.161 45.6935 101.285 45.4528 101.174 45.1609C101.064 44.8447 100.892 44.5539 100.667 44.3059C100.431 44.0616 100.179 43.8174 99.9343 43.5804C99.8708 43.5181 99.8036 43.4583 99.7243 43.3838C99.9093 43.1406 100.12 42.9182 100.353 42.7205C100.436 42.6399 100.526 42.6766 100.598 42.7425C101.194 43.2909 101.742 43.8809 102.044 44.6479C102.112 44.8799 102.158 45.1179 102.179 45.3588C102.19 45.4284 102.193 45.4992 102.2 45.5689C102.49 45.7441 102.826 45.8292 103.165 45.8132C104.528 45.8217 105.891 45.8132 107.254 45.8132C107.605 45.8132 107.678 45.7338 107.679 45.3759C107.679 44.7566 107.679 44.1361 107.679 43.5157V43.181C108.016 43.1524 108.354 43.1495 108.691 43.1725V43.5267C108.691 44.1166 108.691 44.7065 108.691 45.2953C108.691 45.553 108.753 45.6507 108.994 45.7154C109.521 45.8571 110.064 45.8303 110.601 45.807C110.783 45.7997 110.853 45.6849 110.855 45.4577C110.855 44.858 110.855 44.2583 110.855 43.6598V43.1822H111.859C111.868 43.3227 111.88 43.4412 111.88 43.5609C111.88 44.13 111.88 44.6992 111.88 45.2708C111.88 45.5982 111.953 45.691 112.268 45.7448C112.507 45.7902 112.749 45.8175 112.992 45.8266C113.565 45.8388 113.761 45.658 113.909 45.1096C114.059 44.4783 114.395 43.9065 114.873 43.468C115.687 42.7535 116.84 43.1016 117.341 43.7807C117.529 44.0344 117.656 44.328 117.712 44.6388C117.768 44.9496 117.752 45.2691 117.664 45.5725C117.383 46.6718 116.425 47.0749 115.495 46.9161C114.99 46.8159 114.778 46.706 114.307 46.3665ZM114.761 45.5542C115.372 45.8779 115.961 45.9438 116.443 45.7606C116.561 45.7277 116.663 45.6552 116.734 45.5557C116.805 45.4561 116.839 45.3353 116.831 45.2134C116.818 45.0327 116.777 44.8551 116.709 44.687C116.517 44.1862 115.941 43.9285 115.529 44.1862C115.038 44.4952 114.842 44.9911 114.761 45.5579V45.5542Z" fill="white"/>
<path d="M46.4014 45.8607V40.2422C46.695 40.1996 46.9927 40.1923 47.2881 40.2202C47.3944 40.2202 47.4457 40.3033 47.453 40.4059C47.453 40.4865 47.453 40.5683 47.453 40.6501C47.453 42.5914 47.453 44.5322 47.453 46.4726V46.5337C47.4457 46.883 47.4139 46.916 47.0646 46.9172C46.5052 46.9172 45.9458 46.9172 45.3864 46.9172C44.9357 46.9172 44.496 46.8598 44.0978 46.618C44.0273 46.5861 43.9535 46.562 43.8779 46.5459C43.5811 46.9123 43.1707 46.9624 42.7274 46.9575C41.5475 46.9465 40.3676 46.9575 39.1853 46.9575H38.8359V45.8912C39.1633 45.8912 39.4833 45.8839 39.8045 45.8827C40.1258 45.8815 40.4287 45.8827 40.7719 45.8827V41.9949C41.0695 41.9439 41.3729 41.9344 41.6733 41.9668C41.7258 41.9668 41.7954 42.0584 41.8199 42.1207C41.8378 42.2103 41.8423 42.3021 41.8333 42.3931C41.8333 43.4093 41.8333 44.4271 41.8333 45.4466C41.8333 45.5761 41.8492 45.7044 41.8589 45.8619C42.207 45.8619 42.5295 45.8692 42.852 45.8619C42.9936 45.8619 43.0596 45.7398 43.0804 45.6176C43.0909 45.5269 43.0942 45.4354 43.0901 45.344V40.2129C43.4077 40.2129 43.6898 40.2129 43.9708 40.2129C43.9991 40.211 44.0274 40.2156 44.0538 40.2263C44.0801 40.2369 44.1037 40.2533 44.1228 40.2743C44.1419 40.2953 44.1561 40.3204 44.1642 40.3476C44.1724 40.3748 44.1743 40.4035 44.1699 40.4315C44.1699 40.5133 44.1699 40.5939 44.1699 40.6758C44.1699 42.2001 44.1699 43.7244 44.1699 45.2488C44.1699 45.6298 44.1699 45.6335 44.5363 45.7691C44.6477 45.8164 44.766 45.8453 44.8868 45.8546C45.3876 45.8668 45.8737 45.8607 46.4014 45.8607Z" fill="white"/>
<path d="M60.8887 46.8598H60.5614C59.0053 46.8598 57.448 46.8598 55.8919 46.8598C55.5902 46.8598 55.2751 46.8952 54.9942 46.745C54.8409 46.6719 54.7033 46.5699 54.5887 46.4445C54.4665 46.3004 54.3664 46.3089 54.2223 46.3602C54.0334 46.4323 53.839 46.4891 53.6409 46.53C53.0961 46.6216 52.5758 46.53 52.152 46.1636C51.5278 45.631 51.4631 44.7309 52.075 44.031C52.4524 43.5998 52.9642 43.3739 53.487 43.176C53.7138 43.087 53.9459 43.0124 54.182 42.9525C54.2532 42.9436 54.3181 42.9077 54.3637 42.8522C54.4091 42.7968 54.4315 42.726 54.4262 42.6545C54.4365 42.5656 54.4524 42.4775 54.4739 42.3906C54.7511 42.3906 55.0125 42.3906 55.2751 42.3906C55.3973 42.3906 55.4571 42.4615 55.4547 42.5848C55.4522 42.7082 55.4547 42.8096 55.4547 42.9207C55.4547 43.7232 55.4608 44.5269 55.4547 45.3294C55.4547 45.6384 55.556 45.7703 55.8895 45.7556C56.2852 45.7373 56.6834 45.7556 57.0791 45.7471C57.1769 45.7471 57.2734 45.7324 57.343 45.7263C57.3173 45.4136 57.2709 45.1364 57.2758 44.8603C57.2917 44.0493 57.6642 43.4435 58.4068 43.1113C59.2179 42.7448 60.2035 42.9989 60.6237 43.6401C60.7995 43.8882 60.9038 44.1797 60.9254 44.4829C60.951 45.2341 60.9388 45.9865 60.94 46.7376C60.9276 46.7801 60.9104 46.8211 60.8887 46.8598ZM59.9434 45.2622L59.9776 45.2548C59.9287 44.9983 59.8884 44.7406 59.8286 44.4866C59.8044 44.3923 59.7588 44.3048 59.6952 44.2311C59.6317 44.1574 59.5519 44.0993 59.4621 44.0615C59.27 43.9792 59.0548 43.9677 58.855 44.0289C58.655 44.0902 58.4833 44.2203 58.3702 44.3962C58.0954 44.8848 58.2871 45.4112 58.6035 45.6176C58.8575 45.7788 59.1409 45.7935 59.423 45.8094C59.925 45.8375 59.9385 45.8179 59.9385 45.3208L59.9434 45.2622ZM54.4189 44.588C54.4189 44.4255 54.4262 44.2631 54.4189 44.0994C54.4116 43.9357 54.3664 43.8783 54.1917 43.9064C54.0113 43.9339 53.8341 43.9797 53.6628 44.0432C53.3624 44.1653 53.0521 44.2753 52.8384 44.5318C52.7004 44.6979 52.5868 44.8835 52.6772 45.1119C52.7152 45.2173 52.7822 45.3098 52.8706 45.3786C52.9591 45.4473 53.0652 45.4896 53.1767 45.5003C53.5181 45.5585 53.8689 45.5212 54.1905 45.3929C54.2577 45.3704 54.3161 45.3272 54.3571 45.2695C54.3981 45.2117 54.4198 45.1425 54.4189 45.0716C54.4201 44.9128 54.4152 44.7504 54.4152 44.588H54.4189Z" fill="white"/>
<path d="M116.78 55.0128L116.012 56.3283C115.931 56.4663 115.853 56.6068 115.767 56.7436C115.6 57.0123 115.279 57.0269 115.112 56.7594C114.794 56.2599 114.491 55.7518 114.178 55.2485C114.126 55.1701 114.068 55.0946 114.007 55.0226L113.943 55.0433C113.943 55.2009 113.943 55.3585 113.929 55.5148C113.884 56.4675 113.839 57.4202 113.791 58.4144C113.526 58.4144 113.266 58.423 113.006 58.4144C112.896 58.4144 112.857 58.3289 112.864 58.2215C112.922 57.2443 112.986 56.277 113.033 55.3047C113.062 54.7368 113.069 54.1676 113.088 53.5947C113.1 53.1734 113.104 53.2039 113.511 53.1636C113.919 53.1233 114.122 53.2784 114.309 53.6302C114.651 54.2861 115.048 54.9139 115.451 55.6015C115.606 55.3463 115.745 55.1301 115.872 54.9078C116.167 54.3935 116.455 53.8769 116.746 53.3602C116.771 53.2994 116.815 53.2482 116.871 53.2139C116.927 53.1797 116.993 53.1642 117.058 53.1697C117.28 53.1807 117.501 53.1697 117.751 53.1697C117.775 53.3517 117.807 53.4995 117.813 53.6473C117.828 54.0137 117.824 54.3801 117.84 54.7465C117.885 55.8312 117.938 56.917 117.986 58.0016C117.986 58.1238 117.986 58.2373 117.986 58.3754H117.099C117.067 58.0761 117.021 57.7866 117.007 57.4959C116.983 56.9487 116.979 56.3967 116.964 55.8519C116.961 55.5709 116.926 55.291 116.861 55.0177L116.78 55.0128Z" fill="white"/>
<path d="M72.7916 54.9823C72.7384 55.0286 72.6904 55.0805 72.6487 55.1375C72.358 55.626 72.0759 56.1268 71.7839 56.619C71.7311 56.7266 71.6557 56.8217 71.5629 56.8975C71.5196 56.9234 71.4716 56.9401 71.4217 56.9466C71.3717 56.9531 71.321 56.9492 71.2727 56.9353C71.2243 56.9212 71.1793 56.8975 71.1406 56.8654C71.1018 56.8332 71.0702 56.7935 71.0474 56.7485C70.7225 56.2294 70.4062 55.7066 70.0862 55.1851C70.0666 55.1551 70.045 55.1265 70.0214 55.0996C69.8517 55.1094 69.8712 55.2217 69.8675 55.3231C69.8553 55.6785 69.8553 56.0352 69.8382 56.3894C69.8053 57.0282 69.7637 57.6658 69.7246 58.3046C69.7173 58.3393 69.7058 58.3729 69.6904 58.4047H68.8867C68.7951 57.9773 68.9918 53.6241 69.131 53.1808C69.3607 53.1808 69.6025 53.1808 69.8431 53.1808C69.9726 53.1808 70.0324 53.2724 70.0874 53.375C70.4538 54.0003 70.8202 54.6232 71.1793 55.2474L71.3662 55.5674C71.4332 55.5074 71.4936 55.4407 71.547 55.3683C71.9134 54.7356 72.2896 54.1066 72.6341 53.4617C72.7562 53.2382 72.8881 53.1514 73.1299 53.1759C73.318 53.1942 73.5086 53.1869 73.7187 53.1905C73.7272 53.3395 73.7358 53.4482 73.7394 53.557C73.7932 54.8553 73.8433 56.1537 73.8994 57.4508C73.9092 57.6743 73.9532 57.8954 73.9678 58.1177C73.9825 58.34 73.9397 58.3913 73.7174 58.3986C73.4951 58.406 73.2753 58.3986 73.0554 58.3986C72.8844 57.2493 72.9028 56.1244 72.8612 55.0043L72.7916 54.9823Z" fill="white"/>
<path d="M97.4116 44.3607C97.0452 44.2386 96.7154 44.1091 96.36 44.1568C96.1559 44.1696 95.9648 44.2617 95.8274 44.4133C95.7212 44.5354 95.6918 44.6649 95.803 44.7956C95.911 44.9287 96.0268 45.0551 96.1499 45.1742C96.3502 45.3586 96.5639 45.5296 96.7679 45.7104C97.3249 46.199 97.3127 46.7962 97 47.3825C96.6336 48.0738 96.0338 48.4818 95.2827 48.6748C94.4001 48.9099 93.4624 48.821 92.6395 48.4244C92.3196 48.2812 92.0376 48.0653 91.8158 47.7939C91.594 47.5225 91.4386 47.203 91.3619 46.861C91.2497 46.3838 91.2674 45.8853 91.4132 45.4173C91.5092 45.082 91.6625 44.7659 91.8664 44.4829C92.1974 44.5391 92.4331 44.7797 92.7458 44.9116C92.6957 45.0105 92.6615 45.0911 92.6151 45.1644C92.4552 45.4239 92.3563 45.7161 92.3256 46.0194C92.2462 46.7132 92.5833 47.297 93.2356 47.5303C94.0258 47.8125 94.8234 47.8222 95.6063 47.4497C95.8306 47.3494 96.0154 47.1776 96.1316 46.9611C96.1752 46.8986 96.1963 46.8232 96.1916 46.7473C96.1869 46.6712 96.1567 46.599 96.1059 46.5422C96.0095 46.4259 95.9072 46.3145 95.7993 46.2087C95.566 45.9864 95.3181 45.7788 95.0921 45.5492C94.4032 44.8505 94.7257 43.6499 95.6735 43.2981C96.2692 43.074 96.926 43.074 97.5215 43.2981C97.6437 43.3409 97.6925 43.4105 97.6608 43.5253C97.585 43.8001 97.4995 44.0676 97.4116 44.3607Z" fill="white"/>
<path d="M44.8161 54.8053V58.3181C44.5616 58.3731 44.2992 58.3818 44.0417 58.3437C43.9794 58.3437 43.9098 58.2362 43.8744 58.1642C43.8578 58.0949 43.855 58.0232 43.8658 57.9528V53.5619C43.8658 53.502 43.8658 53.4397 43.8658 53.3799C43.8658 53.2577 43.9196 53.1844 44.0442 53.182C44.2885 53.182 44.5327 53.171 44.777 53.1918C44.8466 53.1979 44.9273 53.2809 44.9737 53.3481C45.4134 53.9848 45.8498 54.6233 46.283 55.2633C46.5713 55.6883 46.8571 56.1183 47.1466 56.5384C47.1921 56.6088 47.2542 56.6671 47.3273 56.7082C47.3799 55.5332 47.3603 54.3704 47.375 53.1661C47.6461 53.1661 47.8977 53.1661 48.1481 53.1661C48.1737 53.1632 48.1995 53.1662 48.2239 53.1749C48.248 53.1836 48.2699 53.1978 48.2877 53.2163C48.3056 53.2349 48.3189 53.2574 48.3267 53.2819C48.3345 53.3065 48.3365 53.3325 48.3326 53.3579C48.3326 53.408 48.3326 53.4593 48.3326 53.5106V57.9626C48.3326 58.0127 48.3326 58.064 48.3326 58.1141C48.3372 58.1447 48.3349 58.176 48.3258 58.2056C48.3168 58.2351 48.3012 58.2624 48.2802 58.2851C48.2592 58.3079 48.2333 58.3256 48.2046 58.337C48.1757 58.3485 48.1448 58.3532 48.1139 58.351C47.9002 58.351 47.6864 58.351 47.4739 58.351C47.3518 58.351 47.2846 58.2631 47.2186 58.1642C46.6262 57.2774 46.0278 56.3955 45.4317 55.5112C45.3096 55.328 45.1874 55.1448 45.0653 54.9616C45.0119 54.8942 44.9549 54.8297 44.8943 54.7686L44.8161 54.8053Z" fill="white"/>
<path d="M84.1969 58.3986C83.9367 58.3986 83.6631 58.4144 83.3956 58.3888C83.2925 58.3567 83.2053 58.2869 83.1513 58.1934C82.4564 57.1698 81.7687 56.1426 81.0749 55.1166C81.0151 55.0275 80.9528 54.9432 80.8807 54.8479C80.7134 54.9444 80.7586 55.0922 80.7586 55.2143C80.7586 56.0779 80.7586 56.9414 80.7586 57.8062C80.7586 57.9173 80.7586 58.0297 80.7586 58.1409C80.7477 58.2232 80.7318 58.3048 80.711 58.3851H79.8804C79.8617 58.2994 79.8495 58.2124 79.8438 58.125C79.8438 56.5502 79.8438 54.9753 79.8438 53.4005C79.8438 53.3407 79.8535 53.2784 79.8633 53.1843C80.154 53.1843 80.4361 53.1709 80.7183 53.1917C80.8131 53.2192 80.8938 53.2816 80.9442 53.3663C81.4866 54.1651 82.0203 54.9676 82.5577 55.7689C82.7703 56.084 82.9865 56.3954 83.2088 56.7216C83.3309 56.6251 83.2894 56.5078 83.2906 56.4077C83.2906 55.4623 83.2906 54.5181 83.2906 53.5728V53.2161C83.6082 53.1514 83.9086 53.1892 84.2018 53.1856C84.2677 53.4237 84.2763 58.0688 84.1969 58.3986Z" fill="white"/>
<path d="M98.9592 53.0451C99.3164 53.0433 99.6703 53.1132 100 53.2505C100.33 53.3878 100.629 53.5897 100.879 53.8443C101.13 54.099 101.327 54.4012 101.458 54.7332C101.59 55.0653 101.654 55.4202 101.646 55.7774C101.633 57.408 100.394 58.528 98.9677 58.5317C97.5203 58.5317 96.2965 57.3799 96.2891 55.7847C96.2769 54.1382 97.5997 53.0084 98.9592 53.0451ZM100.618 55.7664C100.629 55.4101 100.538 55.0582 100.356 54.7514C100.197 54.4552 99.9463 54.2181 99.6417 54.0752C99.3371 53.9323 98.9947 53.891 98.6648 53.9575C97.8098 54.1431 97.4348 54.8051 97.3298 55.5221C97.2736 55.9451 97.3596 56.3746 97.5741 56.7435C97.6787 56.9466 97.8268 57.1243 98.0077 57.2639C98.1886 57.4036 98.398 57.5016 98.6211 57.5513C98.8442 57.6009 99.0754 57.6009 99.2985 57.5512C99.5216 57.5015 99.731 57.4034 99.9119 57.2638C100.398 56.8864 100.575 56.3588 100.618 55.7664Z" fill="white"/>
<path d="M10.1377 58.3912C10.0265 58.4046 9.95814 58.4181 9.89341 58.4193C9.66134 58.4193 9.42927 58.4193 9.20453 58.4193C9.13491 58.175 9.11048 53.7413 9.17155 53.2026H10.134V55.2363C11.0012 55.2461 11.8281 55.2436 12.6856 55.2363V53.2026H13.6456V58.3827H12.7027C12.6929 58.2715 12.6758 58.164 12.6746 58.0565C12.6746 57.5594 12.6746 57.0611 12.6746 56.5628C12.6746 56.222 12.6428 56.1866 12.3179 56.1853C11.6974 56.1853 11.077 56.1853 10.4565 56.1853C10.3588 56.1853 10.2611 56.2037 10.1389 56.2159L10.1377 58.3912Z" fill="white"/>
<path d="M38.6752 53.1965C38.6826 53.3187 38.6935 53.4079 38.6935 53.497C38.6935 55.01 38.6935 56.5228 38.6935 58.0358C38.6935 58.0969 38.6935 58.1579 38.6935 58.219C38.6953 58.2421 38.6921 58.2654 38.6843 58.2872C38.6763 58.309 38.6639 58.3288 38.6477 58.3455C38.6315 58.3622 38.612 58.3751 38.5905 58.3837C38.5688 58.3922 38.5458 58.396 38.5225 58.3949C38.2709 58.3949 38.0205 58.3949 37.7433 58.3949C37.7347 58.2557 37.7213 58.1506 37.7213 58.0382C37.7213 57.5106 37.7213 56.9829 37.7213 56.4504C37.7213 56.2281 37.6883 56.1805 37.4892 56.1792C36.7564 56.1731 36.0235 56.1792 35.2907 56.1792C35.2484 56.1874 35.2074 56.201 35.1685 56.2196V58.3851H34.1914V53.1697H35.149V55.1789C35.4714 55.2571 37.4208 55.2522 37.7018 55.1728V53.1978C38.0256 53.1689 38.3513 53.1686 38.6752 53.1965Z" fill="white"/>
<path d="M106.463 58.3912C106.122 58.3912 105.809 58.4071 105.499 58.3814C105.42 58.3741 105.328 58.2507 105.281 58.1603C105.097 57.8159 104.931 57.4617 104.755 57.1124C104.633 56.8681 104.495 56.614 104.361 56.3563H103.667C103.659 56.4565 103.646 56.5432 103.646 56.6311C103.646 57.1197 103.646 57.6083 103.646 58.0968C103.646 58.3729 103.621 58.3961 103.354 58.4034C103.152 58.4034 102.95 58.4034 102.719 58.4034C102.703 58.308 102.692 58.2118 102.688 58.1152C102.695 56.6015 102.704 55.0876 102.714 53.5739C102.714 53.5019 102.714 53.431 102.725 53.3602C102.724 53.3345 102.729 53.309 102.739 53.2853C102.748 53.2617 102.763 53.2405 102.783 53.2234C102.802 53.2062 102.824 53.1935 102.849 53.186C102.873 53.1787 102.899 53.1769 102.924 53.1806H103.016C103.545 53.1806 104.074 53.1696 104.604 53.188C104.945 53.1831 105.279 53.2878 105.557 53.4866C105.834 53.6854 106.041 53.9681 106.146 54.2929C106.251 54.6176 106.249 54.9676 106.14 55.2912C106.032 55.6149 105.823 55.8952 105.543 56.0913C105.348 56.2268 105.349 56.2293 105.463 56.4418C105.777 57.0257 106.09 57.6095 106.403 58.1933C106.428 58.2576 106.448 58.3238 106.463 58.3912ZM103.667 55.505C103.982 55.505 104.266 55.5172 104.547 55.505C104.724 55.4885 104.89 55.4084 105.014 55.2794C105.138 55.1504 105.211 54.9811 105.22 54.8027C105.249 54.4876 104.969 54.0918 104.638 54.054C104.313 54.0336 103.987 54.0311 103.661 54.0466L103.667 55.505Z" fill="white"/>
<path d="M23.9101 58.3974C23.6316 58.3974 23.3495 58.3974 23.0673 58.3974C22.9452 58.3974 22.8853 58.3021 22.8304 58.1934C22.558 57.6462 22.2649 57.1088 21.9998 56.5579C21.9783 56.4908 21.9346 56.4329 21.8756 56.3939C21.8167 56.3551 21.7464 56.3375 21.6761 56.3442L21.1387 56.3637V58.3656C20.8562 58.4146 20.5679 58.4207 20.2837 58.384C20.263 58.2656 20.2491 58.146 20.2422 58.0261C20.2422 56.5221 20.2422 55.0181 20.2422 53.5142C20.2422 53.414 20.2568 53.3151 20.2642 53.21C20.3298 53.1961 20.3963 53.1867 20.4633 53.1819C21.0117 53.1819 21.5625 53.1697 22.111 53.1819C22.3556 53.1805 22.5976 53.2348 22.8183 53.3406C23.0389 53.4464 23.2327 53.601 23.3849 53.7926C23.7452 54.2495 23.7843 54.7625 23.6292 55.3096C23.5261 55.6512 23.2985 55.9415 22.9916 56.1231C22.9464 56.1591 22.9055 56.2002 22.8695 56.2453C23.2359 56.9292 23.5876 57.601 23.9406 58.274C23.9382 58.2972 23.9187 58.3339 23.9101 58.3974ZM21.1607 54.0589V55.4977C21.4624 55.4977 21.7433 55.5136 22.0242 55.5039C22.191 55.4968 22.3501 55.4319 22.4743 55.3205C22.5987 55.2092 22.6805 55.0582 22.7058 54.8931C22.7644 54.4229 22.4762 54.1212 22.1696 54.0614C21.8359 54.0031 21.4946 54.0024 21.1607 54.0589Z" fill="white"/>
<path d="M110.715 53.2076H111.692V53.5642C111.692 54.4681 111.692 55.3728 111.692 56.2782C111.688 56.6539 111.618 57.0261 111.485 57.3775C111.403 57.6125 111.27 57.8259 111.094 58.0019C110.918 58.1779 110.705 58.3119 110.47 58.3937C110.144 58.5283 109.793 58.5901 109.442 58.575C109.089 58.5598 108.745 58.4678 108.433 58.3058C108.216 58.1959 108.025 58.0425 107.872 57.8552C107.718 57.6679 107.604 57.4508 107.538 57.2175C107.465 56.9864 107.428 56.7453 107.43 56.5029C107.43 55.4965 107.432 54.49 107.437 53.4836C107.437 53.403 107.444 53.3224 107.45 53.2063C107.772 53.175 108.096 53.1713 108.419 53.1953V53.5435C108.419 54.4587 108.419 55.3735 108.419 56.288C108.413 56.6025 108.491 56.9129 108.645 57.1869C108.655 57.2154 108.669 57.2425 108.687 57.2675C109.043 57.6596 109.507 57.634 109.962 57.5558C110.328 57.4984 110.572 57.1894 110.622 56.7839C110.669 56.4223 110.697 56.0587 110.707 55.6944C110.72 54.9835 110.707 54.2714 110.707 53.5593L110.715 53.2076Z" fill="white"/>
<path d="M16.41 53.2002H17.4384C18.054 54.8336 18.6687 56.4675 19.2827 58.1017C19.3051 58.1926 19.3178 58.2854 19.3206 58.379C19.02 58.4147 18.7164 58.4159 18.4155 58.3827C18.3447 58.3753 18.258 58.2605 18.2262 58.1714C18.1212 57.8892 18.0332 57.601 17.949 57.3164C17.9062 57.1735 17.8378 57.0819 17.6778 57.0819C17.1477 57.0819 16.6188 57.0819 16.0899 57.0819C16.0342 57.0903 15.98 57.1063 15.9287 57.1295C15.7821 57.5509 15.6392 57.9576 15.4926 58.379H14.5607C14.4703 58.1347 14.6438 57.9466 14.7097 57.75C14.8734 57.2541 15.0761 56.7728 15.2606 56.2843C15.4536 55.7774 15.6478 55.2717 15.8371 54.7648C16.0264 54.2579 16.2169 53.7413 16.41 53.2002ZM16.9535 54.3434H16.8778L16.2561 56.2037C16.6941 56.2683 17.1394 56.265 17.5764 56.1939C17.4543 55.8507 17.3468 55.5502 17.2454 55.2461C17.144 54.9419 17.05 54.6463 16.9498 54.3434H16.9535Z" fill="white"/>
<path d="M54.8359 58.3948V53.1976H58.1118V54.0355H55.818V55.2569H57.4925C57.5294 55.5569 57.5339 55.86 57.506 56.1608C56.9417 56.2145 56.3859 56.1547 55.818 56.1974V57.5275C55.9303 57.5349 56.0378 57.5483 56.1441 57.5483C56.7548 57.5483 57.3655 57.5483 57.9762 57.5483C58.0983 57.5483 58.2132 57.5703 58.3426 57.5837V58.3606C58.1118 58.4363 55.3709 58.4619 54.8359 58.3948Z" fill="white"/>
<path d="M75.2266 53.1929H78.5024V54.0271C77.7476 54.0601 76.9903 54.0271 76.211 54.0479V55.2534H77.8844V56.1389C77.3372 56.2391 76.7778 56.123 76.2098 56.2085V57.5277C76.3393 57.5338 76.4541 57.5436 76.5579 57.5436C77.1576 57.5436 77.7586 57.5436 78.3583 57.5436C78.4804 57.5436 78.594 57.568 78.7247 57.5814V58.401C77.5558 58.4389 76.404 58.4071 75.229 58.4193L75.2266 53.1929Z" fill="white"/>
<path d="M32.2549 58.3643C32.1206 57.9588 31.9825 57.5411 31.8372 57.0977C31.7431 57.0977 31.6442 57.0806 31.5453 57.0794C31.0982 57.0794 30.65 57.0794 30.2017 57.0794C29.8731 57.0794 29.878 57.0794 29.784 57.3933C29.707 57.6522 29.6203 57.9099 29.5287 58.1652C29.5121 58.2406 29.4682 58.3071 29.4056 58.3522C29.3429 58.3972 29.2659 58.4177 29.1892 58.4095C28.9571 58.3973 28.725 58.4095 28.4453 58.4095C28.5675 58.0883 28.6566 57.8159 28.7568 57.546C28.9375 57.0574 29.1232 56.5688 29.3015 56.0803C29.4799 55.5917 29.6557 55.1031 29.8365 54.6085C29.9819 54.2127 30.1358 53.8206 30.2799 53.4249C30.3556 53.2185 30.3788 53.1928 30.606 53.1879C30.7892 53.1879 30.9724 53.2026 31.1544 53.1879C31.2254 53.1773 31.2977 53.1939 31.3569 53.2345C31.416 53.275 31.4577 53.3366 31.4732 53.4066C31.6527 53.8756 31.8164 54.3495 31.9923 54.8198C32.217 55.4219 32.4491 56.0204 32.6739 56.6213C32.8876 57.1942 33.0965 57.7683 33.3078 58.3399C33.0879 58.4168 32.6482 58.4315 32.2549 58.3643ZM31.5318 56.2293C31.2533 55.566 31.1434 54.9224 30.8234 54.2921C30.606 54.9614 30.4081 55.5648 30.1883 56.2464C30.6487 56.2464 31.0604 56.2586 31.5318 56.2293Z" fill="white"/>
<path d="M7.04279 54.3323C6.8095 54.204 6.60675 54.0721 6.38811 53.978C6.26619 53.9261 6.13413 53.9023 6.00177 53.9084C5.86939 53.9147 5.7401 53.9504 5.62351 54.0135C5.53014 54.0537 5.44938 54.1184 5.38981 54.2007C5.33026 54.283 5.29409 54.38 5.28518 54.4813C5.27776 54.5825 5.30153 54.6837 5.35328 54.771C5.40503 54.8583 5.48228 54.9277 5.57465 54.9698C5.83373 55.0829 6.10172 55.1745 6.3759 55.2434C6.80339 55.3558 7.20524 55.5012 7.50693 55.8456C7.66541 56.0229 7.77977 56.2351 7.84068 56.465C7.90161 56.6948 7.90736 56.9358 7.85748 57.1684C7.73533 57.878 7.27364 58.2677 6.60064 58.4435C5.83115 58.6463 5.13494 58.4594 4.49247 58.0331C4.31537 57.911 4.18223 57.729 4.00391 57.5446L4.68301 56.9217C4.80516 57.023 4.90165 57.1061 4.99814 57.1928C5.16928 57.3527 5.37517 57.4706 5.59962 57.5374C5.82406 57.6041 6.06095 57.6179 6.29162 57.5776C6.39743 57.5649 6.49886 57.5277 6.58794 57.4692C6.67701 57.4107 6.75133 57.3323 6.80504 57.2402C6.85876 57.1482 6.89042 57.0449 6.89755 56.9386C6.90469 56.8323 6.88709 56.7257 6.84614 56.6273C6.74843 56.383 6.52491 56.2975 6.30506 56.2267C6.0168 56.1338 5.71878 56.0679 5.42686 55.9824C5.09552 55.8987 4.80232 55.7053 4.59512 55.4335C4.38793 55.1617 4.27898 54.8278 4.28605 54.4862C4.30071 53.8877 4.58164 53.4272 5.14104 53.2049C5.48645 53.0526 5.86457 52.9893 6.24076 53.0208C6.61696 53.0525 6.97922 53.1779 7.2944 53.3857C7.35425 53.4247 7.40555 53.4724 7.46174 53.5151C7.51792 53.5579 7.60709 53.6251 7.66816 53.6715C7.51419 53.9376 7.3 54.1638 7.04279 54.3323Z" fill="white"/>
<path d="M59.1094 57.5277L59.7885 56.9316C59.8886 57.0147 59.9839 57.0843 60.0682 57.1649C60.2343 57.3301 60.4366 57.4545 60.6589 57.5282C60.8812 57.602 61.1176 57.6231 61.3495 57.59C61.4964 57.575 61.6359 57.5178 61.7509 57.4252C61.8661 57.3326 61.9519 57.2088 61.998 57.0684C62.0415 56.9319 62.0333 56.7842 61.9753 56.6533C61.9173 56.5222 61.8132 56.4171 61.6829 56.3576C61.4436 56.2497 61.1946 56.1651 60.9391 56.1047C60.5018 55.996 60.078 55.8727 59.7653 55.5185C59.6226 55.3603 59.5182 55.1713 59.4602 54.9664C59.402 54.7613 59.392 54.5457 59.4306 54.3361C59.5442 53.6289 59.9876 53.1831 60.7058 53.0732C61.2444 52.9914 61.7843 53.0109 62.2716 53.3028C62.4217 53.4038 62.5641 53.5157 62.6979 53.6375C62.8005 53.723 62.7834 53.8109 62.6906 53.8928C62.5684 54.0015 62.4463 54.1126 62.3241 54.2164C62.1605 54.352 62.1226 54.3569 61.9577 54.2262C61.7007 54.0055 61.3675 53.8942 61.0294 53.916C60.9097 53.9285 60.7926 53.9598 60.6826 54.0088C60.5815 54.0443 60.4936 54.1092 60.4297 54.1952C60.366 54.2812 60.3294 54.3843 60.3247 54.4913C60.3196 54.5986 60.3483 54.7048 60.4068 54.7949C60.4653 54.885 60.5506 54.9544 60.6508 54.9933C60.9022 55.0992 61.1615 55.1849 61.4264 55.2498C61.8014 55.3511 62.1666 55.4684 62.4536 55.7456C62.6871 55.9568 62.8418 56.2411 62.8921 56.5518C63.0741 57.7732 62.3058 58.3925 61.3287 58.5134C60.5238 58.6123 59.8361 58.3118 59.2621 57.75C59.2051 57.6802 59.1541 57.6059 59.1094 57.5277Z" fill="white"/>
<path d="M51.0661 58.401C50.4419 56.7167 49.8264 55.0531 49.2132 53.3932C49.2006 53.3252 49.1965 53.2558 49.201 53.1868C49.51 53.1868 49.8019 53.177 50.0926 53.1941C50.1354 53.2005 50.176 53.2168 50.2112 53.2419C50.2465 53.2669 50.2753 53.3 50.2954 53.3382C50.4761 53.8488 50.6362 54.3667 50.812 54.8797C50.9928 55.411 51.1846 55.9398 51.3702 56.4675C51.4337 56.647 51.4924 56.8266 51.5766 57.066C51.6548 56.8962 51.7208 56.779 51.7647 56.6531C52.009 55.9521 52.2505 55.2501 52.489 54.5474C52.621 54.1578 52.7553 53.7682 52.8713 53.3736C52.9104 53.2442 52.9678 53.1782 53.0973 53.177H53.9584C53.8582 53.4677 53.7764 53.7193 53.6848 53.9685C53.5016 54.4668 53.3123 54.9639 53.1266 55.4623C52.941 55.9606 52.7419 56.4968 52.5526 57.0135C52.4149 57.3905 52.279 57.7683 52.1446 58.1469C52.075 58.3473 52.0298 58.3912 51.8209 58.3912C51.5718 58.4059 51.3299 58.401 51.0661 58.401Z" fill="white"/>
<path d="M93.4366 58.418C93.1361 58.418 92.8943 58.418 92.6512 58.418C92.6257 58.4207 92.5998 58.4176 92.5756 58.4091C92.5514 58.4005 92.5294 58.3866 92.5113 58.3685C92.4931 58.3503 92.4794 58.3283 92.4708 58.3041C92.4623 58.28 92.4592 58.2542 92.4619 58.2287C92.4619 58.1578 92.4619 58.087 92.4619 58.0161V53.5653C92.4619 53.4944 92.4619 53.4224 92.4619 53.3515C92.4619 53.2379 92.5303 53.1891 92.6353 53.1818C92.6854 53.1818 92.7367 53.1818 92.788 53.1818C93.6918 53.1818 94.5969 53.1818 95.502 53.1818C95.5997 53.1818 95.6986 53.1976 95.8134 53.2074V54.0087C95.684 54.0209 95.5692 54.0404 95.447 54.0404C94.8876 54.0404 94.3294 54.0404 93.77 54.0404C93.4622 54.0404 93.439 54.0661 93.4353 54.3678C93.4353 54.6218 93.4353 54.8759 93.4353 55.1299C93.4353 55.3522 93.4781 55.3937 93.7077 55.3974C94.1035 55.4035 94.5004 55.3974 94.8974 55.3974C95.2125 55.3974 95.2296 55.4133 95.2259 55.7235C95.2259 56.3061 95.3285 56.3 94.6519 56.2976C94.3477 56.2976 94.0412 56.2976 93.737 56.2976C93.4793 56.2976 93.4366 56.3465 93.4341 56.6042C93.4341 57.0817 93.4341 57.5593 93.4341 58.0357L93.4366 58.418Z" fill="white"/>
<path d="M65.3335 58.3972C65.3249 58.2348 65.3139 58.1151 65.3139 57.9954C65.3139 56.8277 65.3139 55.6596 65.3139 54.4911C65.3139 54.4203 65.3139 54.3482 65.3139 54.2774C65.3017 54.0783 65.2785 54.0477 65.0782 54.0429C64.7435 54.0355 64.4077 54.0429 64.0718 54.0429C63.4476 54.0429 63.5331 54.0526 63.5295 53.5006C63.5295 53.1989 63.5441 53.1818 63.8324 53.1818C65.1442 53.1818 66.4556 53.1818 67.7665 53.1818C67.8374 53.1818 67.907 53.1928 67.9986 53.2013V54.0197C67.4514 54.0783 66.8993 54.0111 66.3143 54.0587C66.3082 54.1907 66.2972 54.303 66.2972 54.4252C66.2972 55.6035 66.2972 56.7821 66.2972 57.9612C66.2972 58.0418 66.2972 58.1236 66.2972 58.2054C66.3 58.2311 66.2971 58.257 66.2886 58.2813C66.2803 58.3056 66.2666 58.3278 66.2486 58.3463C66.2306 58.3647 66.2089 58.379 66.1847 58.3879C66.1606 58.397 66.1347 58.4005 66.1091 58.3984C65.8611 58.3997 65.6193 58.3972 65.3335 58.3972Z" fill="white"/>
<path d="M87.9161 54.0601V58.3289C87.6792 58.4156 87.3677 58.4279 86.9598 58.3692C86.9598 58.2593 86.9402 58.142 86.9402 58.0248C86.9402 56.8262 86.9402 55.6284 86.9402 54.4314V54.043H85.2486C85.196 53.7638 85.189 53.4779 85.2278 53.1965H89.6139V54.0149C89.0667 54.0796 88.511 54.0063 87.9161 54.0601Z" fill="white"/>
<path d="M86.3837 40.1506C86.6549 40.1506 86.937 40.1408 87.2167 40.1579C87.2717 40.1579 87.3389 40.2495 87.3682 40.3143C87.3894 40.403 87.396 40.4946 87.3877 40.5854C87.3877 42.5397 87.3877 44.4915 87.3877 46.4409C87.3877 46.5117 87.3877 46.5826 87.3877 46.6534C87.3901 46.6791 87.3868 46.7048 87.3783 46.7291C87.3698 46.7533 87.3561 46.7756 87.3383 46.794C87.3204 46.8126 87.2988 46.8271 87.2749 46.8365C87.2509 46.8459 87.2253 46.8502 87.1996 46.8488C86.9273 46.8488 86.6549 46.8488 86.3923 46.8488C86.3153 46.5667 86.3117 40.4657 86.3837 40.1506Z" fill="white"/>
<path d="M24.5156 57.7721L25.1813 57.1785C25.4402 57.3898 25.6625 57.5656 25.9789 57.595C26.0941 57.6083 26.2107 57.5967 26.321 57.5611C26.4314 57.5255 26.5328 57.4666 26.6184 57.3885C26.7042 57.3104 26.7721 57.2147 26.8176 57.1081C26.8632 57.0016 26.8854 56.8864 26.8827 56.7705C26.8595 55.7054 26.8766 54.6379 26.8766 53.5728V53.2528C27.1893 53.1634 27.5195 53.1543 27.8367 53.226C27.8367 53.298 27.8562 53.3762 27.8562 53.4544C27.8562 54.622 27.8562 55.7897 27.8562 56.9574C27.8562 57.5021 27.6571 57.9528 27.2052 58.2509C26.7701 58.5219 26.2466 58.613 25.7456 58.5049C25.3823 58.4541 25.0423 58.2968 24.7685 58.053C24.6794 57.9637 24.595 57.8699 24.5156 57.7721Z" fill="white"/>
<path d="M4.89652 47.8284C5.14081 47.7563 5.38509 47.6965 5.61838 47.611C5.80324 47.5532 5.9636 47.4355 6.07419 47.2766C6.18476 47.1175 6.23926 46.9261 6.22909 46.7328C6.23642 45.7076 6.24212 44.682 6.24619 43.656C6.24619 43.187 6.24619 43.187 6.71277 43.187H7.28806C7.29905 43.3092 7.31371 43.4118 7.31371 43.5095C7.31371 44.4438 7.32592 45.3782 7.31371 46.3114C7.31868 46.8083 7.19855 47.2984 6.96438 47.7368C6.83458 47.9656 6.6592 48.1651 6.4491 48.3234C6.23901 48.4816 5.99867 48.595 5.74297 48.6565C5.55758 48.7105 5.3686 48.7513 5.17745 48.7787C4.96737 48.8055 4.91607 48.7616 4.9063 48.5564C4.88797 48.3145 4.89652 48.0727 4.89652 47.8284Z" fill="white"/>
<path d="M61.947 48.7507C61.7382 48.4025 61.7931 48.0789 61.7882 47.7589C62.0325 47.6953 62.2573 47.6465 62.4771 47.5793C62.6597 47.5342 62.8232 47.4319 62.9433 47.2873C63.0635 47.1427 63.1344 46.9634 63.1452 46.7756C63.2674 45.7985 63.1819 44.8214 63.2075 43.8528C63.2075 43.6415 63.2075 43.4289 63.2075 43.2286C63.5336 43.1422 63.8755 43.1338 64.2054 43.2042C64.2154 43.2501 64.2219 43.2966 64.225 43.3434C64.225 44.3792 64.2323 45.4199 64.2152 46.4507C64.2085 46.8969 64.0883 47.3341 63.8659 47.721C63.6516 48.0932 63.3076 48.3731 62.8997 48.5076C62.598 48.6114 62.2768 48.6688 61.947 48.7507Z" fill="white"/>
<path d="M41.6406 58.4022V53.199H42.575C42.5836 53.3052 42.597 53.3932 42.597 53.4811C42.597 55.0039 42.597 56.5261 42.597 58.048C42.597 58.3717 42.5713 58.3973 42.2538 58.4022C42.0632 58.4046 41.8666 58.4022 41.6406 58.4022Z" fill="white"/>
<path d="M109.4 41.6493C109.399 41.7789 109.356 41.9047 109.276 42.007C109.197 42.1094 109.086 42.1826 108.96 42.2152C108.835 42.2478 108.702 42.238 108.583 42.1873C108.463 42.1367 108.364 42.048 108.301 41.9351C108.194 41.7592 108.163 41.7592 108.056 41.9351C107.985 42.0532 107.876 42.1437 107.747 42.1921C107.618 42.2404 107.477 42.2437 107.345 42.2014C107.232 42.1607 107.133 42.0858 107.064 41.987C106.994 41.8881 106.957 41.7701 106.957 41.6493C106.957 41.5191 107.001 41.3926 107.081 41.2901C107.161 41.1876 107.274 41.1148 107.4 41.0833C107.526 41.0519 107.659 41.0636 107.778 41.1165C107.897 41.1695 107.995 41.2607 108.056 41.3757C108.152 41.5345 108.199 41.5345 108.293 41.3757C108.353 41.2512 108.456 41.1532 108.584 41.1007C108.711 41.0481 108.854 41.0447 108.983 41.0911C109.105 41.1247 109.212 41.1978 109.287 41.2988C109.363 41.3999 109.402 41.5232 109.4 41.6493Z" fill="white"/>
<path d="M21.2175 41.8055C21.0099 42.1829 20.7546 42.3466 20.4932 42.2819C20.3602 42.2511 20.2411 42.1771 20.1547 42.0714C20.0683 41.9658 20.0194 41.8345 20.0156 41.698C20.0154 41.5716 20.0545 41.4483 20.1273 41.3451C20.2001 41.2418 20.3031 41.1637 20.4224 41.1215C20.7375 41.0226 20.9671 41.1533 21.2273 41.5979C21.2798 41.5258 21.3274 41.4757 21.3641 41.4085C21.4249 41.2906 21.5246 41.1972 21.6463 41.1443C21.7681 41.0913 21.9043 41.082 22.0322 41.1178C22.1524 41.1569 22.258 41.2313 22.3355 41.3313C22.4128 41.4313 22.4582 41.5523 22.4658 41.6785C22.4664 41.8157 22.4208 41.9491 22.3364 42.0572C22.252 42.1653 22.1336 42.2419 22.0004 42.2745C21.7561 42.3441 21.5119 42.2306 21.3628 41.985C21.3178 41.9225 21.2693 41.8626 21.2175 41.8055Z" fill="white"/>
<path d="M54.1782 41.3489C54.238 41.2622 54.2906 41.195 54.3333 41.1229C54.399 41.0018 54.506 40.9083 54.635 40.8594C54.7639 40.8105 54.906 40.8096 55.0356 40.8567C55.1592 40.9012 55.2649 40.985 55.3365 41.0953C55.4079 41.2056 55.4412 41.3363 55.4314 41.4674C55.4189 41.5986 55.362 41.7217 55.27 41.8161C55.178 41.9105 55.0565 41.9706 54.9257 41.9865C54.6374 42.0256 54.4713 41.934 54.315 41.6591C54.2664 41.5906 54.2134 41.5253 54.1562 41.4637C54.0963 41.6921 54.0035 41.879 53.8032 41.9401C53.6581 41.9815 53.5053 41.9878 53.3574 41.9584C53.1131 41.9108 52.9751 41.6677 52.9849 41.3782C52.9846 41.2569 53.0247 41.1389 53.0987 41.0427C53.1727 40.9466 53.2767 40.8777 53.394 40.8469C53.7507 40.7712 53.9669 40.9007 54.1782 41.3489Z" fill="white"/>
<path d="M59.7064 42.2197C59.5484 42.2209 59.3953 42.1648 59.2756 42.0617C59.1558 41.9586 59.0776 41.8155 59.0554 41.659C59.0371 41.3745 59.3803 41.0483 59.7003 41.0483C59.8544 41.0499 60.0024 41.1097 60.1142 41.2157C60.2261 41.3217 60.2938 41.4661 60.3037 41.62C60.3047 41.6988 60.2899 41.777 60.2603 41.8501C60.2306 41.9231 60.1867 41.9895 60.1311 42.0453C60.0755 42.1012 60.0093 42.1454 59.9364 42.1753C59.8634 42.2053 59.7853 42.2203 59.7064 42.2197Z" fill="white"/>
<path d="M77.6442 42.2198C77.5658 42.224 77.4873 42.2117 77.414 42.1836C77.3406 42.1555 77.274 42.1123 77.2184 42.0568C77.163 42.0012 77.1198 41.9346 77.0917 41.8613C77.0636 41.7879 77.0512 41.7095 77.0555 41.6311C77.0577 41.4782 77.1196 41.3323 77.2281 41.2246C77.3366 41.1169 77.4828 41.0558 77.6357 41.0546C77.9545 41.0472 78.2965 41.3587 78.2904 41.6494C78.2843 41.9401 77.9606 42.2198 77.6442 42.2198Z" fill="white"/>
<path d="M18.7004 41.1021C18.8571 41.1077 19.0056 41.1734 19.1152 41.2854C19.2248 41.3975 19.2871 41.5475 19.2891 41.7042C19.2781 41.8607 19.2097 42.0076 19.097 42.1167C18.9843 42.2258 18.8353 42.2895 18.6784 42.2954C18.3804 42.2954 18.0567 41.9754 18.0836 41.6847C18.1105 41.394 18.3682 41.074 18.7004 41.1021Z" fill="white"/>
<path d="M78.279 41.0142C78.2001 41.0187 78.1212 41.007 78.0469 40.9797C77.9728 40.9525 77.905 40.9103 77.8477 40.8558C77.7904 40.8013 77.745 40.7357 77.7142 40.6629C77.6833 40.5901 77.6677 40.5118 77.6683 40.4328C77.6645 40.3136 77.6961 40.1959 77.7594 40.0948C77.8225 39.9937 77.9144 39.9136 78.0232 39.8649C78.132 39.8161 78.253 39.8009 78.3705 39.821C78.4881 39.8412 78.5969 39.8958 78.6833 39.9781C78.7696 40.0603 78.8296 40.1664 78.8555 40.2828C78.8814 40.3992 78.8721 40.5206 78.8287 40.6317C78.7854 40.7428 78.71 40.8385 78.6121 40.9066C78.5142 40.9747 78.3983 41.0122 78.279 41.0142Z" fill="white"/>
<path d="M111.336 42.2197C111.258 42.222 111.18 42.208 111.107 42.1785C111.034 42.149 110.969 42.1048 110.914 42.0485C110.859 41.9922 110.817 41.9251 110.789 41.8515C110.762 41.778 110.75 41.6995 110.755 41.6212C110.761 41.4685 110.825 41.324 110.936 41.2182C111.046 41.1124 111.193 41.0537 111.346 41.0545C111.504 41.0544 111.656 41.1157 111.77 41.2255C111.884 41.3353 111.951 41.485 111.957 41.6432C111.95 41.8017 111.882 41.9513 111.765 42.0593C111.649 42.1673 111.495 42.225 111.336 42.2197Z" fill="white"/>
<path d="M18.582 40.5023C18.5862 40.5803 18.5743 40.6582 18.547 40.7313C18.5195 40.8044 18.4774 40.8711 18.423 40.9271C18.3685 40.9831 18.3032 41.0272 18.2309 41.0567C18.1587 41.0861 18.0811 41.1003 18.0031 41.0984C17.6647 41.0984 17.4412 40.8541 17.4461 40.4877C17.442 40.4099 17.4539 40.3322 17.481 40.2593C17.5082 40.1863 17.5499 40.1197 17.6039 40.0636C17.6578 40.0074 17.7226 39.9629 17.7943 39.9328C17.8662 39.9027 17.9434 39.8877 18.0212 39.8886C18.0991 39.8895 18.1758 39.9064 18.2469 39.9382C18.318 39.9699 18.3817 40.016 18.4342 40.0734C18.4869 40.1308 18.5271 40.1984 18.5525 40.2719C18.5779 40.3455 18.5879 40.4235 18.582 40.5011V40.5023Z" fill="white"/>
<path d="M79.4824 41.6566C79.4824 42.0047 79.2381 42.227 78.8717 42.2197C78.7954 42.2205 78.7201 42.2054 78.6502 42.1751C78.5804 42.1448 78.5177 42.1002 78.4663 42.044C78.4149 41.9879 78.3758 41.9215 78.3518 41.8493C78.3278 41.7771 78.3193 41.7006 78.3269 41.6248C78.325 41.5487 78.3386 41.473 78.3671 41.4024C78.3956 41.3318 78.4382 41.2678 78.4923 41.2142C78.5464 41.1607 78.6109 41.1188 78.6817 41.0911C78.7527 41.0634 78.8286 41.0505 78.9046 41.0532C79.2479 41.0544 79.5312 41.3537 79.4824 41.6566Z" fill="white"/>
<path d="M17.9579 41.7044C17.9593 41.7823 17.9452 41.8596 17.9161 41.9318C17.887 42.0041 17.8438 42.0697 17.7888 42.1249C17.7339 42.18 17.6684 42.2236 17.5963 42.2529C17.5243 42.2822 17.447 42.2967 17.3692 42.2956C17.2938 42.2941 17.2195 42.2773 17.1508 42.2463C17.0821 42.2152 17.0206 42.1705 16.9696 42.1148C16.9188 42.0592 16.8799 41.9938 16.8551 41.9226C16.8303 41.8514 16.8203 41.7759 16.8256 41.7008C16.8256 41.3343 17.0491 41.0998 17.3899 41.1023C17.4679 41.1008 17.5452 41.1157 17.617 41.1459C17.6888 41.1762 17.7535 41.221 17.807 41.2777C17.8605 41.3344 17.9016 41.4017 17.9275 41.4752C17.9535 41.5486 17.9637 41.6267 17.9579 41.7044Z" fill="white"/>
<path d="M58.3911 42.2186C58.043 42.2027 57.8501 41.9743 57.8684 41.5871C57.8707 41.5112 57.8887 41.4365 57.9211 41.3678C57.9538 41.2991 58.0002 41.238 58.0576 41.1881C58.1149 41.1383 58.182 41.101 58.2546 41.0784C58.3271 41.0558 58.4036 41.0485 58.4791 41.057C58.6293 41.073 58.7675 41.1467 58.8643 41.2625C58.9612 41.3783 59.0094 41.5273 58.9986 41.6779C58.9878 41.8286 58.919 41.9691 58.8066 42.07C58.6942 42.1709 58.547 42.2241 58.396 42.2186H58.3911Z" fill="white"/>
</g>
</svg>
