<svg width="165" height="100" viewBox="0 0 165 100" fill="none" xmlns="http://www.w3.org/2000/svg">
<mask id="mask0_18847_6323" style="mask-type:luminance" maskUnits="userSpaceOnUse" x="31" y="28" width="129" height="60">
<path d="M159.465 28.3398H31.7656V87.466H159.465V28.3398Z" fill="white"/>
</mask>
<g mask="url(#mask0_18847_6323)">
<path d="M31.7656 72.2671L34.7649 34.2656H37.2833L40.311 72.2671H37.9624L37.3682 63.9792H33.237L32.5861 72.2671H31.7656ZM33.2935 63.1898H37.3116L36.1797 47.9946C35.8968 44.1886 35.7553 41.3417 35.6138 38.3529H35.1611C34.9913 41.3417 34.7932 44.1886 34.5103 47.9946L33.2935 63.1898Z" fill="white"/>
<path d="M45.7451 72.2668V35.111H42.4062V34.293H51.4044V35.111H48.0654V72.2668H45.7451Z" fill="white"/>
<path d="M55.8438 72.2668V34.293H58.8148L61.0504 57.9458C61.3616 61.2436 61.503 63.4431 61.6728 66.0363H62.1255C62.2953 63.4708 62.4934 61.2436 62.833 57.9458L65.3796 34.293H68.2092V72.2954H65.889V51.4332C65.889 47.4022 66.002 43.2863 66.3416 37.0559L65.889 37.0273L62.0406 72.2668H60.3712L56.8625 36.9996L56.4097 37.0273C56.5795 43.2015 56.6643 47.3736 56.6643 51.4055V72.2668H55.8438Z" fill="white"/>
<path d="M73.7305 67.5875V38.9732C73.7305 35.6468 75.1171 34.0117 78.0316 34.0117C80.9177 34.0117 82.3043 35.6468 82.3043 38.9732V67.5875C82.3043 70.9139 80.9177 72.549 78.0316 72.549C75.1171 72.549 73.7305 70.9139 73.7305 67.5875ZM79.984 68.7431V37.8454C79.984 35.6182 79.3615 34.5752 78.0316 34.5752C76.7016 34.5752 76.0508 35.6468 76.0508 37.8454V68.7431C76.0508 70.9416 76.7016 72.0132 78.0316 72.0132C79.3615 72.0132 79.984 70.9416 79.984 68.7431Z" fill="white"/>
<path d="M87.2812 66.3748V58.9326L89.545 58.2557V66.5445C89.545 70.6603 90.1675 72.0132 91.4974 72.0132C92.8273 72.0132 93.4781 70.688 93.4781 67.3616C93.4781 63.7816 92.7424 60.2292 91.1295 55.1552L89.5166 50.0517C87.9037 44.9777 87.4792 41.7361 87.4792 39.0009C87.4792 35.6468 88.781 34.0117 91.4974 34.0117C94.1856 34.0117 95.5154 35.6468 95.5154 39.0009V46.2181L93.2517 46.895V38.8884C93.2517 35.5334 92.6859 34.5466 91.4974 34.5466C90.309 34.5466 89.7148 35.5334 89.7148 38.6062C89.7148 41.5665 90.1675 44.3571 91.7521 49.3472L93.365 54.3935C94.9495 59.3836 95.7418 63.3583 95.7418 66.3748C95.7418 70.5192 94.327 72.549 91.4126 72.549C88.6395 72.549 87.2812 70.5469 87.2812 66.3748Z" fill="white"/>
<path d="M100.723 72.2668V34.293H104.118C107.825 34.293 109.155 36.0977 109.155 39.9314V52.7021C109.155 56.5357 107.825 58.2842 104.118 58.2842H103.015V72.2668H100.723ZM103.015 57.6359H104.005C106.071 57.6359 106.807 56.4518 106.807 53.1254V39.5367C106.807 36.2102 106.071 34.9699 104.005 34.9699H103.015V57.6359Z" fill="white"/>
<path d="M114.133 72.2668V34.293H116.425V51.067H120.387V34.293H122.707V72.2668H120.387V51.8564H116.425V72.2668H114.133Z" fill="white"/>
<path d="M128.227 72.2668V34.293H134.197V35.111H130.519V51.1233H133.943V51.9413H130.519V71.4774H134.481V72.2668H128.227Z" fill="white"/>
<path d="M138.895 72.2668V34.293H142.29C145.856 34.293 147.327 36.2951 147.327 39.9314V47.4307C147.327 50.6723 146.054 52.3922 143.365 52.7307V53.1254C145.488 53.4629 146.733 54.1961 146.902 58.7915L147.072 63.4145C147.242 68.0384 147.412 70.8853 148.204 71.7873L148.12 72.2668H145.601C145.176 70.5469 144.978 68.151 144.865 63.5279L144.752 58.904C144.639 54.2809 143.677 53.1531 141.583 53.1531H141.215V72.2668H138.895ZM141.215 52.5048H142.036C144.328 52.5048 145.035 51.4055 145.035 47.8531V39.7063C145.035 36.0977 144.328 34.9975 142.036 34.9975H141.215V52.5048Z" fill="white"/>
<path d="M152.789 72.2668V34.293H158.788V35.111H155.109V51.1233H158.505V51.9413H155.109V71.4774H159.043V72.2668H152.789Z" fill="white"/>
<path d="M51.9545 51.7539L50.0938 53.6078L51.9545 55.4616L53.8153 53.6078L51.9545 51.7539Z" fill="white"/>
<path d="M65.5497 85.431C65.5497 86.4455 64.7291 87.2634 63.7104 87.2634H60.8242V80.582H63.484C64.4461 80.582 65.2384 81.3714 65.2384 82.3296C65.2384 82.9779 64.8989 83.5137 64.3895 83.7959C65.0969 84.0495 65.5497 84.6693 65.5497 85.431ZM61.3618 81.0616V83.6263H63.5123C64.1914 83.6263 64.7573 83.0628 64.7573 82.3582C64.7573 81.6536 64.1914 81.0893 63.5123 81.0893H61.3618V81.0616ZM65.0403 85.431C65.0403 84.6979 64.4461 84.0772 63.7104 84.0772H61.3336V86.7562H63.7104C64.4744 86.7839 65.0403 86.1642 65.0403 85.431Z" fill="white"/>
<path d="M67.6172 85.009V80.5547H68.1265V85.009C68.1265 86.1082 68.8056 86.8691 70.0789 86.8691C71.3523 86.8691 72.0314 86.1082 72.0314 85.009V80.5547H72.5408V85.009C72.5408 86.4181 71.5503 87.3486 70.0789 87.3486C68.6076 87.3486 67.6172 86.4181 67.6172 85.009Z" fill="white"/>
<path d="M77.6618 84.5008H75.5396V87.2361H75.0586V80.5547H77.6901C78.7937 80.5547 79.6709 81.428 79.6709 82.5273C79.6709 83.4301 79.0484 84.191 78.1995 84.4169L79.8689 87.2075H79.2747L77.6618 84.5008ZM75.5679 84.0499H77.6901C78.5107 84.0499 79.1615 83.3739 79.1615 82.5559C79.1615 81.7388 78.5107 81.0619 77.6901 81.0619H75.5679V84.0499Z" fill="white"/>
<path d="M81.3125 86.2481L81.737 85.9945C81.9633 86.5865 82.5575 86.8687 83.2933 86.8687C84.2553 86.8687 84.9344 86.3615 84.9344 85.431V80.582H85.4437V85.431C85.4437 86.6991 84.4817 87.376 83.2933 87.376C82.3878 87.3483 81.6238 86.9813 81.3125 86.2481Z" fill="white"/>
<path d="M95.3444 87.2349L92.0054 83.9647V87.2349H91.4961V80.582H92.0054V83.6834L95.2595 80.582H95.9386L92.543 83.8236L96.0235 87.2349H95.3444Z" fill="white"/>
<path d="M102.817 80.582V87.2349H102.308V84.0495H98.4313V87.2349H97.9219V80.582H98.4313V83.57H102.308V80.582H102.817Z" fill="white"/>
<path d="M109.297 85.5439H105.93L105.279 87.2361H104.77L107.373 80.5547H107.911L110.514 87.2361H109.976L109.297 85.5439ZM109.127 85.0652L107.628 81.1744L106.128 85.0652H109.127Z" fill="white"/>
<path d="M116.088 86.7839V87.2349H112.41V80.582H112.919V86.7839H116.088Z" fill="white"/>
<path d="M118.607 80.582H118.098V87.2634H118.607V80.582Z" fill="white"/>
<path d="M121.72 81.0616V83.7111H124.833V84.1906H121.72V87.2349H121.211V80.582H124.946V81.0616H121.72Z" fill="white"/>
<path d="M130.716 85.5439H127.348L126.698 87.2361H126.16L128.764 80.5547H129.301L131.904 87.2361H131.367L130.716 85.5439ZM130.517 85.0652L129.018 81.1744L127.518 85.0652H130.517Z" fill="white"/>
</g>
<path d="M12.7331 3L11.2109 4.25412V19.5369L9.80567 20.6454V27.7617L7.96137 29.5991V61.2731L6 62.6731V93.0638L7.96137 91.6638V86.3265L9.80567 84.4598V96.1558L14.1089 92.6847V85.1308L16.5387 83.1765V86.3265L18.5 84.9265V54.5651L16.7144 55.8484V37.4447L14.1089 39.5447V17.1746L12.7331 18.2828V3Z" fill="white"/>
</svg>
