<svg width="165" height="100" viewBox="0 0 165 100" fill="none" xmlns="http://www.w3.org/2000/svg">
<g clip-path="url(#clip0_18847_5996)">
<path d="M8 46.0978C10.7051 41.9536 15.7372 40.7052 20.0946 43.1523C22.0481 44.2468 23.0641 45.9375 22.9808 48.3975C21.25 48.3975 19.5561 48.4247 17.8654 48.3606C17.6635 48.3606 17.4391 47.8799 17.2965 47.577C16.8814 46.7116 16.1619 46.2068 15.2612 46.3109C14.6179 46.4055 14.0279 46.7218 13.5929 47.2052C12.9776 47.9408 13.3718 48.9552 14.4407 49.4247C15.9728 50.0962 17.5657 50.6266 19.1138 51.2613C20.7532 51.9343 22.4087 52.7164 22.9439 54.5658C23.992 58.1956 22.6811 61.5 18.3894 62.6683C16.2564 63.25 14.1026 63.0754 11.9792 62.3478C10.1058 61.6988 8.94551 60.3398 8 58.7148V56.3622C9.17308 56.3766 10.3478 56.4215 11.5256 56.3943C12.5144 56.3702 13.3349 56.327 13.7179 57.6106C14 58.5545 15.0401 58.9023 16.0144 58.7661C16.9183 58.6395 17.7772 58.2276 17.8718 57.1523C17.9663 56.077 17.2115 55.5577 16.3542 55.2164C15.2324 54.7741 14.0978 54.3638 12.9471 54.0113C10.7949 53.351 9.00962 52.2581 8 50.1603V46.0978Z" fill="white"/>
<path d="M26.8706 74.9663C26.4251 74.7516 25.97 74.5544 25.5357 74.3253C24.1879 73.5929 23.393 71.7532 23.7424 70.2131C24.1286 68.516 25.3898 67.3285 26.9155 67.2163C28.8209 67.0689 30.4764 67.5048 31.1046 69.4214C30.3754 69.6634 29.7472 69.758 29.1126 69.1009C28.8991 68.8856 28.6442 68.7156 28.3634 68.6012C28.0825 68.4868 27.7815 68.4303 27.4783 68.4351C27.1751 68.4398 26.8759 68.5058 26.5988 68.6291C26.3218 68.7523 26.0724 68.9302 25.8658 69.1522C24.9555 70.1137 24.9475 71.9182 25.8482 72.8589C26.7023 73.7516 28.1783 73.7323 29.1494 72.9791C29.6302 72.6041 30.3289 72.5096 31.1575 72.2019C30.8049 74.0913 29.4379 74.3653 28.3722 74.9711L26.8706 74.9663Z" fill="white"/>
<path d="M39.5213 74.9664C38.9268 74.8686 38.7553 74.5305 38.954 73.9776C39.6896 71.9359 40.3963 69.8831 41.1848 67.8606C41.2986 67.569 41.7857 67.2789 42.1175 67.2581C42.4492 67.2372 43.0309 67.4616 43.1319 67.7212C43.9652 69.8799 44.7136 72.069 45.478 74.2516C45.5002 74.4009 45.5002 74.5527 45.478 74.702C44.7088 74.9648 44.196 74.9472 43.8755 74.0401C43.7601 73.7084 43.1912 73.4712 42.7825 73.3222C42.462 73.2084 42.071 73.3398 41.72 73.2917C40.954 73.1859 40.5165 73.46 40.3611 74.2388C40.3082 74.4984 40.0854 74.7196 39.9412 74.9664H39.5213ZM43.1816 71.984L42.2825 69.5129L42.0405 69.5385C41.7729 70.3206 41.5069 71.1026 41.2056 71.984H43.1816Z" fill="white"/>
<path d="M98.2813 74.9664C98.206 74.7693 98.0394 74.5561 98.073 74.3798C98.4961 72.101 97.1115 70.3959 96.2445 68.5257C96.0746 68.1603 95.9448 67.7757 95.7461 67.2757C98.3487 67.0032 97.6259 69.5866 98.8967 70.3895C99.2172 69.7356 99.6756 69.0497 99.8999 68.2949C100.22 67.2004 100.878 67.0401 101.953 67.3686C101.394 68.4696 100.903 69.5609 100.302 70.5866C99.7202 71.5259 99.4519 72.6258 99.5362 73.7276C99.5682 74.133 99.4192 74.5529 99.3535 74.9664H98.2813Z" fill="white"/>
<path d="M81.2667 39.7147C75.5808 37.8894 69.8885 36.3237 63.7812 35.8574V62.7067H58.6401C58.6225 62.2949 58.5888 61.8846 58.5888 61.4744C58.5888 53.3547 58.5888 45.2292 58.5888 37.0978C58.5888 35.601 58.5888 35.601 57.0808 35.625C56.7299 35.625 56.3773 35.625 55.8997 35.625V62.6859H50.6594V36.2965C46.1401 36.9952 42.0953 38.5657 38.1273 40.4199L37.9414 40.0865C38.2619 39.8173 38.544 39.4968 38.9029 39.2853C42.2411 37.2676 45.7058 35.5048 49.4558 34.3814C50.3629 34.109 50.6898 33.7051 50.6626 32.742C50.5904 30.1875 50.6369 27.6282 50.6369 25.0016H55.8212V32.6923C55.9444 32.7286 56.0713 32.7511 56.1994 32.7596C58.6401 32.4696 58.6305 32.4696 58.6401 29.9679C58.6401 28.399 58.6578 26.8317 58.6722 25.2644C58.6929 25.1719 58.7269 25.0828 58.7731 25H63.7683V30.0929C63.7683 32.5673 63.778 32.5112 66.2347 32.8798C71.6834 33.6987 76.5135 35.9904 80.9126 39.2356C81.076 39.3478 81.153 39.5529 81.2667 39.7147Z" fill="white"/>
<path d="M134.66 60.7564C133.307 62.173 131.92 62.9038 130.243 62.9775C126.444 63.1474 123.314 60.4759 122.732 56.6442C122.351 54.1394 122.585 51.7676 123.886 49.54C126.029 45.8717 131.418 45.1858 134.158 47.9567C134.294 48.0644 134.439 48.1604 134.591 48.2435C134.646 47.6378 134.692 47.1298 134.751 46.5705H139.71V47.7467C139.71 52.7355 139.673 57.7243 139.719 62.7131C139.769 68.1009 135.864 71.1907 130.36 70.6009C128.331 70.3846 126.354 69.8733 125.025 68.2387C124.264 67.3076 123.827 66.1025 123.299 64.9951C123.033 64.4326 123.283 64.1298 123.94 64.1394C125.155 64.157 126.372 64.1121 127.585 64.1682C127.917 64.2174 128.217 64.3931 128.423 64.6586C129.434 65.9759 130.827 66.4583 132.501 66.0096C133.766 65.6714 134.517 64.6634 134.666 63.016C134.708 62.3846 134.66 61.7435 134.66 60.7564ZM131.227 50.7788C129.266 50.7644 127.841 52.3365 127.833 54.524C127.823 56.8493 129.154 58.407 131.166 58.4278C133.179 58.4487 134.665 56.8493 134.67 54.6506C134.674 52.4519 133.189 50.8012 131.227 50.7788Z" fill="white"/>
<path d="M79.4312 52.2516C82.3158 53.9936 83.2565 55.9215 82.6107 58.5545C82.3535 59.6207 81.7668 60.5787 80.9339 61.2922C80.101 62.0057 79.0643 62.4384 77.9713 62.5289C75.4873 62.734 72.9841 62.6891 70.4889 62.7452C69.2068 62.7693 67.9328 62.7452 66.5578 62.7452C66.5273 62.3045 66.4841 61.9648 66.4841 61.6234C66.4841 55.5689 66.4937 49.516 66.4648 43.4616C66.4648 42.617 66.6443 42.266 67.5866 42.2885C70.2277 42.3494 72.8751 42.2452 75.5129 42.3382C76.723 42.3747 77.9209 42.5907 79.0674 42.9792C80.9697 43.6443 82.0915 45.093 82.3238 47.109C82.5514 49.0802 81.803 50.6571 80.1523 51.7901C79.944 51.9327 79.7325 52.0593 79.4312 52.2516ZM71.6203 54.4119V58.4519C73.1523 58.4519 74.6139 58.5673 76.0482 58.4151C77.17 58.2949 77.6251 57.5032 77.5722 56.343C77.5225 55.266 76.9007 54.4968 75.8094 54.4311C74.4376 54.3494 73.053 54.4119 71.6203 54.4119ZM71.5963 50.4808C72.8158 50.4808 73.9825 50.5176 75.1443 50.4696C76.3751 50.4199 77.0049 49.8285 77.0674 48.7693C77.1443 47.476 76.6796 46.7308 75.4216 46.593C74.1636 46.4552 72.8943 46.5625 71.5979 46.5625L71.5963 50.4808Z" fill="white"/>
<path d="M115.669 48.3685C115.669 46.2291 115.701 44.2724 115.653 42.3157C115.634 41.5144 115.813 41.1474 116.712 41.2083C117.815 41.2852 118.927 41.1874 120.03 41.258C120.285 41.2756 120.727 41.665 120.727 41.8846C120.749 48.7548 120.727 55.6249 120.708 62.4951C120.708 62.5256 120.674 62.5544 120.603 62.665H115.724C115.69 62.0801 115.66 61.5336 115.618 60.7756C114.357 62.2275 112.873 62.8958 111.145 62.9695C107.429 63.1298 104.254 60.282 103.773 56.3541C103.475 53.9695 103.674 51.6618 104.982 49.5608C107.289 45.8493 112.033 45.1794 115.296 48.0929C115.373 48.157 115.448 48.2067 115.669 48.3685ZM115.669 54.6474C115.669 52.3124 114.272 50.7067 112.24 50.7227C110.248 50.7387 108.833 52.3253 108.823 54.5689C108.813 56.8878 110.217 58.4711 112.275 58.4647C114.333 58.4583 115.661 56.9374 115.668 54.6474H115.669Z" fill="white"/>
<path d="M35.0145 54.6474L41.7773 62.7356C39.5338 62.7356 37.6604 62.766 35.7854 62.7019C35.4937 62.6923 35.1604 62.2837 34.9408 61.9888C33.5866 60.1699 32.2597 58.3301 30.7741 56.2837V62.6458H25.7148V41.2997H30.7148V52.8109C32.2709 50.742 33.6139 48.9215 35.0049 47.1394C35.2325 46.8478 35.6668 46.5561 36.0145 46.5449C37.7966 46.484 39.5818 46.516 41.7036 46.516L35.0145 54.6474Z" fill="white"/>
<path d="M157.764 55.9391H146.852C146.817 57.1939 147.362 58.048 148.432 58.4951C148.972 58.7261 149.568 58.7919 150.145 58.684C150.722 58.5762 151.254 58.2997 151.674 57.8894C152.035 57.5473 152.499 57.3338 152.993 57.282C154.41 57.2051 155.835 57.2532 157.429 57.2532C157.322 57.7339 157.304 58.1217 157.155 58.4455C155.835 61.3092 153.519 62.7852 150.424 62.9615C146.996 63.1554 144.062 62.0705 142.504 58.8269C140.875 55.4342 141.048 52.0256 143.421 48.9631C146.466 45.0416 154.996 45.0208 157.238 50.9551C157.79 52.415 157.597 54.1522 157.764 55.9391ZM152.476 52.8653C152.46 51.4358 151.386 50.4807 149.807 50.431C148.229 50.3814 147.022 51.3605 146.883 52.9358C148.485 52.9358 150.07 52.9358 151.661 52.9358C151.931 52.931 152.205 52.8846 152.472 52.8653H152.476Z" fill="white"/>
<path d="M85.0508 62.6971V46.5304C86.5812 46.5304 88.0668 46.5096 89.5508 46.5593C89.7335 46.5593 90.0155 46.9423 90.0556 47.1795C90.1357 47.6602 90.0796 48.1602 90.0796 48.8766C91.4851 47.3878 92.9178 46.367 95.0572 46.4727C95.0572 48.0753 95.078 49.6618 95.0251 51.2404C95.0251 51.4006 94.5924 51.649 94.3344 51.6907C93.8104 51.7756 93.2655 51.7227 92.7319 51.7692C91.1037 51.9086 90.1197 52.923 90.0973 54.5561C90.0652 56.9407 90.0588 59.3253 90.0973 61.7099C90.1085 62.4375 89.9066 62.742 89.1357 62.7163C87.7928 62.6602 86.445 62.6971 85.0508 62.6971Z" fill="white"/>
<path d="M42.8047 46.5609H47.8383V62.7067H42.8047V46.5609Z" fill="white"/>
<path d="M101.737 62.5H96.7243V60.0144C96.7243 55.9167 96.7531 51.8189 96.7034 47.7227C96.6922 46.7612 96.9951 46.4631 97.9262 46.5288C98.9214 46.6009 99.931 46.4952 100.925 46.5769C101.211 46.6009 101.702 47.008 101.703 47.2436C101.748 52.2997 101.737 57.3558 101.737 62.5Z" fill="white"/>
<path d="M86.3206 70.7548C85.8254 71.8541 85.3591 72.9647 84.8206 74.0416C84.6684 74.3477 84.3238 74.7435 84.0562 74.7531C83.7886 74.7628 83.4328 74.3685 83.2821 74.0689C82.7277 72.9679 82.2421 71.8349 81.4712 70.7467V73.8637C81.4712 74.3445 81.5065 74.8156 80.7982 74.8253C80.0546 74.8253 80.1571 74.306 80.1571 73.8637C80.1571 71.6987 80.1571 69.5368 80.1571 67.407C81.1075 67.0689 81.5898 67.3173 81.9312 68.1554C82.5578 69.6939 83.295 71.1874 84.0546 72.8509C84.8094 71.165 85.4793 69.6009 86.2164 68.0705C86.3926 67.7126 86.697 67.434 87.069 67.29C87.6619 67.1137 88.0738 67.3205 88.0594 68.0913C88.0209 70.0496 88.0738 72.0096 88.0161 73.9679C88.0081 74.2564 87.6491 74.7099 87.3751 74.782C86.7982 74.9326 86.5738 74.524 86.5738 73.9583C86.5914 72.899 86.5738 71.8397 86.5738 70.7804L86.3206 70.7548Z" fill="white"/>
<path d="M102.202 42.2789C102.389 44.0561 100.936 45.0753 99.1874 45.0865C97.3268 45.0994 96.2852 44.0497 96.2852 42.2805C96.2852 40.5112 97.3957 39.4503 99.2916 39.4728C101.107 39.4936 102.202 40.5449 102.202 42.2789Z" fill="white"/>
<path d="M48.3442 42.3077C48.3442 43.9872 47.0717 45.125 45.2448 45.0897C43.5141 45.0577 42.224 43.8349 42.2544 42.2564C42.2881 40.633 43.631 39.4471 45.4099 39.4743C47.1615 39.5 48.349 40.6474 48.3442 42.3077Z" fill="white"/>
<path d="M53.4517 67.1779C54.7979 67.2644 55.979 67.2355 57.1184 67.4391C58.8588 67.7484 59.8428 69.0689 59.8604 70.8589C59.8796 72.8798 59.0062 74.2067 57.2178 74.5705C56.1857 74.7804 55.0992 74.7548 54.0351 74.7596C53.8428 74.7596 53.4806 74.4038 53.4774 74.2083C53.4373 71.9439 53.4517 69.6779 53.4517 67.1779ZM54.8059 73.5689C56.1761 73.6154 57.4485 73.7676 58.2098 72.4295C58.753 71.4775 58.6569 70.0256 57.9517 69.2243C57.088 68.2468 55.9598 68.367 54.8059 68.4823V73.5689Z" fill="white"/>
<path d="M9.42969 74.6667C10.3031 72.2628 11.1348 69.9327 12.029 67.6154C12.1108 67.4023 12.5948 67.2276 12.8832 67.2404C13.2181 67.2532 13.7518 67.4135 13.8448 67.6475C14.7294 69.9664 15.5419 72.3077 16.388 74.6795C15.5162 74.9744 14.9313 75 14.6124 74.0385C14.5082 73.718 14.0146 73.4311 13.6508 73.3366C13.1621 73.2236 12.654 73.2236 12.1653 73.3366C11.8239 73.4119 11.3464 73.6763 11.2614 73.9584C10.9794 74.8654 10.4473 75.0096 9.42969 74.6667ZM13.0643 69.5593L12.8063 69.5177C12.5258 70.3189 12.247 71.1202 11.9473 71.9712H13.9121C13.6076 71.0866 13.3335 70.3221 13.0643 69.5593Z" fill="white"/>
<path d="M69.149 71.5353V73.609C69.7788 73.609 70.3734 73.5945 70.9696 73.609C71.4006 73.6234 72.0433 73.4695 71.9119 74.2067C71.8686 74.4455 71.3429 74.75 71.0272 74.7644C67.8125 74.9167 67.8125 74.9006 67.8125 71.7067V67.2356C69.0946 67.2356 70.2548 67.2083 71.4151 67.2628C71.6042 67.2724 71.9279 67.657 71.9119 67.8445C71.8958 68.032 71.5625 68.3558 71.3446 68.3782C70.6458 68.4455 69.9359 68.4022 69.1715 68.4022V70.4022C69.7981 70.4022 70.4022 70.3478 70.9872 70.4295C71.2372 70.4631 71.4471 70.7853 71.6747 70.976C71.4359 71.1619 71.2163 71.4711 70.9551 71.5096C70.4022 71.5929 69.8269 71.5353 69.149 71.5353Z" fill="white"/>
</g>
<defs>
<clipPath id="clip0_18847_5996">
<rect width="149.84" height="50" fill="white" transform="translate(8 25)"/>
</clipPath>
</defs>
</svg>
