<svg width="165" height="100" viewBox="0 0 165 100" fill="none" xmlns="http://www.w3.org/2000/svg">
<mask id="mask0_18847_6236" style="mask-type:luminance" maskUnits="userSpaceOnUse" x="4" y="31" width="158" height="38">
<path d="M161.344 31H4V69H161.344V31Z" fill="white"/>
</mask>
<g mask="url(#mask0_18847_6236)">
<mask id="mask1_18847_6236" style="mask-type:luminance" maskUnits="userSpaceOnUse" x="4" y="31" width="158" height="38">
<path d="M161.344 31H4V69H161.344V31Z" fill="white"/>
</mask>
<g mask="url(#mask1_18847_6236)">
<path d="M27.8283 43.7024C26.805 43.1156 25.8675 42.5788 24.93 42.0349C23.5918 41.2549 22.2464 40.4749 20.9081 39.6877C20.7006 39.566 20.5289 39.5732 20.3285 39.6877C19.2336 40.3246 18.1387 40.9615 17.0438 41.5984C15.6268 42.4214 14.2099 43.2444 12.7858 44.0674C11.1613 45.0048 9.52964 45.9423 7.90516 46.887C7.15375 47.3235 6.39518 47.7385 5.72248 48.2896C5.13567 48.769 4.57747 49.2772 4.2125 49.9785C4.10516 49.8926 4.15525 49.7638 4.15525 49.6564C4.15525 47.6097 4.28406 45.5487 4.11231 43.5163C3.94056 41.4625 4.97823 40.2244 6.49536 39.2368C7.79066 38.3924 9.17182 37.6768 10.5172 36.9039C11.927 36.0881 13.3296 35.2723 14.7323 34.4493C16.1492 33.6191 17.559 32.789 18.9832 31.966C19.4483 31.6941 19.9421 31.4723 20.3786 31.1717C20.5933 31.0214 20.7293 31.0572 20.9081 31.1574C21.9387 31.7514 22.9692 32.3596 24.0069 32.9536C25.3522 33.7265 26.6976 34.4922 28.0359 35.2723C29.6746 36.224 31.3063 37.183 32.9451 38.1276C33.7609 38.5928 34.6125 39.0078 35.3496 39.5875C36.4588 40.4463 37.3319 41.4768 37.2746 43.001C37.2246 44.3393 36.5519 45.3769 35.5428 46.1713C33.9756 47.4022 32.1722 48.261 30.469 49.27C28.6441 50.3506 26.8121 51.4097 24.9801 52.4689C23.692 53.2131 22.3896 53.9502 21.1014 54.6945C20.8938 54.8161 20.6935 54.8447 20.4716 54.716C18.0814 53.3133 15.6841 51.9107 13.2938 50.5152C13.0005 50.3434 12.6927 50.186 12.385 50.0357C12.113 49.8998 12.0773 49.821 12.385 49.6493C13.53 49.0052 14.6536 48.3254 15.7843 47.667C16.4641 47.2734 17.1654 46.9013 17.8381 46.4934C18.0385 46.3717 18.1602 46.3574 18.3605 46.4862C19.0475 46.9013 19.756 47.2877 20.4502 47.6885C20.6148 47.7815 20.7221 47.7958 20.9081 47.6885C23.1767 46.3717 25.4524 45.0764 27.8283 43.7167" fill="white"/>
<path d="M88.1187 46.6866C87.4032 48.0391 86.6878 49.3917 85.9575 50.7371C84.7913 52.8982 83.6104 55.0451 82.4437 57.2063C82.3368 57.3996 82.2293 57.4568 82.0215 57.4568C80.7835 57.4568 79.5456 57.4496 78.3076 57.4568C78.1146 57.4568 78.0072 57.3924 77.9211 57.235C77.091 55.6892 76.2681 54.1363 75.4309 52.5905C74.3503 50.5939 73.2696 48.5902 72.1314 46.4862V47.0086C72.1314 50.3363 72.1314 53.6711 72.1391 57.006C72.1391 57.3566 72.0602 57.4639 71.695 57.4568C70.3353 57.4353 68.9756 57.4353 67.6159 57.4568C67.3298 57.4568 67.2656 57.3781 67.2656 57.099C67.2728 52.2255 67.2728 47.3521 67.2656 42.4715C67.2656 42.1781 67.3582 42.1209 67.6302 42.128C69.6056 42.1423 71.5733 42.1065 73.5487 42.1495C74.4286 42.1709 75.1304 42.5574 75.574 43.3947C77.0049 46.1069 78.4792 48.7905 79.9321 51.4884C79.9962 51.6101 80.1613 51.6602 80.1037 51.9178C80.5977 51.3382 80.8192 50.7156 81.1273 50.1574C82.0791 48.4398 82.9875 46.7009 83.9322 44.9691C84.2902 44.3178 84.6482 43.6666 85.049 43.0368C85.4712 42.3856 86.1439 42.1423 86.8808 42.1352C88.8199 42.1137 90.7669 42.1352 92.706 42.1208C92.9851 42.1208 93.0641 42.1853 93.0641 42.4715C93.0569 47.345 93.0569 52.2184 93.0641 57.099C93.0641 57.3853 92.9851 57.4568 92.706 57.4496C91.3321 57.4353 89.951 57.4282 88.5771 57.4496C88.2404 57.4496 88.1834 57.3495 88.1834 57.0417C88.1906 53.757 88.1834 50.4722 88.1834 47.1875V46.6866C88.1834 46.6866 88.133 46.6794 88.1116 46.6722" fill="white"/>
<path d="M37.2744 49.6278V52.8195C37.2744 54.0862 37.2458 55.36 37.2816 56.6267C37.3102 57.6428 36.9095 58.4515 36.2511 59.1672C35.4854 60.0044 34.5336 60.5984 33.546 61.1566C31.9287 62.0726 30.3257 63.0172 28.7155 63.9476C27.4846 64.6632 26.2466 65.3788 25.0157 66.1016C23.7347 66.853 22.4537 67.6044 21.1656 68.363C20.865 68.5348 20.636 68.5634 20.2782 68.3487C18.8183 67.4613 17.3155 66.6455 15.8341 65.7868C14.3528 64.9352 12.8786 64.062 11.4044 63.2033C10.1449 62.4734 8.8782 61.7506 7.61154 61.0349C6.50947 60.4124 5.42886 59.7612 4.69176 58.6877C3.71135 57.2564 3.89741 55.4816 5.05674 54.1935C5.65787 53.528 6.36634 53.0342 7.09628 52.5404C7.32528 52.3901 7.49704 52.476 7.69741 52.5977C8.8782 53.2847 10.0733 53.9574 11.2541 54.6372C12.5637 55.3958 13.8805 56.1544 15.1901 56.9201C16.9148 57.922 18.6322 58.931 20.357 59.9329C20.5645 60.0545 20.7434 60.1261 21.0296 59.9544C23.2624 58.6161 25.5167 57.3208 27.7709 56.0112C29.9464 54.7517 32.1291 53.5065 34.2974 52.2327C35.4353 51.56 36.5302 50.8229 37.2673 49.6278" fill="white"/>
<path d="M146.45 49.7782C146.45 51.3812 146.457 52.9842 146.45 54.5872C146.45 54.9021 146.521 54.9951 146.85 54.9951C148.453 54.9737 150.057 54.9951 151.66 54.9808C152.49 54.9737 153.327 55.0595 154.157 54.8949C155.266 54.6802 156.111 53.664 156.096 52.6407C156.075 50.73 156.096 48.8264 156.089 46.9157C156.089 46.7511 156.089 46.5936 156.039 46.429C155.581 45.055 154.687 44.6685 153.456 44.6328C151.259 44.5755 149.055 44.6256 146.857 44.6113C146.536 44.6113 146.457 44.69 146.457 45.012C146.479 46.6008 146.464 48.1895 146.464 49.7782M141.605 49.8068C141.605 47.3951 141.605 44.9763 141.598 42.5646C141.598 42.2282 141.669 42.1353 142.02 42.1353C146.822 42.1496 151.616 42.1209 156.411 42.1567C158.601 42.171 160.512 43.7025 160.884 45.878C160.927 46.1356 160.963 46.3789 160.963 46.6365C160.963 48.7477 160.963 50.8516 160.963 52.9627C160.963 55.1025 159.381 56.9631 157.263 57.3567C156.855 57.4282 156.433 57.4712 156.004 57.4712C151.359 57.4569 146.714 57.4569 142.07 57.4712C141.691 57.4712 141.591 57.3853 141.598 56.9989C141.619 54.6015 141.605 52.2041 141.605 49.8068Z" fill="white"/>
<path d="M100.76 49.8068C100.76 51.4099 100.768 53.0129 100.76 54.6159C100.76 54.9165 100.847 54.9952 101.14 54.988C103.144 54.9737 105.148 54.988 107.144 54.9809C107.552 54.9809 107.96 54.9379 108.36 54.9165C109.577 54.8377 110.515 53.5854 110.493 52.4619C110.465 50.7515 110.465 49.0411 110.493 47.3308C110.522 45.7206 109.455 44.64 107.824 44.6328C105.591 44.6185 103.358 44.6328 101.133 44.6185C100.832 44.6185 100.753 44.6973 100.753 44.9978C100.768 46.6008 100.753 48.2038 100.753 49.8068M95.9802 49.7782C95.9802 47.3809 95.9873 44.9835 95.9731 42.579C95.9731 42.2068 96.0805 42.1353 96.4237 42.1353C101.175 42.1496 105.934 42.1138 110.686 42.1568C112.934 42.1782 114.637 43.4807 115.224 45.7063C115.31 46.0283 115.352 46.379 115.345 46.7368C115.331 48.7263 115.324 50.7086 115.345 52.698C115.367 54.8664 113.986 56.8272 111.789 57.3067C111.424 57.3854 111.058 57.4713 110.679 57.4713C105.927 57.4713 101.168 57.4713 96.4166 57.4713C96.052 57.4713 95.9659 57.3782 95.9731 57.0204C95.9873 54.6087 95.9802 52.1899 95.9802 49.7782Z" fill="white"/>
<path d="M131.078 51.2093C129.997 49.1769 128.952 47.2161 127.894 45.2267C126.82 47.2519 125.775 49.2199 124.723 51.2093H131.078ZM116.042 57.4568C116.78 56.0828 117.467 54.7875 118.168 53.4922C118.662 52.5762 119.17 51.6674 119.664 50.7513C121.037 48.218 122.397 45.6704 123.8 43.1442C124.186 42.45 124.887 42.1566 125.66 42.1423C127.128 42.1208 128.595 42.1137 130.062 42.1423C130.999 42.1637 131.736 42.5573 132.201 43.4376C133.511 45.9065 134.842 48.3683 136.173 50.8301C137.161 52.6621 138.148 54.4941 139.143 56.3261C139.294 56.598 139.437 56.8771 139.594 57.1491C139.716 57.3494 139.694 57.4497 139.429 57.4497C137.812 57.4497 136.188 57.4497 134.57 57.4497C134.392 57.4497 134.334 57.3494 134.277 57.235C133.711 56.1686 133.146 55.1024 132.602 54.0289C132.466 53.757 132.309 53.6711 132.008 53.6783C129.275 53.6926 126.534 53.6854 123.8 53.6783C123.557 53.6783 123.385 53.714 123.256 53.9716C122.841 54.7946 122.34 55.5818 121.968 56.4191C121.639 57.1777 121.223 57.5355 120.322 57.4711C118.927 57.3709 117.517 57.4425 116.035 57.4425" fill="white"/>
<path d="M56.8589 57.4569C54.4901 57.4569 52.1214 57.4783 49.7527 57.4497C48.7794 57.4354 47.8276 57.2279 47.0118 56.6339C45.7881 55.7537 45.0867 54.58 45.0796 53.0414C45.0724 50.823 45.0724 48.6117 45.0796 46.3932C45.0796 44.7401 46.3248 43.087 47.8562 42.5074C48.5647 42.2354 49.2946 42.1353 50.0532 42.1353C54.6404 42.1424 59.2276 42.1424 63.8079 42.1353C64.1653 42.1353 64.2728 42.2282 64.2514 42.5861C64.2229 43.1371 64.2229 43.6881 64.2514 44.232C64.2728 44.5684 64.1511 44.6256 63.8435 44.6256C60.0864 44.6113 56.3221 44.6113 52.5651 44.6256C51.2913 44.6256 50.3108 45.2339 50.0032 46.4433C49.8386 47.0802 49.9602 47.7458 49.9459 48.397C49.9387 48.6618 50.1677 48.5544 50.2894 48.5544C51.6992 48.5616 53.1018 48.5544 54.5116 48.5544C56.7587 48.5544 59.0058 48.5616 61.2529 48.5473C61.625 48.5473 61.7108 48.6546 61.6965 49.0053C61.6679 49.5062 61.6608 50.0143 61.6965 50.5153C61.7252 50.916 61.625 51.0448 61.1885 51.0448C57.596 51.0233 54.0035 51.0448 50.4111 51.0233C50.0389 51.0233 49.9029 51.1021 49.9387 51.4885C50.0032 52.2471 49.8028 53.0343 50.2393 53.7428C50.6329 54.3797 51.1911 54.7447 51.9282 54.8878C52.7583 55.0452 53.5956 54.9665 54.4258 54.9665C57.6032 54.9808 60.7877 54.9808 63.9653 54.9665C64.3298 54.9665 64.4806 55.0237 64.4515 55.4245C64.4088 55.9541 64.423 56.4908 64.4515 57.0275C64.4729 57.3639 64.3803 57.4569 64.0294 57.4569C61.6465 57.4425 59.2562 57.4497 56.8732 57.4497" fill="white"/>
</g>
</g>
</svg>
