<svg width="165" height="100" viewBox="0 0 165 100" fill="none" xmlns="http://www.w3.org/2000/svg">
<path d="M14.8692 77.0791C15.107 76.612 15.226 76.087 15.226 75.5167C15.226 71.8249 8.26787 71.5246 8.26787 68.4026C8.26787 65.8294 11.8635 65.1679 14.0321 66.214C14.3702 66.3759 14.6827 66.5589 14.9671 66.7582V65.5034C11.6816 63.866 6.64265 64.87 6.64265 68.6583C6.64265 71.9046 11.7446 72.5966 13.167 74.6348C14.2 76.1244 12.8219 78.3624 10.145 78.3624C8.7226 78.3624 7.67563 78.0571 6.42578 77.3328L6.62866 78.768C9.85352 79.8096 13.5704 79.6358 14.8692 77.0791Z" fill="white"/>
<path d="M54.2505 79.0684H54.7588V64.9241H53.4693V75.904L43.7271 64.9241H41.7031L42.862 66.2307V79.0684H44.1514V67.6826L54.2505 79.0684Z" fill="white"/>
<path d="M28.9409 64.9241H27.1757L27.5348 65.8248L21.9805 79.0684H23.2722L24.7436 75.5571H31.4172L32.8186 79.0684H34.5838L28.9409 64.9241ZM25.1307 74.6448L28.1667 67.4035L31.0581 74.6448H25.1307Z" fill="white"/>
<path d="M69.4331 64.9241H67.6679L68.0269 65.8248L62.4727 79.0684H63.7644L65.2364 75.5571H71.9099L73.3112 79.0684H75.0764L69.4331 64.9241ZM65.6208 74.6448L68.6565 67.4035L71.5481 74.6448H65.6208Z" fill="white"/>
<path d="M95.2658 69.0077C93.3818 64.3868 87.9838 64.2812 83.0938 65.1116V78.848C87.9138 79.9454 93.2815 79.5794 95.2424 75.0406C96.0473 73.1759 95.9653 70.7341 95.2658 69.0077ZM92.3346 76.516C90.3531 78.7349 87.6227 78.7582 84.7706 78.0784V65.6135H87.058C94.2962 65.6112 95.5315 72.9413 92.3346 76.516Z" fill="white"/>
<path d="M31.8342 28.7189C31.8223 28.7403 31.8127 28.7642 31.8008 28.7857C31.87 28.7331 31.8509 28.738 31.8342 28.7189Z" fill="white"/>
<path d="M31.8792 28.9064C31.8674 28.897 31.8556 28.8876 31.8438 28.8806L31.8485 28.9463C31.858 28.9345 31.8674 28.9205 31.8792 28.9064Z" fill="white"/>
<path d="M144.643 17.5747C144.724 17.4997 145.154 17.0023 145.264 17C127.232 17.3401 109.034 19.9274 91.2025 24.6844C90.734 24.811 90.4103 25.7024 89.9531 25.8243C107.783 21.0674 125.982 18.4825 144.012 18.14C144.139 18.1353 144.552 17.6568 144.643 17.5747Z" fill="white"/>
<path d="M52.9693 19.9179C53.037 19.9203 53.2771 19.4558 53.3284 19.3761C53.375 19.3057 53.6245 18.8225 53.6828 18.8249C44.2251 18.4707 34.5621 20.3636 24.9831 24.4474C24.7313 24.5529 24.5167 25.4372 24.2695 25.5428C33.8486 21.4567 43.5116 19.5637 52.9693 19.9179Z" fill="white"/>
<path d="M10.9095 24.9891C11.2756 24.9258 11.5765 24.649 11.8282 24.3699C12.3716 23.7694 12.9545 23.2229 13.1201 22.355C13.3183 21.3158 12.6561 20.3142 11.8912 19.8123C11.8002 19.7513 11.1101 20.8303 11.0331 20.7787C11.1124 20.8303 11.1894 20.8866 11.2616 20.9453C11.159 21.0461 11.0658 21.1493 11.0005 21.2737C10.5271 22.1767 9.93251 23.4691 10.0351 24.5505C10.0818 25.0056 10.6087 25.0407 10.9095 24.9891ZM10.9119 23.0938C11.0075 22.4183 11.2103 21.7569 11.4738 21.1306C11.8702 21.5199 12.1454 22.0195 12.2596 22.6224C12.3273 22.9672 12.276 23.319 12.1874 23.6522C12.164 23.7342 12.1337 23.814 12.0987 23.889C12.0847 23.8961 12.0708 23.9078 12.0568 23.9148C11.4016 24.2784 10.7953 23.9148 10.9119 23.0938Z" fill="white"/>
<path d="M96.2951 45.319C95.2366 45.7717 94.1851 46.262 93.1329 46.7288C92.564 46.9821 91.9931 47.1862 91.4285 47.402C91.1182 47.5216 90.808 47.5966 90.5098 47.7397C89.9388 48.0095 89.3742 48.3121 88.8075 48.5936C88.4273 48.7812 87.9638 49.0651 87.6811 49.1214C87.1313 49.2269 86.5922 49.5177 86.0558 49.7289C85.4128 49.9846 84.7478 50.3364 84.121 50.5334C83.4843 50.7352 82.8497 51.0495 82.1784 51.1785C81.6117 51.2864 80.8542 51.6594 80.1659 51.8892C79.373 52.1566 78.566 52.4052 77.6523 52.6726C77.8156 52.668 77.9435 52.6914 78.0325 52.6586C78.7484 52.3771 79.4197 52.2763 80.1079 52.0511C81.2803 51.664 82.4604 51.2817 83.6334 50.8806C84.0623 50.7328 84.5916 50.442 84.9556 50.4983C84.0115 50.8876 83.0949 51.2512 82.0194 51.6382C83.0384 51.3333 83.8991 51.0518 84.757 50.7539C85.5548 50.4772 86.3526 50.1792 87.1448 49.8837C87.2359 49.8508 87.3179 49.8508 87.4041 49.8368C87.5673 49.8086 87.7235 49.8016 87.898 49.7429C88.4414 49.5553 88.9962 49.3301 89.5375 49.1518C90.1134 48.9384 90.6872 48.7226 91.261 48.5045C91.5825 48.3543 91.909 48.1995 92.2588 48.0353C92.2333 48.0775 92.21 48.115 92.1867 48.1526C92.5033 48.0306 92.8206 47.9063 93.1378 47.782C93.1795 47.7632 93.2219 47.7445 93.2615 47.7257C94.5858 47.1158 95.9128 46.5107 97.2392 45.9148C97.6427 45.7342 98.102 45.3613 97.9317 45.3448C97.678 45.3237 97.3608 45.319 96.9898 45.4129C96.6541 45.4997 96.2089 45.7225 95.8167 45.9031C95.1942 46.1893 95.1058 46.2221 94.8797 46.1588C96.2648 45.5912 97.6314 44.9743 98.9648 44.2682C97.9529 44.6529 97.1184 44.9672 96.2951 45.319Z" fill="white"/>
<path d="M7.05925 49.7663C7.05459 49.764 7.05225 49.7617 7.04992 49.7593C6.89375 49.6983 6.73985 49.635 6.58594 49.5717C6.74218 49.635 6.89842 49.7054 7.05925 49.7663Z" fill="white"/>
<path d="M154.935 26.9315C150.195 24.4568 144.962 24.2058 139.573 24.7454C139.56 24.7454 139.548 24.7477 139.534 24.75C139.378 24.7782 139.212 24.8134 139.012 24.8509C139.334 24.8533 139.53 24.8533 139.84 24.8579C139.632 24.9306 139.52 24.994 139.373 25.0174C139.182 25.0503 138.981 25.0761 138.781 25.1043C138.904 25.0855 139.028 25.0643 139.152 25.0456C139.329 25.0198 139.299 24.9447 139.121 24.9635C138.564 25.0245 138.002 25.1043 137.438 25.1934C137.316 25.1136 136.89 25.2098 136.822 25.2966C135.98 25.4444 135.124 25.6133 134.271 25.8009C132.51 26.1856 130.748 26.6266 129.001 27.0981C128.922 27.1191 128.875 27.1473 128.857 27.1708L128.854 27.1731C128.847 27.1825 128.845 27.1872 128.845 27.1942C128.824 27.1989 128.803 27.2059 128.782 27.2106C128.789 27.2059 128.798 27.1989 128.815 27.1895C128.789 27.2012 128.766 27.2106 128.741 27.2224C127.544 27.539 126.346 27.8721 125.168 28.224C124.951 28.2896 124.937 28.4187 125.151 28.3483C126.339 27.9659 127.541 27.6352 128.747 27.3232C128.754 27.3209 128.761 27.3209 128.768 27.3209C127.733 27.6117 126.695 27.919 125.688 28.2779C125.583 28.3178 125.522 28.3623 125.501 28.4022C125.182 28.5125 124.86 28.6251 124.538 28.7376C124.511 28.747 124.487 28.7588 124.468 28.7705C122.584 29.4296 120.707 30.1122 118.837 30.8206C118.821 30.8182 118.797 30.8159 118.781 30.8136C118.734 30.8042 118.594 30.8534 118.497 30.8886C117.92 31.1067 117.34 31.3343 116.755 31.5548C116.305 31.726 115.853 31.8785 115.398 32.0591C114.738 32.3218 114.108 32.3382 113.408 32.7839C113.334 32.8144 113.261 32.8449 113.187 32.8754C113.136 32.8871 113.082 32.9012 113.033 32.9176C112.849 32.9809 112.66 33.0466 112.471 33.1146C112.143 33.2343 111.811 33.361 111.48 33.4876C111.408 33.5134 111.331 33.5556 111.257 33.5908C110.958 33.7269 110.657 33.8629 110.289 34.0318C110.289 34.0341 110.268 34.0552 110.235 34.0928C110.186 34.1116 110.139 34.1327 110.093 34.1514C110.053 34.1373 110.023 34.128 109.997 34.121C109.757 34.2453 109.517 34.3672 109.279 34.4892C106.873 35.4931 104.464 36.4994 102.055 37.4893C101.771 37.6066 101.773 37.7614 102.041 37.6582C102.962 37.3063 103.886 36.9474 104.802 36.5838C104.816 36.605 104.86 36.6073 104.949 36.5745C104.967 36.5674 104.986 36.5604 105.003 36.5534H105.005C105.129 36.5065 105.252 36.4595 105.376 36.4126C103.956 36.9897 102.531 37.555 101.103 38.0968C100.924 38.1672 100.834 38.3056 101.02 38.2399C102.981 37.5479 104.923 36.7785 106.844 35.9552C106.614 36.1054 106.381 36.2555 106.073 36.3118C106.015 36.3235 105.618 36.6026 105.635 36.6261C105.765 36.7996 105.206 37.0553 104.93 37.2759C104.806 37.3767 104.657 37.4752 104.515 37.576C104.576 37.5456 104.639 37.5127 104.671 37.5081C104.844 37.4799 105.03 37.4283 105.222 37.3626C104.93 37.4799 104.637 37.5925 104.343 37.7121C104.366 37.7004 104.389 37.691 104.413 37.6816C104.42 37.6793 104.436 37.6418 104.447 37.6136C104.182 37.6957 103.967 37.5831 103.697 37.8928C103.45 37.9772 103.261 38.0429 103.072 38.1062C102.997 38.1367 102.911 38.1812 102.85 38.1953C102.262 38.3266 101.682 38.4651 101.094 38.9764C101.076 38.9905 101.022 39.0116 100.983 39.0304C100.684 39.1524 100.383 39.2743 100.082 39.3963C100.099 39.3752 100.115 39.354 100.131 39.3306C99.8308 39.4221 99.5319 39.5136 99.2316 39.6027C99.1334 39.6543 99.033 39.706 98.9327 39.7599C98.8952 39.7177 98.8556 39.6778 98.8189 39.6379C98.6387 39.6942 98.6154 39.7035 98.4387 39.7599C98.4338 39.8068 98.4267 39.8537 98.4225 39.8982H98.4196C98.3355 39.8936 98.2522 39.8866 98.1702 39.8795C98.0557 39.8959 97.9391 39.9124 97.8253 39.9288V39.917C97.5964 39.9241 97.3703 39.9311 97.1441 39.9358C97.219 40.1727 96.5732 40.3299 96.2234 40.5199C96.193 40.5339 96.1605 40.5433 96.1301 40.5551C96.1951 40.5081 96.2608 40.4589 96.3258 40.412C96.2163 40.419 96.1068 40.426 95.9944 40.4308V40.5551C95.8807 40.5527 95.8199 40.5503 95.7641 40.548C95.6892 40.5738 95.615 40.602 95.5401 40.6278C95.5351 40.6536 95.5309 40.6794 95.5259 40.7052H95.5309C95.4821 40.7474 95.4326 40.7919 95.3839 40.8342C95.1761 40.9092 94.9196 41.0125 95.0949 40.8319C95.1648 40.7779 95.2348 40.7239 95.3047 40.6724V40.67C95.3789 40.6536 95.4538 40.6395 95.5259 40.623C95.528 40.5879 95.5309 40.5527 95.533 40.5152C95.6051 40.4893 95.6778 40.4635 95.7499 40.4354C95.7337 40.4214 95.7174 40.4073 95.6983 40.3956C95.6446 40.4237 95.5916 40.4518 95.5379 40.4823C95.3118 40.5175 95.0878 40.5527 94.9549 40.5738C94.6723 40.7544 94.4857 40.8788 94.2829 41.0125C94.3296 41.0218 94.3995 41.0335 94.4695 41.0453C94.4299 41.0758 94.3903 41.1062 94.3529 41.1391C94.155 41.1626 93.9331 41.2072 93.7699 41.2095C93.3572 41.2166 93.1523 41.3033 92.9565 41.5754C92.9212 41.62 92.8845 41.6669 92.8491 41.7114C92.8442 41.6669 92.8421 41.62 92.8378 41.5754C92.6343 41.4792 92.3078 41.6317 91.963 41.8335C91.8888 41.8616 91.8189 41.8897 91.7439 41.9179C91.7086 41.9624 91.674 42.0093 91.6387 42.0539C91.5991 42.0305 91.5595 42.007 91.5178 41.9859C91.5899 41.9624 91.6648 41.9366 91.7369 41.9132C91.7298 41.892 91.7256 41.8686 91.7206 41.8475C91.5574 41.878 91.3963 41.9108 91.1468 41.9601C91.2288 41.9835 91.2655 41.9929 91.303 42.0023C91.0818 42.1172 90.8599 42.2322 90.6409 42.3471C90.6154 42.3331 90.59 42.319 90.5638 42.3073C90.361 42.4808 90.1815 42.5324 89.9604 42.5371C89.8904 42.5395 89.7038 42.638 89.5731 42.692C89.5378 42.6872 89.5053 42.6802 89.4707 42.6755H89.4049C88.7449 42.9476 88.0877 43.215 87.4256 43.4801C87.4207 43.4871 87.4157 43.4918 87.4115 43.4988C87.3903 43.5363 87.2299 43.5974 87.1267 43.6466C87.0991 43.6442 87.0709 43.6372 87.0433 43.6325C86.8518 43.7076 86.6978 43.7686 86.507 43.8413C86.4879 43.8648 86.4695 43.8882 86.4533 43.9117C86.4462 43.9304 86.4391 43.9468 86.4342 43.9656C86.8306 43.9586 87.2829 43.8319 87.8079 43.6091C88.3513 43.3768 88.906 43.1634 89.4749 42.9382C89.4495 42.9734 89.424 43.0109 89.3979 43.0508C89.7639 42.8444 89.7639 42.8444 89.6176 42.7553C89.8692 42.8538 90.4359 42.5207 90.7808 42.4925C90.8465 42.5137 90.9115 42.5348 90.9794 42.5583C89.2841 43.2314 87.5931 43.9187 85.9049 44.6083C85.3431 44.8382 84.7856 45.1009 84.233 45.3027C83.6316 45.5255 83.0133 45.6451 82.4445 45.8961C82.0113 46.0861 81.8311 46.0697 81.5887 46.0485C81.4954 46.2574 81.2297 46.3887 80.9124 46.4661C80.4347 46.5834 79.873 47.0103 79.4574 46.8625C79.4461 46.8578 79.4016 46.8719 79.3734 46.8836C79.0214 47.029 78.6575 47.1651 78.3127 47.3223C78.194 47.3762 78.1219 47.4935 78.0258 47.5803C78.0887 47.5849 78.1494 47.5967 78.2102 47.6014C78.2081 47.6108 78.2053 47.6201 78.2053 47.6295C76.151 48.2441 74.0855 48.8141 72.0172 49.3723C71.7719 49.431 71.5246 49.492 71.278 49.5553C70.7388 49.6726 70.2004 49.7876 69.6569 49.8884C69.375 49.9447 69.081 49.9846 68.7871 50.0292C69.5757 49.804 70.3615 49.5718 71.1473 49.3465C73.4022 48.7038 75.7596 48.155 77.9071 47.1487C77.9558 47.1252 77.9184 47.0525 77.8746 47.0572C77.823 47.0642 77.7693 47.0713 77.7184 47.0807C71.5133 49.1589 65.0404 50.897 58.4764 51.1597C58.5043 51.2043 58.5487 51.2348 58.6116 51.2395C59.015 51.2747 59.4207 51.2911 59.8239 51.3005C56.1749 51.4248 56.3404 51.1691 54.37 51.1175C52.416 50.8759 49.6971 50.5569 46.4886 49.0088C46.5585 49.0534 46.6262 49.0979 46.6961 49.1425C46.7124 49.1683 46.7311 49.1964 46.7474 49.2222C43.2264 47.416 44.6861 48.0775 43.0562 47.0947C43.0352 47.0807 43.0142 47.0666 42.9909 47.0549C43.0282 47.0853 43.0632 47.1159 43.1005 47.1487C43.0235 47.0947 42.9489 47.0384 42.8719 46.9822C42.5992 46.8203 42.331 46.6514 42.0768 46.4638C42.0488 46.445 42.0185 46.4238 41.9882 46.4051C42.1048 46.5177 42.2237 46.6279 42.3427 46.7358C40.0109 44.8593 42.3193 47.0877 31.9755 37.7215C33.1461 36.0678 34.5148 34.6042 36.2263 33.4477C36.2567 33.4289 35.5198 32.751 34.6174 31.9418H34.6081C34.5871 31.9324 34.3842 31.8292 34.3842 31.8081C34.3889 31.7752 34.3842 31.7494 34.3773 31.7284C34.1394 31.5126 34.1301 31.5055 34.1301 31.5055C34.0928 31.4774 34.0484 31.4751 33.9948 31.522C33.9878 31.4375 33.9832 31.3741 33.8992 31.3226C33.8362 31.285 33.7873 31.2194 33.7383 31.156C33.6007 31.034 33.4655 30.9121 33.3303 30.7924H33.3279C33.0435 30.5626 32.7613 30.3304 32.4768 30.1005C32.4698 30.1357 32.4628 30.1685 32.4558 30.2013C32.4745 30.3046 32.605 30.3233 32.5771 30.4594C32.605 30.3632 32.605 30.3632 32.689 30.3796C32.6727 30.3937 32.6587 30.4031 32.6447 30.4148C32.9315 30.6493 33.0644 30.6963 33.0901 30.9238C33.0621 30.9543 32.9828 30.9965 32.9478 31.02C32.9525 30.9449 32.9572 30.898 32.9595 30.8464C32.9385 30.8394 32.9152 30.8159 32.9012 30.8253C32.7846 30.8909 32.7543 30.7948 32.661 30.701L32.6447 30.7666C32.6144 30.7385 32.6074 30.7526 32.6517 30.7033L32.5887 30.6564L32.5747 30.6751L32.5794 30.7174L32.6074 30.7408H32.6144C32.6144 30.7432 32.6144 30.7432 32.612 30.7455C32.6074 30.7408 32.5677 30.7572 32.5607 30.7596C32.5654 30.7455 32.5724 30.7314 32.5771 30.7174C32.5747 30.7174 32.5724 30.6799 32.5724 30.6775L32.5747 30.6751C32.5468 30.5696 32.5491 30.5579 32.5561 30.5086C32.5328 30.4922 32.4931 30.4804 32.4908 30.457C32.4815 30.3867 32.4605 30.3515 32.3928 30.3749C32.3975 30.3585 32.4022 30.3444 32.4068 30.3257L32.2647 30.2881C32.2623 30.3069 32.26 30.3233 32.253 30.3655C32.2297 30.3069 32.2134 30.2694 32.1994 30.2318L32.225 30.1896C32.2227 30.1873 32.2227 30.1873 32.2227 30.1873C32.2227 30.1803 32.1947 30.1591 32.19 30.1568C32.1084 30.1497 32.0455 30.1239 32.0781 30.002C32.0944 29.9738 32.1131 29.948 32.1294 29.9199C32.1107 29.9339 32.0944 29.948 32.0758 29.9597C31.9102 30.0982 31.9382 29.948 31.8869 29.7346C31.8752 29.7392 31.8636 29.7416 31.8496 29.7463C31.8449 29.7791 31.8426 29.8096 31.8402 29.8308C31.7843 29.8401 31.733 29.8495 31.656 29.8635C31.6467 29.8308 31.6304 29.7744 31.614 29.7181C31.5674 29.7181 31.5721 29.7275 31.5931 29.6736C31.5907 29.6736 31.5721 29.6595 31.5721 29.6595C31.5767 29.6384 31.5837 29.6196 31.5884 29.5985H31.5861C31.5861 29.5985 31.5861 29.5961 31.5884 29.5938L31.5767 29.4906L31.6374 29.4718C31.6327 29.4672 31.628 29.4624 31.6234 29.4601C31.5418 29.4578 31.4601 29.3499 31.3809 29.5C31.3785 29.4249 31.3762 29.3475 31.3739 29.2701C31.3575 29.2537 31.3412 29.2349 31.3249 29.2185C31.3878 29.2724 31.3809 29.2889 31.3599 29.1693C31.3599 29.1575 31.3669 29.0708 31.3669 29.0708C31.3086 29.1481 31.3342 29.1481 31.2666 29.0965C31.2782 29.0614 31.2922 29.0262 31.3062 28.9933L31.3016 28.9886C29.716 30.0747 28.2493 31.2592 27.0437 33.2671V33.3258C27.1253 33.3914 27.3166 33.5603 27.5917 33.8042C27.629 33.8113 27.671 33.809 27.6827 33.8371C27.6967 33.8723 27.7153 33.9051 27.7339 33.9333C27.7899 33.9825 27.8482 34.0365 27.9111 34.0928C28.0044 34.1467 28.1047 34.1866 28.1933 34.2476C28.1886 34.2593 28.184 34.2664 28.1793 34.2757C28.3122 34.3203 28.3869 34.4587 28.5058 34.5197C28.5641 34.5525 28.5734 34.59 28.5734 34.6534C28.5734 34.6745 28.6037 34.705 28.62 34.7027C28.7017 34.6979 28.7413 34.7683 28.7996 34.8035C28.8392 34.8293 28.9021 34.8176 28.9558 34.8223C28.9931 35.0287 29.147 35.1624 29.2613 35.078C29.2962 35.2163 29.4198 35.3219 29.4851 35.2844C29.5947 35.3946 29.5831 35.3735 29.5597 35.4603C29.6017 35.4392 29.632 35.4275 29.6437 35.4204C29.737 35.54 29.8256 35.6526 29.9095 35.7605C29.9492 35.7582 29.9865 35.7582 30.0237 35.7582C30.0237 35.7699 30.0214 35.784 30.0214 35.7957C30.0401 35.8145 30.0704 35.8286 30.075 35.8544C30.103 35.9787 30.194 35.974 30.2429 35.9787C30.2523 35.9317 30.2616 35.8848 30.2709 35.838C30.3292 35.8661 30.4015 35.8755 30.3735 35.9927C30.3689 36.0139 30.4155 36.0631 30.4458 36.0702C30.5484 36.0936 30.5881 36.1827 30.6114 36.2836C30.623 36.3352 30.651 36.3892 30.5647 36.4407C30.5531 36.4455 30.5461 36.4666 30.5438 36.4924C32.4371 38.2329 34.4379 40.0813 34.706 40.3229C34.7573 43.4332 31.3669 45.617 29.07 43.4144C27.0297 41.4582 23.1659 35.8168 17.7142 30.5884C16.4014 32.5352 15.1655 35.7511 15.5386 36.9756C15.9444 38.2423 25.4371 41.9366 25.9734 46.9001C25.9525 47.1674 25.7216 47.9275 25.2623 48.162C22.4921 49.6093 19.5844 50.1652 18.486 50.5569C18.5583 50.4912 18.6959 50.4466 18.7938 50.4115C18.2086 50.5358 18.3578 50.4936 18.0943 50.578C18.085 50.5803 18.064 50.5709 18.0617 50.5686C17.8891 50.6296 17.7212 50.6906 17.5603 50.754C17.5277 50.768 17.5253 50.7281 17.5556 50.7164C17.6816 50.6719 17.8121 50.6249 17.9427 50.578C17.8401 50.5944 17.7492 50.6249 17.6349 50.6554C17.6186 50.6625 17.6093 50.6554 17.6069 50.6461C17.5999 50.6484 17.46 50.6882 17.453 50.6859C17.1826 50.7657 16.8561 50.836 16.4923 50.897C16.49 50.8994 16.4853 50.9041 16.483 50.9087C16.4667 50.9252 15.8395 51.026 15.8208 51.0284C15.6856 51.0448 15.5643 51.1293 15.4127 51.0987C15.4127 51.0987 15.1889 51.1574 14.7552 51.1691C14.7552 51.1691 14.7505 51.1645 14.7412 51.1597C14.7319 51.1597 14.7225 51.1597 14.7109 51.1621C14.7039 51.1715 14.6992 51.1785 14.6946 51.1832C14.5733 51.1785 13.58 51.2301 13.0016 51.2465C12.941 51.2465 12.9363 51.202 12.9946 51.1996C13.1859 51.1879 13.3794 51.1762 13.5753 51.1621C13.5753 51.1433 13.6732 51.141 13.6942 51.1363C13.3957 51.1527 13.0949 51.1691 12.7964 51.1903C12.7591 51.1903 12.7381 51.1621 12.7754 51.1597C13.1719 51.1199 13.5893 51.0941 14.002 51.0776C13.9507 51.0659 13.9017 51.0542 13.8364 51.0753C13.8247 51.0823 13.7385 51.0518 13.7409 51.0448C13.7619 50.9768 13.6429 50.9768 13.5823 50.9487C13.5543 50.9369 13.524 50.9275 13.4937 50.9158C13.5217 50.9158 13.594 50.8923 13.6406 50.8877C13.58 50.8923 13.517 50.897 13.454 50.8994H13.468C13.468 50.8994 13.4727 50.9087 13.4774 50.9135H13.482C13.4844 50.9135 13.489 50.9158 13.489 50.9158C13.4867 50.9158 13.482 50.9158 13.4774 50.9158V50.9135C13.4214 50.9252 13.3794 50.9838 13.3188 50.9299C12.9597 50.9791 12.9084 51.0214 12.7731 50.9439C12.7684 50.9393 12.568 50.9463 12.5633 50.9463C12.568 50.951 12.5703 50.9556 12.575 50.958C12.5143 50.9697 12.4514 50.9791 12.3907 50.9885C12.3698 50.9838 12.3488 50.9814 12.3301 50.9791C12.3208 50.9979 12.3115 51.019 12.3045 51.0378C12.2788 51.0354 12.2555 51.0354 12.2322 51.0331C12.2298 51.0214 12.2275 51.0096 12.2252 50.9979C12.2089 51.0096 12.1949 51.0214 12.1785 51.0308H12.1762C12.1552 51.0401 12.1319 51.0472 12.1086 51.0566H12.1809C12.1575 51.0566 12.1319 51.0589 12.1086 51.0589C12.0643 51.0823 12.02 51.1058 11.9757 51.1293C11.985 51.0542 11.8544 51.0636 11.7798 51.0354C11.7728 51.0354 11.7658 51.0354 11.7611 51.0331C11.7751 51.0424 11.7891 51.0518 11.8031 51.0612C11.7821 51.0706 11.7611 51.08 11.7378 51.0893V51.0917C11.7378 51.0917 11.7378 51.0917 11.7355 51.0893H11.7378C11.7308 51.0424 11.7425 51.0424 11.6888 51.0753V51.0776C11.6888 51.0776 11.7308 51.0917 11.7331 51.0917C11.7285 51.1011 11.7215 51.1081 11.7145 51.1175L11.6935 51.1128C11.6935 51.1128 11.6935 51.1128 11.6935 51.1151C11.6912 51.1128 11.6912 51.1128 11.6912 51.1128C11.6865 51.1199 11.6842 51.1269 11.6818 51.1316C11.6702 51.1293 11.6585 51.1245 11.6469 51.1199C11.6025 51.1316 11.5582 51.1433 11.5326 51.1503C11.472 51.1175 11.4301 51.0987 11.3857 51.0753C11.3951 51.0683 11.4091 51.0589 11.4207 51.0472C11.4114 51.0424 11.4044 51.0354 11.3951 51.0308C11.2132 51.0847 11.2155 51.1316 11.0849 51.0002C11.0873 51.0143 11.0873 51.0284 11.0896 51.0424C11.0406 51.1105 10.9497 51.0424 10.8704 51.0424V51.0636C10.8377 51.0683 10.8074 51.0753 10.7585 51.0824C10.7724 51.0683 10.7794 51.0612 10.7864 51.0566L10.6465 51.0143C10.6442 51.0214 10.6395 51.0284 10.6349 51.0331C10.5906 51.0002 10.5556 51.0026 10.5159 51.019C10.5019 51.026 10.4646 51.0143 10.4366 51.0096C10.432 51.0143 10.4273 51.019 10.4203 51.0237C10.4063 51.0284 10.3574 51.0448 10.3434 51.0472C10.3364 51.0518 10.3318 51.0542 10.3248 51.0566H10.3225C10.3201 51.0636 10.3178 51.0683 10.3155 51.0753C10.3061 51.0683 10.2968 51.0589 10.2851 51.0518C10.2851 51.0518 10.2828 51.0518 10.2805 51.0518V51.0495C10.2688 51.0472 10.2572 51.0472 10.2455 51.0448C10.2502 51.0354 10.2572 51.0284 10.2618 51.0214C10.1685 51.012 10.0776 51.026 10.017 50.9604C10.01 50.9533 9.98199 50.9487 9.961 50.9439C9.94235 50.958 9.92369 50.9721 9.89571 50.9932C9.87006 50.965 9.85373 50.9439 9.83508 50.9252C9.83275 50.9205 9.83042 50.9181 9.82808 50.9111C9.89571 50.8853 9.97733 50.8829 10.0799 50.9017C10.1872 50.9205 10.2945 50.9346 10.4087 50.9487C10.4017 50.9416 10.3947 50.9346 10.3877 50.9252C10.4646 50.951 10.4646 50.951 10.4413 50.9885C10.4833 50.9393 10.6022 50.9838 10.6652 50.9627C10.6768 50.9487 10.6885 50.9369 10.6978 50.9252C10.3457 50.8853 10.0123 50.8384 9.70682 50.7844C9.60189 50.768 9.49928 50.7398 9.40367 50.7258C9.29873 50.707 9.20079 50.7164 9.10525 50.6859C9.03296 50.6648 9.00964 50.6789 8.977 50.6953C8.95368 50.6507 8.9117 50.6319 8.86506 50.6296C8.79744 50.6226 8.70649 50.5452 8.65985 50.5991C8.65985 50.5991 8.65286 50.5991 8.64819 50.5968C8.59689 50.578 8.54559 50.5592 8.49428 50.5334C8.47563 50.5241 8.46397 50.5006 8.44765 50.4818C8.45931 50.4772 8.46863 50.4678 8.48496 50.4701C8.59456 50.4982 8.70416 50.5288 8.81842 50.5569C8.93735 50.5851 9.06561 50.6038 9.20312 50.6413C9.33371 50.6789 9.45497 50.6625 9.59955 50.7023C9.67418 50.7234 9.7488 50.714 9.82808 50.7258C9.92836 50.7422 10.0356 50.7704 10.1406 50.7868C10.1989 50.7962 10.2548 50.7915 10.3131 50.7915C10.3108 50.7798 10.3085 50.7727 10.3085 50.761C10.2665 50.754 10.2268 50.7422 10.1849 50.7352C10.1126 50.7234 10.0403 50.714 9.97033 50.7C9.83508 50.6789 9.69516 50.6367 9.58323 50.639C9.47829 50.639 9.38268 50.6203 9.28707 50.5991C9.14256 50.5734 9.00498 50.5405 8.87672 50.5076C8.79977 50.4865 8.71815 50.449 8.65519 50.4466C8.54559 50.4443 8.43599 50.3974 8.32172 50.3481C8.27275 50.3552 8.20279 50.3341 8.15849 50.2895C8.09086 50.2895 8.06288 50.2966 8.01157 50.2402C7.94868 50.2402 7.95568 50.2754 7.85307 50.1675C7.88805 50.1816 8.13983 50.2566 8.15849 50.2895L8.27275 50.3036L8.32172 50.3458C8.29374 50.2918 8.33571 50.327 8.37769 50.3224C8.39867 50.32 8.41966 50.32 8.44298 50.3176C8.43832 50.3106 8.43365 50.3036 8.42899 50.2966C8.34038 50.2684 8.37069 50.2918 8.12817 50.191C8.05821 50.191 7.99299 50.1746 7.95101 50.1183C7.84841 50.0854 7.7458 50.0502 7.6432 50.015C7.6432 50.0174 7.6432 50.0198 7.6432 50.0198L7.27475 49.8837C6.58457 49.6327 5.90831 49.3371 5.2531 48.9994C5.22978 48.9876 5.22279 48.9595 5.24377 48.9712C5.62388 49.1636 6.01324 49.3371 6.40734 49.5037C5.8127 49.2527 5.23211 48.9712 4.66545 48.6429C4.6468 48.6311 4.63747 48.6077 4.65613 48.6194C5.05722 48.8422 5.46764 49.0487 5.88732 49.2386C5.84068 49.1917 6.04123 49.2903 6.10419 49.3184H6.10652C6.22312 49.3747 6.73148 49.5929 7.19547 49.7688C7.20479 49.7664 7.21179 49.7594 7.21878 49.7524C6.76413 49.5647 6.3677 49.3606 6.3677 49.3606H6.36303V49.3583C6.30707 49.3325 5.54693 48.9712 5.50962 48.922C4.86367 48.5889 4.93596 48.5913 4.96161 48.6053C5.29508 48.7883 5.47697 48.8985 5.3184 48.7906C5.3184 48.7906 4.84035 48.5303 4.70043 48.4505C4.44632 48.2793 5.42333 48.8 5.65653 48.9243C5.19947 48.6123 4.60249 48.3919 4.04056 47.8477C4.02191 47.8289 4.02657 47.7938 4.04523 47.8101C4.3134 48.0681 4.64213 48.2816 4.99892 48.481C4.73774 48.3309 4.3134 48.0588 4.01724 47.7328C3.99859 47.714 4.00558 47.6788 4.02424 47.6952C4.31806 48.0166 4.69577 48.2722 5.10619 48.4974C4.55352 48.0096 4.40668 48.0002 4.03124 47.6155C4.02424 47.6061 4.02424 47.592 4.02657 47.5849C3.96128 47.5216 3.89832 47.4583 3.83535 47.3926C3.81903 47.3762 3.82369 47.3316 3.84002 47.3481C4.07321 47.5897 4.33206 47.8148 4.62348 48.0166C4.62115 48.0119 4.61648 48.0096 4.61415 48.0048C4.60949 48.0025 4.60482 48.0002 4.60016 47.9954C4.60016 47.9954 4.48363 47.85 4.48363 47.8477C4.28075 47.6601 4.0942 47.4536 3.93096 47.2355C3.92397 47.2238 3.93096 47.205 3.93796 47.2144C4.07088 47.3927 4.22479 47.5615 4.38569 47.721C4.04523 47.273 3.80737 47.0595 3.5322 46.5529C3.52521 46.5388 3.5392 46.506 3.54619 46.52C3.58584 46.5881 3.65579 46.6983 3.71409 46.7827C3.70243 46.764 3.69077 46.7452 3.68378 46.7312C3.67212 46.7147 3.68611 46.6748 3.69544 46.6913C3.71176 46.7171 3.72808 46.7429 3.74441 46.7687C3.57651 46.4473 3.61848 46.4473 3.62781 46.4708C3.71176 46.6585 3.82136 46.8625 3.94729 47.0619C3.97993 47.1065 4.02191 47.1604 4.06622 47.2144C4.05922 47.2003 3.65113 46.4286 3.61149 46.3441C3.60682 46.3347 3.62548 46.3113 3.63014 46.3207C3.68378 46.4356 3.74674 46.5505 3.81903 46.6702C3.66745 46.255 3.59283 45.8797 3.54619 45.4762C3.54619 45.4762 2.87233 48.0541 3.02158 50.5897C3.05422 50.632 3.0892 50.6742 3.11952 50.714C3.10553 50.7892 3.07988 50.8642 3.0892 50.8877C3.12651 51.0002 3.15683 51.1222 3.14284 51.3192C3.13351 51.4342 3.17082 51.5046 3.18715 51.5983C3.23845 51.8939 3.26177 52.2575 3.38529 52.4733C3.56485 52.7876 3.91464 54.1293 4.85667 54.7955C5.00592 54.6665 5.02457 54.9996 5.22745 54.9198C5.27176 54.9034 5.43499 54.9996 5.47697 55.0183C5.48163 55.0019 5.4863 54.9831 5.48863 54.9667C5.32073 54.8611 5.15749 54.7486 5.00592 54.6243C5.01291 54.6078 5.01991 54.5938 5.0269 54.5774C5.14583 54.6782 5.57491 55.0277 5.72875 55.0066C5.7987 55.0606 5.857 55.1122 5.91997 55.145C6.04356 55.2154 6.17415 55.2599 6.29074 55.3632C6.30707 55.3795 6.34904 55.3701 6.38635 55.3726C6.36537 55.3374 6.35137 55.3162 6.33505 55.2834C6.38169 55.3068 7.10452 55.6118 7.07654 55.579C7.14649 55.6634 7.23744 55.6611 7.31206 55.7033C7.63853 55.8956 7.62687 55.7548 8.23544 56.0364C8.25876 56.0457 8.29607 56.0622 8.3054 56.0551C8.40101 55.9777 8.86506 56.1278 8.98632 56.1559C8.99565 56.1607 9.00498 56.1701 9.0213 56.1818C8.94202 56.1747 8.87206 56.1653 8.80443 56.1583C8.80676 56.1677 8.80676 56.1747 8.8091 56.1841C8.85574 56.1959 8.90471 56.2053 8.95368 56.2193C8.98866 56.2287 9.04462 56.2404 9.06095 56.2592C9.10758 56.3084 9.72548 56.4469 9.73014 56.4515C9.80476 56.5571 9.94701 56.5383 10.0729 56.5618C10.1662 56.5782 10.2595 56.604 10.355 56.6251V56.6533C10.0589 56.6416 9.27541 56.4937 9.26375 56.4937C9.23577 56.4914 9.21945 56.5125 9.19146 56.5125C9.14256 56.5125 9.09126 56.5054 9.03996 56.5031C9.11458 56.6158 9.49695 56.6814 9.6322 56.7095C9.4713 56.6955 9.31972 56.6978 9.16588 56.6251C9.1449 56.6391 9.12391 56.6533 9.09826 56.672C9.27775 56.7424 9.56691 56.7588 9.89105 56.8174C9.89804 56.8174 9.90737 56.8034 9.9167 56.7964C9.8514 56.7541 9.73947 56.7799 9.69749 56.7119C10.0123 56.733 9.89804 56.7424 10.1312 56.8174C10.1382 56.8151 10.1452 56.8104 10.1522 56.808C10.1639 56.8222 10.1779 56.8386 10.1895 56.855C11.5629 57.0145 12.0479 57.0286 12.4047 57.052C12.4211 57.052 12.4584 57.099 12.4584 57.099H12.4794C12.477 57.0966 12.4747 57.0966 12.4724 57.0942C12.4817 57.0778 12.4933 57.0638 12.5003 57.0567C13.0016 57.0661 12.7801 57.0661 13.0646 57.0567C13.1509 57.052 13.1999 57.0661 13.2092 57.1036C13.2255 57.106 13.2442 57.1083 13.2628 57.1177L13.2698 57.1154C13.2955 57.1224 13.3165 57.1294 13.3328 57.1365H13.447C13.489 57.1294 13.5357 57.1248 13.5823 57.1224C13.594 57.12 13.6033 57.1177 13.6126 57.1154C13.5496 57.1154 13.3258 57.1271 13.3841 57.1154C13.5263 57.0778 13.7269 57.0919 13.8854 57.0896C14.1022 57.0896 14.6782 57.0825 14.7202 57.0802C14.7342 57.0708 14.7645 57.0684 14.7808 57.0684C14.7599 57.0567 14.7715 57.0332 14.8135 57.0238C14.8834 57.0098 14.9557 56.9957 15.0256 56.9863C14.9511 56.9817 14.8928 56.9793 14.8228 56.9793C14.9044 56.9324 15 56.9441 15.0863 56.9441C15.2285 56.923 16.2475 56.8432 16.2615 56.8432C16.3361 56.8503 16.5413 56.8832 16.6066 56.8574C16.7255 56.8174 16.7489 56.8714 16.8095 56.8832C16.8864 56.8597 16.9634 56.8362 17.038 56.8128C17.0637 56.862 17.1593 56.8268 17.2222 56.8268C17.3341 56.8268 17.446 56.8292 17.5673 56.808C17.6442 56.7987 17.7259 56.7635 17.7888 56.7612C17.8774 56.7612 17.8868 56.7236 17.9101 56.6861C17.9661 56.6368 18.029 56.6228 18.0943 56.611C18.1456 56.6016 18.1969 56.5735 18.2482 56.5524C18.2645 56.5454 18.2785 56.5383 18.2925 56.5336C18.4161 56.4937 18.5396 56.4515 18.6632 56.4093C18.6632 56.4093 18.7192 56.3976 18.8988 56.3225C18.8731 56.3178 18.8521 56.3131 18.8241 56.3061C18.8265 56.3038 18.8288 56.299 18.8335 56.2944C18.8801 56.299 18.9291 56.2405 18.9571 56.2428C19.1063 56.2475 19.2602 56.1513 19.4118 56.0903C19.3978 56.0856 19.3861 56.0692 19.3698 56.0739C19.3185 56.0856 19.2672 56.1044 19.2159 56.1208C19.2555 56.0762 19.4981 56.0012 19.5586 55.9801C19.5214 56.0059 19.4678 56.0481 19.4118 56.0903V56.102C19.5097 56.0481 19.6029 56.0387 19.6962 55.9941C19.7429 55.973 19.7615 55.973 19.7848 55.9847C19.7918 55.9871 19.8198 55.9801 19.8291 55.9707C19.8781 55.9308 19.9247 55.9237 19.9737 55.9027C20.0064 55.8885 20.039 55.8558 20.074 55.83C20.1696 55.8464 20.3072 55.79 20.3468 55.7221C20.4168 55.7267 20.5287 55.6775 20.5544 55.6399C20.5847 55.6282 20.608 55.6188 20.643 55.6048C20.643 55.6071 20.65 55.6165 20.6593 55.6282C20.6756 55.6048 20.6873 55.5884 20.692 55.5813C20.7875 55.5508 20.8738 55.518 20.9554 55.4898C20.974 55.4687 20.9927 55.4476 21.009 55.4288C21.0137 55.4288 21.0184 55.4312 21.023 55.4335C21.1256 55.3889 21.1186 55.4265 21.1909 55.3374C21.1769 55.3256 21.1606 55.3139 21.1443 55.3022C21.1793 55.2716 21.2096 55.2341 21.2469 55.2646C21.2562 55.2716 21.2935 55.2506 21.3075 55.2341C21.3542 55.1755 21.4031 55.1661 21.4521 55.1637C21.4777 55.1614 21.5127 55.152 21.5034 55.2107C21.4987 55.2341 21.5547 55.2435 21.5873 55.2623C21.5594 55.3678 21.4078 55.4851 21.3495 55.4547C21.3448 55.4711 21.3378 55.4851 21.3355 55.4922C21.2072 55.5297 21.3028 55.5109 21.1559 55.5344C21.1583 55.5274 21.1606 55.5203 21.1629 55.5156C21.1513 55.525 21.1396 55.5367 21.1163 55.5602C21.1303 55.5344 21.1373 55.5203 21.1443 55.5086C21.1419 55.5062 21.1373 55.5039 21.1373 55.5039C21.1116 55.5273 21.0883 55.5508 21.0487 55.586C21.0323 55.5742 21.016 55.5602 20.9997 55.5461C20.9764 55.5602 20.9531 55.5742 20.9227 55.593C20.9018 55.5742 20.1929 55.8722 20.1673 55.8839C20.1276 55.9027 20.074 55.9449 20.0483 55.9449C19.9994 55.9449 19.9527 55.9754 19.9038 55.9918C19.8128 56.0222 19.7219 56.0364 19.6356 56.1184C19.6239 56.1278 19.5517 56.1349 19.5377 56.1349C19.5377 56.1466 19.5377 56.1607 19.5237 56.1959C19.4701 56.2146 19.4141 56.2334 19.3605 56.2521C19.3582 56.2381 19.3535 56.2193 19.3512 56.2029C19.1529 56.2732 18.9594 56.3366 18.7635 56.3999C18.7542 56.4187 18.7449 56.4375 18.7379 56.4539C18.5023 56.5664 18.6143 56.5125 18.4604 56.5547C18.1456 56.6368 18.0617 56.6509 17.9427 56.6885C17.9194 56.7283 17.9614 56.7307 17.9917 56.7236C18.2319 56.672 18.4464 56.6134 18.6679 56.55C18.6749 56.5477 18.6796 56.5454 18.6866 56.5454C18.6749 56.5454 18.6772 56.5289 18.6959 56.5242C18.7169 56.5172 18.7355 56.5102 18.7565 56.5055C18.9734 56.4398 19.1879 56.3718 19.4048 56.3014C19.4398 56.2873 19.4771 56.2709 19.5144 56.2545C19.5121 56.2569 19.5097 56.2615 19.5074 56.2663C19.9807 56.1044 20.4541 55.9285 20.9181 55.7338C22.2146 55.1309 23.1333 54.134 23.4971 53.3178C23.5017 53.3084 23.5227 53.3295 23.518 53.3388C23.3805 53.6485 23.1753 53.9722 22.9678 54.2466C23.117 54.0801 23.4178 53.679 23.5064 53.4679C23.5111 53.4585 23.5204 53.4679 23.5227 53.4796C24.9428 51.2066 25.9991 47.2777 26.0341 47.0431C26.554 43.907 26.4981 41.6176 24.4508 38.3033C31.4088 46.8766 33.8969 48.8094 35.746 48.7672C37.9892 48.7202 39.6611 47.015 39.6261 44.796C45.4486 50.1019 47.2674 51.2653 49.9373 52.4006C52.936 53.6977 56.1912 54.4906 59.4674 54.5703C59.7144 54.5844 59.9639 54.5961 60.2133 54.6055C60.4627 54.6125 60.7143 54.6172 60.9666 54.6195C63.5056 54.6712 66.0057 54.5046 68.503 54.1669C68.8598 54.1176 69.2167 54.066 69.5707 54.0097C70.2307 54.059 70.8696 53.5875 71.6207 53.6531C73.5442 53.1629 75.4705 52.8721 77.2845 52.1801C77.3099 52.1801 77.3333 52.1777 77.3566 52.1754C77.3425 52.1731 77.3262 52.1731 77.3099 52.1707C77.464 52.1097 77.6202 52.0511 77.7742 51.983C78.0258 51.9057 78.2802 51.8259 78.5317 51.7462C79.7959 51.338 81.0502 50.8923 82.2932 50.4138C82.4868 50.3387 82.7504 50.2848 82.636 50.4772C82.419 50.5734 82.2021 50.6719 81.983 50.761C81.7173 50.8712 81.4467 50.9721 81.176 51.0683C80.969 51.141 80.7591 51.202 80.5492 51.2747C80.1196 51.4271 79.6885 51.5866 79.2525 51.7297C78.9656 51.8236 78.6717 51.8869 78.3897 51.9924C78.0307 52.1261 77.6809 52.2904 77.329 52.4335C76.0415 53.3178 74.3745 53.6015 72.9266 53.7564C71.921 53.7775 70.9324 54.5422 69.7806 54.5633C69.4167 54.6313 69.0464 54.6688 68.6804 54.7251C68.3044 54.7791 67.9271 54.8096 67.549 54.8471C67.33 54.8682 66.9943 54.9714 66.7237 55.016C66.2827 55.0887 65.8396 55.1497 65.2616 55.2224C65.1874 55.2247 64.9584 55.2154 64.721 55.2295C64.3338 55.2482 63.9352 55.2858 63.548 55.2951C62.9205 55.3116 62.2866 55.2576 61.6845 55.3116C61.2464 55.3514 61.0599 55.3303 60.9383 55.2365C60.6959 55.2506 60.5115 55.2599 60.3278 55.2693C60.2084 55.1755 60.0896 55.084 59.9709 54.9902C59.6699 55.0488 59.4674 55.0887 59.2645 55.1262C59.2458 55.1145 59.2248 55.1028 59.2062 55.091C59.2715 55.0535 59.3391 55.0136 59.4627 54.9409C59.2622 54.9808 59.1712 54.9949 59.0779 55.0136C57.9797 54.575 56.6319 54.2349 55.4147 54.7556C55.473 54.8565 55.5359 54.9433 55.6035 55.023C56.1376 55.1544 56.6785 55.2693 57.2288 55.3561C57.7279 55.4359 58.2292 55.4992 58.7305 55.5508C59.3951 55.5461 59.1759 55.5954 59.9518 55.6469C59.9547 55.6493 59.9568 55.6493 59.9617 55.6517C60.043 55.6563 60.125 55.6611 60.2062 55.6657C60.3228 55.6399 60.4415 55.6142 60.568 55.5884C61.2273 55.6376 61.9227 55.6728 62.664 55.6915C62.7035 55.6704 62.8039 55.6235 62.9558 55.5484C63.0187 55.6142 63.0533 55.6517 63.0604 55.6611C63.324 55.654 63.5247 55.6493 63.7487 55.6399C63.9628 55.518 64.8185 55.457 65.3436 55.5274C65.658 55.2928 66.7215 55.1825 67.4416 55.2834C67.7123 55.1989 67.9666 55.0887 68.2232 55.0418C68.5892 54.9714 68.9552 54.9573 69.3192 54.8096C69.3962 54.7767 69.6082 54.7486 69.6598 54.7626C72.1571 54.3897 74.4883 53.7235 76.8181 53.0527L76.2606 53.0668C76.592 52.9354 76.9255 52.804 77.2796 52.7149C77.4894 52.6539 77.6993 52.5953 77.9071 52.5249C78.7678 52.2294 79.6115 51.9103 80.4369 51.589C80.5351 51.5491 80.6305 51.5022 80.7259 51.4576C81.0644 51.3052 81.4 51.1128 81.7265 51.0026C82.1625 50.8548 82.5406 50.7071 82.8366 50.4349C82.9554 50.2543 82.9879 50.1019 83.4967 49.9564C83.874 49.8485 84.31 49.5929 84.7156 49.431C85.1566 49.2527 85.5996 49.1073 86.0378 48.9501C86.201 48.8915 86.36 48.8563 86.5204 48.8071C86.8469 48.7109 87.2829 48.4224 87.451 48.5631C87.8008 48.3473 88.1414 48.1362 88.4912 47.9204C88.7845 47.8688 88.9385 48.0236 89.4495 47.6835C89.5802 47.5943 89.7901 47.5193 89.9484 47.47C90.3073 47.3575 90.6599 47.2613 91.0161 47.158C91.0698 47.144 91.1284 47.1276 91.1822 47.1017C91.7298 46.8367 92.2824 46.5482 92.835 46.3066C93.8865 45.8492 94.9337 45.3777 95.9577 44.8453C96.3237 44.6975 96.7173 44.5825 97.0417 44.2893C96.7477 44.3972 96.5011 44.4887 96.1881 44.6037C96.4799 44.4488 96.7689 44.2893 97.0601 44.1205C97.2233 44.0266 97.2699 43.9258 97.1745 43.9258C97.2233 43.9 97.2678 43.8765 97.3166 43.8531C97.3611 43.8319 97.3964 43.8085 97.4268 43.7827C97.7625 43.649 98.0981 43.5105 98.4359 43.3745C99.2521 43.0461 100.077 42.7178 100.915 42.3917C101.586 42.1313 102.431 41.8452 103.039 41.5003C103.088 41.4745 103.06 41.4605 103.002 41.4863C102.705 41.6223 102.389 41.7466 102.069 41.8662C102.111 41.8452 102.153 41.8241 102.195 41.8029C102.395 41.7138 102.592 41.6246 102.78 41.5332C102.962 41.4769 103.247 41.3901 103.426 41.3338C103.459 41.3291 103.491 41.3221 103.529 41.3151C103.538 41.3103 103.548 41.3057 103.554 41.301C103.58 41.301 103.613 41.2986 103.657 41.2869C103.681 41.2822 103.704 41.2751 103.727 41.2705L103.729 41.2681C103.751 41.2634 103.769 41.2587 103.787 41.2541C103.825 41.3572 104.03 41.3244 104.41 41.1626C104.683 41.0477 105.136 40.867 105.413 40.7615C105.877 40.5855 106.345 40.4026 106.844 40.1798C106.873 40.1352 106.924 40.0625 106.973 39.9897C106.964 39.9874 106.952 39.9851 106.94 39.9827C106.971 39.9686 107.001 39.9545 107.031 39.9405C107.057 39.9382 107.082 39.9358 107.108 39.9311C107.092 39.9382 107.073 39.9428 107.054 39.9499C107.12 39.9733 107.178 40.039 107.248 40.0085C108.286 39.5723 109.325 39.1242 110.363 38.6903C111.905 38.0475 113.455 37.4166 115.003 36.7879C115.661 36.5205 116.309 36.2367 116.96 35.9646C117.016 35.9927 117.069 36.0186 117.123 36.0444C117.158 36.0162 117.191 35.9857 117.224 35.9552C117.326 35.9153 117.417 35.8802 117.52 35.8403C118.079 35.859 118.662 35.5612 119.233 35.2984C119.05 35.1553 118.506 35.5237 118.214 35.533C118.259 35.4837 118.303 35.4063 118.343 35.3923C119.446 34.9747 120.546 34.4845 121.642 34.0412C121.808 33.9731 121.987 33.9497 122.202 33.8934C122.062 34.0271 121.96 34.1256 121.838 34.2405C121.071 34.3953 120.322 34.7941 119.548 35.1436C120.022 34.9747 120.493 34.8012 120.957 34.6417C121.521 34.4493 122.15 34.1631 122.486 34.3132C122.209 34.447 121.945 34.5619 121.705 34.6909C121.56 34.7706 121.472 34.8856 121.327 34.9513C121.066 35.078 120.782 35.1811 120.505 35.289C119.341 35.7418 118.18 36.1991 117.021 36.6636C116.738 36.7785 116.458 36.917 116.174 37.0483V37.1468C116.605 36.9991 117.032 36.8654 117.461 36.7082C118.037 36.4947 118.702 36.0983 119.063 36.2625C119.089 36.2743 119.222 36.2343 119.306 36.2062C120.015 35.9552 120.717 35.7113 121.411 35.4579C121.759 35.3313 122.102 35.146 122.393 35.1811C122.414 35.1835 122.446 35.1788 122.484 35.1717C123.872 34.63 125.266 34.0998 126.667 33.5932C126.681 33.5814 126.726 33.5509 126.742 33.5392C126.77 33.4947 127.015 33.4125 127.162 33.368C127.358 33.3093 127.563 33.2554 127.775 33.2014C128.726 32.866 129.685 32.5446 130.645 32.2351C131.145 32.0474 131.66 31.8808 132.18 31.7588C134.115 31.1771 136.069 30.6611 138.041 30.2342C137.971 30.2271 137.899 30.2178 137.804 30.2084C137.993 30.1309 138.184 30.0254 138.282 30.0207C138.998 29.9762 139.693 29.7791 140.392 29.6525C140.746 29.5867 141.11 29.5516 141.541 29.5C142.018 29.2772 142.77 29.1997 143.496 29.1153C144.209 29.0332 144.914 28.9558 145.617 28.9042C145.611 28.8807 145.601 28.8573 145.592 28.8338C144.636 28.9019 143.671 29.0098 142.7 29.1505C142.68 29.1223 142.659 29.0942 142.637 29.0637C142.813 29.0356 142.99 29.0121 143.155 28.9792C143.433 28.923 143.815 28.8807 143.948 28.8104C144.158 28.7001 144.501 28.5993 144.878 28.6203C145.431 28.6532 145.662 28.6157 145.818 28.4726C146.345 28.4398 146.84 28.4163 147.336 28.4163C151.266 28.4163 155.243 29.1177 158.618 30.6635C159.993 31.2991 162.234 32.8824 162.751 33.2694C162.766 33.2812 162.775 33.2906 162.78 33.2929C162.563 33.056 157.974 28.5148 154.935 26.9315ZM28.1933 34.2453C28.191 34.2077 28.2026 34.1585 28.1863 34.1397C28.135 34.0834 28.0744 34.0412 28.0207 33.9943C28.0837 33.9661 28.0837 33.9661 28.2446 34.0928C28.3169 34.1491 28.3869 34.2124 28.4335 34.2523C28.3752 34.2499 28.2842 34.2476 28.1933 34.2453Z" fill="white"/>
<path d="M5 48.4762C5.14218 48.5583 5.23779 48.6052 5.23779 48.6052C5.1585 48.5653 5.07922 48.5208 5 48.4762Z" fill="white"/>
<path d="M33.1613 30.2951L33.1329 30.267C33.1282 30.288 33.1258 30.3092 33.1211 30.3302C33.1353 30.3185 33.1471 30.3068 33.1613 30.2951Z" fill="white"/>
<path d="M31.7696 29.0636L31.8142 29.0003V28.9979C31.8166 28.9885 31.7907 28.9721 31.7837 28.9651C31.7837 28.9439 31.7837 28.9228 31.786 28.8806L31.7344 28.9557C31.7344 28.958 31.7344 28.958 31.7344 28.9604C31.7414 28.9604 31.779 28.9697 31.7837 28.9627V28.9651H31.779C31.7649 28.9862 31.7508 29.0072 31.7344 29.0284L31.7367 29.0307V29.0354C31.7461 29.0448 31.7578 29.0542 31.7696 29.0636Z" fill="white"/>
<path d="M32.3918 29.5945C32.4013 29.5685 32.4084 29.5424 32.4179 29.514C32.3989 29.5282 32.3799 29.54 32.3633 29.5519H32.3656L32.3633 29.5567L32.3918 29.5945Z" fill="white"/>
<path d="M7.67789 49.9423C7.66849 49.9072 7.57027 49.8813 7.54688 49.8884L7.54921 49.8907H7.54688C7.54688 49.893 7.54688 49.893 7.54688 49.893C7.59132 49.9118 7.63577 49.9259 7.67789 49.9423Z" fill="white"/>
<path d="M9.58572 50.5873C9.7233 50.606 9.84223 50.6248 9.86788 50.6366C9.83057 50.6014 9.81425 50.5638 9.72097 50.5568C9.63935 50.5498 9.55307 50.5216 9.46912 50.5029C9.47145 50.5075 9.46912 50.5122 9.46213 50.5098C9.3945 50.4981 9.32921 50.4864 9.26391 50.4723C9.25225 50.47 9.24059 50.4677 9.2266 50.4677C9.20328 50.4629 9.17763 50.4583 9.15198 50.4513C9.13339 50.4465 9.11474 50.4419 9.09375 50.4371C9.09608 50.4395 9.09608 50.4419 9.09841 50.4465C9.25225 50.4935 9.41315 50.5404 9.58572 50.5873Z" fill="white"/>
<path d="M7.85742 50.008C7.85742 50.0009 7.85508 49.994 7.85275 49.9869C7.85275 49.9869 7.85042 49.9869 7.84809 49.9846C7.80124 49.9681 7.75446 49.9517 7.70768 49.9353C7.66323 49.9494 7.80597 49.9892 7.85742 50.008Z" fill="white"/>
<path d="M9.50564 50.5756C9.27245 50.5147 9.05565 50.4514 8.86443 50.3927C8.83412 50.3833 8.80613 50.3762 8.78048 50.3762C8.74317 50.3762 8.71052 50.381 8.66855 50.3692C8.65689 50.3645 8.64756 50.381 8.62891 50.395C8.77115 50.442 8.89475 50.4583 9.03933 50.5217C9.04399 50.5076 9.27478 50.5451 9.50564 50.5756Z" fill="white"/>
<path d="M7.53282 49.8932C7.53515 49.8932 7.53756 49.8932 7.53989 49.8932C7.45438 49.8199 7.50427 49.8837 7.53282 49.8932Z" fill="white"/>
<path d="M6.84605 55.8745C6.84138 55.8792 6.83672 55.8839 6.83206 55.8909C6.68748 55.8276 6.56388 55.8698 6.4263 55.7854C6.35634 55.7713 6.30737 55.7713 6.2654 55.7502C6.22109 55.729 6.19077 55.6915 6.22342 55.6681C6.22809 55.6657 6.18145 55.6141 6.16745 55.6118C6.10449 55.5977 6.03453 55.5555 5.9809 55.5836C5.8737 55.6329 5.73612 55.5484 5.61719 55.4945C5.85038 55.6681 5.74311 55.6094 6.34002 55.8229C6.33302 55.8323 6.32836 55.8487 6.32136 55.8463C5.6545 55.6376 6.53357 56.0199 6.85071 56.0551C6.85071 56.0364 6.84838 56.0176 6.84838 55.9964C6.8787 55.9941 6.90901 55.9894 6.95099 55.9847C6.90901 55.9402 6.87636 55.9073 6.84605 55.8745Z" fill="white"/>
<path d="M6.16007 55.3231C5.78929 55.1472 5.87324 55.1425 5.67969 55.2035C5.69135 55.2152 5.71 55.2504 5.72866 55.2551C5.82893 55.2879 5.90355 55.3653 5.99217 55.4169C6.06213 55.4568 6.14141 55.4732 6.21603 55.5084C6.30931 55.5506 6.34662 55.5295 6.37927 55.4826C6.32097 55.4592 6.26034 55.4357 6.20437 55.4123C6.23236 55.3724 6.22536 55.3559 6.16007 55.3231Z" fill="white"/>
<path d="M7.42188 49.9C7.51395 49.9355 7.49501 49.9284 7.42188 49.9Z" fill="white"/>
<path d="M7.4186 49.8508C7.46757 49.8696 7.46057 49.8625 7.4699 49.8485C7.39062 49.8179 7.31133 49.7875 7.23438 49.757C7.24137 49.7687 7.24837 49.7804 7.25536 49.7898C7.309 49.8085 7.36263 49.8297 7.4186 49.8508Z" fill="white"/>
<path d="M4.77717 48.1784C4.76085 48.1596 4.74453 48.1432 4.7282 48.1244C4.51607 47.9884 4.32018 47.8406 4.14062 47.681C4.32951 47.8641 4.54405 48.0282 4.77717 48.1784Z" fill="white"/>
<path d="M11.6839 51.0259C11.7072 51.0282 11.7305 51.0283 11.7538 51.0307C11.7585 51.0259 11.7655 51.0189 11.7701 51.0142C11.7375 51.0119 11.6792 50.9813 11.6839 51.0259Z" fill="white"/>
<path d="M8.17969 56.7939C8.1987 56.7987 8.21537 56.8034 8.23438 56.8082C8.23438 56.8082 8.23198 56.8058 8.23198 56.8034C8.21537 56.8011 8.19636 56.7987 8.17969 56.7939Z" fill="white"/>
<path d="M12.4918 50.8312C12.4149 50.8266 12.3402 50.8195 12.2656 50.8148C12.3356 50.8547 12.4102 50.8406 12.4918 50.8312Z" fill="white"/>
<path d="M11.7798 50.9814C11.7444 50.9838 11.7397 50.972 11.7704 51.0146C11.7751 51.0028 11.7774 50.9909 11.7798 50.9814Z" fill="white"/>
<path d="M12.7266 50.8594C12.7522 50.8782 12.7522 50.8805 12.7522 50.8829C12.8595 50.8759 12.969 50.8688 13.0763 50.8642C12.4397 50.8336 12.997 50.8594 12.7266 50.8594Z" fill="white"/>
<path d="M12.7316 50.8454C12.6593 50.8407 12.5917 50.836 12.5194 50.8313C12.5124 50.8454 12.5054 50.8571 12.4961 50.8759C12.5777 50.8688 12.65 50.8618 12.72 50.8571C12.7246 50.8548 12.727 50.8501 12.7316 50.8454Z" fill="white"/>
<path d="M10.8281 51.0379C10.8423 51.0379 10.8565 51.0379 10.8732 51.0379H10.8756C10.84 51.0001 10.8495 51.0024 10.8281 51.0379Z" fill="white"/>
<path d="M11.6375 51.0448C11.6849 51.0237 11.692 51.026 11.6328 51.0237C11.6351 51.0307 11.6351 51.0377 11.6375 51.0448Z" fill="white"/>
<path d="M10.68 50.7163C10.6543 50.6976 10.631 50.6812 10.6217 50.6764C10.5098 50.6647 10.4002 50.6507 10.293 50.6366C10.3093 50.6835 10.3629 50.707 10.4421 50.707C10.4934 50.707 10.5541 50.7187 10.6124 50.7257C10.61 50.7234 10.6007 50.714 10.5891 50.6976C10.6217 50.7093 10.645 50.7163 10.6683 50.7257C10.673 50.721 10.6753 50.7187 10.68 50.7163Z" fill="white"/>
<path d="M11.4219 50.7399C11.5361 50.7939 11.5244 50.7868 11.6247 50.8384C11.6387 50.822 11.6527 50.8056 11.669 50.7892C11.6527 50.7727 11.6503 50.7775 11.683 50.7657C11.5944 50.7563 11.5058 50.7493 11.4219 50.7399Z" fill="white"/>
<path d="M11.9239 50.8055H11.9355C12.0638 50.8735 12.0638 50.8735 12.2107 50.8195C12.262 50.8125 12.36 50.8336 11.6884 50.7656C11.6604 50.8219 11.7047 50.7726 11.756 50.8007C11.8213 50.8407 11.8703 50.8195 11.9239 50.8055Z" fill="white"/>
<path d="M12.3438 57.0965H12.3764C12.3671 57.0872 12.3741 57.0848 12.3438 57.0965Z" fill="white"/>
<path d="M19.3945 56.4327C19.4015 56.4327 19.4085 56.4351 19.4085 56.4351C19.4318 56.4327 19.4458 56.428 19.4622 56.4233C19.4622 56.4209 19.4598 56.4163 19.4598 56.4139C19.4388 56.4186 19.4179 56.4257 19.3945 56.4327Z" fill="white"/>
<path d="M19.0702 56.4303C19.0748 56.4303 19.0772 56.428 19.0818 56.4233C18.9652 56.4609 18.7344 56.5288 18.7344 56.5288C18.7344 56.5288 18.9582 56.4655 19.0702 56.4303Z" fill="white"/>
<path d="M19.4688 56.4233C19.4782 56.421 19.4853 56.4163 19.4948 56.4139H19.4924C19.4853 56.4163 19.4758 56.4187 19.4688 56.4233Z" fill="white"/>
<path d="M19.125 56.421C19.146 56.4116 19.167 56.4022 19.188 56.3905C19.167 56.3975 19.146 56.4046 19.125 56.4116C19.125 56.414 19.125 56.4186 19.125 56.421Z" fill="white"/>
<path d="M15.4731 57.0426C15.4475 57.0449 15.4241 57.0473 15.3985 57.0496C15.3962 57.052 15.4684 57.0449 15.4731 57.0426Z" fill="white"/>
<path d="M15.4751 57.0426H15.4727C15.4727 57.0473 15.4727 57.0497 15.4727 57.0521C15.4869 57.0521 15.5012 57.0497 15.5154 57.0497C15.5202 57.0473 15.5225 57.0449 15.5273 57.0426C15.5083 57.0426 15.4917 57.0426 15.4751 57.0426Z" fill="white"/>
<path d="M9.91155 50.9345C9.89989 50.9321 9.88823 50.9321 9.87891 50.9298C9.89756 50.965 9.88823 50.9556 9.91155 50.9345Z" fill="white"/>
<path d="M10.2835 51.0471C10.2835 51.0471 10.2859 51.0471 10.2859 51.0495C10.3255 51.0565 10.3232 51.0542 10.3442 51.0448C10.3395 51.0307 10.2859 51.026 10.2695 51.0237C10.2742 51.0307 10.2765 51.0401 10.2812 51.0471H10.2835Z" fill="white"/>
<path d="M15.4077 56.9722C15.3843 56.9722 15.3703 56.9722 15.3633 56.991C15.5341 56.9839 15.485 56.9722 15.4077 56.9722Z" fill="white"/>
<path d="M11.6994 51.111C11.697 51.0991 11.697 51.0871 11.6946 51.0752L11.6922 51.0728H11.6946C11.678 51.0728 11.6636 51.0704 11.6469 51.0704C11.6469 51.0704 11.6469 51.0704 11.6469 51.0728H11.6445C11.6517 51.1133 11.6422 51.1086 11.6946 51.111H11.6994Z" fill="white"/>
<path d="M19.3828 56.367C19.5996 56.2943 19.6159 56.2849 19.8305 56.2075C20.0054 56.1348 20.1826 56.0573 20.3575 55.9823C20.0637 56.0949 19.7675 56.2004 19.469 56.299C19.4411 56.3247 19.4061 56.3435 19.3828 56.367Z" fill="white"/>
<path d="M11.6439 51.0705C11.6415 51.0611 11.6392 51.054 11.6392 51.047C11.6275 51.0376 11.6181 51.0282 11.6065 51.0212C11.5292 51.0165 11.4989 51.0236 11.5971 51.0822L11.6415 51.0751V51.0728H11.6439V51.0705Z" fill="white"/>
<path d="M19.6203 56.3648C19.6436 56.3577 19.6646 56.3436 19.6133 56.3624C19.6179 56.3624 19.6179 56.3648 19.6203 56.3648Z" fill="white"/>
<path d="M19.4766 56.4092C19.4766 56.4092 19.4859 56.4116 19.4906 56.4139C19.493 56.4139 19.4953 56.4139 19.4976 56.4116C19.5771 56.3834 19.6122 56.3647 19.4766 56.4092Z" fill="white"/>
<path d="M15.1992 57.0003C15.2531 56.998 15.3068 56.9956 15.3584 56.9933C15.3607 56.9886 15.3607 56.9839 15.363 56.9792C15.3068 56.9839 15.2507 56.9933 15.1992 57.0003Z" fill="white"/>
<path d="M12.4805 57.1739C12.625 57.1809 12.5341 57.1669 12.4805 57.1739Z" fill="white"/>
<path d="M12.5625 57.3474C12.5951 57.3497 12.6558 57.3826 12.6628 57.3897H12.6674C12.7024 57.3803 12.7351 57.3685 12.7677 57.3638C12.763 57.3591 12.7584 57.3545 12.7537 57.3474H12.5625Z" fill="white"/>
<path d="M12.6265 57.4766C12.6147 57.4766 12.6784 57.4789 12.6878 57.4789C12.6878 57.4789 12.6855 57.4766 12.6831 57.4766H12.6265Z" fill="white"/>
<path d="M12.25 57.2631C12.2687 57.2771 12.2663 57.2771 12.2687 57.2819C12.3433 57.2819 12.5485 57.2795 12.6254 57.2795C12.4995 57.2748 12.3736 57.2701 12.25 57.2631Z" fill="white"/>
<path d="M8.49219 56.8642C8.50639 56.8666 8.5206 56.8689 8.5348 56.8736C8.52533 56.8689 8.51586 56.8619 8.50406 56.8572C8.49932 56.8572 8.49459 56.8619 8.49219 56.8642Z" fill="white"/>
<path d="M8.30702 56.8174C8.30702 56.8197 8.30469 56.8197 8.30469 56.8197C8.30469 56.822 8.30469 56.8221 8.30469 56.8221C8.30469 56.8221 8.30935 56.8244 8.30935 56.8268C8.31635 56.8291 8.32568 56.8314 8.335 56.8314C8.33267 56.8291 8.33034 56.8244 8.32801 56.8221C8.32101 56.8197 8.31402 56.8197 8.30702 56.8174Z" fill="white"/>
<path d="M8.25091 56.3318C8.29755 56.3154 8.3232 56.3036 8.36284 56.2896C8.30455 56.2708 8.2719 56.2661 8.24858 56.252C8.12265 56.1793 8.00146 56.1934 7.86854 56.1324C7.77993 56.0925 7.67733 56.0878 7.58172 56.0714C7.53275 56.062 7.51642 56.1348 7.51642 56.1348C7.43247 56.1136 7.42314 56.0925 7.35785 56.0269C7.30888 56.0503 7.26224 56.0714 7.21094 56.0948C7.31587 56.1558 7.41848 56.1606 7.51176 56.245C7.5444 56.2755 7.65401 56.2966 7.70531 56.2943C7.80558 56.2872 7.8359 56.2919 7.93617 56.374C7.99207 56.4233 8.13898 56.4561 8.20894 56.4725C8.28822 56.4889 8.26957 56.3928 8.40016 56.4608C8.39083 56.4279 8.38616 56.4045 8.3815 56.3834C8.34186 56.367 8.30921 56.3552 8.25091 56.3318Z" fill="white"/>
<path d="M8.30297 56.8198C8.28876 56.815 8.27209 56.8126 8.25781 56.8103V56.8126C8.27449 56.8174 8.2911 56.8198 8.30777 56.8244C8.30537 56.8244 8.30537 56.8221 8.30297 56.8221C8.30297 56.8221 8.30297 56.8221 8.30297 56.8198Z" fill="white"/>
<path d="M13.334 57.235H13.2617V57.2373H13.334V57.235Z" fill="white"/>
<path d="M14.2896 57.3335C14.3363 57.3241 14.3806 57.3124 14.4272 57.303C14.3689 57.3054 14.3083 57.3077 14.25 57.3124C14.264 57.3171 14.2757 57.3241 14.2896 57.3335Z" fill="white"/>
<path d="M15.2555 57.0638C15.2579 57.0638 15.2579 57.0613 15.2579 57.0613C15.253 57.0613 15.2456 57.0638 15.2383 57.0638H15.2555Z" fill="white"/>
<path d="M15.1094 56.9698C15.1212 56.9698 15.1331 56.9674 15.1449 56.9651C15.1354 56.9651 15.126 56.9628 15.1141 56.9604C15.1141 56.9651 15.1118 56.9675 15.1094 56.9698Z" fill="white"/>
<path d="M13.8281 57.3288C13.8375 57.3429 13.8748 57.3405 13.912 57.3381C13.9003 57.3335 13.8887 57.3312 13.877 57.3264C13.8584 57.3264 13.8421 57.3264 13.8281 57.3288Z" fill="white"/>
<path d="M13.9984 57.3897L13.9961 57.3921C14.0055 57.3921 14.0148 57.3921 14.0148 57.3921C14.0639 57.3897 14.106 57.3873 14.1482 57.3873L14.1458 57.385C14.0944 57.385 14.0476 57.3874 13.9984 57.3897Z" fill="white"/>
<path d="M145.197 68.2057C145.27 68.1494 145.437 68.2479 145.396 68.079C145.37 67.9664 145.251 67.8304 145.118 67.8374C144.978 67.8421 144.918 68.0156 144.932 68.1259C144.958 68.3206 145.116 68.1377 145.197 68.2057Z" fill="white"/>
<path d="M110.084 62.4025C110 62.7309 110.324 62.6089 110.416 62.7637C110.357 62.6019 110.31 62.4611 110.425 62.2993C110.326 62.4541 110.145 62.1586 110.084 62.4025Z" fill="white"/>
<path d="M143.346 73.4013C143.269 73.453 142.772 73.6499 142.707 73.587C142.404 73.2676 142.432 73.6315 142.355 73.7933C142.29 73.9339 142.271 74.1353 142.043 74.1099C142.292 74.1777 142.542 74.0837 142.74 74.2929C142.752 74.3042 142.777 74.3 142.793 74.295C142.856 74.2858 142.917 74.288 142.969 74.2222C143.145 73.9947 143.558 74.0208 143.521 73.5446C143.509 73.3779 143.477 73.3122 143.346 73.4013Z" fill="white"/>
<path d="M143.54 68.2149C143.648 68.2876 143.76 68.3346 143.885 68.304C144.098 68.2407 144.301 68.1281 144.529 68.1492C144.548 68.1516 144.576 68.1446 144.583 68.1305C144.611 68.0788 144.634 68.0249 144.658 67.9686C144.394 67.8185 144.805 67.5464 144.574 67.3869C144.425 67.279 144.328 67.3658 144.238 67.4807C144.14 67.6027 144.17 67.6801 144.312 67.7083C144.34 67.7153 144.387 67.7458 144.35 67.8021C144.335 67.8232 144.308 67.849 144.285 67.8537C144.251 67.856 144.219 67.8349 144.184 67.8255C143.849 67.6942 143.697 67.7505 143.506 68.0601C143.466 68.1305 143.485 68.1797 143.54 68.2149Z" fill="white"/>
<path d="M142.827 78.1723C143.014 78.2331 142.98 78.144 142.987 78.0409C142.948 77.8932 142.932 77.7314 142.757 77.7356C142.703 77.7356 142.664 77.7285 142.647 77.6699C142.624 77.5808 142.631 77.4494 142.521 77.4544C142.395 77.4614 142.397 77.6183 142.368 77.7215C142.325 77.8579 142.262 77.9702 142.127 77.9843C141.997 77.9985 141.985 78.0903 142.036 78.1766C142.288 78.6012 142.253 77.9914 142.827 78.1723Z" fill="white"/>
<path d="M139.082 59.8809C138.851 59.8574 138.723 59.9701 138.641 60.1765C138.778 60.0756 138.983 60.1084 139.082 59.8809Z" fill="white"/>
<path d="M146.315 76.4975C146.103 76.4947 145.888 76.5258 145.673 76.5653C145.536 76.5887 145.398 76.6805 145.475 76.8586C145.524 76.978 145.47 77.3158 145.776 77.154C145.888 77.0932 145.92 77.161 145.951 77.4967C146.247 77.2995 145.956 76.8586 146.361 76.8183C146.464 76.8049 146.555 76.713 146.543 76.5844C146.525 76.4198 146.383 76.4996 146.315 76.4975Z" fill="white"/>
<path d="M107.082 63.2163C107.276 63.2116 107.464 63.1975 107.658 63.1929C107.663 63.1671 107.67 63.1413 107.672 63.1131C107.464 63.024 107.222 63.1014 107.019 62.9653C106.989 62.9442 106.917 62.9794 106.937 63.0474C106.956 63.1296 106.989 63.221 107.082 63.2163Z" fill="white"/>
<path d="M139.301 62.9583C139.877 62.7191 140.49 62.698 141.094 62.5174C141.048 62.4704 140.999 62.4024 140.982 62.4094C140.703 62.5689 140.393 62.4 140.106 62.5314C139.949 62.5995 139.779 62.5361 139.59 62.6347C139.434 62.7191 139.39 62.834 139.301 62.9583Z" fill="white"/>
<path d="M145.345 75.6743C145.158 75.6531 144.974 75.6369 144.82 75.8128C144.984 75.9231 145.168 75.8665 145.345 75.9019C145.403 75.9132 145.487 75.8715 145.487 75.7888C145.482 75.7118 145.415 75.6814 145.345 75.6743Z" fill="white"/>
<path d="M106.43 65.6886C106.372 65.5643 106.225 65.6136 106.228 65.7379C106.225 65.8224 106.314 65.9186 106.207 66.0804C106.405 65.9654 106.5 65.8411 106.43 65.6886Z" fill="white"/>
<path d="M138.174 79.8541C138.083 79.8725 137.997 79.8584 137.898 79.8887C137.765 79.9311 137.591 80.0181 137.439 79.8654C137.339 79.7622 137.306 79.8887 137.238 79.9827C137.574 80.112 137.884 79.9474 138.187 80.0322C138.246 80.0484 138.302 80.011 138.295 79.9241C138.288 79.8372 138.239 79.8442 138.174 79.8541Z" fill="white"/>
<path d="M140.969 64.4574C140.969 64.5254 140.992 64.5817 141.037 64.6286C141.123 64.7131 141.654 64.7412 141.738 64.6474C141.817 64.5606 141.708 64.3425 141.918 64.2955C141.624 64.4269 141.335 64.3659 141.057 64.394C141.01 64.3988 140.969 64.38 140.969 64.4574Z" fill="white"/>
<path d="M142.413 60.6338C142.503 60.6573 142.52 60.5728 142.543 60.5095C142.566 60.4461 142.569 60.3782 142.515 60.3359C142.457 60.2937 142.401 60.3406 142.371 60.3875C142.275 60.5306 141.776 60.615 141.773 60.6643C142.021 60.6737 142.18 60.6056 142.413 60.6338Z" fill="white"/>
<path d="M152.681 68.5856C152.665 68.7334 152.48 68.527 152.506 68.6795C152.53 68.8202 152.658 68.8905 152.783 68.8905C152.837 68.8905 152.882 68.8343 152.826 68.7897C152.754 68.7381 152.853 68.541 152.681 68.5856Z" fill="white"/>
<path d="M108.491 63.228C108.575 63.2092 108.608 63.1576 108.602 63.0872C108.587 62.8902 108.405 62.8996 108.305 62.8081C108.263 62.7705 108.179 62.93 108.198 62.9418C108.324 63.0122 108.417 63.1154 108.491 63.228Z" fill="white"/>
<path d="M152.934 64.8441C152.941 64.8347 152.918 64.7596 152.894 64.7409C152.831 64.694 152.537 64.8652 152.426 65.0201C152.458 65.0411 152.472 65.0599 152.489 65.0622C152.666 65.0693 152.808 64.9731 152.934 64.8441Z" fill="white"/>
<path d="M149.524 67.4477C149.473 67.4008 149.384 67.3609 149.342 67.4102C149.158 67.6049 148.948 67.6377 148.708 67.6189C148.577 67.6049 148.529 67.701 148.587 67.8511C148.631 67.9614 148.659 68.0811 148.696 68.1913C148.712 68.2382 148.722 68.3062 148.785 68.2945C149.116 68.2335 149.449 68.1842 149.774 68.0951C149.925 68.0552 149.988 67.572 149.883 67.4571C149.825 67.389 149.788 67.4946 149.738 67.4782C149.664 67.4923 149.594 67.511 149.524 67.4477Z" fill="white"/>
<path d="M143.786 65.6346C144.021 65.7003 143.885 65.4845 143.93 65.4094C143.949 65.3742 143.967 65.332 143.93 65.2968C143.858 65.2475 143.806 65.3179 143.755 65.3484C143.673 65.3906 143.51 65.2968 143.524 65.4891C143.536 65.6604 143.68 65.6088 143.786 65.6346Z" fill="white"/>
<path d="M147.848 65.9562C147.864 66.0453 147.834 66.0946 147.773 66.1087C147.711 66.1297 147.629 66.1321 147.687 66.2424C147.734 66.3198 147.815 66.3268 147.85 66.2494C147.915 66.1016 148.135 66.1931 148.151 65.9866C148.274 66.0876 148.396 66.3268 148.515 65.9773C148.554 65.8506 148.627 66.0828 148.75 66.0172C148.837 65.9703 148.967 66.0383 149.009 65.8835C149.028 65.8154 149.007 65.7615 148.986 65.7005C148.877 65.8014 148.8 65.541 148.683 65.67C148.576 65.785 148.347 65.7052 148.319 65.9679C148.314 66.0125 148.209 65.8905 148.149 65.9609C148.195 65.5246 147.897 65.8412 147.776 65.7662C147.713 65.731 147.566 65.8764 147.426 65.9539C147.605 66.097 147.727 65.9797 147.848 65.9562Z" fill="white"/>
<path d="M149.205 65.8951C149.2 65.9772 149.333 65.9303 149.395 65.9092C149.549 65.8623 149.475 65.7356 149.447 65.6137C149.554 65.6019 149.554 65.7732 149.648 65.7145C149.72 65.6676 149.668 65.5714 149.641 65.555C149.573 65.5245 149.566 65.2806 149.433 65.4706C149.388 65.5316 149.328 65.4823 149.275 65.4917C149.195 65.5104 149.085 65.4589 149.046 65.5644C148.985 65.7168 149.209 65.7286 149.205 65.8951Z" fill="white"/>
<path d="M150.306 65.7752C150.462 65.7377 150.632 65.7142 150.784 65.6321C150.854 65.5969 151.008 65.5969 150.973 65.5196C150.931 65.4257 150.854 65.2803 150.712 65.2967C150.518 65.3178 150.303 65.2991 150.145 65.4421C150.033 65.5454 149.889 65.482 149.781 65.5852C149.884 65.8972 150.129 65.8104 150.306 65.7752Z" fill="white"/>
<path d="M113.168 74.0554H119.552L116.36 66.5776L113.168 74.0554Z" fill="white"/>
<path d="M135.097 66.099C134.969 66.0169 134.836 65.9395 134.703 65.8668C134.839 65.9395 134.969 66.0169 135.097 66.099Z" fill="white"/>
<path d="M134.42 65.7191C134.316 65.6698 134.214 65.6205 134.109 65.576C134.081 65.5642 134.053 65.5525 134.027 65.5408C134.056 65.5525 134.083 65.5642 134.109 65.576C134.216 65.6205 134.319 65.6698 134.42 65.7191Z" fill="white"/>
<path d="M134.104 78.4373C133.614 78.6458 133.095 78.8055 132.556 78.9108C132.036 79.0139 131.495 79.0655 130.945 79.0655H130.28H129.615H128.951H128.286H127.622H126.957H126.293C126.293 72.2705 126.293 70.9874 126.293 64.9215H126.957H127.622H128.286H128.951H129.615H130.28H130.945C131.495 64.9215 132.036 64.9779 132.561 65.0834C132.964 65.1655 133.361 65.2804 133.741 65.4235C133.738 65.4235 133.736 65.4211 133.734 65.4211C133.736 65.4188 133.741 65.4165 133.743 65.4141C133.869 65.2968 134.002 65.2382 134.154 65.2476C134.538 65.2734 134.925 65.1936 135.279 65.0787C135.767 64.9215 136.264 64.9591 136.751 64.8675C137.012 64.8183 137.266 64.8465 137.532 64.7081C137.67 64.633 137.926 64.7878 138.143 64.7409C138.653 64.6283 139.176 64.6377 139.692 64.565C139.971 64.5251 140.111 64.4383 140.214 64.1779C140.27 64.0325 140.405 64.07 140.503 64.0232C140.538 63.9293 140.435 63.9669 140.435 63.927C140.424 63.4977 140.167 63.6361 139.974 63.6901C139.889 63.7135 139.831 63.7628 139.747 63.7041C139.712 63.6807 139.64 63.6595 139.615 63.6807C139.4 63.866 139.164 63.6595 138.952 63.7299C138.607 63.8496 138.25 63.798 137.9 63.8496C137.423 63.9176 136.935 63.8847 136.459 64.002C136.235 64.056 136.002 63.866 135.765 63.9973C135.709 64.0278 135.641 63.9434 135.641 63.8636C135.639 63.7792 135.704 63.7698 135.76 63.7628C135.806 63.7581 135.856 63.7253 135.898 63.7347C136.308 63.805 136.7 63.6525 137.085 63.5564C137.358 63.493 137.644 63.5564 137.907 63.4133C137.684 63.2702 137.381 63.1787 137.208 63.2842C136.951 63.4461 136.718 63.3101 136.478 63.3781C136.194 63.4625 135.888 63.4696 135.594 63.5212C135.377 63.561 135.126 63.547 134.888 63.5845C134.461 63.6525 134.03 63.54 133.598 63.7347C133.4 63.8191 133.101 63.8238 132.857 63.7299C132.798 63.7112 132.726 63.6901 132.726 63.5916C132.728 63.4766 132.812 63.4977 132.871 63.4907C133.352 63.4203 133.845 63.3875 134.303 63.2561C134.538 63.1881 134.862 63.3828 135.035 63.0426C135.044 63.0216 135.105 63.0098 135.11 63.0168C135.273 63.3007 135.424 63.1647 135.601 63.0239C135.664 62.9723 135.823 63.0755 135.856 63.0966C136.135 63.3101 136.319 62.9183 136.572 62.9793C136.651 62.9958 136.578 62.8456 136.574 62.848C136.373 62.9207 136.298 62.6251 136.112 62.6556C135.772 62.7096 135.426 62.733 135.086 62.7776C134.717 62.8245 134.34 62.8691 133.967 62.8996C133.655 62.9231 133.368 62.8996 133.065 62.8175C132.845 62.7588 132.577 62.8292 132.362 62.9747C132.251 63.052 132.148 63.1224 132.034 63.0192C131.882 62.8785 131.759 62.8691 131.546 62.9113C131.26 62.9699 130.964 63.0872 130.646 63.0122C130.509 62.984 130.317 62.9113 130.178 63.0896C130.112 63.174 130.033 63.1013 129.974 63.0591C129.7 62.8362 129.506 62.8292 129.208 63.0403C129.152 63.0778 129.061 63.1459 129.04 63.1247C128.786 62.8855 128.594 63.0826 128.399 63.2303C128.305 63.2984 128.245 63.2936 128.153 63.2139C127.608 62.726 127.417 63.5752 127.014 63.2115C126.754 62.9816 126.678 63.0661 125.299 63.2608C125.08 63.2936 124.819 63.2045 124.579 63.2608C123.947 63.4063 123.299 63.3101 122.658 63.4321C122.427 63.4766 122.156 63.6033 121.907 63.4297C121.862 63.4015 121.786 63.4063 121.809 63.3194C121.827 63.2491 121.883 63.2655 121.942 63.2538C122.098 63.2257 122.282 63.1388 122.403 63.1459C122.816 63.1787 123.089 62.8222 123.422 62.7494C124.371 62.5407 125.342 62.4891 126.311 62.4609C126.657 62.4516 127.004 62.353 127.344 62.2592C127.482 62.2217 127.587 62.1279 127.72 62.2662C127.755 62.3014 127.846 62.271 127.911 62.2592C128.623 62.149 129.35 62.2662 130.051 62.1513C130.786 62.0294 131.521 62.1701 132.246 62.0223C132.356 62.0012 132.463 61.9965 132.566 61.9215C132.724 61.8065 132.857 62.0176 133.048 61.966C133.323 61.8886 133.648 61.837 133.913 61.898C134.289 61.9801 134.527 61.7361 134.823 61.6235C135.133 61.5016 135.454 61.5977 135.765 61.5532C136.254 61.4828 136.735 61.4804 137.224 61.5016C137.261 61.5016 137.299 61.4992 137.336 61.4875C138.068 61.2717 138.831 61.2694 139.563 61.0442C139.705 61.002 139.875 61.1075 140.015 60.9151C139.827 60.8424 139.675 60.6595 139.458 60.826C139.414 60.8589 139.311 60.8893 139.274 60.826C139.159 60.6337 139.078 60.697 138.985 60.8401C138.966 60.8683 138.906 60.9011 138.894 60.887C138.74 60.765 138.537 60.8612 138.413 60.7979C138.106 60.636 137.803 60.7885 137.507 60.7087C137.397 60.6829 137.283 60.6877 137.229 60.5492C137.178 60.4179 137.297 60.4038 137.343 60.3405C137.425 60.2162 137.408 60.1693 137.266 60.1387C137.042 60.0942 136.811 60.1129 136.606 59.944C136.471 59.8338 135.867 60.0683 135.765 60.2185C135.666 60.3592 135.795 60.4788 135.779 60.6102C135.763 60.7158 135.879 60.9034 135.606 60.8026C135.466 60.751 135.277 60.8307 135.128 60.6806C135.069 60.6219 134.958 60.6735 134.92 60.7204C134.715 60.9691 134.464 60.8471 134.233 60.8565C134.174 60.8565 134.067 60.8073 134.065 60.7721C134.025 60.3499 133.648 60.4226 133.449 60.2372C133.332 60.1293 133.139 60.1528 133.06 60.3803C133.041 60.4343 133.036 60.5281 132.961 60.507C132.778 60.453 132.701 60.5164 132.722 60.7369C132.728 60.8049 132.661 60.8026 132.617 60.8143C132.542 60.826 132.479 60.7908 132.46 60.7134C132.439 60.6313 132.43 60.5446 132.432 60.4601C132.439 60.1622 132.241 59.991 132.022 60.1458C131.922 60.2185 131.745 60.1997 131.723 60.4249C131.714 60.5352 131.61 60.4788 131.542 60.439C131.362 60.3264 131.199 60.1481 130.964 60.3709C130.88 60.4461 130.649 60.4413 130.562 60.3616C130.355 60.1763 130.166 60.2842 129.968 60.3217C129.639 60.3827 129.296 60.3639 128.993 60.561C128.825 60.3663 128.512 60.6665 128.387 60.3334C128.361 60.2678 128.3 60.256 128.27 60.2772C128.149 60.3616 127.965 60.3006 127.895 60.3733C127.568 60.7087 127.177 60.6173 126.804 60.6665C126.757 60.6712 126.684 60.6923 126.666 60.6665C126.477 60.3874 126.286 60.5797 126.142 60.6923C125.838 60.9316 125.479 60.8166 125.166 60.9457C124.947 61.0372 124.747 60.9808 124.533 60.9644C124.217 60.9363 123.896 60.9902 123.604 61.0934C123.22 61.2248 122.823 61.0442 122.438 61.2365C122.261 61.3233 122.047 61.1567 121.851 61.0911C121.832 61.084 121.823 61.0653 121.806 61.0559C121.716 61.0043 121.914 60.812 121.72 60.8214C121.538 60.8307 121.401 60.9785 121.266 61.084C120.948 61.335 120.647 61.5156 120.228 61.457C119.96 61.4218 119.668 61.5039 119.386 61.5274C119.031 61.5485 118.672 61.5414 118.332 61.6939C118.276 61.7197 118.225 61.6892 118.183 61.6423C118.073 61.5204 117.961 61.4242 117.791 61.4359C117.74 61.4406 117.651 61.3749 117.637 61.321C117.544 61.0207 117.343 61.0676 117.133 61.0794C116.404 61.1145 115.681 61.2529 114.946 61.2036C114.734 61.1873 114.483 61.1732 114.309 61.2271C113.913 61.3491 113.547 61.1357 113.17 61.2107C112.777 61.2928 112.388 61.1333 111.985 61.2177C111.677 61.2811 111.356 61.2388 111.038 61.2318C110.782 61.2294 110.535 61.1474 110.271 61.1779C110.047 61.2036 109.758 61.1779 109.614 61.2764C109.415 61.4171 109.108 61.2858 108.993 61.6235C108.958 61.7291 108.832 61.6517 108.848 61.525C108.875 61.321 108.746 61.2694 108.636 61.2858C108.513 61.3046 108.347 61.1638 108.261 61.4476C108.147 61.8299 108.154 62.2756 107.832 62.5642C107.79 62.604 107.83 62.74 107.907 62.7752C107.976 62.8104 108.037 62.801 108.072 62.6838C108.149 62.4328 108.564 62.1537 108.769 62.224C108.83 62.2452 108.907 62.3038 108.97 62.407C109.117 62.6556 109.345 62.8386 109.548 63.0497C109.586 63.0872 109.634 63.1036 109.646 63.1811C109.658 63.2702 109.485 63.3804 109.616 63.3992C109.8 63.4227 110.005 63.5165 110.187 63.3523C110.334 63.2257 110.462 63.0849 110.479 62.8081C110.63 62.9887 110.689 63.3687 110.936 63.0051C110.954 62.984 111.022 63.0262 111.012 63.0661C110.891 63.493 111.272 63.4273 111.385 63.4485C111.761 63.5188 112.146 63.4086 112.54 63.4531C112.743 63.479 112.983 63.4696 113.207 63.4579C113.314 63.4531 113.407 63.486 113.493 63.5517C113.568 63.6079 113.673 63.6479 113.654 63.7839C113.633 63.9434 113.512 63.9387 113.414 63.9411C112.885 63.9551 112.353 63.9575 111.824 63.9786C111.465 63.995 111.103 64.0677 110.744 64.063C110.285 64.056 109.842 64.1944 109.381 64.1897C109.094 64.1827 108.786 64.2366 108.513 64.3281C108.299 64.3961 108.102 64.3281 107.899 64.3679C107.587 64.4289 107.247 64.3187 106.97 64.5744C106.897 64.6424 106.907 64.5556 106.88 64.5298C106.806 64.4477 106.776 64.5157 106.787 64.5838C106.869 65.1092 107.079 65.5596 107.431 65.9114C107.533 66.0122 107.569 65.827 107.68 65.773C107.61 66.0826 107.692 66.2656 107.979 66.2726C107.953 66.3782 107.935 66.4673 107.909 66.5776C108.019 66.5658 108.114 66.4321 108.222 66.6151C108.317 66.7676 108.177 66.7793 108.159 66.8544C108.119 67.049 107.976 66.9787 107.885 66.9505C107.548 66.845 107.226 66.9716 107.053 67.3235C107.035 67.2976 107.02 67.2695 107.004 67.2461C106.943 67.1687 107.039 66.974 106.86 66.9927C106.778 66.9998 106.701 67.035 106.694 67.1639C106.69 67.293 106.61 67.429 106.796 67.4877C106.9 67.5205 107.006 67.5886 106.839 67.7152C106.796 67.7457 106.834 67.8114 106.853 67.8583C106.962 68.1515 106.843 68.2875 106.601 68.3321C106.524 68.3462 106.459 68.4072 106.477 68.4775C106.557 68.7684 106.41 68.7543 106.225 68.7849C106.078 68.8106 105.901 68.9232 106.011 69.1835C106.1 69.1602 106.071 69.0498 106.13 69.0147C106.153 69.0053 106.188 68.9959 106.209 69.01C106.228 69.0217 106.251 69.0686 106.244 69.0804C106.073 69.3994 106.197 69.7536 106.143 70.089C106.09 70.4361 106.179 70.5487 106.48 70.6332C106.489 70.4925 106.47 70.3447 106.566 70.2203C106.622 70.333 106.668 70.4315 106.717 70.53C106.773 70.6402 106.715 70.6566 106.64 70.6566C106.743 70.8607 106.792 71.0531 106.647 71.2712C106.568 71.3862 106.729 72.1602 106.832 72.2212C106.855 72.2353 106.902 72.2165 106.934 72.2047C106.977 72.1907 107.025 72.1438 107.047 72.2282C107.06 72.2916 107.058 72.3619 106.974 72.3596C106.853 72.3596 106.776 72.4159 106.876 72.5355C106.99 72.6716 107.074 72.8545 107.235 72.9437C107.359 73.007 107.312 73.1876 107.415 73.2838C107.459 73.326 107.34 73.3846 107.282 73.3987C107.214 73.4175 107.162 73.3776 107.13 73.2955C107.109 73.2463 107.266 73.2157 107.14 73.1665C107.072 73.1407 107.035 73.2017 107.006 73.2533C106.873 73.4831 106.943 73.7247 107.009 73.9473C107.153 74.4214 107.063 74.8998 106.892 75.2984C106.815 75.4793 106.664 75.6461 106.71 75.8545C106.78 76.1619 106.883 76.453 106.71 76.7555C106.69 76.7929 106.726 76.8728 106.736 76.9456C106.904 76.882 106.811 76.6262 106.974 76.5817C107.102 76.8678 106.801 77.7639 107.312 77.79C107.454 77.7943 107.519 77.8882 107.485 78.0077C107.403 78.2896 107.447 78.5942 107.359 78.8663C107.296 79.0684 107.343 79.209 107.406 79.3729C107.72 80.2202 107.592 80.3771 108.058 80.5297C108.333 80.6187 108.611 80.6936 108.877 80.83C108.963 80.8745 109.042 80.9071 109.101 80.9989C109.173 81.1092 109.313 81.1883 109.39 81.1699C109.735 81.0668 109.984 81.3296 110.278 81.4088C110.814 81.5543 111.351 81.7847 111.936 81.5331C112.158 81.442 112.442 81.4561 112.701 81.4229C112.806 81.4088 112.978 81.5098 113.03 81.6158C113.132 81.8193 113.27 81.7515 113.41 81.7635C113.643 81.7847 115.59 82.0893 116.285 81.9741C116.763 81.8949 117.273 81.9953 117.775 81.9395C118.057 81.9091 118.362 81.9861 118.658 81.9769C118.745 81.9769 118.866 82.0144 118.887 81.8264C118.903 81.707 118.997 81.7868 119.048 81.801C119.551 81.9395 120.044 81.8504 120.54 81.7586C120.727 81.7232 120.927 81.7939 121.119 81.7939C121.445 81.7939 121.755 81.6059 122.102 81.7162C122.259 81.7635 122.471 81.6907 122.583 81.4844C122.723 81.5918 122.865 81.6575 123.047 81.6088C123.537 81.4745 124.05 81.5452 124.535 81.454C125.332 81.3056 126.135 81.3551 126.929 81.2498C127.97 81.1162 129.016 81.0293 130.054 80.8929C130.453 80.8442 130.851 80.7403 131.244 80.9445C131.283 80.9636 131.355 80.9706 131.376 80.9403C131.756 80.4852 132.579 80.9516 132.549 80.3255C132.545 80.2103 132.586 80.0746 132.679 80.0252C132.785 79.9686 132.829 80.0958 132.878 80.1778C132.882 80.187 132.891 80.2011 132.896 80.2011C133.155 80.1354 133.167 80.2972 133.139 80.5269C133.127 80.6067 133.207 80.6117 133.265 80.6095C133.794 80.5785 134.319 80.5248 134.846 80.4569C135.263 80.4075 135.674 80.2223 136.105 80.2993C136.249 80.3304 136.396 80.2923 136.513 80.1587C136.373 80.0647 136.172 80.0343 136.21 79.8753C136.24 79.7298 136.425 79.6379 136.522 79.6874C136.714 79.7814 136.877 79.6711 137.044 79.657C137.464 79.6217 137.887 79.5538 138.257 79.2931C138.302 79.2676 138.337 79.2464 138.386 79.2514C138.735 79.303 138.723 79.2556 139.082 79.1221C139.199 79.0775 139.403 79.1828 139.572 79.127C139.769 79.0634 139.971 79.026 140.135 78.8733C140.162 78.85 140.205 78.8005 140.223 78.8147C140.684 79.033 141.107 78.7044 141.552 78.6903C141.816 78.6811 142.1 78.6437 142.308 78.397C142.32 78.3808 142.347 78.3645 142.356 78.3695C142.618 78.5617 142.876 78.402 143.138 78.3878C143.371 78.3808 143.576 78.2168 143.578 77.942C143.578 77.872 143.551 77.7731 143.618 77.7497C143.705 77.7172 143.716 77.4869 143.856 77.6254C143.984 77.7526 143.865 77.8487 143.798 77.9377C143.768 77.9773 143.674 77.9702 143.725 78.0593C143.758 78.1179 143.777 78.2098 143.863 78.1978C144.021 78.1815 144.182 78.1674 144.336 78.1278C144.401 78.1137 144.483 78.0338 144.451 77.9469C144.353 77.6911 144.504 77.6141 144.658 77.525C144.856 77.4049 144.947 77.1145 145.215 77.1237C145.197 76.9901 145.057 76.9901 145.05 76.8629C145.045 76.7131 144.968 76.7484 144.875 76.7717C144.577 76.8466 144.278 76.9152 143.975 76.964C143.784 76.9901 143.597 76.9314 143.406 76.8841C143.245 76.8424 143.065 76.9597 142.869 76.877C142.774 76.8353 142.804 77.1491 142.618 77.1519C142.462 77.1491 142.317 77.2459 142.151 77.1046C142.046 77.0155 141.883 77.0841 141.79 77.241C141.697 77.3957 141.578 77.4798 141.414 77.3321C141.356 77.2805 141.279 77.2996 141.204 77.3208C140.906 77.3978 140.636 77.525 140.433 77.7943C140.354 77.8953 140.302 78.0126 140.144 77.8812C140.083 77.8317 139.908 77.766 139.808 77.9518C139.735 78.0805 139.647 78.0903 139.605 77.9003C139.53 77.5695 139.388 77.424 139.048 77.5321C138.87 77.5929 138.663 77.4614 138.533 77.7547C138.493 77.8437 138.28 77.7215 138.148 77.7052C137.975 77.684 137.871 77.7102 137.777 77.8791C137.719 77.9844 137.63 78.0713 137.562 77.8762C137.418 77.4593 137.112 78.0359 136.784 77.8388C136.585 77.7144 136.648 78.3624 136.399 78.0126C136.238 77.79 136.079 77.9702 135.921 77.9589C135.632 77.9398 135.349 78.1744 135.051 77.9985C135.037 77.9893 135.011 77.9935 134.997 78.0056C134.934 78.0501 134.869 78.0783 134.806 78.0946C134.811 78.0925 134.816 78.0903 134.818 78.0875C134.587 78.2168 134.349 78.3341 134.104 78.4373ZM110.416 62.7612C110.327 62.6063 110.003 62.7283 110.084 62.3999C110.145 62.156 110.327 62.4539 110.425 62.2968C110.311 62.4609 110.357 62.6017 110.416 62.7612ZM121.693 79.0683L120.111 75.369H112.608L111.029 79.0683H109.637L115.714 64.9239H117.005L123.082 79.0683H121.693ZM142.123 77.9822C142.259 77.9681 142.322 77.8557 142.363 77.7194C142.394 77.6162 142.392 77.4614 142.517 77.4522C142.627 77.4494 142.62 77.5809 142.643 77.6678C142.659 77.7264 142.699 77.7335 142.753 77.7335C142.928 77.7285 142.944 77.8932 142.984 78.0381C142.977 78.1419 143.009 78.231 142.823 78.1695C142.25 77.9893 142.284 78.5991 142.028 78.1723C141.981 78.0904 141.993 77.9985 142.123 77.9822Z" fill="white"/>
<path d="M135 77.985C135.011 77.9779 135.025 77.9708 135.037 77.9609C135.025 77.968 135.011 77.9779 135 77.985Z" fill="white"/>
<path d="M136.118 77.1542C136.055 77.2128 135.989 77.2693 135.922 77.3259C135.982 77.3584 136.038 77.4029 136.082 77.4757C136.096 77.5018 136.129 77.511 136.152 77.5273C136.265 77.2764 136.498 77.3676 136.67 77.2905C136.908 77.1704 136.535 76.8588 136.414 77.0135C136.308 77.152 136.211 77.1754 136.113 77.157C136.115 77.157 136.115 77.157 136.118 77.1542C136.122 77.1499 136.127 77.1471 136.132 77.1428C136.125 77.1471 136.122 77.152 136.118 77.1542Z" fill="white"/>
<path d="M135.87 77.3653C135.865 77.3702 135.86 77.373 135.855 77.3773C135.86 77.3751 135.865 77.3702 135.87 77.3653C135.884 77.3539 135.898 77.3419 135.914 77.3278C135.914 77.3278 135.914 77.3278 135.916 77.3257C135.916 77.3257 135.916 77.3257 135.914 77.3278C135.9 77.3419 135.886 77.3539 135.87 77.3653Z" fill="white"/>
<path d="M135.625 77.5596C135.648 77.5434 135.672 77.525 135.693 77.508C135.704 77.4989 135.718 77.4897 135.73 77.4777C135.718 77.4868 135.704 77.4967 135.693 77.508C135.67 77.5271 135.646 77.5434 135.625 77.5596Z" fill="white"/>
<path d="M154.372 70.2321C154.232 70.2462 154.087 70.2415 153.957 70.2908C153.74 70.3682 153.533 70.4972 153.29 70.4292C153.267 70.4221 153.224 70.4269 153.208 70.4456C152.952 70.7388 152.607 70.6943 152.287 70.7458C152.171 70.7599 152.071 70.8232 151.938 70.781C151.495 70.6309 150.758 71.2947 150.063 71.0508C149.918 71.0015 149.871 71.2009 149.734 71.2337C149.361 71.3252 148.974 71.2947 148.608 71.4237C148.295 71.5293 147.971 71.6325 147.663 71.663C147.405 71.6888 147.08 71.8389 146.814 71.5856C146.732 71.5128 146.605 71.4543 146.567 71.67C146.54 71.8202 146.413 71.7404 146.337 71.7826C145.923 72.0102 145.469 71.975 145.033 72.0312C144.798 72.0664 144.557 72.2541 144.31 72.0524C144.261 72.0125 144.179 72.0102 144.14 71.9515C144.03 71.7779 143.907 71.8506 143.748 71.8554C143.37 71.8741 142.983 71.9093 142.624 71.595C142.426 71.4237 142.204 71.0367 141.836 71.3112C141.771 71.3581 141.691 71.276 141.661 71.1939C141.631 71.1188 141.682 71.0461 141.731 71.0555C142.174 71.1399 142.536 70.7622 142.974 70.7928C143.263 70.8139 143.596 70.652 143.835 70.7646C144.145 70.9101 144.398 70.7834 144.678 70.7716C144.816 70.7646 144.907 70.7177 144.961 70.5324C144.998 70.4104 145.085 70.1665 145.301 70.326C145.355 70.3659 145.352 70.3096 145.364 70.2744C145.413 70.1407 145.497 70.1501 145.593 70.2087C145.858 70.3752 146.122 70.4339 146.407 70.2532C146.483 70.2063 146.588 70.211 146.682 70.197C146.723 70.1923 146.807 70.2228 146.812 70.2063C146.964 69.8006 147.248 70.1149 147.437 70.0468C147.735 69.9366 148.085 70.1125 148.346 69.817C148.402 69.7489 148.54 69.7536 148.64 69.7583C148.731 69.763 148.827 69.8427 148.815 69.6481C148.808 69.5355 148.899 69.5684 148.934 69.5894C149.279 69.8451 149.622 69.6105 149.948 69.5472C150.27 69.4839 150.576 69.3033 150.912 69.3549C151.093 69.3783 151.149 69.1344 151.357 69.1696C151.585 69.2071 151.847 69.1931 152.082 69.1015C152.145 69.071 152.254 69.1039 152.245 68.9725C152.236 68.8084 152.231 68.6301 152.171 68.487C152.138 68.4072 151.991 68.4518 151.924 68.5175C151.744 68.6816 151.576 68.7825 151.341 68.6347C151.266 68.5925 151.133 68.6887 151.023 68.6981C150.594 68.7309 150.17 68.8036 149.757 68.9163C149.303 69.0429 148.84 69.0194 148.381 69.0593C148.013 69.0851 147.654 69.1203 147.306 69.2704C147.267 69.2916 147.178 69.2916 147.173 69.2728C147.043 68.935 146.756 69.1696 146.563 69.064C146.488 69.0265 146.362 68.9913 146.306 69.1579C146.276 69.2516 146.183 69.2329 146.11 69.2071C145.812 69.0945 145.541 69.1039 145.294 69.3783C145.212 69.4698 145.04 69.3971 144.907 69.4886C144.854 69.5284 144.737 69.3619 144.714 69.2564C144.688 69.1461 144.798 69.0921 144.87 69.0804C145.401 68.9772 145.914 68.745 146.465 68.7732C146.583 68.7825 146.703 68.7638 146.826 68.7591C146.949 68.7474 147.073 68.7544 147.012 68.5245C146.989 68.44 147.024 68.29 147.202 68.3814C147.258 68.4119 147.439 68.2806 147.465 68.189C147.505 68.0436 147.367 67.9639 147.253 67.9099C147.193 67.8795 147.164 67.9053 147.15 67.9639C147.085 68.2384 146.913 68.1234 146.845 68.0178C146.719 67.8208 146.441 67.8795 146.369 67.6121C146.325 67.4455 146.224 67.2508 146.49 67.2508C146.698 67.2508 146.824 66.9552 147.057 67.0725C147.073 67.0843 147.118 66.9834 147.085 66.9131C147.034 66.8028 146.952 66.7324 146.854 66.6902C146.68 66.6081 146.737 66.5072 146.856 66.472C147.082 66.4041 146.947 66.2164 146.933 66.1179C146.915 65.9654 146.686 65.8833 146.635 65.9396C146.455 66.1367 146.246 66.0991 146.054 66.078C145.665 66.0334 145.287 66.2187 144.9 66.1061C144.858 66.0991 144.807 66.0803 144.772 66.0991C144.315 66.3548 143.823 66.2469 143.347 66.3008C141.881 66.472 142.158 66.5026 141.456 66.4838C141.54 66.2797 141.734 66.268 141.878 66.1765C141.906 66.1577 141.953 66.1836 141.99 66.1742C142.104 66.1367 142.286 66.1836 142.3 65.9982C142.317 65.7801 142.102 65.5831 141.922 65.5995C141.722 65.6159 141.558 65.6604 141.377 65.8247C141.23 65.9607 140.936 65.9044 140.708 65.8997C140.525 65.9021 140.339 65.9185 140.155 65.8411C140.069 65.8059 139.933 65.8247 139.852 65.8763C139.46 66.1507 139.054 66.1601 138.623 66.0288C138.474 65.9865 138.336 66.0803 138.191 66.1367C137.986 66.2211 137.739 66.0757 137.55 66.2914C137.515 66.3337 137.438 66.3149 137.398 66.2633C137.338 66.1882 137.261 66.1812 137.189 66.2117C136.741 66.397 136.249 66.2868 135.803 66.4768C135.785 66.4838 135.748 66.5072 135.703 66.5307C136.069 66.8192 136.406 67.1429 136.706 67.4994C137.054 67.9123 137.352 68.3673 137.595 68.8646C137.828 69.3408 138.01 69.8568 138.131 70.4057C138.243 70.9171 138.304 71.4613 138.304 72.0289C138.304 72.5966 138.245 73.1361 138.133 73.6476C138.015 74.1939 137.832 74.7076 137.599 75.1839C137.357 75.6785 137.058 76.1336 136.711 76.5421C136.643 76.6219 136.573 76.6989 136.501 76.7767C136.501 76.7767 136.501 76.7767 136.503 76.7738C136.519 76.7675 136.536 76.7576 136.553 76.7533C136.834 76.629 137.068 76.8021 137.046 77.1356C137.035 77.2854 137.061 77.342 137.219 77.2876C137.671 77.1286 138.126 77.1399 138.583 77.2763C138.674 77.3045 138.767 77.2833 138.814 77.154C138.849 77.0466 138.88 76.9477 138.772 76.882C138.69 76.8304 138.595 76.7343 138.663 76.6735C138.777 76.5675 138.779 76.3357 138.966 76.3308C139.14 76.3308 139.299 76.2792 139.432 76.1506C139.511 76.0707 139.607 76.0962 139.7 76.1032C140.033 76.1195 140.344 76.0707 140.532 75.7139C140.665 75.7796 140.493 75.9061 140.619 75.9718C140.696 75.9131 140.775 75.7796 140.913 75.8778C140.959 75.9061 141.031 75.8757 141.052 75.8078C141.137 75.5287 141.269 75.5754 141.433 75.7188C141.463 75.7471 141.531 75.7563 141.565 75.7372C141.824 75.5895 142.046 75.723 142.265 75.8502C142.45 75.9605 142.547 75.7584 142.624 75.6743C142.739 75.5499 142.864 75.5499 142.988 75.4955C143.221 75.3923 143.442 75.28 143.702 75.3407C143.709 75.3457 143.722 75.3386 143.727 75.3316C144.021 74.9373 144.403 75.2284 144.73 75.1485C145.033 75.0758 145.434 75.1839 145.62 74.7196C145.661 74.6207 145.814 74.5599 145.928 74.5225C146.097 74.468 146.092 74.6419 146.127 74.7613C146.145 74.8199 146.197 74.8694 146.262 74.8482C146.581 74.7479 146.915 74.7662 147.243 74.6094C147.523 74.473 147.631 74.2172 147.821 74.0271C147.889 73.9593 147.964 73.943 148.013 73.9501C148.433 74.02 148.804 73.7649 149.209 73.748C149.396 73.7388 149.274 73.577 149.33 73.4597C149.423 73.6406 149.524 73.5982 149.633 73.509C149.606 73.441 149.563 73.4339 149.515 73.4246C149.44 73.4129 149.4 73.3519 149.391 73.2721C149.384 73.1877 149.454 73.1759 149.507 73.1713C149.559 73.1642 149.608 73.1619 149.587 73.0892C149.573 73.0422 149.552 72.9976 149.487 73.0024C149.165 73.0422 148.82 72.9836 148.605 73.3754C148.519 73.5346 148.395 73.6547 148.241 73.4129C148.144 73.2604 147.987 73.3729 147.878 73.4129C147.754 73.4574 147.636 73.4809 147.53 73.4269C147.185 73.2392 146.849 73.305 146.511 73.4387C146.47 73.4551 146.411 73.4574 146.388 73.4903C145.781 74.2617 145.441 73.1619 145.189 73.6264C145.128 73.7388 145.04 73.6144 144.958 73.6377C144.784 73.6851 144.601 73.6872 144.427 73.755C144.312 73.7974 144.163 73.8752 144.156 73.6003C144.152 73.4949 144.03 73.5043 143.944 73.5043C143.862 73.4997 143.767 73.4856 143.753 73.3635C143.741 73.2627 143.809 73.2323 143.883 73.1947C144.086 73.0938 144.294 73.1407 144.492 73.1267C144.744 73.1032 144.895 73.2885 145.11 73.2908C145.201 73.2932 145.254 73.2932 145.21 73.1548C145.15 72.9578 145.227 72.8757 145.404 72.8921C145.586 72.9179 145.723 72.7373 145.905 72.7466C146.267 72.7678 146.616 72.7326 146.906 72.4394C146.98 72.3667 147.064 72.4629 147.148 72.4629C147.4 72.4675 147.672 72.5637 147.866 72.2752C147.966 72.1227 148.013 72.4394 148.113 72.308C148.302 72.0547 148.54 72.1157 148.782 72.1697C148.855 72.1861 148.948 72.1978 148.992 72.1204C149.088 71.9562 149.158 71.9046 149.296 72.0852C149.344 72.1485 149.457 72.1016 149.5 71.9633C149.552 71.7967 149.68 71.7873 149.771 71.914C149.85 72.0266 149.934 71.9445 149.972 71.8811C150.165 71.5574 150.408 71.4894 150.713 71.6442C150.804 71.6888 150.909 71.6724 150.989 71.6301C151.158 71.5293 151.338 71.5082 151.527 71.4988C151.59 71.4988 151.702 71.4847 151.712 71.4519C151.8 71.086 152.005 71.3322 152.164 71.3322C152.355 71.3346 152.544 71.3464 152.735 71.3464C152.861 71.3464 152.921 71.229 152.921 71.1188C152.923 70.9499 153.05 70.9992 153.11 70.9311C153.285 71.2079 153.413 70.8913 153.56 70.8678C153.745 70.8374 153.94 70.8772 154.101 70.8092C154.225 70.7599 154.33 70.6379 154.475 70.6239C154.528 70.6215 154.591 70.5676 154.54 70.4902C154.479 70.4034 154.532 70.2228 154.372 70.2321ZM145.121 67.8349C145.252 67.8279 145.374 67.9639 145.399 68.0765C145.439 68.2454 145.273 68.1469 145.201 68.2032C145.119 68.1351 144.961 68.3204 144.935 68.1234C144.923 68.0132 144.984 67.8395 145.121 67.8349ZM143.506 68.0601C143.697 67.7481 143.849 67.6942 144.184 67.8255C144.219 67.8372 144.251 67.856 144.285 67.8537C144.308 67.8513 144.336 67.8231 144.35 67.802C144.387 67.7458 144.34 67.7152 144.312 67.7082C144.17 67.6777 144.14 67.6027 144.238 67.4807C144.328 67.3657 144.425 67.2766 144.574 67.3869C144.805 67.5464 144.394 67.8208 144.658 67.9686C144.634 68.0272 144.611 68.0788 144.583 68.1305C144.576 68.1445 144.55 68.1515 144.529 68.1492C144.301 68.1281 144.098 68.243 143.885 68.304C143.76 68.3345 143.648 68.2876 143.541 68.2149C143.485 68.1797 143.466 68.1305 143.506 68.0601ZM142.97 74.22C142.916 74.2857 142.857 74.2829 142.794 74.2928C142.778 74.297 142.753 74.2991 142.741 74.29C142.543 74.0836 142.293 74.1776 142.044 74.1069C142.272 74.1331 142.293 73.931 142.356 73.7904C142.43 73.6285 142.403 73.265 142.708 73.584C142.776 73.6476 143.27 73.4504 143.347 73.3987C143.478 73.3096 143.51 73.3753 143.522 73.5395C143.559 74.0179 143.146 73.9896 142.97 74.22Z" fill="white"/>
<path d="M136.445 69.9931C136.179 69.2824 135.769 68.6162 135.214 68.0462C134.703 67.5207 134.067 67.0775 133.309 66.7561C133.185 66.7045 133.062 66.6552 132.931 66.6107C132.805 66.5684 132.677 66.5262 132.547 66.491C132.418 66.4558 132.288 66.423 132.154 66.3948C132.024 66.3667 131.894 66.3433 131.758 66.3221C131.628 66.301 131.495 66.2846 131.357 66.2729C131.227 66.2588 131.092 66.2494 130.954 66.2448C130.821 66.2377 130.688 66.2354 130.55 66.2354H130.147H129.743H129.341H128.937H128.534H128.13H127.727C127.727 67.9102 127.727 69.1956 127.727 70.1714C127.727 72.2332 127.727 72.897 127.727 72.8735C127.727 74.025 127.727 75.6086 127.727 77.7547H128.13H128.534H128.937H129.341H129.743H130.147H130.55C131.395 77.7547 132.154 77.6374 132.829 77.4261C133.621 77.1802 134.296 76.8029 134.852 76.3358C135.464 75.822 135.934 75.1981 136.259 74.5133C136.594 73.8095 136.777 73.0448 136.807 72.2707C136.839 71.5014 136.718 70.7226 136.445 69.9931Z" fill="white"/>
<path d="M135.137 77.8975C135.164 77.8791 135.193 77.8628 135.221 77.8437C135.265 77.8155 135.307 77.7872 135.349 77.7568C135.307 77.7851 135.263 77.8155 135.221 77.8437C135.193 77.8628 135.164 77.8812 135.137 77.8975Z" fill="white"/>
<path d="M138.97 63.1928C139.031 63.1366 139.187 63.1224 139.108 62.9747C139.05 62.8692 139.075 62.6721 138.872 62.6861C138.776 62.6932 138.683 62.6815 138.58 62.7003C138.457 62.7213 138.336 62.8129 138.189 62.7261C138.077 62.6604 137.916 62.4493 137.802 62.773C137.778 62.841 137.581 62.8105 137.527 62.7167C137.345 62.393 137.165 62.5853 137.007 62.7143C136.939 62.773 136.834 62.7261 136.797 62.8386C136.99 63.031 137.181 63.1741 137.405 62.8879C137.422 62.8692 137.468 62.8386 137.471 62.8433C137.636 63.0333 137.846 62.8175 138.04 62.9302C138.214 63.031 138.45 62.8269 138.646 62.9677C138.578 63.0568 138.503 63.1576 138.422 63.2609C138.616 63.3242 138.807 63.3453 138.97 63.1928Z" fill="white"/>
<path d="M155.977 73.4644C156.207 73.4691 156.44 73.4926 156.639 73.312C156.347 73.2463 156.347 73.2463 155.977 73.4644Z" fill="white"/>
<path d="M140.684 76.504C140.623 76.5676 140.549 76.5938 140.525 76.5139C140.46 76.2977 140.376 76.4291 140.294 76.4807C140.126 76.5888 140.126 76.5888 140.145 76.7789C140.436 76.6214 140.777 76.7669 141.071 76.6214C140.97 76.3733 140.856 76.3309 140.684 76.504Z" fill="white"/>
<path d="M156.987 69.6972C156.289 69.3383 156.259 70.2203 155.806 69.906C155.732 69.8567 155.487 69.9436 155.457 70.0327C155.398 70.1969 155.238 70.218 155.172 70.3845C155.466 70.5112 155.625 70.3329 155.769 70.1265C155.96 70.3751 156.156 70.3118 156.334 70.11C156.417 70.0115 156.501 70.0561 156.557 70.089C156.753 70.1969 156.865 69.9951 157.014 69.9459C157.086 69.9177 157.082 69.7465 156.987 69.6972Z" fill="white"/>
<path d="M143.746 76.0094C143.683 76.1479 143.608 76.1458 143.525 76.0539C143.351 75.8638 143.328 75.9536 143.328 76.1691C143.328 76.2532 143.263 76.3359 143.228 76.4221C143.198 76.4906 143.2 76.5443 143.296 76.5493C143.312 76.5422 143.354 76.5302 143.356 76.5139C143.394 76.1811 143.622 76.1854 143.832 76.1571C143.925 76.1458 144.028 76.1387 144.054 76.0094C144.07 75.9394 144.002 75.9062 143.956 75.8758C143.828 75.8009 143.781 75.9253 143.746 76.0094Z" fill="white"/>
<path d="M142.156 76.3194C142.3 76.3944 142.385 76.5138 142.541 76.3993C142.655 76.3124 142.669 76.2184 142.632 76.0615C142.588 76.4014 142.329 76.2135 142.156 76.3194Z" fill="white"/>
<path d="M146.855 77.1915C146.827 77.248 146.745 77.3088 146.832 77.3766C146.985 77.4918 147.074 77.3116 147.193 77.236C147.067 77.3116 146.992 76.9286 146.855 77.1915Z" fill="white"/>
<path d="M148.178 75.0433C148.008 75.0948 147.847 75.1648 147.684 75.2376C147.658 75.2496 147.626 75.3012 147.658 75.3457C147.672 75.369 147.705 75.3902 147.723 75.3832C147.893 75.3478 148.064 75.3033 148.234 75.2588C148.276 75.2496 148.3 75.2192 148.279 75.1556C148.26 75.1111 148.241 75.0221 148.178 75.0433Z" fill="white"/>
<path d="M150.422 75.5641C150.524 75.9062 150.77 75.791 150.947 75.8079C151.191 75.8334 151.217 75.4815 151.415 75.3974C151.07 75.355 150.774 75.5825 150.422 75.5641Z" fill="white"/>
<path d="M157.81 69.3245C157.78 69.3479 157.719 69.3479 157.71 69.3714C157.677 69.4559 157.498 69.369 157.554 69.5098C157.619 69.6881 157.691 69.4324 157.78 69.491C157.838 69.5825 157.726 69.7162 157.843 69.7514C157.934 69.7772 157.983 69.674 158.034 69.6013C158.086 69.5286 158.095 69.484 158.029 69.3949C157.959 69.287 157.906 69.2564 157.81 69.3245Z" fill="white"/>
<path d="M146.605 75.4044C146.512 75.367 146.437 75.2589 146.326 75.3175C146.211 75.3083 146.127 75.379 146.048 75.4489C145.987 75.4956 145.843 75.5168 145.929 75.6715C145.992 75.7797 146.092 75.8334 146.197 75.7754C146.33 75.7026 146.453 75.6228 146.605 75.5924C146.687 75.5733 146.75 75.4701 146.605 75.4044Z" fill="white"/>
<path d="M150.837 73.3798C150.929 73.3845 151.047 73.3423 151.022 73.2086C150.996 73.0866 150.891 73.1382 150.828 73.1453C150.737 73.2508 150.499 73.035 150.555 73.3282C150.588 73.5112 150.739 73.3798 150.837 73.3798Z" fill="white"/>
<path d="M158.363 69.3361C158.449 69.4745 158.538 69.5355 158.641 69.5449C158.685 69.5495 158.837 69.5988 158.736 69.4064C158.657 69.2564 158.825 69.3502 158.867 69.3009C158.921 69.2352 158.97 69.2727 158.946 69.3666C158.932 69.4229 158.927 69.4816 158.993 69.4792C159.023 69.4816 159.084 69.4464 159.084 69.4276C159.084 69.2094 159.277 69.2024 159.363 69.0499C159 69.0241 158.683 69.1461 158.363 69.3361Z" fill="white"/>
<path d="M152.373 72.5592C152.263 72.5944 152.163 72.3669 152.061 72.5522C152.03 72.6085 151.657 72.6343 152.037 72.7563C152.053 72.7633 152.065 72.8478 152.061 72.8947C152.051 72.965 152.005 72.958 151.955 72.9439C151.832 72.9205 151.706 72.9509 151.598 72.8172C151.505 72.707 151.352 72.7211 151.225 72.7703C151.107 72.8172 151.181 72.9228 151.207 72.9979C151.135 73.2653 151.254 73.1808 151.389 73.1527C151.725 73.08 152.063 73.0307 152.403 72.9909C152.629 72.965 152.588 72.7727 152.585 72.6366C152.578 72.456 152.448 72.5358 152.373 72.5592Z" fill="white"/>
<path d="M135.035 77.9611C135.046 77.954 135.061 77.947 135.073 77.9378C135.082 77.9307 135.093 77.9236 135.103 77.9187C135.093 77.9258 135.082 77.9328 135.073 77.9378C135.061 77.9448 135.049 77.9519 135.035 77.9611Z" fill="white"/>
<path d="M135.519 77.6416C135.512 77.6465 135.505 77.6515 135.5 77.6557C135.507 77.6515 135.512 77.6465 135.519 77.6416C135.545 77.6232 135.568 77.607 135.593 77.5879C135.568 77.6041 135.545 77.6232 135.519 77.6416Z" fill="white"/>
<path d="M135.768 77.4495C135.757 77.4594 135.742 77.4685 135.73 77.4806C135.742 77.4707 135.757 77.4594 135.768 77.4495Z" fill="white"/>
<path d="M135.682 66.5095C135.691 66.5166 135.699 66.5236 135.708 66.5306C135.699 66.5236 135.689 66.5142 135.682 66.5095C135.654 66.4884 135.626 66.4672 135.598 66.4438C135.586 66.4344 135.573 66.425 135.559 66.4156C135.573 66.425 135.584 66.4344 135.598 66.4438C135.626 66.4649 135.654 66.486 135.682 66.5095Z" fill="white"/>
<path d="M133.776 65.4398C133.764 65.4352 133.752 65.4304 133.738 65.4258C133.75 65.4304 133.764 65.4352 133.776 65.4398Z" fill="white"/>
<path d="M133.879 65.4798C133.866 65.4751 133.854 65.4704 133.84 65.4634C133.854 65.4681 133.866 65.4728 133.879 65.4798Z" fill="white"/>
<path d="M134.848 78.0712C134.875 78.055 134.906 78.0387 134.934 78.0218C134.948 78.0126 134.962 78.0055 134.978 77.9963C134.964 78.0055 134.95 78.0126 134.934 78.0218C134.906 78.0387 134.878 78.055 134.848 78.0712Z" fill="white"/>
<path d="M136.366 76.9082C136.346 76.9294 136.325 76.9499 136.304 76.9711C136.29 76.9831 136.278 76.9972 136.264 77.0085C136.243 77.0276 136.222 77.0488 136.203 77.0672C136.187 77.0841 136.171 77.0983 136.152 77.1145C136.169 77.0983 136.185 77.0841 136.203 77.0672C136.224 77.0488 136.246 77.0276 136.264 77.0085C136.278 76.9972 136.29 76.9831 136.304 76.9711C136.327 76.9499 136.348 76.9294 136.366 76.9082C136.378 76.8962 136.393 76.882 136.404 76.8707C136.423 76.8517 136.441 76.8333 136.458 76.8142C136.439 76.8333 136.423 76.8517 136.404 76.8707C136.393 76.882 136.381 76.8962 136.366 76.9082Z" fill="white"/>
<path d="M126.301 64.9241H126.965H127.63H128.294H128.958H129.623H130.288H130.953C131.502 64.9241 132.044 64.9804 132.568 65.086C132.972 65.1681 133.368 65.283 133.748 65.4261C133.76 65.4307 133.774 65.4355 133.786 65.4401C133.807 65.4472 133.827 65.4566 133.848 65.4636C133.863 65.4683 133.874 65.473 133.888 65.4801C133.909 65.4894 133.933 65.4965 133.954 65.5059C134.01 65.5293 134.063 65.5528 134.119 65.5762C134.224 65.6208 134.327 65.67 134.429 65.7193C134.525 65.7662 134.62 65.8154 134.713 65.8671C134.846 65.9398 134.979 66.0172 135.108 66.0993C135.253 66.1907 135.393 66.2869 135.53 66.3878C135.556 66.4066 135.581 66.4253 135.607 66.4464C135.635 66.4675 135.662 66.4887 135.691 66.5121C136.066 66.8053 136.409 67.1361 136.717 67.502C137.064 67.9148 137.363 68.3699 137.605 68.8672C137.838 69.3433 138.02 69.8594 138.141 70.4082C138.253 70.9196 138.314 71.4638 138.314 72.0315C138.314 72.599 138.256 73.1386 138.143 73.6498C138.025 74.1968 137.843 74.7105 137.61 75.1861C137.367 75.6815 137.069 76.1365 136.721 76.5443C136.651 76.6262 136.581 76.7061 136.509 76.7838C136.505 76.7888 136.5 76.793 136.498 76.798C136.491 76.805 136.486 76.8121 136.479 76.8192C136.46 76.8375 136.444 76.8566 136.425 76.875C136.414 76.8891 136.399 76.9011 136.388 76.9124C136.367 76.9336 136.346 76.9548 136.325 76.976C136.311 76.988 136.299 77.0022 136.285 77.0135C136.265 77.0326 136.243 77.0538 136.225 77.0721C136.208 77.0884 136.192 77.1025 136.173 77.1195C136.164 77.1287 136.155 77.1379 136.143 77.147C136.138 77.152 136.134 77.1541 136.129 77.1591C136.064 77.2177 135.998 77.2764 135.931 77.335C135.917 77.347 135.903 77.3583 135.886 77.3725C135.872 77.3845 135.858 77.3958 135.845 77.4078C135.824 77.424 135.805 77.4403 135.784 77.4573C135.759 77.4756 135.735 77.4968 135.709 77.5159C135.674 77.5413 135.642 77.5675 135.607 77.5929C135.583 77.612 135.558 77.6283 135.532 77.6466C135.525 77.6516 135.518 77.6565 135.513 77.6608C135.465 77.6961 135.416 77.7314 135.366 77.7639C135.325 77.7922 135.28 77.8226 135.238 77.8509C135.21 77.8699 135.183 77.8862 135.154 77.9053C135.133 77.9187 135.113 77.9307 135.091 77.9448C135.066 77.9611 135.043 77.9752 135.017 77.9894C134.996 78.0014 134.973 78.0155 134.952 78.0268C134.923 78.0431 134.893 78.06 134.865 78.0763C134.856 78.0805 134.846 78.0876 134.837 78.0925C134.606 78.2219 134.369 78.3392 134.123 78.4423C133.634 78.6508 133.114 78.8105 132.575 78.9158C132.056 79.019 131.514 79.0705 130.964 79.0705H130.3H129.635H128.97H128.306H127.641H126.977H126.312C126.301 72.2707 126.301 70.9899 126.301 64.9241ZM127.725 77.7548H128.129H128.532H128.935H129.339H129.742H130.146H130.549C131.393 77.7548 132.153 77.6375 132.827 77.4262C133.62 77.1803 134.294 76.8022 134.851 76.3358C135.462 75.8221 135.933 75.1981 136.257 74.5134C136.593 73.8095 136.775 73.0447 136.805 72.2707C136.835 71.4989 136.715 70.7202 136.441 69.9907C136.175 69.28 135.766 68.6138 135.21 68.0439C134.7 67.5184 134.063 67.075 133.305 66.7537C133.184 66.7021 133.058 66.6529 132.928 66.6083C132.801 66.566 132.673 66.5239 132.543 66.4887C132.415 66.4535 132.284 66.4206 132.151 66.3925C132.02 66.3644 131.89 66.3409 131.755 66.3198C131.624 66.2986 131.491 66.2823 131.353 66.2705C131.223 66.2565 131.088 66.2471 130.95 66.2424C130.817 66.2353 130.684 66.233 130.547 66.233H130.144H129.74H129.337H128.933H128.53H128.126H127.723C127.725 83.8136 127.725 58.68 127.725 77.7548Z" fill="white"/>
<path d="M117.009 64.9241H115.717L109.641 79.0684H111.033L112.611 75.3691H120.115L121.696 79.0684H123.085L117.009 64.9241ZM113.17 74.0555L116.363 66.5778L119.555 74.0555H113.17Z" fill="white"/>
</svg>
