<svg width="165" height="100" viewBox="0 0 165 100" fill="none" xmlns="http://www.w3.org/2000/svg">
<mask id="mask0_18847_6240" style="mask-type:luminance" maskUnits="userSpaceOnUse" x="12" y="12" width="140" height="76">
<path d="M152 12H12V88H152V12Z" fill="white"/>
</mask>
<g mask="url(#mask0_18847_6240)">
<mask id="mask1_18847_6240" style="mask-type:luminance" maskUnits="userSpaceOnUse" x="12" y="12" width="140" height="76">
<path d="M152 12H12V88H152V12Z" fill="white"/>
</mask>
<g mask="url(#mask1_18847_6240)">
<path d="M132.552 38.0054L102.05 37.8818L102.048 37.8851L97.1776 37.8656C95.4935 40.312 94.6437 41.0967 93.2217 42.4514L82.4398 52.5934L77.8813 42.6185C77.165 41.0866 76.8261 39.7801 76.5277 37.7318L68.8314 37.7004C70.1941 40.3237 70.6947 41.4001 71.2339 42.5342L77.7578 56.9911L63.811 70.233C62.892 71.1033 61.9704 71.8908 61.0255 72.7017L62.0891 70.1888C59.8363 70.721 57.834 70.8771 54.343 70.863L31.4306 70.7703C28.7525 70.7592 28.3341 69.9771 29.1475 66.6954L31.2254 58.2575L65.0017 58.3941L67.7392 47.2881C69.5557 39.9325 67.6763 37.7427 60.8402 37.7148L39.2213 37.6272C32.3931 37.5996 29.4297 39.7698 27.6112 47.1254L23.2586 64.7898C21.4463 72.1313 23.3294 74.3213 30.1563 74.349L59.0114 74.4659L59.0088 74.468L63.8647 74.4878C65.3776 72.3344 66.9812 70.4783 69.5936 68.0586L78.8599 59.4333L83.6958 70.2606C84.4694 72.0175 84.8989 73.603 85.0469 74.5736L93.0169 74.6055C91.9018 73.1255 90.9656 71.1331 89.635 68.3037L83.4682 55.0903L96.151 43.1992C97.9125 41.5215 99.484 40.2337 101.807 38.4503L100.211 42.1755C102.492 41.6352 104.521 41.4903 108.064 41.5047L131.264 41.5985C133.974 41.6093 134.399 42.3867 133.581 45.6693L131.467 54.1097L97.2654 53.9712L94.4904 65.0769C92.6511 72.4328 94.5578 74.6261 101.482 74.6543L123.377 74.743C130.293 74.7706 133.291 72.5974 135.135 65.2415L139.547 47.5693C141.379 40.2373 139.477 38.0334 132.552 38.0054ZM34.4315 45.2724C35.2448 41.9818 36.0475 41.2035 38.7234 41.2141L59.5726 41.2986C62.2479 41.3095 62.6611 42.093 61.8485 45.3838L59.5316 54.7867L32.1108 54.6755L34.4315 45.2724ZM128.229 67.0956C127.402 70.3899 126.588 71.1642 123.884 71.1531L102.76 71.068C100.058 71.0566 99.6336 70.2774 100.457 66.9831L102.805 57.5776L130.578 57.6901L128.229 67.0956Z" fill="white"/>
</g>
</g>
</svg>
