<svg width="165" height="100" viewBox="0 0 165 100" fill="none" xmlns="http://www.w3.org/2000/svg">
<mask id="mask0_18847_6242" style="mask-type:luminance" maskUnits="userSpaceOnUse" x="2" y="22" width="162" height="56">
<path d="M163.241 22H2V78H163.241V22Z" fill="white"/>
</mask>
<g mask="url(#mask0_18847_6242)">
<path d="M5.38431 64.6755H4.12914V59.2686H5.38431C7.02569 59.2686 8.28086 60.4272 8.28086 61.972C8.28086 63.5168 7.12224 64.6755 5.38431 64.6755ZM5.38431 57.4341H2.10156V66.4134H5.28777C8.28087 66.4134 10.3085 64.3858 10.3085 61.8755C10.3085 59.4617 8.37742 57.4341 5.38431 57.4341Z" fill="white"/>
<path d="M17.4426 62.7445C17.4426 63.9997 16.6702 64.7721 15.6082 64.7721C14.5461 64.7721 13.7737 63.9997 13.7737 62.7445V57.4342H11.7461V62.7445C11.7461 65.0618 13.2909 66.5101 15.6082 66.5101C17.9254 66.5101 19.4702 64.9652 19.4702 62.648V57.3376H17.4426V62.7445Z" fill="white"/>
<path d="M23.6252 62.5515H25.4597C26.2321 62.5515 26.8114 63.0342 26.8114 63.7101C26.8114 64.2894 26.3287 64.8687 25.4597 64.8687H23.6252V62.5515ZM25.1701 61.1032H23.6252V59.0756H25.1701C25.9425 59.0756 26.4252 59.5583 26.4252 60.1377C26.4252 60.6204 25.9425 61.1032 25.1701 61.1032ZM27.2942 61.779C27.9701 61.3928 28.4528 60.6204 28.4528 59.848C28.4528 58.3032 27.1011 57.5308 25.5563 57.5308H21.5977V66.5101H25.8459C27.4873 66.5101 28.839 65.5446 28.839 63.9997C28.839 62.9377 28.2597 62.0687 27.2942 61.779Z" fill="white"/>
<path d="M35.0236 62.9375H32.7063L33.865 59.8479L35.0236 62.9375ZM34.927 57.4341H32.8994L29.2305 66.4134H31.3546L32.0305 64.5789H35.5063L36.1822 66.4134H38.4029L34.927 57.4341Z" fill="white"/>
<path d="M41.7804 57.4341H39.6562V66.4134H41.7804V57.4341Z" fill="white"/>
<path d="M49.2112 59.172H50.8526C51.8181 59.172 52.3974 59.7513 52.3974 60.5237C52.3974 61.2962 51.8181 61.8755 50.8526 61.8755H49.2112V59.172ZM51.0457 57.4341H47.1836V66.4134H49.2112V63.6134H51.0457C53.1698 63.6134 54.5215 62.1651 54.5215 60.5237C54.425 58.5927 52.9767 57.4341 51.0457 57.4341Z" fill="white"/>
<path d="M60.2193 64.6756C58.6745 64.6756 57.5159 63.517 57.5159 61.8756C57.5159 60.3307 58.5779 59.0756 60.2193 59.0756C61.7641 59.0756 62.9227 60.2342 62.9227 61.8756C62.9227 63.517 61.7641 64.6756 60.2193 64.6756ZM60.2193 57.3376C57.5159 57.3376 55.4883 59.3652 55.4883 61.9721C55.4883 64.579 57.4193 66.6066 60.2193 66.6066C62.9228 66.6066 64.9504 64.579 64.9504 61.9721C64.9504 59.3652 63.0193 57.3376 60.2193 57.3376Z" fill="white"/>
<path d="M84.7469 63.7102C84.2641 64.386 83.4917 64.7722 82.6228 64.6757C81.0779 64.6757 79.9193 63.5171 79.9193 61.8757C79.9193 60.2343 81.0779 59.0757 82.6228 59.0757C83.3952 59.0757 84.1676 59.3653 84.6503 59.9446L86.1952 58.5929C85.3262 57.6274 84.071 57.0481 82.7193 57.0481C80.0159 57.0481 77.9883 59.0757 77.9883 61.6826C77.9883 64.2895 80.0159 66.3171 82.7193 66.3171C84.071 66.3171 85.4228 65.7377 86.2917 64.6757L84.7469 63.7102Z" fill="white"/>
<path d="M68.6252 57.4341H66.5977V66.5099H72.9701V64.6755H68.6252V57.4341Z" fill="white"/>
<path d="M76.3468 57.4341H74.2227V66.4134H76.3468V57.4341Z" fill="white"/>
<path d="M89.5706 64.6755V62.6479H93.5292V61.0065H89.5706V59.2686H94.205V57.4341H87.543V66.5099H94.3016V64.6755H89.5706Z" fill="white"/>
<path d="M51.5353 36.1929C52.3077 36.1929 52.887 35.6136 52.887 34.8412C52.887 34.0688 52.3077 33.4895 51.5353 33.4895C50.7629 33.4895 50.1836 34.0688 50.1836 34.8412C50.1836 35.6136 50.7629 36.1929 51.5353 36.1929Z" fill="white"/>
<path d="M86.8674 34.1654C87.6398 34.1654 88.2191 33.5861 88.2191 32.8136C88.2191 32.0412 87.6398 31.4619 86.8674 31.4619C86.0949 31.4619 85.5156 32.0412 85.5156 32.8136C85.5156 33.5861 86.0949 34.1654 86.8674 34.1654Z" fill="white"/>
<path d="M84.9377 37.2552C85.7101 37.2552 86.2894 36.6759 86.2894 35.9035C86.2894 35.1311 85.7101 34.5518 84.9377 34.5518C84.1652 34.5518 83.5859 35.1311 83.5859 35.9035C83.6825 36.6759 84.2618 37.2552 84.9377 37.2552Z" fill="white"/>
<path d="M87.3555 35.9999C87.3555 36.7723 87.9348 37.3516 88.7072 37.3516C89.4796 37.3516 90.0589 36.7723 90.0589 35.9999C90.0589 35.2274 89.4796 34.6481 88.7072 34.6481C87.9348 34.5516 87.3555 35.2274 87.3555 35.9999Z" fill="white"/>
<path d="M92.1796 37.6416L89.9589 38.9933C90.5382 39.8623 92.083 42.8554 91.3106 47.2002H88.1244V38.9933H85.5175V47.2002H83.4899V38.9933H80.883V47.2002H77.1175V37.9313H74.5106V48.3588C74.5106 50.483 72.7727 52.2209 70.6485 52.2209H69.9727V54.8278H70.6485C73.6416 54.8278 76.2485 52.7037 77.0209 49.8071H93.5313L93.7244 48.7451C95.0761 42.9519 92.8554 38.8002 92.1796 37.6416Z" fill="white"/>
<path d="M35.0244 37.5449L33.8658 39.8622C37.2451 41.6001 37.5348 44.9794 37.2451 47.1035H31.3555V49.7104H39.4658L39.6589 48.6484C41.2037 41.407 36.4727 38.3173 35.0244 37.5449Z" fill="white"/>
<path d="M58.4822 45.5585L62.5374 42.0827C64.3719 40.5379 67.1719 40.731 68.7167 42.5654C68.8133 42.662 68.8133 42.7585 68.9098 42.7585C69.7788 43.9172 69.9719 45.3654 69.5857 46.6206L69.4891 47.1034H58.4822V45.5585ZM71.4202 49.8068L72.096 47.4896C72.6753 45.3654 72.2891 43.0482 71.034 41.2137C68.7167 38.1241 64.2753 37.4482 61.1857 39.7654C61.0891 39.862 60.9926 39.9586 60.7995 40.0551L58.4822 42.0827V34.8413H55.8753V47.1034H52.8822V37.8344H50.1788C46.5098 37.8344 43.6133 40.8275 43.6133 44.3999V49.7103H46.2202V44.4965C46.2202 42.2758 47.9581 40.5379 50.1788 40.5379H50.2753V49.8068H71.4202Z" fill="white"/>
<path d="M26.9103 51.5449C26.1379 51.5449 25.5586 52.1242 25.5586 52.8966C25.5586 53.6691 26.1379 54.2484 26.9103 54.2484C27.6827 54.2484 28.262 53.6691 28.262 52.8966C28.3586 52.1242 27.6827 51.5449 26.9103 51.5449Z" fill="white"/>
<path d="M12.9064 51.5449C12.134 51.5449 11.5547 52.1242 11.5547 52.8966C11.5547 53.6691 12.134 54.2484 12.9064 54.2484C13.6788 54.2484 14.2581 53.6691 14.2581 52.8966C14.2581 52.1242 13.5823 51.5449 12.9064 51.5449Z" fill="white"/>
<path d="M9.43377 51.5449C8.66135 51.5449 8.08203 52.1242 8.08203 52.8966C8.08203 53.6691 8.66135 54.2484 9.43377 54.2484C10.2062 54.2484 10.7855 53.6691 10.7855 52.8966C10.882 52.1242 10.2062 51.5449 9.43377 51.5449Z" fill="white"/>
<path d="M48.2502 36.1929C49.0226 36.1929 49.6019 35.6136 49.6019 34.8412C49.6019 34.0688 49.0226 33.4895 48.2502 33.4895C47.4777 33.4895 46.8984 34.0688 46.8984 34.8412C46.8984 35.6136 47.4777 36.1929 48.2502 36.1929Z" fill="white"/>
<path d="M27.1034 45.5587C27.1034 46.4277 26.4276 47.2001 25.4621 47.2001H24.3034V37.9311H21.5034C17.931 37.9311 15.131 40.8277 15.131 44.4966V47.2001H4.60691V46.8139C4.60691 44.0139 5.28276 41.3104 6.63448 38.8001L4.31725 37.5449C2.77242 40.3449 2 43.5311 2 46.8139V49.807H17.8345V44.4966C17.8345 42.276 19.4759 40.538 21.6 40.538H21.6965V49.807H25.5586C27.8759 49.807 29.8069 47.876 29.8069 45.5587V37.8346H27.2V45.5587H27.1034Z" fill="white"/>
<path d="M156.385 58.7862C156.385 57.8207 156.868 56.7586 157.833 55.7931C158.606 54.9241 159.668 54.4414 160.827 54.2483C160.633 55.4069 160.151 56.469 159.378 57.2414C158.316 58.2069 157.351 58.6897 156.385 58.7862ZM159.089 59.9448C158.702 61.0069 157.93 61.9724 156.964 62.5517C155.806 63.3241 154.647 63.6138 153.682 63.4207C153.875 62.4552 154.551 61.5862 155.806 60.8138C156.771 60.2345 157.93 59.9448 159.089 59.9448ZM153.489 67.4759C152.137 68.0552 151.075 68.0552 150.109 67.669C150.496 66.8 151.364 66.0276 152.716 65.5448C153.778 65.1586 154.937 65.0621 156.096 65.3517C155.516 66.3172 154.551 66.9931 153.489 67.4759ZM149.047 71.4345C147.599 71.6276 146.537 71.531 145.764 70.9517C146.344 70.1793 147.309 69.6 148.758 69.4069C149.916 69.2138 151.075 69.4069 152.04 69.8897C151.268 70.6621 150.206 71.2414 149.047 71.4345ZM143.93 74.331C142.482 74.2345 141.42 73.8483 140.744 73.1724C141.516 72.4966 142.578 72.2069 144.027 72.3034C145.185 72.4 146.247 72.7862 147.213 73.4621C146.247 74.1379 145.089 74.4276 143.93 74.331ZM138.233 76.1655C136.785 75.7793 135.916 75.2 135.433 74.331C136.302 73.8483 137.364 73.7517 138.813 74.1379C139.971 74.4276 140.937 75.1035 141.613 75.9724C140.551 76.4552 139.392 76.4552 138.233 76.1655ZM136.689 70.0828C137.461 69.2138 138.523 68.731 139.682 68.5379C139.489 69.6966 139.006 70.7586 138.137 71.531C137.075 72.5931 136.109 73.0759 135.144 73.0759C135.144 72.1103 135.627 71.1448 136.689 70.0828ZM141.033 68.8276C141.613 67.8621 142.578 67.0897 143.64 66.7034C143.737 67.8621 143.447 69.0207 142.771 69.9862C141.999 71.2414 141.13 71.9172 140.164 72.1103C139.971 71.0483 140.261 69.9862 141.033 68.8276ZM145.089 66.6069C145.475 65.5448 146.247 64.5793 147.213 64C147.502 65.0621 147.502 66.3172 147.116 67.3793C146.633 68.731 145.958 69.6 144.992 69.9862C144.509 69.0207 144.606 67.9586 145.089 66.6069ZM148.564 63.5172C148.758 62.3586 149.24 61.2966 150.109 60.5241C150.689 61.5862 150.882 62.6483 150.689 63.8069C150.496 65.2552 150.013 66.2207 149.144 66.8C148.564 66.0276 148.371 64.9655 148.564 63.5172ZM152.137 56.5655C152.909 57.4345 153.296 58.5931 153.392 59.6552C153.489 61.1034 153.199 62.1655 152.523 62.9379C151.847 62.2621 151.364 61.2966 151.268 59.8483C151.268 58.6897 151.558 57.531 152.137 56.5655ZM151.364 39.1862C152.523 39.1862 153.682 39.5724 154.551 40.3448C155.709 41.2138 156.289 42.1793 156.482 43.1448C155.516 43.2414 154.454 42.9517 153.296 41.9862C152.33 41.3103 151.751 40.3448 151.364 39.1862ZM148.951 35.5172C150.109 35.3241 151.268 35.4207 152.33 35.9034C153.682 36.4828 154.454 37.2552 154.744 38.2207C153.778 38.5103 152.716 38.4138 151.364 37.8345C150.399 37.3517 149.53 36.4828 148.951 35.5172ZM145.861 32.331C146.923 31.8483 148.082 31.7517 149.24 32.0414C150.689 32.4276 151.558 33.0069 152.137 33.7793C151.268 34.2621 150.206 34.3586 148.758 34.069C147.599 33.7793 146.537 33.2 145.861 32.331ZM145.282 30.9793C144.123 30.9793 142.964 30.5931 142.096 29.9172C143.061 29.2414 144.123 28.8552 145.282 28.9517C146.73 28.9517 147.792 29.3379 148.468 30.0138C147.792 30.6897 146.73 31.0759 145.282 30.9793ZM142.675 27.0207C141.709 26.4414 140.937 25.5724 140.454 24.5104C141.613 24.4138 142.771 24.7035 143.737 25.2828C144.992 26.0552 145.668 26.9241 145.958 27.7931C144.992 27.9862 143.93 27.6966 142.675 27.0207ZM146.054 23.3517C147.116 23.8345 147.985 24.6069 148.468 25.669C149.144 26.9241 149.337 27.9862 149.144 28.9517C148.178 28.6621 147.406 27.8897 146.633 26.6345C146.151 25.669 145.861 24.4138 146.054 23.3517ZM151.075 26.731C151.944 27.4069 152.716 28.3724 153.006 29.531C153.392 30.8828 153.392 32.0414 152.909 32.9103C152.04 32.4276 151.364 31.5586 150.978 30.1104C150.689 28.9517 150.689 27.7931 151.075 26.731ZM155.323 31.1724C156.096 32.0414 156.482 33.1034 156.578 34.2621C156.675 35.7103 156.385 36.7724 155.806 37.5448C155.13 36.869 154.647 35.9034 154.551 34.4552C154.454 33.2966 154.744 32.1379 155.323 31.1724ZM154.261 46.5241C153.489 45.6552 153.102 44.4966 153.006 43.4345C154.164 43.7241 155.13 44.3034 155.902 45.1724C156.868 46.2345 157.254 47.2966 157.158 48.2621C156.192 48.1655 155.227 47.6828 154.261 46.5241ZM155.13 58.4C154.261 57.9172 153.682 57.0483 153.296 55.6C153.006 54.5379 153.006 53.2828 153.392 52.2207C154.261 52.8966 154.937 53.8621 155.227 55.0207C155.613 56.469 155.613 57.531 155.13 58.4ZM154.261 51.1586C153.682 50.0966 153.489 49.0345 153.682 47.8759C154.744 48.3586 155.613 49.2276 156.096 50.1931C156.771 51.4483 156.964 52.6069 156.675 53.4759C155.709 53.1862 154.937 52.4138 154.261 51.1586ZM157.061 39.2828C157.158 38.1241 157.737 37.0621 158.509 36.2897C159.089 37.3517 159.282 38.4138 159.089 39.5724C158.896 41.0207 158.413 41.9862 157.64 42.5655C157.061 41.8897 156.868 40.731 157.061 39.2828ZM160.537 41.9862C160.827 43.0483 160.827 44.3034 160.44 45.3655C159.958 46.7172 159.282 47.5862 158.413 47.9724C158.027 47.1034 158.027 45.9448 158.509 44.5931C158.896 43.6276 159.571 42.6621 160.537 41.9862ZM161.309 48.069C161.406 49.2276 161.116 50.3862 160.537 51.3517C159.764 52.6069 158.896 53.2828 157.93 53.4759C157.737 52.5103 157.93 51.4483 158.702 50.1931C159.378 49.2276 160.247 48.5517 161.309 48.069ZM127.516 71.6276C126.647 70.8552 126.164 69.7931 125.971 68.6345C127.13 68.8276 128.192 69.3103 128.964 70.1793C130.027 71.2414 130.509 72.2069 130.509 73.1724C129.544 73.0759 128.482 72.5931 127.516 71.6276ZM127.323 76.1655C126.261 76.4552 125.006 76.3586 123.944 75.9724C124.62 75.1035 125.682 74.4276 126.744 74.1379C128.192 73.7517 129.254 73.8483 130.123 74.331C129.64 75.2 128.771 75.7793 127.323 76.1655ZM121.627 74.331C120.468 74.4276 119.309 74.1379 118.344 73.4621C119.213 72.7862 120.371 72.3034 121.53 72.3034C122.978 72.2069 124.04 72.4966 124.813 73.1724C124.137 73.8483 123.075 74.331 121.627 74.331ZM116.509 71.4345C115.351 71.2414 114.289 70.7586 113.516 69.8897C114.578 69.3103 115.737 69.2138 116.799 69.4069C118.247 69.6 119.213 70.1793 119.792 70.9517C119.02 71.531 117.958 71.6276 116.509 71.4345ZM112.068 67.4759C111.006 67.0897 110.04 66.3172 109.461 65.3517C110.62 65.0621 111.778 65.1586 112.84 65.5448C114.192 66.1241 115.061 66.8 115.447 67.669C114.578 68.0552 113.42 67.9586 112.068 67.4759ZM108.592 62.6483C107.627 61.9724 106.951 61.1035 106.468 60.0414C107.627 59.9448 108.785 60.331 109.751 60.9103C110.909 61.6828 111.585 62.5517 111.875 63.5172C110.909 63.7103 109.847 63.4207 108.592 62.6483ZM106.275 57.1448C105.502 56.2759 104.923 55.3103 104.827 54.1517C105.985 54.3448 106.951 54.9241 107.82 55.6966C108.882 56.7586 109.268 57.7241 109.268 58.6897C108.206 58.6897 107.24 58.2069 106.275 57.1448ZM104.247 48.069C105.309 48.4552 106.275 49.2276 106.854 50.1931C107.627 51.4483 107.916 52.5103 107.627 53.4759C106.661 53.2828 105.792 52.5103 105.02 51.3517C104.44 50.3862 104.151 49.2276 104.247 48.069ZM105.02 42.0828C105.985 42.7586 106.661 43.6276 107.047 44.6897C107.53 46.0414 107.53 47.1034 107.144 48.069C106.275 47.6828 105.599 46.8138 105.116 45.4621C104.73 44.3034 104.73 43.1448 105.02 42.0828ZM107.047 36.2897C107.82 37.1586 108.399 38.2207 108.496 39.2828C108.689 40.731 108.496 41.7931 107.916 42.5655C107.144 41.9862 106.661 40.9241 106.468 39.5724C106.275 38.5103 106.564 37.3517 107.047 36.2897ZM108.978 34.2621C109.075 33.1034 109.558 32.0414 110.233 31.1724C110.813 32.1379 111.102 33.2966 111.006 34.4552C110.909 35.9034 110.427 36.869 109.751 37.5448C109.171 36.7724 108.882 35.7103 108.978 34.2621ZM113.323 35.9034C114.385 35.4207 115.544 35.2276 116.702 35.5172C116.123 36.5793 115.351 37.3517 114.289 37.8345C112.937 38.4138 111.875 38.6069 110.909 38.2207C111.199 37.3517 111.971 36.5793 113.323 35.9034ZM112.551 29.531C112.84 28.469 113.516 27.5035 114.482 26.731C114.868 27.7931 114.868 29.0483 114.578 30.1104C114.192 31.4621 113.516 32.4276 112.647 32.9103C112.261 32.0414 112.164 30.8828 112.551 29.531ZM116.413 32.0414C117.571 31.7517 118.73 31.8483 119.792 32.331C119.02 33.2 118.054 33.8759 116.896 34.069C115.447 34.3586 114.385 34.2621 113.516 33.7793C114.096 33.0069 114.964 32.4276 116.413 32.0414ZM117.089 25.669C117.668 24.6069 118.537 23.8345 119.502 23.3517C119.696 24.5104 119.406 25.669 118.827 26.6345C118.151 27.8897 117.282 28.6621 116.413 28.9517C116.22 27.9862 116.413 26.9241 117.089 25.669ZM121.82 25.1862C122.785 24.6069 123.944 24.3172 125.102 24.4138C124.716 25.4759 123.944 26.3448 122.882 26.9241C121.627 27.6966 120.564 27.8897 119.599 27.6966C119.889 26.8276 120.661 25.9586 121.82 25.1862ZM123.558 29.9172C122.689 30.5931 121.53 30.9793 120.371 30.9793C118.923 30.9793 117.861 30.6897 117.185 30.0138C117.861 29.3379 118.923 28.9517 120.371 28.9517C121.433 28.9517 122.592 29.2414 123.558 29.9172ZM112.261 41.9862C111.102 42.8552 110.04 43.2414 109.075 43.1448C109.171 42.1793 109.847 41.2138 111.006 40.3448C111.875 39.669 113.033 39.2828 114.192 39.1862C113.902 40.3448 113.227 41.3103 112.261 41.9862ZM110.33 55.0207C110.62 53.9586 111.296 52.8966 112.164 52.2207C112.551 53.2828 112.647 54.4414 112.261 55.6C111.875 56.9517 111.199 57.9172 110.427 58.4C110.04 57.531 109.944 56.469 110.33 55.0207ZM108.496 48.2621C108.399 47.2966 108.882 46.2345 109.751 45.1724C110.523 44.3034 111.489 43.6276 112.647 43.4345C112.551 44.5931 112.068 45.6552 111.392 46.5241C110.427 47.5862 109.461 48.1655 108.496 48.2621ZM109.558 50.1931C110.137 49.131 110.909 48.3586 111.971 47.8759C112.164 49.0345 111.875 50.1931 111.392 51.1586C110.716 52.4138 109.847 53.1862 108.978 53.4759C108.689 52.5103 108.882 51.4483 109.558 50.1931ZM113.42 56.5655C113.999 57.531 114.289 58.6897 114.289 59.8483C114.192 61.2966 113.709 62.2621 113.033 62.9379C112.358 62.1655 112.068 61.1034 112.164 59.6552C112.261 58.5931 112.744 57.4345 113.42 56.5655ZM115.544 60.5241C116.316 61.3931 116.896 62.3586 117.089 63.5172C117.282 64.9655 117.089 66.0276 116.509 66.8C115.737 66.2207 115.254 65.2552 114.964 63.8069C114.771 62.6483 114.964 61.4897 115.544 60.5241ZM118.44 63.9035C119.406 64.4828 120.178 65.4483 120.564 66.5103C121.047 67.8621 121.144 68.9241 120.758 69.8897C119.889 69.5034 119.213 68.6345 118.633 67.2828C118.151 66.2207 118.054 65.0621 118.44 63.9035ZM121.916 66.7034C122.978 67.0897 123.944 67.8621 124.523 68.8276C125.296 70.0828 125.585 71.1448 125.392 72.1103C124.427 71.9172 123.558 71.2414 122.785 69.9862C122.206 68.9241 121.916 67.7655 121.916 66.7034ZM161.889 52.9931C161.406 52.9931 160.923 52.9931 160.537 53.0897C160.923 52.7035 161.213 52.3172 161.406 51.931C162.371 50.3862 162.661 48.5517 162.082 46.8138C161.599 46.9103 161.213 47.0069 160.73 47.2C160.923 46.8138 161.213 46.331 161.309 45.8483C161.889 44.1103 161.792 42.2759 160.923 40.6345C160.537 40.8276 160.054 41.0207 159.764 41.3103C159.958 40.8276 160.054 40.3448 160.054 39.8621C160.344 38.0276 159.764 36.1931 158.606 34.8414C158.22 35.131 157.833 35.4207 157.544 35.7103C157.64 35.2276 157.64 34.7448 157.544 34.1655C157.447 32.331 156.482 30.6897 155.033 29.6276C154.744 29.9173 154.454 30.3034 154.164 30.6897C154.068 30.2069 153.971 29.7241 153.875 29.2414C153.392 27.5034 152.137 26.0552 150.496 25.2828C150.302 25.669 150.013 26.0552 149.916 26.5379C149.723 26.0552 149.53 25.5724 149.337 25.1862C148.468 23.5448 146.923 22.3862 145.185 22C144.896 22.869 144.799 23.8345 144.799 24.8C144.606 24.6069 144.413 24.5104 144.123 24.3173C142.578 23.3517 140.647 23.1586 138.909 23.6414C139.199 25.4759 140.358 27.0207 141.902 27.8897C142.096 27.9862 142.385 28.1793 142.578 28.2759C141.709 28.6621 140.937 29.1448 140.261 29.8207C141.227 30.9793 142.578 31.7517 144.123 31.9448C144.799 33.2966 145.958 34.2621 147.406 34.7448C147.792 36.1931 148.758 37.3517 150.013 38.2207C150.109 39.669 150.785 41.1172 151.847 42.1793C151.654 43.6276 151.944 45.1724 152.813 46.4276C152.33 47.7793 152.33 49.3241 152.813 50.7724C152.04 52.0276 151.751 53.5724 151.944 55.0207C150.882 56.0828 150.302 57.4345 150.206 58.9793C148.951 59.8483 148.082 61.0069 147.599 62.4552C146.247 63.0345 145.089 64 144.316 65.3517C142.868 65.5448 141.516 66.3172 140.551 67.4759C138.716 67.3793 136.978 68.0552 135.723 69.4069C134.854 70.2759 134.371 71.1448 134.082 71.9172C133.889 72.6897 133.02 73.1724 132.247 72.9793C131.764 72.8828 131.378 72.4 131.185 71.9172C130.992 71.1448 130.413 70.2759 129.544 69.4069C128.289 68.1517 126.551 67.3793 124.716 67.4759C123.751 66.3172 122.399 65.5448 120.951 65.3517C120.275 64 119.116 63.0345 117.668 62.4552C117.282 61.0069 116.316 59.7517 115.061 58.9793C114.964 57.531 114.385 56.0828 113.323 55.0207C113.516 53.5724 113.227 52.0276 112.454 50.7724C112.937 49.4207 113.033 47.8759 112.454 46.4276C113.227 45.1724 113.613 43.6276 113.42 42.1793C114.482 41.1172 115.061 39.7655 115.254 38.2207C116.509 37.4483 117.378 36.1931 117.861 34.7448C119.213 34.1655 120.371 33.2 121.144 31.9448C122.689 31.7517 123.944 30.9793 125.006 29.8207C124.33 29.1448 123.558 28.5655 122.689 28.2759C122.882 28.1793 123.171 28.0828 123.364 27.8897C124.909 26.9241 125.971 25.3793 126.358 23.6414C124.62 23.0621 122.689 23.3517 121.144 24.3173C120.951 24.4138 120.661 24.6069 120.468 24.8C120.564 23.8345 120.468 22.869 120.178 22C118.44 22.3862 116.896 23.5448 116.027 25.1862C115.833 25.5724 115.64 26.0552 115.447 26.5379C115.254 26.1517 115.061 25.669 114.868 25.2828C113.227 26.0552 111.971 27.5034 111.489 29.2414C111.392 29.7241 111.296 30.2069 111.199 30.6897C111.006 30.3034 110.716 29.9173 110.33 29.6276C108.882 30.6897 107.916 32.4276 107.82 34.2621C107.723 34.7448 107.82 35.2276 107.82 35.8069C107.53 35.4207 107.144 35.131 106.758 34.9379C105.599 36.2897 105.02 38.1241 105.309 39.9586C105.406 40.4414 105.502 40.9241 105.599 41.4069C105.213 41.1172 104.827 40.9241 104.44 40.731C103.571 42.3724 103.378 44.2069 104.054 45.9448C104.247 46.4276 104.44 46.8138 104.633 47.2966C104.247 47.1035 103.764 47.0069 103.282 46.9103C102.799 48.6483 102.992 50.5793 103.958 52.0276C104.247 52.4138 104.537 52.8966 104.827 53.1862C104.344 53.0897 103.958 53.0897 103.475 53.0897C103.378 54.9241 103.958 56.6621 105.309 58.0138C105.696 58.4 105.985 58.6897 106.468 58.9793C105.985 58.9793 105.599 59.0759 105.116 59.1724C105.309 61.0069 106.371 62.5517 107.916 63.6138C108.302 63.9034 108.785 64.0966 109.268 64.2897C108.785 64.3862 108.399 64.5793 108.013 64.7724C108.592 66.5103 109.944 67.8621 111.682 68.5379C112.164 68.731 112.647 68.8276 113.13 68.9241C112.744 69.1172 112.358 69.4069 111.971 69.6966C112.937 71.2414 114.578 72.3035 116.316 72.5931C116.799 72.6897 117.282 72.6897 117.764 72.6897C117.378 72.9793 117.089 73.269 116.799 73.6552C118.054 75.0069 119.889 75.6828 121.627 75.5862C122.109 75.5862 122.592 75.4897 123.075 75.3931C122.785 75.7793 122.496 76.1655 122.302 76.5517C123.847 77.6138 125.682 77.9035 127.42 77.4207C128.192 77.2276 128.964 76.9379 129.544 76.4552C131.378 75.2 133.792 75.2 135.627 76.4552C136.302 76.8414 136.978 77.2276 137.751 77.4207C139.489 77.9035 141.42 77.6138 142.868 76.5517C142.675 76.1655 142.385 75.7793 142.096 75.3931C142.578 75.4897 143.061 75.5862 143.544 75.5862C145.378 75.6828 147.116 75.0069 148.371 73.6552C148.082 73.269 147.792 72.9793 147.406 72.6897C147.889 72.6897 148.371 72.6897 148.854 72.5931C150.689 72.3035 152.233 71.2414 153.199 69.6966C152.813 69.4069 152.427 69.1172 152.04 68.9241C152.523 68.8276 153.006 68.731 153.489 68.5379C155.227 67.8621 156.578 66.5103 157.158 64.7724C156.771 64.5793 156.289 64.3862 155.902 64.2897C156.385 64.0966 156.771 63.9034 157.254 63.6138C158.799 62.6483 159.764 61.0069 160.054 59.1724C159.571 59.0759 159.185 58.9793 158.702 58.9793C159.089 58.6897 159.475 58.4 159.861 58.0138C161.406 56.5655 162.082 54.8276 161.889 52.9931Z" fill="white"/>
<path d="M140.74 48.8414C133.209 45.9448 124.712 46.4276 117.568 50.2896C118.919 39.4759 126.547 30.4966 136.975 27.4069C134.078 34.6483 135.526 43.0483 140.74 48.8414ZM143.154 51.1586L142.575 52.0276H130.988V48.1655C135.237 48.069 139.388 49.131 143.154 51.1586ZM116.892 52.0276C120.657 49.7103 124.906 48.3586 129.25 48.1655V52.0276H116.892ZM116.312 51.931V52.7034C117.278 54.5379 118.34 56.2759 119.499 58.0138H116.892C116.892 58.0138 117.471 59.0759 119.016 59.0759H146.533C148.175 59.0759 148.657 58.0138 148.657 58.0138H146.244C147.499 56.1793 148.561 54.3448 149.526 52.4138H150.878V50.2896H143.733C136.202 44.2069 134.561 33.6828 139.002 25.8621C126.45 28.2759 116.988 39.1862 116.312 51.931Z" fill="white"/>
<path d="M131.572 68.1519H133.986C135.627 68.1519 136.11 67.0898 136.11 67.0898H129.352C129.448 67.0898 129.931 68.1519 131.572 68.1519Z" fill="white"/>
<path d="M141.13 64.8689H124.523C124.523 64.8689 125.103 65.931 126.648 65.931H138.91C140.551 65.931 141.13 64.8689 141.13 64.8689Z" fill="white"/>
<path d="M144.799 62.5518H120.758C120.758 62.5518 121.337 63.6138 122.882 63.6138H142.579C144.316 63.6138 144.799 62.5518 144.799 62.5518Z" fill="white"/>
<path d="M147.114 60.2346H118.535C118.535 60.2346 119.114 61.2967 120.659 61.2967H144.99C146.632 61.2967 147.114 60.2346 147.114 60.2346Z" fill="white"/>
</g>
</svg>
