<svg width="165" height="100" viewBox="0 0 165 100" fill="none" xmlns="http://www.w3.org/2000/svg">
<mask id="mask0_18847_6238" style="mask-type:luminance" maskUnits="userSpaceOnUse" x="1" y="30" width="164" height="40">
<path d="M164.87 30H1V70H164.87V30Z" fill="white"/>
</mask>
<g mask="url(#mask0_18847_6238)">
<path d="M96.5722 48.3195C97.296 47.9229 97.9592 47.607 98.5731 47.2149C103.196 44.2527 103.054 38.2635 98.311 35.5232C95.7096 34.0242 92.8348 33.6926 89.8996 33.6881C80.8384 33.6881 71.7766 33.6881 62.7138 33.6881C62.2366 33.6881 61.7593 33.6455 61.2148 33.6186V30.8133C61.4936 30.7644 61.7748 30.7322 62.0573 30.717C71.8265 30.717 81.598 30.6744 91.3672 30.7573C94.5792 30.7595 97.7569 31.4167 100.706 32.6888C107.598 35.689 108.3 43.2198 104.291 47.598C104.119 47.7862 103.978 48.0058 103.753 48.3016C104.054 48.4965 104.314 48.6758 104.585 48.8371C110.773 52.4871 111.278 60.9948 105.557 65.3686C103.093 67.2552 100.224 68.1694 97.2018 68.5413C94.8702 68.827 92.5241 68.9758 90.1752 68.9872C81.002 69.0343 71.8265 69.0074 62.6533 69.0074H61.235V65.9937H92.017C94.4824 66.0233 96.928 65.5505 99.205 64.6045C102.958 63.0047 104.999 59.9148 104.583 56.2424C104.208 52.9599 102.216 50.7954 99.3193 49.3995C98.4656 48.9894 97.5559 48.7004 96.5722 48.3195Z" fill="white"/>
<path d="M48.0666 61.2122V68.929H43.5718C43.5292 68.6019 43.4867 68.2814 43.4329 67.8848C41.7457 68.3128 40.1257 68.8416 38.4654 69.1262C29.9913 70.5714 21.6113 70.4101 13.5024 67.2328C8.4632 65.2611 4.44796 62.0793 2.33951 56.9259C-1.21863 48.2434 2.50532 38.6265 11.2147 33.8943C15.1694 31.7477 19.4468 30.7305 23.8945 30.251C29.5947 29.6326 35.1918 30.1905 40.7307 31.5685C40.9476 31.6105 41.1669 31.6389 41.3872 31.6536L41.3155 31.3018C41.8667 31.1069 42.4089 30.7932 42.9736 30.7439C44.0043 30.6543 45.0484 30.7193 46.1732 30.7193V37.2709C46.0813 37.2709 45.9491 37.3135 45.8797 37.2709C41.8846 34.6314 37.3921 33.4887 32.7002 33.1683C27.1949 32.7896 21.739 33.1324 16.5676 35.3193C11.3066 37.542 7.42578 41.1719 6.15309 46.8631C4.79078 52.9129 6.80064 57.9319 11.6651 61.7634C15.3397 64.6606 19.6799 65.9781 24.2351 66.5763C29.2586 67.2351 34.2664 67.1298 39.1958 65.7652C42.3798 64.8801 45.324 63.5021 48.0666 61.2122Z" fill="white"/>
<path d="M29.4526 55.3506V52.4378H48.1015C48.1015 54.591 48.1306 56.695 48.0701 58.8079C48.0701 59.1351 47.6892 59.5025 47.3979 59.7647C44.5478 62.384 41.1241 63.883 37.3822 64.6381C30.0845 66.1079 22.9076 65.7114 16.0378 62.7067C11.4983 60.7214 8.3367 57.4635 7.43596 52.3594C6.36942 46.3096 9.7976 40.4458 15.453 37.5151C19.0963 35.6285 23.0062 34.8756 27.0685 34.6538C31.6888 34.4051 36.244 34.73 40.5998 36.3567C42.3251 36.9997 43.9249 37.9991 45.5292 38.92C45.7143 39.0535 45.8696 39.224 45.9854 39.4207C46.101 39.6174 46.1745 39.836 46.2014 40.0627C46.2955 41.1337 46.2014 42.2182 46.244 43.2959C46.2664 44.0017 45.937 44.1922 45.294 44.1788C44.3618 44.1496 43.4275 44.1407 42.4976 44.1788C41.7627 44.2101 41.4199 43.9099 41.5454 43.2018C41.7694 41.8866 41.0748 41.1292 40.0732 40.4772C37.3083 38.6847 34.2319 37.9117 30.9897 37.7391C26.2171 37.4859 21.6058 38.0775 17.4494 40.652C11.8792 44.116 10.2704 51.062 13.9025 56.0071C15.6143 58.3396 17.9872 59.8162 20.6782 60.7125C27.0058 62.8545 33.3536 63.2108 39.6677 60.6251C40.3399 60.345 40.965 59.9014 41.6327 59.5765C43.3849 58.725 43.8622 57.3358 43.3289 55.3461L29.4526 55.3506Z" fill="white"/>
<path d="M121.887 37.076L138.772 62.3303L155.689 37.0603V64.4724H148.434V61.5595H151.696V50.1076L151.472 49.9642L138.777 68.9447L126.139 50.018L125.915 50.0986V61.4878H129.198V64.506H121.887V37.076Z" fill="white"/>
<path d="M138.775 52.9958C139.131 52.4849 139.369 52.16 139.591 51.8239C144.099 45.0885 148.6 38.3472 153.093 31.5998C153.541 30.9276 153.989 30.6812 154.798 30.7036C158.076 30.7506 161.354 30.7237 164.847 30.7237C164.847 31.5752 164.926 32.3796 164.8 33.1549C164.764 33.3789 164.157 33.6657 163.808 33.6724C161.609 33.7195 159.407 33.7329 157.209 33.6724C156.402 33.6523 155.943 33.9279 155.497 34.5978C150.227 42.5252 144.936 50.4422 139.624 58.3487C139.38 58.7139 139.125 59.0702 138.786 59.5564C138.466 59.1082 138.208 58.7587 137.968 58.4024C132.674 50.493 127.384 42.576 122.098 34.6516C121.639 33.957 121.17 33.6388 120.305 33.6657C118.145 33.7329 115.981 33.6657 113.808 33.7016C112.996 33.7173 112.629 33.4775 112.705 32.6283C112.757 32.0435 112.716 31.452 112.716 30.7148H116.171C118.372 30.7148 120.572 30.7506 122.77 30.6946C123.566 30.6722 124.027 30.9478 124.462 31.6155C128.943 38.3703 133.445 45.1124 137.966 51.8418C138.199 52.1824 138.432 52.5006 138.775 52.9958Z" fill="white"/>
<path d="M70.8555 64.5395V49.3143C71.2341 49.2919 71.5568 49.256 71.8817 49.256C78.2563 49.256 84.6332 49.2224 91.0078 49.2695C93.6585 49.2896 96.3092 49.5585 98.7112 50.8065C99.7071 51.3048 100.612 51.9668 101.389 52.7649C104.055 55.6172 103.652 59.6907 100.544 62.0546C98.6504 63.4803 96.3536 64.2688 93.9834 64.3064C88.3235 64.47 82.6592 64.479 76.9971 64.5305C74.9917 64.5574 72.9841 64.5395 70.8555 64.5395ZM75.646 52.2652C75.646 55.0727 75.6818 57.7055 75.6258 60.3315C75.6079 61.2569 75.8902 61.5325 76.8201 61.5258C81.7002 61.4832 86.5826 61.5684 91.4604 61.4653C92.8407 61.4362 94.2568 61.0575 95.572 60.6004C97.248 60.0178 98.2922 58.7384 98.2944 56.9011C98.2967 55.0638 97.2368 53.7507 95.5519 53.2264C93.8978 52.6896 92.1783 52.3806 90.4409 52.3078C85.935 52.1823 81.4246 52.2652 76.9164 52.2652H75.646Z" fill="white"/>
<path d="M70.8555 47.6473V35.2543C71.2319 35.2319 71.5568 35.196 71.8794 35.196C78.0659 35.196 84.2568 35.084 90.4387 35.252C92.5852 35.3125 94.7766 35.8637 96.8335 36.5426C98.9352 37.2372 100.32 38.8191 100.398 41.1897C100.477 43.5603 99.2288 45.1803 97.2032 46.2648C95.1777 47.3493 92.9706 47.701 90.73 47.7257C84.3957 47.7817 78.0591 47.7459 71.7248 47.7414C71.4338 47.7246 71.1436 47.6932 70.8555 47.6473ZM75.646 38.259C75.646 40.1613 75.6863 41.9426 75.6303 43.7194C75.6101 44.5641 75.8992 44.7882 76.7304 44.7882C81.4672 44.7546 86.2039 44.8106 90.9384 44.7389C91.9404 44.7121 92.9245 44.4675 93.8221 44.0219C95.9148 42.9733 96.0179 40.3092 93.9588 39.2C92.8084 38.6061 91.5382 38.2805 90.2438 38.2478C85.7625 38.138 81.2969 38.203 76.8201 38.2074C76.4795 38.2074 76.1501 38.2366 75.646 38.259Z" fill="white"/>
<path d="M64.2352 38.2119H61.2305V35.2498H69.0839V64.4633H61.2305V61.528H64.2352V38.2119Z" fill="white"/>
<path d="M29.4648 50.7596V47.97H54.2755V68.9267H49.7942C49.7741 68.4786 49.7382 68.0417 49.7382 67.607C49.7382 62.4401 49.7068 57.2709 49.7584 52.1017C49.7718 51.0038 49.4066 50.7304 48.3535 50.7372C42.5278 50.782 36.7223 50.7596 30.9056 50.7596H29.4648Z" fill="white"/>
<path d="M120.145 35.2543V64.4588H112.805V61.5102C113.674 61.5102 114.49 61.4519 115.292 61.5258C116.215 61.6087 116.428 61.2144 116.412 60.3674C116.381 56.2402 116.399 52.1129 116.399 47.9856C116.399 45.1609 116.399 42.3347 116.399 39.507C116.399 39.1104 116.358 38.7116 116.331 38.2298H112.818V35.2543H120.145Z" fill="white"/>
<path d="M161.172 38.212V39.5899C161.172 46.4306 161.199 53.2736 161.145 60.1143C161.145 61.257 161.459 61.6648 162.593 61.5259C163.285 61.443 163.995 61.5102 164.779 61.5102V64.4925H157.473V35.2655H164.777V38.212H161.172Z" fill="white"/>
<path d="M47.8281 30.7708H52.3094V44.0824H47.8281V30.7708Z" fill="white"/>
<path d="M129.161 68.9692H112.805V66.0564H129.161V68.9692Z" fill="white"/>
<path d="M148.398 68.9468V66.0339H164.771V68.9468H148.398Z" fill="white"/>
</g>
</svg>
