<svg width="165" height="100" viewBox="0 0 165 100" fill="none" xmlns="http://www.w3.org/2000/svg">
<path d="M38.0659 41.7374H37.9739C37.8836 41.7394 37.796 41.7064 37.7293 41.6454C37.6987 41.6197 37.6739 41.5877 37.6566 41.5517C37.6393 41.5156 37.6299 41.4763 37.6289 41.4364L37.6477 41.3088C37.9257 40.5346 38.2468 39.7766 38.6095 39.0383C40.1123 35.9842 42.2669 33.2972 44.9214 31.1667C47.571 29.0271 50.6633 27.5038 53.9743 26.7071C55.7561 26.2894 57.5802 26.0789 59.4102 26.0799C61.4683 26.0985 63.5169 26.3609 65.5131 26.8618C66.4686 27.0542 67.0456 27.1754 67.238 27.2256C67.516 27.2737 67.7899 27.328 68.0554 27.3887L73.6064 28.5407C73.7757 28.5637 73.9367 28.595 74.0872 28.6306C74.2378 28.6661 74.3904 28.6996 74.543 28.7309L74.9779 28.8208C75.118 28.8522 75.2539 28.8794 75.396 28.9024C75.5884 28.94 75.7765 28.9818 75.9584 29.0299C77.4209 29.4549 78.8254 30.0588 80.1399 30.828C81.4586 31.6004 82.8373 32.2654 84.2628 32.8163C85.6774 33.3661 87.1576 33.7295 88.6659 33.8972C89.1832 33.9536 89.7032 33.9802 90.2235 33.9766C91.1872 33.9623 92.1475 33.8587 93.092 33.6672C94.2943 33.4113 95.4394 32.9373 96.4707 32.2685C97.5118 31.6379 98.4264 30.819 99.1677 29.8537C99.9075 28.8931 100.431 27.7841 100.702 26.6026C100.71 26.5284 100.747 26.4602 100.804 26.4126C100.862 26.365 100.935 26.3416 101.01 26.3475C101.105 26.3471 101.198 26.3796 101.273 26.4395C101.312 26.4687 101.343 26.5071 101.364 26.5512C101.385 26.5953 101.395 26.6438 101.392 26.6925V26.7844C101.231 27.5648 100.955 28.3172 100.575 29.0174C101.074 28.198 101.435 27.3025 101.645 26.3663C101.695 26.197 101.785 26.1112 101.919 26.1112C102.025 26.1102 102.127 26.1456 102.21 26.2116C102.25 26.2425 102.282 26.2825 102.304 26.3283C102.326 26.3741 102.337 26.4243 102.335 26.475V26.5649C102.105 27.595 101.7 28.5779 101.137 29.471C101.849 28.4731 102.356 27.3439 102.628 26.1489C102.642 26.074 102.683 26.0068 102.743 25.9599C102.803 25.9129 102.878 25.8894 102.954 25.8938C103.051 25.8941 103.145 25.9298 103.218 25.9941C103.256 26.0265 103.286 26.0669 103.306 26.1125C103.326 26.1581 103.336 26.2077 103.335 26.2576V26.3308C103.048 27.6448 102.485 28.8827 101.683 29.9624C102.66 28.7825 103.344 27.3884 103.68 25.8938C103.69 25.8236 103.724 25.7592 103.778 25.7125C103.831 25.6657 103.899 25.6395 103.97 25.6387C104.073 25.6362 104.174 25.6719 104.252 25.7391C104.291 25.7711 104.321 25.8115 104.342 25.8572C104.362 25.9028 104.371 25.9526 104.37 26.0025V26.0945C104.031 27.6945 103.301 29.1856 102.245 30.4349C103.494 29.0862 104.365 27.4317 104.769 25.6387C104.784 25.5679 104.823 25.5043 104.88 25.4584C104.936 25.4125 105.006 25.3869 105.078 25.3857C105.178 25.3866 105.274 25.4221 105.35 25.4861C105.391 25.5163 105.424 25.5561 105.446 25.602C105.469 25.6479 105.479 25.6986 105.478 25.7495V25.8394C105.037 27.7558 104.099 29.5224 102.76 30.9618C104.339 29.4445 105.443 27.5006 105.938 25.3669C105.953 25.2961 105.992 25.2325 106.048 25.1866C106.104 25.1407 106.174 25.1151 106.247 25.1139C106.346 25.1151 106.442 25.1497 106.519 25.2122C106.56 25.2427 106.593 25.2825 106.615 25.3284C106.637 25.3742 106.648 25.4247 106.646 25.4756V25.5676C106.563 25.9555 106.454 26.3376 106.32 26.7113C105.693 28.5122 104.653 30.1412 103.282 31.4677C105.221 29.8195 106.577 27.5909 107.15 25.1119C107.165 25.037 107.207 24.97 107.267 24.9232C107.327 24.8764 107.402 24.8528 107.478 24.8568C107.574 24.8564 107.667 24.8889 107.742 24.9488C107.78 24.9785 107.811 25.017 107.831 25.061C107.852 25.105 107.861 25.1533 107.859 25.2018V25.2938C107.775 25.7075 107.66 26.1142 107.514 26.5106C106.774 28.6328 105.49 30.5238 103.79 31.9946C104.933 31.0843 105.929 30.0024 106.74 28.7874C107.553 27.5735 108.132 26.2184 108.447 24.792C108.461 24.7171 108.502 24.6501 108.563 24.6035C108.623 24.557 108.699 24.534 108.775 24.539C108.871 24.5404 108.964 24.5751 109.038 24.6373C109.076 24.6696 109.107 24.71 109.127 24.7556C109.147 24.8012 109.157 24.8508 109.155 24.9007V24.9864C109.057 25.4165 108.936 25.8408 108.791 26.2576C107.912 28.7285 106.348 30.8982 104.282 32.5131C105.639 31.5466 106.824 30.3576 107.786 28.9964C108.746 27.6394 109.428 26.1061 109.793 24.4846C109.807 24.4095 109.847 24.3421 109.908 24.2951C109.968 24.2481 110.043 24.2247 110.119 24.2296C110.216 24.2291 110.31 24.2649 110.383 24.3299C110.419 24.358 110.449 24.3941 110.47 24.4353C110.491 24.4766 110.503 24.522 110.504 24.5683V24.6582C110.408 25.1129 110.287 25.5618 110.14 26.0025C109.182 28.7748 107.402 31.1241 104.8 33.0504C106.375 32.02 107.758 30.7232 108.888 29.2181C110.016 27.7137 110.811 25.986 111.219 24.1501C111.23 24.0737 111.271 24.0047 111.332 23.9575C111.393 23.9104 111.47 23.8887 111.547 23.8971C111.639 23.8956 111.729 23.9275 111.8 23.987C111.837 24.0182 111.866 24.0574 111.885 24.1017C111.903 24.146 111.912 24.1941 111.909 24.2421V24.332C111.813 24.8124 111.686 25.286 111.528 25.7495C110.968 27.3558 110.133 28.8522 109.059 30.1715C107.986 31.4921 106.717 32.64 105.296 33.5752L105.551 33.4309C107.302 32.3437 108.843 30.9499 110.1 29.3163C111.362 27.6849 112.252 25.7976 112.707 23.7863C112.722 23.7155 112.761 23.6518 112.817 23.6058C112.872 23.5598 112.942 23.5342 113.015 23.5333C113.114 23.5333 113.211 23.5689 113.287 23.6337C113.328 23.6638 113.361 23.7036 113.383 23.7495C113.405 23.7954 113.416 23.8461 113.414 23.8971V23.987C113.306 24.4916 113.167 24.9888 112.996 25.4756C112.365 27.2868 111.403 28.9644 110.157 30.4224C108.912 31.8798 107.445 33.1303 105.808 34.1271C108.049 32.927 110.006 31.2609 111.549 29.2411C112.878 27.5289 113.814 25.5453 114.29 23.4309C114.304 23.3556 114.345 23.2882 114.406 23.2412C114.466 23.1942 114.542 23.1709 114.618 23.1758C114.713 23.1748 114.803 23.2109 114.871 23.2762C114.908 23.3096 114.936 23.3504 114.955 23.3959C114.974 23.4414 114.982 23.4904 114.98 23.5396V23.6295C114.872 24.1581 114.733 24.6796 114.562 25.1913C113.853 27.22 112.748 29.0877 111.311 30.6858C109.88 32.2816 108.194 33.6289 106.322 34.6728C108.965 33.3882 111.271 31.503 113.055 29.1679C114.452 27.3632 115.436 25.2744 115.94 23.0483C115.954 22.9736 115.995 22.9066 116.055 22.86C116.115 22.8134 116.19 22.7904 116.266 22.7953C116.362 22.7967 116.455 22.8314 116.529 22.8936C116.568 22.9255 116.599 22.9658 116.619 23.0115C116.64 23.0571 116.65 23.1069 116.648 23.157V23.2302C116.529 23.79 116.377 24.3422 116.193 24.884C115.45 27.0309 114.283 29.0067 112.762 30.6941C111.094 32.5575 109.091 34.0915 106.858 35.2164C109.925 33.8587 112.604 31.7549 114.65 29.0968C116.123 27.19 117.159 24.9822 117.683 22.6302C117.699 22.5595 117.737 22.496 117.793 22.45C117.849 22.4041 117.918 22.3784 117.991 22.3772C118.091 22.3781 118.188 22.4135 118.265 22.4775C118.305 22.5082 118.338 22.5482 118.359 22.594C118.381 22.6398 118.392 22.6902 118.39 22.741V22.8309C117.741 25.7541 116.332 28.4543 114.305 30.6586C112.704 32.4338 110.82 33.9309 108.729 35.0889C108.281 35.344 107.828 35.5746 107.368 35.7809C110.899 34.364 113.989 32.0315 116.32 29.0236C117.876 27.0154 118.973 24.6913 119.536 22.2141C119.544 22.1399 119.58 22.0718 119.638 22.0242C119.695 21.9765 119.769 21.9532 119.843 21.959C119.94 21.9585 120.034 21.9943 120.107 22.0594C120.144 22.0884 120.174 22.1255 120.194 22.1679C120.215 22.2103 120.226 22.2568 120.226 22.304V22.396C120.091 23.0162 119.921 23.6284 119.718 24.2296C118.897 26.5975 117.607 28.7751 115.923 30.6314C113.703 33.1082 110.962 35.0624 107.897 36.3538C109.385 35.8011 110.815 35.1007 112.164 34.263C114.442 32.8529 116.448 31.0441 118.085 28.9233C119.723 26.8089 120.876 24.3599 121.461 21.7499C121.476 21.6749 121.517 21.6077 121.578 21.5608C121.638 21.5139 121.713 21.4904 121.79 21.4949C121.887 21.4952 121.98 21.5309 122.053 21.5952C122.091 21.6275 122.121 21.668 122.142 21.7136C122.162 21.7592 122.172 21.8088 122.17 21.8587V21.9486C122.025 22.5938 121.843 23.2303 121.627 23.8553C120.776 26.3544 119.424 28.6537 117.654 30.6126C115.106 33.4143 111.943 35.587 108.413 36.9601C110.272 36.3331 112.052 35.4911 113.715 34.4512C116.113 32.9719 118.224 31.0707 119.946 28.8396C121.669 26.6123 122.882 24.0336 123.5 21.2858C123.514 21.2107 123.556 21.1435 123.616 21.0966C123.676 21.0497 123.752 21.0263 123.828 21.0307C123.925 21.031 124.019 21.0667 124.092 21.1311C124.13 21.1634 124.16 21.2038 124.18 21.2495C124.2 21.2951 124.21 21.3446 124.209 21.3945V21.4677C124.064 22.1563 123.876 22.8351 123.646 23.4999C122.731 26.1226 121.298 28.5349 119.433 30.5938C117.573 32.6571 115.383 34.3966 112.952 35.7412C111.657 36.4626 110.302 37.0705 108.902 37.558C111.165 36.8871 113.327 35.9161 115.331 34.6707C117.858 33.1068 120.082 31.1012 121.898 28.7497C123.72 26.4014 124.998 23.6778 125.639 20.7757C125.654 20.7048 125.693 20.6413 125.749 20.5954C125.806 20.5494 125.876 20.5238 125.948 20.5227C126.048 20.5236 126.144 20.5591 126.22 20.623C126.261 20.6531 126.294 20.6929 126.317 20.7388C126.339 20.7848 126.349 20.8355 126.347 20.8865V20.9764C126.189 21.6967 125.989 22.4073 125.749 23.1047C124.8 25.8694 123.298 28.4122 121.336 30.5792C119.377 32.753 117.069 34.5852 114.508 36.0004C112.874 36.9029 111.151 37.633 109.366 38.179C112.07 37.47 114.654 36.3623 117.031 34.8924C119.694 33.2448 122.038 31.1316 123.951 28.6536C125.869 26.1794 127.215 23.3112 127.892 20.2551C127.907 20.1838 127.945 20.1196 128.001 20.0732C128.057 20.0268 128.127 20.001 128.2 20C128.3 20.0013 128.397 20.0367 128.474 20.1004C128.514 20.1313 128.546 20.1713 128.568 20.217C128.59 20.2628 128.6 20.3131 128.599 20.3638V20.4537C128.432 21.2081 128.226 21.9534 127.982 22.6866C126.974 25.5941 125.39 28.2684 123.324 30.5499C121.27 32.8315 118.848 34.7529 116.159 36.2346C113.104 37.9103 109.778 39.0349 106.333 39.5568C104.53 39.8361 102.708 39.9759 100.884 39.9749C99.2257 39.9713 97.5694 39.8532 95.9271 39.6216C92.0936 39.0822 88.338 38.0884 84.7395 36.6611C82.961 35.9642 81.2236 35.1802 79.5273 34.309C77.831 33.4379 76.148 32.5389 74.4782 31.612C73.3631 31.0071 72.2376 30.4203 71.1017 29.8516C69.8359 30.2555 68.6786 30.942 67.7173 31.8592C66.756 32.7763 66.0159 33.9 65.5528 35.1453C65.4817 35.3251 65.373 35.4171 65.2267 35.4171C65.1608 35.4201 65.0954 35.4046 65.0378 35.3725C64.9802 35.3403 64.9327 35.2928 64.9005 35.2352C64.8641 35.1888 64.8449 35.1312 64.8462 35.0722L64.8629 34.9634C64.9756 34.5995 65.1277 34.2489 65.3166 33.9181L65.3354 33.8804C65.0429 34.3569 64.7998 34.862 64.6099 35.3879C64.5896 35.4646 64.5451 35.5328 64.4829 35.5821C64.4208 35.6315 64.3443 35.6594 64.2649 35.6617C64.1985 35.6611 64.1338 35.6409 64.0788 35.6037C64.0238 35.5665 63.9809 35.514 63.9555 35.4527C63.9199 35.4058 63.9008 35.3485 63.9011 35.2896L63.92 35.1809C64.1268 34.6092 64.3813 34.056 64.681 33.5271C64.2473 34.1713 63.8961 34.8674 63.6356 35.599C63.6162 35.6797 63.5692 35.751 63.5028 35.8006C63.4364 35.8502 63.3547 35.8751 63.2718 35.8708C63.2085 35.872 63.146 35.8557 63.0914 35.8236C63.0368 35.7915 62.9921 35.7449 62.9624 35.6889C62.9283 35.6343 62.9095 35.5714 62.908 35.507L62.9269 35.4171C63.2063 34.6278 63.5842 33.8768 64.0517 33.1821C63.4272 33.99 62.9333 34.891 62.5882 35.852C62.5712 35.9305 62.5276 36.0007 62.4647 36.0507C62.4018 36.1006 62.3235 36.1272 62.2432 36.1259L62.1345 36.1071C62.0555 36.0844 61.9861 36.0366 61.9367 35.971C61.8873 35.9054 61.8606 35.8254 61.8606 35.7433L61.8794 35.6534C62.258 34.6497 62.7715 33.7023 63.4056 32.8372C62.5721 33.8023 61.9198 34.91 61.4801 36.1071C61.4553 36.162 61.4184 36.2107 61.3722 36.2495C61.3259 36.2882 61.2716 36.3161 61.2131 36.331C61.1547 36.3458 61.0936 36.3473 61.0345 36.3353C60.9754 36.3234 60.9197 36.2982 60.8717 36.2618C60.8399 36.2371 60.8142 36.2054 60.7968 36.1691C60.7794 36.1328 60.7707 36.093 60.7713 36.0527L60.7901 35.9064C61.2378 34.6618 61.9017 33.506 62.7512 32.4922C61.6907 33.6103 60.869 34.9327 60.3364 36.3789C60.3052 36.4532 60.2516 36.516 60.183 36.5583C60.1144 36.6007 60.0343 36.6205 59.9538 36.6151C59.8638 36.6176 59.7762 36.5854 59.7092 36.5252C59.6775 36.4981 59.6521 36.4645 59.6348 36.4265C59.6175 36.3886 59.6086 36.3474 59.6089 36.3057L59.6277 36.1802C60.1644 34.6791 60.9986 33.3017 62.0801 32.1305C60.7491 33.3918 59.7206 34.9378 59.0715 36.6528C59.0508 36.7239 59.0081 36.7868 58.9495 36.8322C58.891 36.8777 58.8195 36.9034 58.7454 36.9057C58.6463 36.9092 58.5493 36.8773 58.4715 36.8158C58.4379 36.7899 58.4107 36.7566 58.3919 36.7186C58.373 36.6805 58.3631 36.6387 58.3628 36.5963L58.3816 36.4709C59.0084 34.7136 60.0199 33.1185 61.3421 31.8022C59.7534 33.1989 58.5412 34.9725 57.8171 36.9601C57.7863 37.0343 57.733 37.0969 57.6648 37.1393C57.5965 37.1817 57.5167 37.2016 57.4366 37.1963C57.347 37.1987 57.2595 37.1691 57.1899 37.1127C57.1565 37.0853 57.13 37.0503 57.1125 37.0107C57.0951 36.9711 57.0872 36.928 57.0895 36.8848L57.1083 36.7594C57.8486 34.7314 59.073 32.9148 60.6751 31.4677C58.7576 32.9798 57.2936 34.9907 56.4435 37.28C56.4234 37.3515 56.3808 37.4147 56.3221 37.4602C56.2634 37.5058 56.1916 37.5313 56.1173 37.533C56.0188 37.537 55.9222 37.5051 55.8455 37.4431C55.813 37.4185 55.7863 37.387 55.7675 37.3508C55.7487 37.3146 55.7382 37.2747 55.7368 37.234L55.7535 37.1064C56.5897 34.7775 58.0334 32.7145 59.935 31.1311C57.7017 32.7741 55.9975 35.0342 55.0322 37.6333C55.0063 37.7036 54.9591 37.764 54.8973 37.8063C54.8356 37.8487 54.7621 37.8707 54.6873 37.8696C54.5939 37.8707 54.5033 37.838 54.4322 37.7776C54.3993 37.7533 54.3724 37.7219 54.3536 37.6856C54.3347 37.6494 54.3244 37.6093 54.3235 37.5685L54.3423 37.441C55.2879 34.8065 56.9709 32.4994 59.1907 30.7945C56.6007 32.5398 54.6257 35.0561 53.5457 37.9866C53.5143 38.0608 53.4606 38.1234 53.392 38.1657C53.3235 38.208 53.2435 38.228 53.1631 38.2229C53.0726 38.2257 52.9847 38.1927 52.9185 38.1309C52.8877 38.1053 52.8628 38.0734 52.8455 38.0373C52.8282 38.0012 52.8188 37.9619 52.8181 37.9218L52.837 37.7943C53.9024 34.8469 55.8409 32.2943 58.3941 30.4767C55.4371 32.3038 53.174 35.065 51.963 38.3233C51.9316 38.3974 51.8779 38.46 51.8093 38.5023C51.7408 38.5446 51.6608 38.5646 51.5804 38.5595C51.4918 38.562 51.4052 38.5331 51.3358 38.478C51.3028 38.4502 51.2765 38.4152 51.2591 38.3757C51.2417 38.3362 51.2336 38.2932 51.2355 38.2501L51.2543 38.1225C52.4555 34.8484 54.6696 32.0426 57.5746 30.1129C54.2226 32.0387 51.6518 35.0786 50.3093 38.7038C50.2868 38.7777 50.2411 38.8424 50.179 38.8884C50.1168 38.9343 50.0416 38.959 49.9643 38.9588C49.8657 38.9612 49.7694 38.9286 49.6925 38.8668C49.6598 38.8424 49.6331 38.8109 49.6143 38.7747C49.5955 38.7385 49.585 38.6985 49.5838 38.6578L49.6026 38.5302C49.8058 37.9542 50.0418 37.3901 50.3093 36.8409C51.7492 33.931 53.9766 31.4834 56.7383 29.7763C52.9582 31.7901 50.0453 35.1171 48.5489 39.1303C48.5252 39.1987 48.4809 39.2581 48.4222 39.3004C48.3634 39.3427 48.293 39.3658 48.2206 39.3665C48.122 39.3689 48.0257 39.3363 47.9488 39.2745C47.9159 39.2503 47.889 39.2189 47.8702 39.1826C47.8514 39.1464 47.8411 39.1063 47.8401 39.0655L47.8589 38.9379C48.0747 38.338 48.3232 37.7503 48.6032 37.1775C50.1963 33.9404 52.7196 31.2526 55.8497 29.4585C51.5135 31.6496 48.468 35.0157 46.7132 39.5568C46.6931 39.6283 46.6505 39.6915 46.5918 39.737C46.5331 39.7826 46.4613 39.8081 46.387 39.8098C46.2885 39.8138 46.1919 39.7819 46.1152 39.7199C46.0827 39.6953 46.0561 39.6638 46.0372 39.6276C46.0184 39.5914 46.0079 39.5515 46.0065 39.5108L46.0232 39.3833C46.2516 38.7465 46.5126 38.1219 46.8052 37.512C48.5623 33.9447 51.3954 31.0194 54.9047 29.1491C52.5874 30.2 50.5012 31.6993 48.7663 33.5606C47.0192 35.4259 45.668 37.6256 44.7939 40.0272C44.7624 40.1014 44.7087 40.1639 44.6402 40.2062C44.5717 40.2486 44.4917 40.2686 44.4113 40.2635C44.3227 40.2659 44.2361 40.2371 44.1667 40.1819C44.1349 40.1573 44.1092 40.1255 44.0918 40.0892C44.0744 40.0529 44.0657 40.0131 44.0663 39.9728L44.0851 39.8265C44.3277 39.1742 44.6064 38.5268 44.9214 37.8842C46.8502 33.947 50.0233 30.7556 53.9492 28.8041C51.384 29.876 49.0664 31.4636 47.1401 33.4682C45.2139 35.4729 43.72 37.852 42.7512 40.4579C42.7281 40.5313 42.6822 40.5954 42.6202 40.6409C42.5581 40.6864 42.4832 40.7109 42.4063 40.7109C42.3072 40.7143 42.2101 40.6825 42.1324 40.621C42.1002 40.5961 42.0737 40.5645 42.055 40.5284C42.0362 40.4923 42.0255 40.4526 42.0237 40.4119L42.0425 40.2844C42.9858 37.6861 44.4344 35.3004 46.3047 33.265C48.175 31.2296 50.43 29.5848 52.9394 28.4257C50.1085 29.5174 47.5434 31.2014 45.4161 33.3649C43.2887 35.5283 41.6481 38.1212 40.6041 40.9701C40.5726 41.0443 40.5189 41.1068 40.4504 41.1492C40.3818 41.1915 40.3018 41.2115 40.2214 41.2064C40.1311 41.2083 40.0435 41.1754 39.9768 41.1144C39.946 41.0888 39.9211 41.0569 39.9038 41.0208C39.8865 40.9847 39.8772 40.9453 39.8765 40.9053L39.8953 40.7778C40.1601 40.053 40.4626 39.3331 40.8027 38.6181C43.2488 33.7857 46.9355 30.2739 51.8627 28.0828C48.7637 29.1914 45.9484 30.9721 43.6189 33.2971C41.2823 35.6156 39.48 38.4162 38.3377 41.5033C38.3191 41.564 38.2837 41.6181 38.2356 41.6596C38.1875 41.701 38.1287 41.728 38.0659 41.7374ZM90.4054 29.8767C89.9891 29.8761 89.5771 29.7934 89.1928 29.6333C88.8085 29.4731 88.4597 29.2387 88.1662 28.9435C87.8727 28.6483 87.6404 28.298 87.4825 27.9128C87.3247 27.5276 87.2444 27.115 87.2463 26.6987C87.2407 26.2816 87.3199 25.8676 87.4791 25.482C87.6383 25.0963 87.8742 24.7471 88.1725 24.4554C88.4662 24.1591 88.8157 23.924 89.2007 23.7636C89.5857 23.6031 89.9988 23.5205 90.4159 23.5205C90.833 23.5205 91.246 23.6031 91.6311 23.7636C92.0161 23.924 92.3656 24.1591 92.6593 24.4554C93.1049 24.8996 93.4083 25.4663 93.5312 26.0834C93.654 26.7006 93.5906 27.3403 93.3491 27.9213C93.1075 28.5023 92.6987 28.9984 92.1746 29.3466C91.6504 29.6947 91.0347 29.8793 90.4054 29.8767Z" fill="white"/>
<path d="M19.3282 79.7141H13.654L13.9655 79.4026C14.8366 78.4916 15.3329 77.2862 15.3558 76.026V60.1929C13.4742 60.2493 12.4623 60.5337 9 62.4634V59.9023H23.9822V62.4571C20.5492 60.5274 19.5268 60.2431 17.6264 60.1866V76.0198C17.6493 77.28 18.1456 78.4854 19.0167 79.3963L19.3282 79.7141Z" fill="white"/>
<path d="M34.9625 75.7128C34.1116 78.0398 31.8703 79.9989 28.6903 79.9989C24.6322 79.9989 22 76.7917 22 72.5349C22 68.2238 24.6949 65.3281 28.6402 65.3281C32.3847 65.3281 34.3437 67.9102 34.4942 72.3091H32.2111C32.2111 68.2238 30.848 65.5853 28.6067 65.5853C26.3069 65.5853 24.2663 68.3932 24.2663 72.3091H34.4817V72.5935H24.2663C24.3521 76.4509 26.5076 79.1458 29.6291 79.1458C31.6425 79.1458 33.545 78.0691 34.6803 75.7128H34.9625Z" fill="white"/>
<path d="M39.4451 71.43V76.0297C39.471 77.2837 39.9551 78.4848 40.8062 79.4062L41.1177 79.7177H35.4727L35.7842 79.4062C36.6553 78.4952 37.1516 77.2898 37.1745 76.0297V70.0961C37.1516 68.8359 36.6553 67.6305 35.7842 66.7196L35.4727 66.4081L39.4451 65.5864V69.0759C40.0409 66.7196 41.6299 65.3125 43.8712 65.3125C45.318 65.3125 46.7083 65.9397 47.4735 67.1273L46.1083 69.3874C45.3995 67.2966 44.2914 65.9816 42.7882 65.9816C40.8354 65.9816 39.4451 68.1957 39.4451 71.43Z" fill="white"/>
<path d="M51.9273 71.43V76.0297C51.953 77.2841 52.438 78.4855 53.2905 79.4062L53.602 79.7177H47.957L48.2706 79.4062C49.1422 78.4947 49.6386 77.2885 49.661 76.0276V70.0961C49.638 68.8359 49.1417 67.6305 48.2706 66.7196L47.957 66.4081L51.9294 65.5864V69.0759C52.5253 66.7196 54.1142 65.3125 56.3555 65.3125C57.8044 65.3125 59.1947 65.9397 59.9599 67.1273L58.5989 69.3978C57.888 67.3071 56.782 65.992 55.2788 65.992C53.3177 65.9816 51.9273 68.1957 51.9273 71.43Z" fill="white"/>
<path d="M74.3444 79.7144H70.3992V75.8841C69.772 78.2111 68.0743 79.9987 65.4358 79.9987C62.7178 79.9987 60.3281 78.0689 60.3281 75.1461C60.3281 72.2232 62.6551 70.0949 65.9459 70.0949C67.5899 70.0608 69.1841 70.6596 70.3992 71.7675V70.8873C70.3992 66.9713 68.9252 65.5831 67.0227 65.5831C64.8671 65.5831 63.3639 67.4647 62.5129 69.2711L61.3693 67.3142C62.6739 66.0388 64.5179 65.3008 66.8742 65.3008C70.2779 65.3008 72.6614 66.804 72.6614 71.2301V76.0263C72.6871 77.2807 73.1721 78.4822 74.0245 79.4028L74.3444 79.7144ZM70.3992 72.3361C69.9679 71.8933 69.4518 71.542 68.8818 71.3031C68.3117 71.0642 67.6993 70.9427 67.0812 70.9458C64.4991 70.9458 62.5966 72.932 62.5966 75.4576C62.5966 77.8975 64.357 79.3443 66.2303 79.3443C68.8688 79.3443 70.3992 76.5929 70.3992 73.7558V72.3361Z" fill="white"/>
<path d="M88.448 79.7118H84.7599L85.0714 79.4002C85.9418 78.4889 86.4373 77.2836 86.4597 76.0237V63.5963C86.4368 62.3361 85.9404 61.1307 85.0694 60.2198L84.7578 59.9062H87.9922L98.6048 76.5903V63.5963C98.5929 62.3391 98.106 61.1329 97.2416 60.2198L96.9301 59.9062H100.593L100.28 60.2198C99.4092 61.1311 98.9136 62.3364 98.8912 63.5963V77.044L100.593 79.7118H97.9253L86.7461 62.1768V76.0237C86.7679 77.2833 87.2628 78.4886 88.1323 79.4002L88.448 79.7118Z" fill="white"/>
<path d="M114.385 75.7128C113.916 76.9917 113.06 78.0923 111.935 78.8607C110.811 79.6292 109.474 80.0271 108.112 79.9989C104.054 79.9989 101.422 76.7917 101.422 72.5349C101.422 68.2238 104.117 65.3281 108.06 65.3281C111.807 65.3281 113.764 67.9102 113.914 72.3091H111.631C111.631 68.2238 110.27 65.5853 108.029 65.5853C105.729 65.5853 103.686 68.3932 103.686 72.3091H113.902V72.5935H103.686C103.772 76.4509 105.93 79.1375 109.041 79.1375C111.056 79.1375 112.957 78.0607 114.092 75.7045L114.385 75.7128Z" fill="white"/>
<path d="M114.07 79.7172L115.63 78.8662C116.65 78.2898 117.562 77.5406 118.325 76.6521L121.022 73.447L117.957 68.8474C117.258 67.8173 116.349 66.9472 115.289 66.2946L114.07 65.5859H120.453C120.205 66.1011 120.093 66.6715 120.127 67.2425C120.162 67.8136 120.343 68.3661 120.652 68.8474L122.534 71.6281L125.03 68.6216C125.368 68.2016 125.596 67.7047 125.695 67.1751C125.795 66.6455 125.761 66.0996 125.599 65.5859H129.628L128.064 66.4096C127.058 66.9937 126.157 67.742 125.398 68.6237L122.68 71.8581L125.764 76.4222C126.46 77.4446 127.358 78.3134 128.402 78.975L129.623 79.713H123.234C123.484 79.1935 123.598 78.6189 123.566 78.0432C123.533 77.4676 123.354 76.9097 123.046 76.4222L121.164 73.6687L118.655 76.648C118.327 77.0785 118.106 77.5815 118.013 78.1148C117.919 78.6481 117.954 79.1962 118.116 79.713L114.07 79.7172Z" fill="white"/>
<path d="M141.235 73.8694V70.106C141.213 68.8459 140.716 67.6405 139.845 66.7295L139.532 66.418L143.504 65.5963V76.0375C143.517 77.2944 144.004 78.5002 144.867 79.414L145.179 79.7255H141.235V75.9706C140.525 78.4376 138.538 79.9994 135.986 79.9994C133.318 79.9994 131.616 78.2683 131.616 75.174V70.0956C131.593 68.8354 131.097 67.63 130.226 66.719L129.914 66.4075L133.887 65.5859V73.9258C133.887 77.3609 135.164 79.3178 137.177 79.3178C139.322 79.3178 141.235 77.0766 141.235 73.8694Z" fill="white"/>
<path d="M150.675 65.5851C149.342 65.5851 148.434 66.5489 148.434 67.8849C148.434 71.9409 156.607 71.4392 156.607 75.9133C156.607 78.2403 154.393 80.0007 151.158 80.0007C149.116 80.0007 147.272 79.2627 145.965 77.9581L147.092 76.0011C147.943 77.818 149.448 79.7185 151.604 79.7185C153.391 79.7185 154.696 78.4139 154.696 76.7915C154.696 72.7354 146.525 73.4714 146.525 68.9031C146.525 66.8333 148.227 65.3008 150.981 65.3008C152.861 65.2939 154.67 66.0155 156.03 67.3141L154.895 69.2732C154.052 67.4563 152.549 65.5851 150.675 65.5851Z" fill="white"/>
</svg>
