<svg width="303" height="53" viewBox="0 0 303 53" fill="none" xmlns="http://www.w3.org/2000/svg">
<g clip-path="url(#clip0_279_375)">
<mask id="mask0_279_375" style="mask-type:luminance" maskUnits="userSpaceOnUse" x="0" y="0" width="303" height="53">
<path d="M302.487 0H0.817383V52.61H302.487V0Z" fill="white"/>
</mask>
<g mask="url(#mask0_279_375)">
<path d="M46.6875 35.25C46.6875 34.69 46.7875 34.11 46.8975 33.79L47.7175 33.5L47.8275 33.55C47.7375 34.01 47.6975 34.4 47.6975 34.75C47.6975 36.07 48.2075 36.92 49.9875 36.92C51.0575 36.92 51.8175 36.67 52.3775 35.99C52.5375 35.65 52.6775 35 52.6775 33.96V26.82L53.6175 26.59L53.7075 26.63L53.6975 33.83C53.6975 36.77 52.3375 37.93 49.7875 37.93C47.7475 37.94 46.6875 36.82 46.6875 35.25Z" fill="white"/>
<path d="M55.4072 33.36V26.84L56.3472 26.61L56.4272 26.65V33.25C56.4272 34.27 56.8572 34.5 57.9372 34.5C58.3672 34.5 58.4772 34.64 58.4772 34.85C58.4772 35.08 58.3472 35.52 57.6772 35.52C56.3972 35.51 55.4072 35.05 55.4072 33.36Z" fill="white"/>
<path d="M64.2673 34.85C64.2673 35.09 64.1373 35.52 63.4673 35.52H62.6473C62.0273 35.52 61.3373 35.39 60.7173 35.15C60.0373 35.4 59.2173 35.52 58.3673 35.52H57.6973L57.9573 34.5H59.1973C59.3173 34.5 59.4373 34.5 59.5373 34.49C59.0973 34.11 58.7973 33.63 58.7973 33.05C58.7973 31.91 59.7873 30.69 60.8773 30.69C61.8073 30.69 62.6273 31.75 62.6273 32.69C62.6273 33.43 62.3673 34.01 61.9073 34.44C62.1973 34.48 62.5073 34.51 62.8373 34.51H63.7373C64.1773 34.49 64.2673 34.64 64.2673 34.85ZM60.7773 34.13C61.3673 33.83 61.7573 33.36 61.7573 32.82C61.7573 32.26 61.1973 31.7 60.7273 31.7C60.2073 31.7 59.6473 32.31 59.6473 32.88C59.6473 33.36 60.0573 33.83 60.7773 34.13ZM61.0573 29.19L59.9873 28.45L60.6573 27.46L61.7273 28.19L61.0573 29.19Z" fill="white"/>
<path d="M70.9473 33.23C70.9473 33.99 70.5973 34.56 70.1773 34.92C69.5673 35.43 68.5973 35.52 66.7773 35.52H63.4873L63.7473 34.5H64.2873C64.4973 34.29 64.7073 34.08 64.9173 33.89V26.85L65.8573 26.62L65.9373 26.66V32.96C67.2073 31.82 68.1873 31.16 69.0173 31.16C70.0973 31.13 70.9473 32.15 70.9473 33.23ZM70.0073 33.38C70.0073 32.84 69.5373 32.14 68.8973 32.14C68.0873 32.14 66.9073 33.19 65.5673 34.49H66.7073C68.6173 34.49 69.3173 34.44 69.7773 34.2C69.9073 34.02 70.0073 33.71 70.0073 33.38Z" fill="white"/>
<path d="M74.1574 27.41C73.5174 27.49 72.6774 27.55 71.6574 27.59L71.5874 26.88C71.7674 26.88 71.9674 26.88 72.1774 26.87C72.0374 26.65 71.9474 26.39 71.9474 26.11C71.9474 25.48 72.3374 25.08 73.0174 25.08C73.2974 25.08 73.6174 25.15 73.9274 25.26L73.7474 25.94C73.4974 25.86 73.2874 25.81 73.1374 25.81C72.8074 25.81 72.6574 26.03 72.6574 26.29C72.6574 26.49 72.7474 26.68 72.9074 26.84C73.3274 26.81 73.7474 26.77 74.0974 26.74L74.1574 27.41ZM76.3674 32.14C76.7974 32.75 77.0474 33.34 77.0474 33.89C77.0474 35.03 76.3974 35.51 74.6574 35.51H72.9074L72.9474 34.56C73.7574 33.98 74.6674 33.24 75.3074 32.29C74.4574 31.37 73.2574 30.49 72.3274 29.83L72.7174 28.8L72.7974 28.76C74.0174 29.71 75.0274 30.59 75.7674 31.41C75.9674 30.91 76.0774 30.36 76.0774 29.78C76.0774 28.72 75.7874 27.49 75.6874 27.09L76.6074 26.61L76.6974 26.64C76.8174 27.23 77.0674 28.59 77.0674 29.45C77.0574 30.51 76.7674 31.4 76.3674 32.14ZM75.8274 32.94C75.2674 33.66 74.6274 34.17 74.1774 34.5H74.6574C75.6474 34.5 76.0574 34.4 76.3074 34.21C76.3274 33.8 76.1274 33.37 75.8274 32.94Z" fill="white"/>
<path d="M78.7876 35.54V26.84L79.7376 26.59L79.8076 26.64L79.7976 35.38L78.8676 35.58L78.7876 35.54Z" fill="white"/>
<path d="M95.9474 34.85C95.9474 35.08 95.8274 35.52 95.1674 35.52C94.6074 35.52 93.8074 35.38 93.2574 34.87C93.1774 34.94 93.0974 35 93.0174 35.05C92.4274 35.42 90.7974 35.66 89.6874 35.66H88.7974C85.9474 35.66 84.3774 35.05 84.3774 33.26C84.3774 32.7 84.4674 32.14 84.5874 31.8L85.3574 31.51L85.4674 31.56C85.3774 32.02 85.3374 32.41 85.3374 32.75C85.3374 34.3 86.6674 34.64 89.0774 34.64H89.9974C90.8174 34.64 92.2074 34.5 92.6874 34.26C92.8874 33.86 93.1574 32.95 93.3274 32.26L94.3374 32.01L94.4674 32.09C94.2974 32.81 94.0874 33.51 93.8174 34.08C94.0874 34.26 94.5474 34.5 95.4374 34.5C95.8574 34.49 95.9474 34.64 95.9474 34.85ZM88.9974 36.66L90.0674 37.38L89.3974 38.39L88.3274 37.64L88.9974 36.66Z" fill="white"/>
<path d="M100.357 34.85C100.357 35.09 100.237 35.52 99.5772 35.52C98.7772 35.52 97.9972 35.38 97.4372 34.89C97.0172 35.32 96.4472 35.52 95.6172 35.52H95.1772L95.4372 34.5H95.8272C96.2372 34.5 96.5972 34.42 96.8172 34.25C96.9972 33.96 97.1872 33.37 97.4472 32.26L98.4572 32.01L98.5872 32.09C98.4072 32.91 98.2172 33.58 97.9772 34.09C98.2772 34.27 98.7772 34.49 99.8472 34.49C100.267 34.49 100.357 34.64 100.357 34.85ZM97.2772 30.52L96.2172 29.78L96.8572 28.79L97.9172 29.52L97.2772 30.52ZM99.0872 30.52L98.0272 29.78L98.6972 28.79L99.7572 29.52L99.0872 30.52Z" fill="white"/>
<path d="M104.737 28.35L101.347 30.25C103.907 31.92 104.327 32.84 104.327 33.65C104.327 34.71 103.417 35.52 100.807 35.52H99.5674L99.8174 34.5H100.797C102.187 34.5 103.237 34.21 103.537 33.96C103.537 32.94 102.177 31.97 100.467 30.88L100.417 30.8L100.687 29.47L104.977 27.04L105.067 27.08L104.737 28.35Z" fill="white"/>
<path d="M108.737 34.99C108.737 34.43 108.837 33.88 108.947 33.54L109.767 33.25L109.867 33.3C109.777 33.77 109.737 34.15 109.737 34.49C109.737 35.71 110.367 36.54 112.507 36.54C114.257 36.54 115.827 35.83 116.297 35.18C116.397 34.78 116.127 34.59 115.267 34.3C114.207 33.95 113.557 33.77 113.557 32.72C113.557 31.51 114.657 29.94 116.207 29.94C116.757 29.94 117.227 30.08 117.567 30.29L117.387 31.2L117.337 31.24C117.007 31.07 116.577 30.95 116.197 30.95C115.147 30.95 114.357 31.93 114.357 32.53C114.357 32.88 114.907 33.04 115.837 33.35C117.127 33.79 117.337 34.09 117.337 34.55C117.337 36.18 114.937 37.54 112.277 37.54C109.917 37.56 108.737 36.47 108.737 34.99ZM110.437 39.55L111.077 38.57L112.137 39.29L111.497 40.3L110.437 39.55ZM112.307 39.55L112.977 38.57L114.037 39.29L113.367 40.3L112.307 39.55Z" fill="white"/>
<path d="M123.537 34.85C123.537 35.09 123.417 35.52 122.757 35.52C122.237 35.52 121.897 35.38 121.657 35.17C121.257 36.35 119.837 37.47 117.747 37.84L117.197 37.08L117.247 36.97C119.787 36.49 120.707 35.47 120.957 34.45C120.747 33.85 120.347 33.03 119.947 32.25L120.707 31.44H120.837C121.167 32.34 121.477 33.11 121.607 33.45C121.957 34.33 122.147 34.49 122.997 34.49C123.447 34.49 123.537 34.64 123.537 34.85Z" fill="white"/>
<path d="M132.258 33.47C132.258 34.97 131.318 35.51 129.888 35.51C129.328 35.51 128.828 35.38 128.408 35.17C128.118 35.39 127.738 35.51 127.208 35.51C126.308 35.51 125.588 35.24 125.168 34.94C124.668 35.33 123.958 35.51 122.748 35.51L122.998 34.49C123.818 34.49 124.368 34.41 124.658 34.23C124.828 33.99 124.998 33.54 125.208 32.84L126.318 32.68L126.368 32.75C126.168 33.31 125.988 33.8 125.778 34.19C126.168 34.35 126.808 34.49 127.308 34.49C127.548 34.49 127.818 34.44 127.958 34.35C128.128 34.13 128.328 33.59 128.558 32.85L129.608 32.69L129.658 32.74C129.428 33.38 129.258 33.91 129.048 34.33C129.318 34.42 129.648 34.49 129.978 34.49C130.438 34.49 130.918 34.45 131.168 34.33C131.438 33.66 131.078 32.75 130.628 31.78L131.508 31.1L131.588 31.11C131.988 32.05 132.258 32.91 132.258 33.47ZM127.838 30.47L126.778 29.72L127.418 28.73L128.478 29.46L127.838 30.47ZM128.628 28.99L127.558 28.23L128.228 27.25L129.288 27.97L128.628 28.99ZM128.628 29.72L129.298 28.73L130.358 29.46L129.688 30.47L128.628 29.72Z" fill="white"/>
<path d="M133.897 33.36V26.84L134.837 26.61L134.917 26.65V33.25C134.917 34.27 135.347 34.5 136.427 34.5C136.857 34.5 136.967 34.64 136.967 34.85C136.967 35.08 136.837 35.52 136.167 35.52C134.887 35.51 133.897 35.05 133.897 33.36Z" fill="white"/>
<path d="M141.098 34.85C141.098 35.09 140.978 35.52 140.308 35.52C139.748 35.52 138.978 35.38 138.418 34.88C137.978 35.33 137.358 35.52 136.458 35.52H136.188L136.448 34.5H136.738C137.248 34.5 137.618 34.42 137.838 34.25C138.028 33.96 138.207 33.37 138.467 32.26L139.478 32.01L139.607 32.09C139.427 32.91 139.228 33.58 138.978 34.09C139.268 34.27 139.718 34.49 140.588 34.49C141.008 34.49 141.098 34.64 141.098 34.85ZM139.128 30.55L138.058 29.81L138.728 28.82L139.798 29.55L139.128 30.55Z" fill="white"/>
<path d="M140.577 34.49C141.007 34.49 141.477 34.48 141.807 34.24C141.857 34.01 141.897 33.68 141.897 33.21V26.83L142.817 26.6L142.927 26.64V33.1C142.927 35.02 141.937 35.52 140.327 35.52L140.577 34.49Z" fill="white"/>
<path d="M147.498 35.37C147.498 34.81 147.608 34.26 147.708 33.92L148.528 33.63L148.648 33.68C148.548 34.15 148.508 34.53 148.508 34.87C148.508 36.09 149.138 36.92 151.278 36.92C153.278 36.92 154.808 36.42 155.038 35.77C155.038 35.49 154.818 35.17 152.918 34.7L153.218 33.76C155.598 34.41 156.028 34.84 156.028 35.49C155.848 37.06 153.848 37.95 151.038 37.95C148.668 37.94 147.498 36.85 147.498 35.37ZM149.198 39.93L149.838 38.95L150.898 39.67L150.258 40.68L149.198 39.93ZM151.068 39.93L151.738 38.95L152.798 39.67L152.128 40.68L151.068 39.93Z" fill="white"/>
<path d="M153.217 33.76C153.767 33.54 154.197 33.3 154.477 33.07C154.467 32.47 154.177 31.78 153.837 31.03L154.677 30.36H154.797C155.187 31.29 155.467 32.15 155.467 32.7C155.467 33.2 155.137 33.69 154.317 34.18L153.647 34.28L153.217 33.76ZM154.277 39.21L154.947 38.23L156.017 38.95L155.347 39.96L154.277 39.21Z" fill="white"/>
<path d="M162.087 34.85C162.087 35.09 161.957 35.52 161.287 35.52C160.767 35.52 160.427 35.38 160.187 35.17C159.837 36.19 158.737 37.16 157.107 37.64L156.607 36.89L156.637 36.79C158.557 36.25 159.287 35.36 159.517 34.45C159.297 33.85 158.887 33.03 158.507 32.25L159.267 31.44H159.387C159.717 32.34 160.027 33.11 160.157 33.45C160.507 34.33 160.697 34.49 161.557 34.49C161.977 34.49 162.087 34.64 162.087 34.85Z" fill="white"/>
<path d="M169.257 34.86C169.257 35.09 169.137 35.51 168.457 35.51C167.177 35.51 165.987 35.13 165.117 34.49C164.197 35.06 162.997 35.51 161.297 35.51L161.547 34.49C162.647 34.49 163.577 34.25 164.407 33.81C163.927 33.22 163.377 32.71 162.587 32.33L162.547 32.22L163.017 31.11C163.667 30.8 164.517 30.63 165.387 30.63C166.267 30.63 167.177 30.83 167.867 31.3L167.907 31.42L167.637 32.39C167.127 32.75 166.607 33.33 165.937 33.89C166.667 34.27 167.717 34.49 168.717 34.49C169.167 34.49 169.257 34.65 169.257 34.86ZM165.187 33.33C165.717 32.94 166.227 32.47 166.757 31.91C166.247 31.74 165.747 31.66 165.257 31.66C164.657 31.66 164.077 31.78 163.587 31.95C164.077 32.19 164.577 32.73 165.187 33.33Z" fill="white"/>
<path d="M168.748 34.49C169.178 34.49 169.648 34.48 169.978 34.24C170.028 34.01 170.068 33.68 170.068 33.21V26.83L170.988 26.6L171.098 26.64V33.1C171.098 35.02 170.108 35.52 168.498 35.52L168.748 34.49Z" fill="white"/>
<path d="M172.777 35.54V26.84L173.737 26.59L173.797 26.64L173.787 35.38L172.857 35.58L172.777 35.54Z" fill="white"/>
<path d="M178.377 35.37C178.377 34.81 178.477 34.26 178.587 33.92L179.407 33.63L179.527 33.68C179.417 34.15 179.387 34.53 179.387 34.87C179.387 36.09 180.017 36.92 182.157 36.92C184.157 36.92 185.747 36.38 185.987 35.73C185.987 35.31 185.387 35.04 183.847 34.63L184.147 33.68C185.427 34.02 186.577 34.49 187.697 34.49C188.147 34.49 188.217 34.65 188.217 34.86C188.217 35.09 188.097 35.51 187.417 35.51H186.907C186.707 37.06 184.727 37.94 181.917 37.94C179.557 37.94 178.377 36.85 178.377 35.37Z" fill="white"/>
<path d="M194.018 34.85C194.018 35.09 193.887 35.52 193.217 35.52H192.388C191.778 35.52 191.078 35.39 190.458 35.15C189.778 35.4 188.957 35.52 188.107 35.52H187.438L187.698 34.5H188.938C189.057 34.5 189.178 34.5 189.278 34.49C188.838 34.11 188.538 33.63 188.538 33.05C188.538 31.91 189.528 30.69 190.618 30.69C191.548 30.69 192.368 31.75 192.368 32.69C192.368 33.43 192.108 34.01 191.648 34.44C191.938 34.48 192.247 34.51 192.577 34.51H193.478C193.918 34.49 194.018 34.64 194.018 34.85ZM189.848 29.19L188.788 28.45L189.428 27.46L190.488 28.19L189.848 29.19ZM190.528 34.13C191.118 33.83 191.508 33.36 191.508 32.82C191.508 32.26 190.948 31.7 190.478 31.7C189.958 31.7 189.398 32.31 189.398 32.88C189.388 33.36 189.808 33.83 190.528 34.13ZM191.658 29.19L190.598 28.45L191.268 27.46L192.327 28.19L191.658 29.19Z" fill="white"/>
<path d="M198.417 34.85C198.417 35.09 198.297 35.52 197.637 35.52C196.837 35.52 196.057 35.38 195.497 34.89C195.077 35.32 194.507 35.52 193.677 35.52H193.237L193.497 34.5H193.887C194.297 34.5 194.657 34.42 194.877 34.25C195.057 33.96 195.247 33.37 195.507 32.26L196.517 32.01L196.647 32.09C196.467 32.91 196.277 33.58 196.037 34.09C196.337 34.27 196.837 34.49 197.907 34.49C198.327 34.49 198.417 34.64 198.417 34.85ZM195.337 30.52L194.277 29.78L194.917 28.79L195.977 29.52L195.337 30.52ZM197.157 30.52L196.097 29.78L196.767 28.79L197.827 29.52L197.157 30.52Z" fill="white"/>
<path d="M202.237 34.85C202.237 35.09 202.117 35.52 201.457 35.52C200.937 35.52 200.177 35.39 199.797 34.75C199.357 35.34 198.617 35.52 197.637 35.52L197.897 34.5C198.327 34.5 198.797 34.49 199.127 34.25C199.177 34.01 199.217 33.69 199.217 33.22V26.84L200.137 26.6L200.237 26.64V33.06C200.237 34.39 200.837 34.5 201.697 34.5C202.147 34.49 202.237 34.64 202.237 34.85Z" fill="white"/>
<path d="M209.197 34.85C209.197 35.24 208.887 35.52 208.387 35.52C207.837 35.52 207.417 35.39 207.067 35.09C206.867 35.48 206.567 35.68 206.047 35.68C205.287 35.68 204.287 35.29 203.447 34.69C202.907 35.38 202.517 35.53 201.467 35.53L201.737 34.51C202.277 34.51 202.467 34.35 202.887 33.7C203.387 32.9 203.997 31.32 205.217 31.32C206.207 31.32 206.627 32.29 207.137 33.34C207.617 34.32 207.857 34.5 208.657 34.5C209.037 34.49 209.197 34.61 209.197 34.85ZM206.497 34.34C206.457 34.26 206.427 34.18 206.397 34.11C205.857 32.82 205.517 32.33 205.177 32.33C204.707 32.33 204.277 33.14 203.897 33.9C204.567 34.34 205.347 34.67 205.807 34.67C206.147 34.66 206.357 34.56 206.497 34.34Z" fill="white"/>
<path d="M208.677 34.49C209.107 34.49 209.577 34.48 209.907 34.24C209.957 34.01 209.997 33.68 209.997 33.21V26.83L210.907 26.6L211.017 26.64V33.1C211.017 35.02 210.027 35.52 208.417 35.52L208.677 34.49Z" fill="white"/>
<path d="M212.717 35.54V26.84L213.667 26.59L213.737 26.64L213.717 35.38L212.787 35.58L212.717 35.54Z" fill="white"/>
<path d="M7.23738 52.41V52.48H6.20738L5.47738 50.5H2.51738L1.79738 52.48H0.817383V52.41L3.41738 45.53H4.61738L7.23738 52.41ZM5.17738 49.68L3.99738 46.46L2.81738 49.68H5.17738Z" fill="white"/>
<path d="M13.4576 52.41V52.48H12.3176L10.3176 49.77H9.28762V52.48H8.30762V45.53H10.5676C12.2276 45.53 13.0776 46.37 13.0776 47.58C13.0776 48.53 12.5376 49.38 11.3976 49.66L13.4576 52.41ZM9.28762 48.95H10.4176C11.5076 48.95 12.0476 48.45 12.0476 47.62C12.0476 46.8 11.5476 46.37 10.5476 46.37H9.28762V48.95Z" fill="white"/>
<path d="M20.2571 52.41V52.48H19.2271L18.4971 50.5H15.5371L14.8171 52.48H13.8271V52.41L16.4271 45.53H17.6271L20.2571 52.41ZM18.1971 49.68L17.0171 46.46L15.8371 49.68H18.1971Z" fill="white"/>
<path d="M26.3474 50.54C26.3474 51.63 25.5074 52.48 23.8274 52.48H21.3174V45.53H23.7374C25.2274 45.53 26.0774 46.28 26.0774 47.32C26.0774 47.95 25.7574 48.53 24.8974 48.82C25.9674 49.08 26.3474 49.83 26.3474 50.54ZM22.3074 46.35V48.54H23.6074C24.3874 48.54 25.0774 48.25 25.0774 47.39C25.0774 46.8 24.6374 46.35 23.7674 46.35H22.3074ZM25.3074 50.52C25.3074 49.81 24.8574 49.33 23.8574 49.33H22.3074V51.67H23.8474C24.9674 51.66 25.3074 51.11 25.3074 50.52Z" fill="white"/>
<path d="M29.8872 49.03C29.8872 46.37 31.4572 45.41 33.0672 45.41C33.9672 45.41 34.6872 45.65 35.3272 46.04L34.8972 46.79C34.4672 46.52 33.8872 46.26 33.1072 46.26C31.5572 46.26 30.9272 47.39 30.9272 48.97C30.9272 50.65 31.6472 51.75 33.1272 51.75C33.9172 51.75 34.4872 51.5 34.9872 51.21L35.3872 51.93C34.6872 52.34 34.0172 52.6 33.0872 52.6C30.8972 52.61 29.8872 51.17 29.8872 49.03Z" fill="white"/>
<path d="M42.2475 45.53V52.48H41.2575V49.36H37.4175V52.48H36.4375V45.53H37.4175V48.52H41.2575V45.53H42.2475Z" fill="white"/>
<path d="M44.9973 45.53H44.0073V52.48H44.9973V45.53Z" fill="white"/>
<path d="M51.1476 51.62V52.48H46.7476V45.53H47.7376V51.62H51.1476Z" fill="white"/>
<path d="M57.9573 49.01C57.9573 51.42 56.3773 52.48 54.1273 52.48H52.2173V45.53H54.3073C56.5673 45.53 57.9573 46.49 57.9573 49.01ZM56.9273 49.01C56.9273 47.19 56.0873 46.37 54.3373 46.37H53.2073V51.64H54.0073C55.7573 51.64 56.9273 51.15 56.9273 49.01Z" fill="white"/>
<path d="M64.4774 52.41V52.48H63.3374L61.3274 49.77H60.2974V52.48H59.3174V45.53H61.5774C63.2374 45.53 64.0874 46.37 64.0874 47.58C64.0874 48.53 63.5474 49.38 62.4074 49.66L64.4774 52.41ZM60.3074 48.95H61.4374C62.5274 48.95 63.0674 48.45 63.0674 47.62C63.0674 46.8 62.5674 46.37 61.5674 46.37H60.3174V48.95H60.3074Z" fill="white"/>
<path d="M69.9474 51.64V52.48H65.5474V45.53H69.8874V46.37H66.5374V48.54H69.4774L69.3674 49.35H66.5374V51.64H69.9474Z" fill="white"/>
<path d="M77.0674 45.53V52.48H75.9774L72.9274 47.98C72.7074 47.66 72.4774 47.35 72.3174 46.99V52.48H71.3774V45.53H72.4174L75.5574 50.13C75.7974 50.47 75.9974 50.75 76.1374 51.07V45.53H77.0674Z" fill="white"/>
<path d="M78.2373 47.7C78.4673 47.4 78.7573 46.97 78.7573 46.72C78.7573 46.65 78.7273 46.58 78.6573 46.55C78.4673 46.43 78.2673 46.31 78.2673 45.98C78.2673 45.63 78.5173 45.4 78.8873 45.4C79.2173 45.4 79.5773 45.66 79.5773 46.22C79.5773 46.86 79.1273 47.45 78.6773 47.98L78.2373 47.7Z" fill="white"/>
<path d="M80.2373 51.81L80.7073 51.1C81.3173 51.57 82.1273 51.76 82.6973 51.76C83.7173 51.76 84.2773 51.4 84.2773 50.63C84.2773 49.98 83.8873 49.71 82.7273 49.3L82.5473 49.23C81.4273 48.83 80.5173 48.43 80.5173 47.21C80.5173 45.96 81.6773 45.38 82.8573 45.38C83.6773 45.38 84.4473 45.56 85.1973 46.07L84.7473 46.78C84.1373 46.39 83.5873 46.21 82.8473 46.21C82.1673 46.21 81.5273 46.48 81.5273 47.17C81.5273 47.67 81.8373 47.96 82.9273 48.35L83.1073 48.41C84.1473 48.77 85.3073 49.17 85.3073 50.57C85.3073 51.89 84.3073 52.57 82.7373 52.57C81.7073 52.61 80.8673 52.31 80.2373 51.81Z" fill="white"/>
<path d="M94.2673 50.54C94.2673 51.63 93.4273 52.48 91.7473 52.48H89.2373V45.53H91.6573C93.1473 45.53 93.9973 46.28 93.9973 47.32C93.9973 47.95 93.6773 48.53 92.8173 48.82C93.8773 49.08 94.2673 49.83 94.2673 50.54ZM90.2273 46.35V48.54H91.5273C92.3073 48.54 92.9973 48.25 92.9973 47.39C92.9973 46.8 92.5573 46.35 91.6873 46.35H90.2273ZM93.2273 50.52C93.2273 49.81 92.7773 49.33 91.7773 49.33H90.2273V51.67H91.7673C92.8873 51.66 93.2273 51.11 93.2273 50.52Z" fill="white"/>
<path d="M95.2373 48.98C95.2373 46.47 96.8073 45.4 98.5473 45.4C100.677 45.4 101.787 46.89 101.787 49.02C101.787 51.53 100.227 52.6 98.4773 52.6C96.3373 52.61 95.2373 51.12 95.2373 48.98ZM100.757 49.04C100.757 47.4 100.057 46.24 98.5473 46.24C96.9973 46.24 96.2673 47.39 96.2673 48.97C96.2673 50.61 96.9673 51.77 98.4773 51.77C100.027 51.77 100.757 50.62 100.757 49.04Z" fill="white"/>
<path d="M102.757 48.98C102.757 46.47 104.327 45.4 106.067 45.4C108.197 45.4 109.307 46.89 109.307 49.02C109.307 51.53 107.747 52.6 105.997 52.6C103.857 52.61 102.757 51.12 102.757 48.98ZM108.277 49.04C108.277 47.4 107.577 46.24 106.067 46.24C104.517 46.24 103.787 47.39 103.787 48.97C103.787 50.61 104.487 51.77 105.997 51.77C107.547 51.77 108.277 50.62 108.277 49.04Z" fill="white"/>
<path d="M116.027 52.42V52.48H114.837L111.657 48.93V52.48H110.667V45.53H111.657V48.85L114.777 45.53H115.897V45.6L112.817 48.87L116.027 52.42Z" fill="white"/>
<path d="M124.467 47.64C124.467 48.86 123.617 49.91 121.817 49.91H120.577V52.47H119.587V45.52H121.907C123.597 45.53 124.467 46.4 124.467 47.64ZM123.437 47.69C123.437 46.84 122.917 46.37 121.887 46.37H120.577V49.08H121.747C122.897 49.08 123.437 48.56 123.437 47.69Z" fill="white"/>
<path d="M125.467 49.7V45.53H126.457V49.49C126.457 50.87 127.007 51.75 128.407 51.75C129.787 51.75 130.297 50.88 130.297 49.55V45.53H131.287V49.67C131.287 51.79 129.967 52.61 128.347 52.61C126.347 52.61 125.467 51.33 125.467 49.7Z" fill="white"/>
<path d="M137.897 50.54C137.897 51.63 137.057 52.48 135.377 52.48H132.867V45.53H135.287C136.777 45.53 137.627 46.28 137.627 47.32C137.627 47.95 137.307 48.53 136.447 48.82C137.507 49.08 137.897 49.83 137.897 50.54ZM133.857 46.35V48.54H135.157C135.937 48.54 136.627 48.25 136.627 47.39C136.627 46.8 136.187 46.35 135.317 46.35H133.857ZM136.857 50.52C136.857 49.81 136.407 49.33 135.407 49.33H133.857V51.67H135.397C136.517 51.66 136.857 51.11 136.857 50.52Z" fill="white"/>
<path d="M143.657 51.62V52.48H139.257V45.53H140.247V51.62H143.657Z" fill="white"/>
<path d="M145.718 45.53H144.728V52.48H145.718V45.53Z" fill="white"/>
<path d="M146.917 51.81L147.387 51.1C147.997 51.57 148.797 51.76 149.377 51.76C150.397 51.76 150.957 51.4 150.957 50.63C150.957 49.98 150.567 49.71 149.407 49.3L149.227 49.23C148.107 48.83 147.197 48.43 147.197 47.21C147.197 45.96 148.357 45.38 149.537 45.38C150.357 45.38 151.127 45.56 151.877 46.07L151.427 46.78C150.817 46.39 150.267 46.21 149.527 46.21C148.847 46.21 148.207 46.48 148.207 47.17C148.207 47.67 148.517 47.96 149.607 48.35L149.787 48.41C150.827 48.77 151.987 49.17 151.987 50.57C151.987 51.89 150.987 52.57 149.417 52.57C148.397 52.61 147.547 52.31 146.917 51.81Z" fill="white"/>
<path d="M159.167 45.53V52.48H158.177V49.36H154.337V52.48H153.357V45.53H154.337V48.52H158.177V45.53H159.167Z" fill="white"/>
<path d="M165.317 51.64V52.48H160.927V45.53H165.267V46.37H161.907V48.54H164.847L164.737 49.35H161.907V51.64H165.317Z" fill="white"/>
<path d="M171.898 52.41V52.48H170.758L168.748 49.77H167.718V52.48H166.728V45.53H168.988C170.648 45.53 171.498 46.37 171.498 47.58C171.498 48.53 170.958 49.38 169.818 49.66L171.898 52.41ZM167.728 48.95H168.848C169.938 48.95 170.478 48.45 170.478 47.62C170.478 46.8 169.978 46.37 168.978 46.37H167.728V48.95Z" fill="white"/>
<path d="M172.248 51.81L172.718 51.1C173.328 51.57 174.138 51.76 174.708 51.76C175.728 51.76 176.288 51.4 176.288 50.63C176.288 49.98 175.898 49.71 174.738 49.3L174.558 49.23C173.438 48.83 172.528 48.43 172.528 47.21C172.528 45.96 173.688 45.38 174.868 45.38C175.688 45.38 176.458 45.56 177.208 46.07L176.758 46.78C176.148 46.39 175.598 46.21 174.858 46.21C174.178 46.21 173.538 46.48 173.538 47.17C173.538 47.67 173.848 47.96 174.938 48.35L175.118 48.41C176.158 48.77 177.318 49.17 177.318 50.57C177.318 51.89 176.318 52.57 174.748 52.57C173.728 52.61 172.888 52.31 172.248 51.81Z" fill="white"/>
<path d="M182.247 46.37V48.71H185.167L185.067 49.54H182.247V52.48H181.257V45.53H185.597V46.37H182.247Z" fill="white"/>
<path d="M186.397 48.98C186.397 46.47 187.967 45.4 189.707 45.4C191.837 45.4 192.947 46.89 192.947 49.02C192.947 51.53 191.377 52.6 189.637 52.6C187.497 52.61 186.397 51.12 186.397 48.98ZM191.917 49.04C191.917 47.4 191.217 46.24 189.707 46.24C188.157 46.24 187.427 47.39 187.427 48.97C187.427 50.61 188.127 51.77 189.637 51.77C191.187 51.77 191.917 50.62 191.917 49.04Z" fill="white"/>
<path d="M199.467 52.41V52.48H198.327L196.317 49.77H195.287V52.48H194.297V45.53H196.557C198.217 45.53 199.067 46.37 199.067 47.58C199.067 48.53 198.527 49.38 197.387 49.66L199.467 52.41ZM195.297 48.95H196.417C197.507 48.95 198.047 48.45 198.047 47.62C198.047 46.8 197.547 46.37 196.547 46.37H195.297V48.95Z" fill="white"/>
<path d="M200.327 49.7V45.53H201.317V49.49C201.317 50.87 201.867 51.75 203.267 51.75C204.647 51.75 205.157 50.88 205.157 49.55V45.53H206.147V49.67C206.147 51.79 204.827 52.61 203.207 52.61C201.207 52.61 200.327 51.33 200.327 49.7Z" fill="white"/>
<path d="M214.777 45.53V52.48H213.817V47.14C213.717 47.42 213.597 47.73 213.397 48.11L211.727 51.36H210.777L209.137 48.11C208.947 47.73 208.777 47.42 208.677 47.16V52.49H207.737V45.54H208.857L210.427 48.61C210.767 49.29 211.087 49.95 211.277 50.49C211.447 49.95 211.777 49.28 212.127 48.61L213.707 45.54H214.777V45.53Z" fill="white"/>
<path d="M290.787 8.58C290.787 5.33 290.837 2.89 290.837 0C290.787 0 290.747 0 290.697 0C288.327 0 286.407 1.92 286.407 4.29C286.397 6.66 288.427 8.57 290.787 8.58Z" fill="#00AAA3"/>
<path d="M287.797 14.79C281.657 14.79 276.417 19.41 274.217 25.71C274.237 23.5 274.257 21.39 274.257 19.1C274.187 19.1 274.117 19.09 274.057 19.09C270.547 19.09 267.707 21.93 267.707 25.44C267.707 26.9 268.237 28.25 269.107 29.32C268.607 38.62 260.957 46.43 251.557 46.43C243.127 46.43 236.097 40.5 234.367 32.58C234.337 32.42 234.307 32.25 234.297 32.14C234.277 31.99 234.227 31.41 234.227 31.41C234.227 31.38 234.217 31.35 234.217 31.33C234.007 29.91 232.707 28.93 231.307 29.13C229.937 29.33 228.997 30.67 229.157 32.06H229.147C229.147 32.07 229.157 32.09 229.157 32.1C229.157 32.11 229.157 32.12 229.157 32.12C230.667 43.18 240.147 51.7 251.617 51.7C262.897 51.7 272.237 42.98 273.987 32.1C284.677 32.11 292.857 32.28 302.467 32.28C302.467 32.1 302.477 31.92 302.477 31.73C302.487 22.39 295.907 14.79 287.797 14.79Z" fill="#00AAA3"/>
</g>
</g>
<defs>
<clipPath id="clip0_279_375">
<rect width="303" height="53" fill="white"/>
</clipPath>
</defs>
</svg>
