<svg width="1278" height="295" viewBox="0 0 1278 295" fill="none" xmlns="http://www.w3.org/2000/svg">
<g clip-path="url(#clip0_215_1013)">
<path d="M1142.68 255.11C1141.35 255.76 1140.54 256.11 1139.78 256.54C1132.12 261 1124.45 265.463 1116.78 269.93C1115.71 270.55 1114.55 271.02 1113.45 271.6C1110.31 273.27 1104.97 271.05 1103.74 267.12C1103.26 265.724 1102.99 264.265 1102.93 262.79C1102.85 253.96 1102.93 245.14 1102.93 236.32V233.12C1101.66 233.74 1100.79 234.12 1099.93 234.58C1091.85 239.3 1083.77 244.023 1075.69 248.75C1073.47 250.05 1071.16 250.75 1068.56 249.86C1066.9 249.292 1065.46 248.211 1064.46 246.772C1063.45 245.334 1062.93 243.614 1062.97 241.86C1062.85 237.54 1062.97 233.21 1062.97 228.86V208.52C1061.82 207.93 1061.21 208.52 1060.51 208.96L1036.68 222.86C1034.68 224.01 1032.68 225.04 1030.37 224.79C1026 224.32 1023.62 221.4 1023.02 217.03C1022.97 216.364 1022.97 215.696 1023.02 215.03C1023.02 169.83 1023.02 124.633 1023.02 79.44C1023.02 78.1176 1023.15 76.7983 1023.4 75.5C1023.96 72.69 1025.94 70.99 1028.3 69.61C1037.55 64.2767 1046.8 58.9133 1056.03 53.52L1121.73 15.27C1129.73 10.61 1137.73 5.9 1145.73 1.27C1149.93 -1.16 1155.15 -0.0499997 1157.18 3.91C1157.92 5.65888 1158.29 7.54136 1158.27 9.44C1158.43 13.26 1158.27 17.09 1158.27 20.92C1158.27 26.92 1158.27 32.92 1158.27 38.92C1158.27 39.92 1158.45 40.83 1158.58 42.18C1160.01 41.46 1161.11 40.97 1162.15 40.36C1169.79 35.9333 1177.41 31.48 1185 27C1187.01 25.6453 1189.45 25.0695 1191.86 25.38C1193.39 25.5819 1194.82 26.2765 1195.92 27.3588C1197.02 28.4411 1197.74 29.8525 1197.97 31.38C1198.21 32.7711 1198.34 34.1787 1198.36 35.59C1198.36 43.91 1198.36 52.24 1198.36 60.59C1198.36 61.59 1198.59 62.59 1198.75 64.07C1201.31 62.65 1203.49 61.48 1205.61 60.24C1212.19 56.4 1218.76 52.5433 1225.31 48.67C1228.6 46.73 1231.87 46.34 1235.11 48.67C1235.91 49.1945 1236.58 49.8936 1237.07 50.7147C1237.56 51.5357 1237.86 52.4573 1237.94 53.41C1238.04 54.9 1238.16 56.41 1238.16 57.89C1238.16 66.38 1238.16 74.89 1238.16 83.36C1238.16 84.36 1237.86 85.53 1239 86.52C1240.49 85.68 1242 84.86 1243.48 84.01C1250.8 79.77 1258.14 75.6 1265.4 71.27C1269.92 68.57 1275.33 70.18 1277.4 75.48C1277.6 76.0226 1277.7 76.5932 1277.72 77.17C1277.72 78.09 1277.72 79.01 1277.72 79.92C1277.72 125.373 1277.72 170.82 1277.72 216.26C1277.72 218.88 1277.18 221.26 1275.33 223.05C1274.34 223.933 1273.24 224.686 1272.06 225.29C1246.73 240.05 1221.39 254.807 1196.06 269.56C1182.32 277.56 1168.61 285.61 1154.86 293.56C1151.52 295.5 1146.86 294.86 1144.54 292.34C1143.24 290.93 1142.56 289.064 1142.63 287.15C1142.63 279.41 1142.63 271.67 1142.63 263.92L1142.68 255.11ZM1039 202.92L1043.29 200.47C1049.29 197.03 1055.18 193.57 1061.15 190.17C1062.42 189.45 1063.26 188.65 1063 187.07C1062.96 186.488 1062.96 185.902 1063 185.32C1063 158.28 1063 131.243 1063 104.21C1062.91 102.428 1063.34 100.658 1064.22 99.1095C1065.11 97.5608 1066.42 96.2979 1068 95.47C1085.33 85.43 1102.64 75.35 1119.93 65.23C1126.73 61.27 1133.53 57.3167 1140.33 53.37C1141.11 53.0151 1141.77 52.4274 1142.21 51.6866C1142.65 50.9459 1142.85 50.0882 1142.78 49.23C1142.64 40.99 1142.78 32.75 1142.71 24.52C1142.71 23.74 1142.57 22.95 1142.43 21.63L1039 81.91V202.92ZM1158.78 272.92C1170.66 266.2 1181.99 259.43 1193.41 252.81C1204.83 246.19 1216.17 239.57 1227.54 232.94C1238.91 226.31 1250.38 219.57 1261.67 212.94C1262.22 206.88 1261.96 94.34 1261.37 92.37C1260.91 92.4615 1260.45 92.6023 1260.02 92.79C1253.29 96.7 1246.59 100.65 1239.85 104.55C1239.33 104.807 1238.9 105.209 1238.6 105.708C1238.3 106.206 1238.16 106.78 1238.18 107.36C1238.18 108.28 1238.18 109.19 1238.18 110.11C1238.18 137.23 1238.18 164.353 1238.18 191.48C1238.18 192.98 1238.04 194.48 1237.99 195.97C1237.93 196.841 1237.69 197.689 1237.28 198.459C1236.87 199.229 1236.3 199.904 1235.61 200.44C1234.79 201.136 1233.9 201.745 1232.96 202.26C1208.78 216.347 1184.59 230.423 1160.39 244.49C1159.74 244.817 1159.2 245.333 1158.84 245.972C1158.48 246.61 1158.33 247.341 1158.39 248.07C1158.45 255.31 1158.39 262.55 1158.39 269.78C1158.46 270.82 1158.58 271.855 1158.77 272.88L1158.78 272.92ZM1222.65 115C1221.3 115.61 1220.48 115.91 1219.73 116.34C1213.35 120.03 1207.02 123.8 1200.6 127.41C1199.9 127.725 1199.31 128.254 1198.92 128.922C1198.53 129.589 1198.36 130.362 1198.44 131.13C1198.51 141.61 1198.44 152.13 1198.44 162.57C1198.44 165.57 1198.44 168.57 1198.44 171.57C1198.44 175.33 1196.97 178.3 1193.54 180.15C1191.54 181.21 1189.65 182.35 1187.71 183.47C1178.56 188.803 1169.4 194.137 1160.23 199.47C1159.63 199.741 1159.13 200.186 1158.78 200.748C1158.44 201.31 1158.28 201.963 1158.31 202.62C1158.37 209.85 1158.31 217.09 1158.31 224.33C1158.4 225.187 1158.55 226.036 1158.76 226.87C1159.76 226.38 1160.31 226.12 1160.86 225.79C1180.61 214.31 1200.37 202.833 1220.12 191.36C1220.93 190.981 1221.61 190.363 1222.06 189.59C1222.51 188.816 1222.72 187.923 1222.65 187.03C1222.56 164.03 1222.59 141.12 1222.59 118.16L1222.65 115ZM1142.51 70.47C1141.34 71.05 1140.51 71.47 1139.64 71.92C1130.62 77.1533 1121.62 82.3967 1112.64 87.65C1102.13 93.7767 1091.62 99.9 1081.1 106.02C1079.73 106.81 1078.85 107.6 1078.86 109.46C1078.93 132.17 1078.86 154.88 1078.86 177.58C1078.86 178.12 1078.99 178.67 1079.1 179.58L1102.91 165.73V162.84C1102.91 150.53 1102.91 138.22 1102.91 125.91C1102.91 121.91 1104.46 118.91 1108.01 116.97C1109.01 116.46 1109.88 115.91 1110.81 115.37C1120.68 109.62 1130.54 103.85 1140.44 98.14C1141.19 97.7924 1141.81 97.2213 1142.23 96.5051C1142.64 95.7888 1142.82 94.9626 1142.74 94.14C1142.62 87.14 1142.74 80.14 1142.74 73.14C1142.68 72.48 1142.59 71.68 1142.51 70.47ZM1182.51 138.3C1181.72 138.66 1181.13 138.86 1180.6 139.17C1173.88 143.07 1167.18 147.02 1160.42 150.85C1159.75 151.169 1159.2 151.681 1158.83 152.32C1158.46 152.958 1158.29 153.693 1158.34 154.43C1158.34 162.66 1158.34 170.88 1158.34 179.11C1158.41 179.928 1158.53 180.74 1158.72 181.54C1159.15 181.459 1159.56 181.335 1159.96 181.17C1166.96 177.1 1173.96 172.98 1180.96 168.95C1181.54 168.654 1182.02 168.187 1182.33 167.611C1182.64 167.036 1182.77 166.379 1182.69 165.73C1182.63 157.34 1182.69 148.95 1182.69 140.55C1182.7 139.92 1182.59 139.28 1182.51 138.3ZM1102.51 184.8C1102.35 184.8 1102.16 184.72 1102.05 184.8C1094.72 189.02 1087.41 193.24 1080.13 197.46C1079.67 197.732 1079.3 198.138 1079.07 198.623C1078.84 199.108 1078.77 199.651 1078.85 200.18C1078.85 208.75 1078.85 217.31 1078.85 225.88C1078.85 226.57 1078.99 227.26 1079.1 228.33L1102.63 214.92C1103.15 211.92 1103 186.62 1102.5 184.8H1102.51ZM1142.69 161.9L1142.11 161.43C1134.29 165.79 1126.61 170.38 1119.01 174.84C1118.52 179.84 1118.73 202.84 1119.3 204.71C1119.89 204.43 1120.5 204.2 1121.05 203.87C1127.55 200.08 1134.05 196.23 1140.56 192.52C1141.27 192.204 1141.86 191.674 1142.25 191.005C1142.64 190.336 1142.81 189.562 1142.74 188.79C1142.64 180.65 1142.74 172.5 1142.74 164.36L1142.69 161.9ZM1182.69 92.37C1182.11 92.497 1181.55 92.6743 1181 92.9C1174 96.98 1167 101.12 1160 105.14C1159.48 105.388 1159.05 105.788 1158.76 106.286C1158.48 106.784 1158.35 107.357 1158.39 107.93C1158.39 115.66 1158.39 123.4 1158.39 131.13C1158.48 131.863 1158.65 132.584 1158.9 133.28C1159.96 132.69 1160.69 132.28 1161.4 131.89C1167.84 128.14 1174.25 124.34 1180.73 120.68C1181.39 120.364 1181.94 119.851 1182.3 119.212C1182.65 118.573 1182.81 117.839 1182.73 117.11C1182.65 109.79 1182.73 102.47 1182.73 95.11L1182.69 92.37ZM1198.61 109.76C1199.16 109.643 1199.69 109.476 1200.21 109.26C1207.15 105.26 1214.07 101.19 1221.02 97.18C1221.57 96.9094 1222.02 96.4769 1222.32 95.9405C1222.62 95.4042 1222.74 94.7898 1222.68 94.18C1222.6 86.79 1222.68 79.39 1222.68 71.99C1222.68 71.27 1222.58 70.55 1222.52 69.89C1220.99 69.2 1220.12 70.32 1219.2 70.83C1212.93 74.36 1206.75 78.05 1200.48 81.57C1199.78 81.8971 1199.19 82.4363 1198.81 83.1122C1198.42 83.7881 1198.26 84.567 1198.34 85.34C1198.41 92.48 1198.34 99.63 1198.34 106.78C1198.35 107.65 1198.5 108.53 1198.62 109.76H1198.61ZM1119 156.12C1119.6 155.91 1120.19 155.663 1120.76 155.38C1127.54 151.38 1134.31 147.38 1141.1 143.47C1141.64 143.166 1142.08 142.709 1142.36 142.158C1142.64 141.607 1142.75 140.985 1142.68 140.37C1142.68 132.89 1142.68 125.37 1142.68 117.93C1142.64 117.223 1142.57 116.518 1142.45 115.82C1141.69 116.047 1140.96 116.328 1140.24 116.66C1133.74 120.46 1127.24 124.32 1120.76 128.06C1120.12 128.333 1119.58 128.801 1119.22 129.397C1118.86 129.993 1118.7 130.687 1118.76 131.38C1118.85 138.86 1118.76 146.38 1118.76 153.83C1118.83 154.53 1118.94 155.24 1119 156.12ZM1182.7 47.27C1181.96 47.5306 1181.23 47.8344 1180.52 48.18C1173.71 52.09 1166.93 56.05 1160.1 59.94C1159.54 60.2034 1159.07 60.6311 1158.75 61.1667C1158.44 61.7023 1158.3 62.3206 1158.34 62.94C1158.34 70.33 1158.34 77.73 1158.34 85.13C1158.42 85.8787 1158.57 86.6186 1158.78 87.34C1159.38 87.03 1159.67 86.89 1159.95 86.73C1167.04 82.63 1174.12 78.5267 1181.21 74.42C1181.71 74.1432 1182.12 73.7223 1182.39 73.211C1182.65 72.6997 1182.76 72.1214 1182.69 71.55C1182.69 64.4 1182.69 57.25 1182.69 50.11L1182.7 47.27ZM1142.54 209.9C1134.2 214.53 1126.54 219.14 1118.98 223.61V250C1119.98 249.55 1120.7 249.26 1121.39 248.86C1127.83 245.11 1134.23 241.29 1140.7 237.6C1141.36 237.275 1141.91 236.757 1142.26 236.113C1142.62 235.47 1142.77 234.732 1142.7 234C1142.62 226.93 1142.7 219.86 1142.7 212.79C1142.68 212.07 1142.61 211.34 1142.54 209.9Z" fill="white"/>
<path d="M221.18 98.72C223.81 98.72 226.03 98.66 228.25 98.72C229.56 98.77 229.79 99.84 229.8 100.89C229.8 103.22 229.8 105.55 229.8 107.89C229.8 112.36 229.38 112.09 234.45 113.24C236.103 113.501 237.78 113.574 239.45 113.46C241.45 113.46 242.05 112.85 242.1 110.71C242.15 108.57 242.1 106.55 242.1 104.47V95.81H250.24C250.421 96.8024 250.547 97.8039 250.62 98.81C250.67 102.31 250.62 105.81 250.62 109.3C250.62 111.92 250.86 112.3 253.36 112.99C256.44 113.87 259.6 113.52 262.99 113.53C263.41 106.19 262.89 99.07 263.29 91.9C265.707 91.4501 268.178 91.3659 270.62 91.65C271.06 91.65 271.62 92.41 271.84 92.93C272.006 93.5042 272.061 94.1052 272 94.7C272 102.78 272 110.857 272 118.93C272 121.81 271.8 122.01 268.86 122.03C266.19 122.03 263.53 122.03 260.86 122.03C255.41 122.03 254.04 122.03 248.38 119.43C245.62 122.2 242.01 122.3 238.28 122.31C234.587 122.387 230.944 121.457 227.74 119.62C227.522 119.678 227.316 119.773 227.13 119.9C224.89 121.9 222.28 122.49 219.3 122.48C202.73 122.4 186.15 122.48 169.57 122.48C164.57 122.48 159.57 122.42 154.57 122.48C150.75 122.631 146.974 121.631 143.73 119.61C143.49 119.66 143.29 119.61 143.18 119.74C140.62 122.12 137.55 122.74 134.18 122.48C132.598 122.385 131.012 122.385 129.43 122.48C125.175 122.801 120.932 121.719 117.35 119.4C114.35 122.95 110.29 122.55 106.28 122.47C102.8 122.39 99.2798 122.89 95.8998 121.54C93.8498 120.72 91.8998 119.64 89.5998 118.54C88.0144 119.992 86.1517 121.108 84.1238 121.821C82.096 122.534 79.9448 122.83 77.7998 122.69C73.5843 122.505 69.5276 121.028 66.1798 118.46C64.1798 119.71 62.4598 120.8 60.7198 121.84C60.3666 122.065 59.9585 122.19 59.5398 122.2C55.5398 122.1 51.5398 122.72 47.6098 121.65C43.9598 120.65 42.0698 118.17 41.1198 114.6C40.4872 111.675 40.2451 108.679 40.3998 105.69V70.21C40.3998 67.41 40.5198 67.3 43.3998 67.27H49.0698C49.1398 68.36 49.2298 69.16 49.2298 69.96C49.2298 82.94 49.2298 95.94 49.2298 108.96C49.2298 113.68 49.2298 113.7 53.9098 113.65C55.5598 113.65 57.2198 113.84 58.7598 112.88C59.9922 112.196 60.9103 111.059 61.3198 109.71C62.4345 105.751 64.1188 101.975 66.3198 98.5C70.0398 92.93 75.0998 90.18 81.7698 91.5C86.0798 92.34 88.9298 95.1 91.1298 98.65C93.0208 101.801 93.8155 105.49 93.3898 109.14C93.1498 111.88 93.1398 111.99 95.9098 112.74C97.6724 113.18 99.4748 113.441 101.29 113.52C103.54 113.65 105.79 113.58 108.04 113.52C110.76 113.52 111.2 113.07 111.22 110.27C111.22 105.11 111.22 99.95 111.22 94.79V91.89C113.914 91.5647 116.635 91.5144 119.34 91.74C119.524 92.8058 119.651 93.8806 119.72 94.96C119.72 99.37 119.72 103.78 119.72 108.19C119.703 108.937 119.726 109.685 119.79 110.43C119.782 110.936 119.955 111.429 120.278 111.819C120.6 112.209 121.051 112.472 121.55 112.56C122.903 112.948 124.284 113.235 125.68 113.42C128.59 113.57 131.51 113.54 134.42 113.51C134.752 113.553 135.089 113.524 135.409 113.425C135.728 113.327 136.023 113.16 136.273 112.937C136.522 112.714 136.721 112.44 136.855 112.133C136.989 111.827 137.055 111.495 137.05 111.16C137.112 110.495 137.129 109.827 137.1 109.16C137.1 104.33 137.1 99.5 137.1 94.68C137.1 93.78 137.18 92.88 137.22 91.81H145.09C145.17 92.74 145.32 93.69 145.33 94.64C145.33 99.47 145.33 104.3 145.33 109.12C145.33 111.57 145.59 112.04 147.93 112.63C149.765 113.139 151.656 113.417 153.56 113.46C170.64 113.53 187.71 113.46 204.79 113.52C209.21 113.52 213.62 113.52 218.04 113.52C220.67 113.52 221.1 113.08 221.14 110.46C221.14 107.63 221.14 104.8 221.14 101.97L221.18 98.72ZM68.9998 111.13C70.9633 112.321 73.1436 113.112 75.4145 113.455C77.6854 113.798 80.0018 113.688 82.2298 113.13C82.8513 113.02 83.4443 112.787 83.9733 112.442C84.5023 112.098 84.9564 111.651 85.3084 111.127C85.6604 110.603 85.9031 110.014 86.0219 109.394C86.1407 108.774 86.1331 108.137 85.9998 107.52C85.5895 105.594 84.8558 103.751 83.8298 102.07C82.8838 100.678 81.4333 99.7087 79.7853 99.3671C78.1373 99.0256 76.4211 99.3386 74.9998 100.24C71.3198 102.82 69.7998 106.64 68.9998 111.13Z" fill="white"/>
<path d="M611.881 111C615.371 112.94 618.761 113.13 622.181 113.14C622.687 113.193 623.195 113.05 623.6 112.742C624.005 112.434 624.277 111.982 624.361 111.48C624.619 110.615 624.77 109.722 624.811 108.82C624.861 104.07 624.811 99.33 624.811 94.59V91.59C627.545 91.3078 630.298 91.2609 633.041 91.45V94.67C633.041 99.08 633.041 103.5 633.041 107.91C633.041 110.91 633.791 111.91 636.801 112.4C639.104 112.74 641.424 112.95 643.751 113.03C645.661 113.12 647.581 113.03 649.491 113.03C649.72 113.067 649.954 113.049 650.175 112.979C650.396 112.908 650.597 112.787 650.763 112.625C650.928 112.462 651.053 112.263 651.127 112.043C651.202 111.824 651.223 111.59 651.191 111.36C651.191 110.36 651.191 109.36 651.191 108.36C651.191 95.3733 651.191 82.39 651.191 69.41C651.191 68.67 651.271 67.93 651.321 67C654.091 66.25 656.791 66.76 659.391 66.68C660.061 68.68 660.311 116.63 659.721 121.22C658.901 121.29 658.011 121.44 657.131 121.44C652.301 121.44 647.461 121.37 642.631 121.44C639.026 121.651 635.439 120.802 632.311 119C632.159 118.863 631.982 118.758 631.789 118.691C631.596 118.623 631.392 118.595 631.189 118.607C630.985 118.619 630.785 118.671 630.602 118.761C630.419 118.851 630.255 118.976 630.121 119.13C629.174 120.006 628.05 120.668 626.825 121.072C625.6 121.476 624.303 121.612 623.021 121.47C620.111 121.36 617.171 121.66 614.381 120.56C612.851 119.95 611.381 119.32 609.631 118.63C609.181 119.025 608.699 119.383 608.191 119.7C607.031 120.31 605.841 121.27 604.641 121.31C599.861 121.47 594.971 122.2 590.491 119.63C590.076 119.345 589.574 119.213 589.073 119.256C588.571 119.3 588.1 119.517 587.741 119.87C586.155 121.107 584.167 121.713 582.161 121.57C560.501 121.57 538.834 121.57 517.161 121.57C512.611 121.57 509.341 119.81 507.551 115.57C507.282 114.97 507.103 114.333 507.021 113.68C506.871 111.78 506.721 109.86 506.721 107.95C506.721 95.47 506.721 82.9867 506.721 70.5C506.721 69.35 506.851 68.2 506.931 66.87H514.931C515.001 67.87 515.141 68.71 515.141 69.59C515.141 82.41 515.141 95.2267 515.141 108.04C515.141 108.54 515.141 109.04 515.141 109.54C515.251 112.01 515.881 112.67 518.281 112.67C538.691 112.67 559.101 112.67 579.501 112.67C581.911 112.67 582.921 111.57 582.911 109.2C582.911 106.54 582.911 103.88 582.911 101.2C582.911 100.38 582.911 99.56 582.911 98.55H591.071C591.221 102.63 591.071 106.68 591.161 110.7C591.614 111.25 592.179 111.697 592.819 112.011C593.459 112.325 594.158 112.499 594.871 112.52C596.611 112.66 598.351 112.95 600.091 112.97C602.781 112.97 603.181 112.62 603.211 109.97C603.271 105.97 603.211 101.97 603.211 97.97C603.211 95.42 603.371 95.28 605.891 95.24C607.791 95.24 609.691 95.24 611.891 95.24L611.881 111Z" fill="white"/>
<path d="M903.07 117.62C900.42 121.71 896.39 121.7 892.2 121.62C888.66 121.54 885.2 121.29 882.12 119.41C881.751 119.137 881.293 119.012 880.837 119.063C880.381 119.113 879.96 119.333 879.66 119.68C877.99 121.081 875.832 121.764 873.66 121.58C870.58 121.5 867.49 121.58 864.41 121.58C861.736 121.667 859.089 121.017 856.76 119.7C856.232 119.291 855.57 119.094 854.904 119.147C854.238 119.201 853.616 119.502 853.16 119.99C851.815 121.136 850.073 121.707 848.31 121.58C835.897 121.58 823.49 121.58 811.09 121.58C807.91 121.635 804.791 120.706 802.16 118.92C801.719 118.536 801.149 118.331 800.564 118.346C799.98 118.361 799.421 118.594 799 119C796.768 120.627 794.082 121.512 791.32 121.53C786.32 121.59 781.32 121.58 776.32 121.58C775.875 121.537 775.433 121.46 775 121.35V113.41C776 113.36 776.88 113.27 777.77 113.26C781.18 113.26 784.6 113.32 788.01 113.26C789.669 113.204 791.319 112.996 792.94 112.64C795.44 112.11 796.46 110.14 795.55 107.75C794.652 105.161 793.24 102.78 791.4 100.75C789.47 98.75 787.4 96.75 785.4 94.81C784.88 94.3 784.33 93.81 783.68 93.2C785.195 91.2092 786.922 89.3886 788.83 87.77C789.51 87.11 790.24 87.41 790.83 87.95C795.71 92.44 800.2 97.27 802.67 103.55C803.23 105.449 803.602 107.398 803.78 109.37C803.87 109.94 803.89 110.52 803.95 111.09C806.327 112.525 809.077 113.221 811.85 113.09C823.01 113.16 834.17 113.09 845.33 113.09C848.2 113.09 848.8 112.44 848.81 109.51C848.81 104.44 848.81 99.36 848.81 94.28V91.54C851.564 91.3057 854.332 91.2823 857.09 91.47V94.37C857.09 99.2 857.09 104.03 857.09 108.85C857.09 110.96 857.6 111.76 859.57 112.29C863.89 113.45 868.33 113.23 872.73 113.04C874.22 112.98 874.79 112.04 874.81 110.18C874.81 105.27 874.81 100.36 874.81 95.46V91.55H883.03C883.1 92.7 883.2 93.67 883.2 94.65C883.2 99.31 883.2 103.97 883.2 108.65C883.2 111.33 883.8 112.09 886.38 112.53C888.337 112.902 890.319 113.126 892.31 113.2C897 113.3 898.6 111.82 899.81 107.33C901.041 102.161 903.793 97.4797 907.71 93.89C914.37 88.04 923.81 90.89 927.91 96.45C929.449 98.5271 930.489 100.931 930.949 103.475C931.409 106.02 931.275 108.636 930.56 111.12C928.26 120.12 920.41 123.42 912.8 122.12C908.66 121.3 906.93 120.4 903.07 117.62ZM906.79 110.97C911.79 113.62 916.61 114.16 920.56 112.66C921.523 112.39 922.363 111.797 922.942 110.982C923.521 110.167 923.802 109.178 923.74 108.18C923.631 106.7 923.294 105.246 922.74 103.87C921.17 99.77 916.45 97.66 913.08 99.77C909.06 102.3 907.45 106.36 906.79 111V110.97Z" fill="white"/>
<path d="M347.12 113.48V67.48C349.524 67.1317 351.961 67.0713 354.38 67.3C355.25 67.3 355.67 67.98 355.73 68.82C355.73 69.48 355.73 70.15 355.73 70.82C355.73 86.7133 355.73 102.603 355.73 118.49V118.99C355.67 121.85 355.41 122.12 352.55 122.13C347.97 122.13 343.39 122.13 338.81 122.13C335.12 122.13 331.52 121.66 328.26 119.68C327.683 119.419 327.079 119.222 326.46 119.09C324.03 122.09 320.67 122.5 317.04 122.46C307.38 122.37 297.72 122.46 288.04 122.46H285.18V113.73C287.86 113.73 290.48 113.67 293.11 113.66C295.74 113.65 298.22 113.66 301.03 113.66V81.83C303.467 81.4123 305.951 81.3349 308.41 81.6C308.84 81.6 309.41 82.35 309.61 82.86C309.757 83.5937 309.794 84.3453 309.72 85.09C309.72 93.41 309.72 101.743 309.72 110.09C309.72 111.15 309.85 112.2 309.93 113.49C312.78 113.49 315.42 113.55 318.06 113.49C319.22 113.49 319.76 112.49 319.93 111.49C320.016 110.747 320.043 109.998 320.01 109.25V67.24C322.61 67.24 324.92 67.24 327.22 67.24C327.452 67.2251 327.684 67.2626 327.9 67.3497C328.115 67.4368 328.308 67.5713 328.465 67.7432C328.621 67.9151 328.737 68.12 328.804 68.3428C328.871 68.5655 328.886 68.8004 328.85 69.03C328.85 69.7 328.85 70.36 328.85 71.03C328.85 83.51 328.85 95.99 328.85 108.47C328.85 111.59 328.85 111.62 331.85 112.73C332.762 113.117 333.731 113.354 334.72 113.43C338.82 113.53 342.8 113.48 347.12 113.48Z" fill="white"/>
<path d="M465.74 121.66H463.06C450.32 121.66 437.57 121.66 424.83 121.66C422.36 121.66 419.78 121.95 417.48 120.72C416.225 120.122 415.098 119.287 414.16 118.26C413.16 117.08 412.34 117.15 411.16 117.57C409.614 118.16 408.022 118.625 406.4 118.96C401.94 119.71 397.68 118.96 394.21 115.96C389.1 111.6 388.57 104.23 393.58 98.5C396.67 94.97 400.86 93.12 405.14 91.5C406.997 90.7717 408.897 90.1605 410.83 89.67C411.413 89.5972 411.945 89.3035 412.318 88.8494C412.69 88.3953 412.873 87.8156 412.83 87.23C412.914 86.5024 413.044 85.7809 413.22 85.07C415.49 85.07 417.63 85.07 419.78 85.07C420.78 85.07 421.27 85.65 421.25 86.66C421.23 87.67 421.25 88.5 421.25 89.41C421.25 95.98 421.3 102.56 421.25 109.13C421.25 111.66 422.08 112.74 424.81 112.62C428.05 112.47 431.31 112.62 434.55 112.55C435.35 112.55 436.14 112.43 436.71 112.38C436.5 109.82 436.12 107.55 436.16 105.29C436.29 98.65 439.34 93.69 445.42 90.97C452.06 87.97 460.13 90.05 463.57 95.3C465.009 97.3311 465.863 99.7175 466.04 102.2C466.25 108.35 466.15 114.51 466.16 120.66C466.058 121.008 465.917 121.343 465.74 121.66ZM458 108.58L458.28 108.52C457.88 106.42 457.55 104.31 457.06 102.23C456.862 101.458 456.489 100.742 455.968 100.138C455.448 99.5348 454.795 99.0596 454.06 98.75C452.487 98.0762 450.725 97.9816 449.089 98.4832C447.452 98.9849 446.046 100.05 445.12 101.49C442.87 105.49 444.44 109.8 447.03 111.49C449.11 112.81 451.43 112.93 453.74 113.06C457.85 113.29 457.96 113.13 457.96 109.06L458 108.58ZM412.77 103.06C412.77 101.73 412.83 100.4 412.77 99.06C412.71 97.72 412.34 97.25 410.91 97.48C409.433 97.7053 407.982 98.0805 406.58 98.6C404.12 99.6 401.58 100.5 399.83 102.6C398.7 103.96 397.77 105.48 398.51 107.35C398.821 108.213 399.37 108.97 400.094 109.533C400.818 110.096 401.687 110.442 402.6 110.53C405.395 111.006 408.267 110.701 410.9 109.65C411.45 109.466 411.928 109.112 412.264 108.64C412.6 108.167 412.777 107.6 412.77 107.02C412.78 105.72 412.74 104.39 412.74 103.06H412.77Z" fill="white"/>
<path d="M923.29 188.41L917 199.18C916.34 200.31 915.7 201.46 915 202.58C913.63 204.78 911 204.9 909.63 202.71C907.03 198.62 904.55 194.46 901.99 190.34C901.558 189.698 901.09 189.08 900.59 188.49L900.06 188.66C900.06 189.95 900.06 191.24 899.95 192.52C899.58 200.32 899.21 208.12 898.82 216.26C896.65 216.26 894.52 216.33 892.39 216.26C891.49 216.26 891.17 215.56 891.23 214.68C891.7 206.68 892.23 198.76 892.61 190.8C892.85 186.15 892.91 181.49 893.06 176.8C893.16 173.35 893.19 173.6 896.53 173.27C899.87 172.94 901.53 174.21 903.06 177.09C905.86 182.46 909.11 187.6 912.41 193.23C913.68 191.14 914.82 189.37 915.86 187.55C918.27 183.34 920.63 179.11 923.01 174.88C923.216 174.382 923.575 173.963 924.035 173.682C924.495 173.402 925.033 173.275 925.57 173.32C927.38 173.41 929.19 173.32 931.24 173.32C931.44 174.81 931.7 176.02 931.75 177.23C931.87 180.23 931.84 183.23 931.97 186.23C932.34 195.11 932.77 204 933.16 212.88C933.16 213.88 933.16 214.81 933.16 215.94H925.9C925.64 213.49 925.26 211.12 925.15 208.74C924.95 204.26 924.92 199.74 924.8 195.28C924.773 192.979 924.488 190.688 923.95 188.45L923.29 188.41Z" fill="white"/>
<path d="M563.18 188.16C562.744 188.539 562.351 188.964 562.01 189.43C559.63 193.43 557.32 197.53 554.93 201.56C554.497 202.441 553.88 203.219 553.12 203.84C552.766 204.052 552.373 204.189 551.964 204.242C551.555 204.295 551.14 204.263 550.744 204.149C550.348 204.034 549.98 203.84 549.663 203.577C549.345 203.313 549.086 202.988 548.9 202.62C546.24 198.37 543.65 194.09 541.03 189.82C540.87 189.574 540.693 189.34 540.5 189.12C539.11 189.2 539.27 190.12 539.24 190.95C539.14 193.86 539.14 196.78 539 199.68C538.73 204.91 538.39 210.13 538.07 215.36C538.01 215.644 537.916 215.919 537.79 216.18H531.21C530.46 212.68 532.07 177.04 533.21 173.41C535.09 173.41 537.07 173.41 539.04 173.41C540.1 173.41 540.59 174.16 541.04 175C544.04 180.12 547.04 185.22 549.98 190.33L551.51 192.95C552.058 192.459 552.553 191.913 552.99 191.32C555.99 186.14 559.07 180.99 561.89 175.71C562.89 173.88 563.97 173.17 565.95 173.37C567.49 173.52 569.05 173.46 570.77 173.49C570.84 174.71 570.91 175.6 570.94 176.49C571.38 187.12 571.79 197.75 572.25 208.37C572.33 210.2 572.69 212.01 572.81 213.83C572.93 215.65 572.58 216.07 570.76 216.13C568.94 216.19 567.14 216.13 565.34 216.13C563.94 206.72 564.09 197.51 563.75 188.34L563.18 188.16Z" fill="white"/>
<path d="M764.759 101.2C761.759 100.2 759.059 99.14 756.149 99.53C754.478 99.6355 752.914 100.389 751.789 101.63C750.919 102.63 750.679 103.69 751.589 104.76C752.473 105.85 753.421 106.885 754.429 107.86C756.069 109.37 757.819 110.77 759.489 112.25C764.049 116.25 763.949 121.14 761.389 125.94C758.389 131.6 753.479 134.94 747.329 136.52C740.103 138.445 732.426 137.717 725.689 134.47C723.07 133.298 720.761 131.53 718.945 129.308C717.129 127.086 715.857 124.47 715.229 121.67C714.31 117.763 714.455 113.682 715.649 109.85C716.435 107.105 717.69 104.517 719.359 102.2C722.069 102.66 723.999 104.63 726.559 105.71C726.149 106.52 725.869 107.18 725.489 107.78C724.18 109.904 723.37 112.297 723.119 114.78C722.469 120.46 725.229 125.24 730.569 127.15C737.039 129.46 743.569 129.54 749.979 126.49C751.815 125.669 753.328 124.262 754.279 122.49C754.636 121.978 754.809 121.361 754.771 120.739C754.732 120.116 754.485 119.525 754.069 119.06C753.28 118.108 752.442 117.196 751.559 116.33C749.649 114.51 747.619 112.81 745.769 110.93C740.129 105.21 742.769 95.38 750.529 92.5C755.406 90.665 760.783 90.665 765.659 92.5C766.659 92.85 767.059 93.42 766.799 94.36C766.179 96.61 765.479 98.8 764.759 101.2Z" fill="white"/>
<path d="M334.13 186.71V215.47C332.046 215.921 329.898 215.992 327.79 215.68C327.28 215.68 326.71 214.8 326.42 214.21C326.284 213.643 326.261 213.056 326.35 212.48V176.53C326.35 176.04 326.35 175.53 326.35 175.04C326.35 174.04 326.79 173.44 327.81 173.42C329.81 173.42 331.81 173.33 333.81 173.5C334.38 173.55 335.04 174.23 335.42 174.78C339.02 179.993 342.593 185.22 346.14 190.46C348.5 193.94 350.84 197.46 353.21 200.9C353.583 201.476 354.091 201.953 354.69 202.29C355.12 192.67 354.96 183.15 355.08 173.29C357.3 173.29 359.36 173.29 361.41 173.29C361.619 173.266 361.831 173.291 362.03 173.362C362.228 173.433 362.407 173.549 362.553 173.701C362.699 173.853 362.808 174.037 362.872 174.238C362.936 174.439 362.952 174.652 362.92 174.86C362.92 175.27 362.92 175.69 362.92 176.11V212.56C362.92 212.97 362.92 213.39 362.92 213.8C362.958 214.051 362.939 214.307 362.865 214.549C362.791 214.791 362.663 215.014 362.491 215.2C362.319 215.387 362.107 215.532 361.872 215.625C361.636 215.719 361.383 215.758 361.13 215.74C359.38 215.74 357.63 215.74 355.89 215.74C354.89 215.74 354.34 215.02 353.8 214.21C348.95 206.95 344.05 199.73 339.17 192.49C338.17 190.99 337.17 189.49 336.17 187.99C335.733 187.438 335.266 186.91 334.77 186.41L334.13 186.71Z" fill="white"/>
<path d="M656.55 216.13C654.42 216.13 652.18 216.26 649.99 216.05C649.146 215.787 648.432 215.216 647.99 214.45C642.3 206.07 636.67 197.66 630.99 189.26C630.5 188.53 629.99 187.84 629.4 187.06C628.03 187.85 628.4 189.06 628.4 190.06C628.4 197.13 628.4 204.2 628.4 211.28C628.4 212.19 628.4 213.11 628.4 214.02C628.311 214.694 628.181 215.362 628.01 216.02H621.21C621.057 215.318 620.957 214.606 620.91 213.89C620.91 200.997 620.91 188.103 620.91 175.21C620.91 174.72 620.99 174.21 621.07 173.44C623.45 173.44 625.76 173.33 628.07 173.5C628.846 173.725 629.507 174.236 629.92 174.93C634.36 181.47 638.73 188.04 643.13 194.6C644.87 197.18 646.64 199.73 648.46 202.4C649.46 201.61 649.12 200.65 649.13 199.83C649.13 192.09 649.13 184.36 649.13 176.62V173.7C651.73 173.17 654.19 173.48 656.59 173.45C657.13 175.4 657.2 213.43 656.55 216.13Z" fill="white"/>
<path d="M777.419 172.3C780.344 172.286 783.241 172.858 785.941 173.982C788.641 175.106 791.088 176.759 793.139 178.844C795.189 180.929 796.801 183.403 797.88 186.121C798.959 188.84 799.482 191.746 799.419 194.67C799.309 208.02 789.169 217.19 777.489 217.22C765.639 217.22 755.619 207.79 755.559 194.73C755.459 181.25 766.289 172 777.419 172.3ZM790.999 194.58C791.087 191.663 790.345 188.782 788.859 186.27C787.552 183.845 785.501 181.904 783.007 180.734C780.513 179.564 777.71 179.226 775.009 179.77C768.009 181.29 764.939 186.71 764.079 192.58C763.619 196.043 764.323 199.56 766.079 202.58C766.936 204.243 768.148 205.698 769.629 206.841C771.11 207.984 772.825 208.787 774.651 209.194C776.478 209.6 778.371 209.6 780.197 209.193C782.024 208.786 783.738 207.983 785.219 206.84C789.199 203.75 790.649 199.43 790.999 194.58Z" fill="white"/>
<path d="M50.2801 216.07C49.3701 216.18 48.8101 216.29 48.2801 216.3C46.3801 216.3 44.4801 216.3 42.6401 216.3C42.0701 214.3 41.8701 178 42.3701 173.59H50.2502V190.24C57.3502 190.32 64.1202 190.3 71.1402 190.24V173.59H79.0001V216H71.2801C71.2001 215.09 71.0602 214.21 71.0502 213.33C71.0502 209.26 71.0502 205.18 71.0502 201.1C71.0502 198.31 70.7901 198.02 68.1301 198.01C63.0501 198.01 57.9701 198.01 52.8902 198.01C52.0902 198.01 51.2902 198.16 50.2902 198.26L50.2801 216.07Z" fill="white"/>
<path d="M283.88 173.54C283.94 174.54 284.03 175.27 284.03 176C284.03 188.387 284.03 200.773 284.03 213.16C284.03 213.66 284.03 214.16 284.03 214.66C284.044 214.849 284.018 215.04 283.954 215.218C283.889 215.397 283.787 215.559 283.655 215.696C283.522 215.832 283.362 215.938 283.186 216.008C283.009 216.078 282.82 216.109 282.63 216.1C280.57 216.1 278.52 216.1 276.25 216.1C276.18 214.96 276.07 214.1 276.07 213.18C276.07 208.86 276.07 204.54 276.07 200.18C276.07 198.36 275.8 197.97 274.17 197.96C268.17 197.91 262.17 197.96 256.17 197.96C255.824 198.027 255.488 198.138 255.17 198.29V216.02H247.17V173.32H255.01V189.77C257.65 190.41 273.61 190.37 275.91 189.72V173.55C278.561 173.314 281.228 173.311 283.88 173.54Z" fill="white"/>
<path d="M838.891 216.07C836.101 216.07 833.54 216.2 831 215.99C830.35 215.93 829.601 214.92 829.211 214.18C827.711 211.36 826.35 208.46 824.91 205.6C823.91 203.6 822.78 201.52 821.68 199.41H816C815.93 200.23 815.831 200.94 815.831 201.66C815.831 205.66 815.831 209.66 815.831 213.66C815.831 215.92 815.62 216.11 813.44 216.17C811.78 216.17 810.13 216.17 808.24 216.17C808.107 215.389 808.02 214.601 807.98 213.81C808.04 201.417 808.114 189.023 808.201 176.63C808.201 176.04 808.2 175.46 808.29 174.88C808.281 174.67 808.318 174.461 808.398 174.267C808.479 174.074 808.602 173.9 808.758 173.76C808.914 173.619 809.099 173.515 809.3 173.454C809.501 173.394 809.713 173.379 809.92 173.41H810.67C815 173.41 819.33 173.32 823.67 173.47C826.465 173.43 829.199 174.287 831.47 175.915C833.742 177.543 835.432 179.857 836.292 182.516C837.152 185.175 837.138 188.04 836.25 190.69C835.362 193.34 833.649 195.635 831.36 197.24C829.76 198.35 829.771 198.37 830.701 200.11C833.274 204.89 835.841 209.67 838.401 214.45C838.607 214.976 838.771 215.518 838.891 216.07ZM816 192.44C818.58 192.44 820.901 192.54 823.201 192.44C824.657 192.305 826.016 191.649 827.028 190.593C828.04 189.537 828.637 188.151 828.711 186.69C828.951 184.11 826.661 180.87 823.951 180.56C821.287 180.393 818.616 180.373 815.951 180.5L816 192.44Z" fill="white"/>
<path d="M163.001 216.12C160.721 216.12 158.411 216.12 156.101 216.12C155.101 216.12 154.611 215.34 154.161 214.45C151.931 209.97 149.531 205.57 147.361 201.06C147.185 200.51 146.827 200.036 146.344 199.717C145.862 199.399 145.286 199.255 144.711 199.31L140.311 199.47V215.86C137.998 216.261 135.638 216.311 133.311 216.01C133.141 215.041 133.028 214.062 132.971 213.08C132.971 200.767 132.971 188.453 132.971 176.14C132.971 175.32 133.091 174.51 133.151 173.65C133.688 173.536 134.233 173.459 134.781 173.42C139.271 173.42 143.781 173.32 148.271 173.42C150.274 173.408 152.255 173.853 154.062 174.719C155.868 175.585 157.455 176.851 158.701 178.42C161.651 182.16 161.971 186.36 160.701 190.84C159.857 193.636 157.994 196.013 155.481 197.5C155.111 197.795 154.776 198.131 154.481 198.5C157.481 204.1 160.361 209.6 163.251 215.11C163.231 215.3 163.071 215.6 163.001 216.12ZM140.491 180.6V192.38C142.961 192.38 145.261 192.51 147.561 192.43C148.926 192.372 150.229 191.841 151.246 190.929C152.264 190.018 152.934 188.781 153.141 187.43C153.621 183.58 151.261 181.11 148.751 180.62C146.019 180.143 143.225 180.137 140.491 180.6Z" fill="white"/>
<path d="M873.74 173.63H881.74V176.55C881.74 183.95 881.74 191.357 881.74 198.77C881.705 201.846 881.129 204.893 880.04 207.77C879.372 209.694 878.278 211.441 876.839 212.882C875.399 214.323 873.653 215.42 871.73 216.09C869.065 217.192 866.192 217.698 863.311 217.574C860.429 217.45 857.61 216.697 855.05 215.37C853.281 214.471 851.717 213.215 850.457 211.681C849.197 210.148 848.269 208.37 847.73 206.46C847.13 204.568 846.829 202.594 846.84 200.61C846.84 192.37 846.86 184.13 846.9 175.89C846.9 175.23 846.96 174.57 847.01 173.62C849.646 173.363 852.299 173.333 854.94 173.53V176.38C854.94 183.873 854.94 191.363 854.94 198.85C854.887 201.425 855.526 203.966 856.79 206.21C856.875 206.443 856.989 206.665 857.13 206.87C860.05 210.08 863.85 209.87 867.57 209.23C870.57 208.76 872.57 206.23 872.98 202.91C873.36 199.95 873.59 196.973 873.67 193.99C873.78 188.17 873.67 182.34 873.67 176.51L873.74 173.63Z" fill="white"/>
<path d="M101.58 173.57H110C115.04 186.943 120.073 200.32 125.1 213.7C125.283 214.444 125.387 215.204 125.41 215.97C122.949 216.262 120.463 216.272 118 216C117.42 215.94 116.71 215 116.45 214.27C115.59 211.96 114.87 209.6 114.18 207.27C113.83 206.1 113.27 205.35 111.96 205.35C107.62 205.35 103.29 205.35 98.9596 205.35C98.5037 205.419 98.0595 205.55 97.6396 205.74C96.4396 209.19 95.2696 212.52 94.0696 215.97H86.4396C85.6996 213.97 87.1196 212.43 87.6596 210.82C88.9996 206.76 90.6596 202.82 92.1696 198.82C93.7496 194.67 95.3396 190.53 96.8896 186.38C98.4396 182.23 99.9996 178 101.58 173.57ZM106.03 182.93H105.41L100.32 198.16C103.906 198.689 107.552 198.662 111.13 198.08C110.13 195.27 109.25 192.81 108.42 190.32C107.59 187.83 106.82 185.41 106 182.93H106.03Z" fill="white"/>
<path d="M416.18 216.1V173.55H443V180.41H424.22V190.41H437.93C438.232 192.866 438.269 195.347 438.04 197.81C433.42 198.25 428.87 197.76 424.22 198.11V209C425.14 209.06 426.02 209.17 426.89 209.17C431.89 209.17 436.89 209.17 441.89 209.17C442.89 209.17 443.83 209.35 444.89 209.46V215.82C443 216.44 420.56 216.65 416.18 216.1Z" fill="white"/>
<path d="M583.119 173.51H609.939V180.34C603.759 180.61 597.559 180.34 591.179 180.51V190.38H604.879V197.63C600.399 198.45 595.819 197.5 591.169 198.2V209C592.229 209.05 593.169 209.13 594.019 209.13C598.929 209.13 603.849 209.13 608.759 209.13C609.759 209.13 610.689 209.33 611.759 209.44V216.15C602.189 216.46 592.759 216.2 583.139 216.3L583.119 173.51Z" fill="white"/>
<path d="M231.309 215.85C230.209 212.53 229.079 209.11 227.889 205.48C227.119 205.48 226.309 205.34 225.499 205.33C221.839 205.33 218.169 205.33 214.499 205.33C211.809 205.33 211.849 205.33 211.079 207.9C210.449 210.02 209.739 212.13 208.989 214.22C208.853 214.837 208.494 215.382 207.981 215.751C207.468 216.119 206.837 216.287 206.209 216.22C204.309 216.12 202.409 216.22 200.119 216.22C201.119 213.59 201.849 211.36 202.669 209.15C204.149 205.15 205.669 201.15 207.129 197.15C208.589 193.15 210.029 189.15 211.509 185.1C212.699 181.86 213.959 178.65 215.139 175.41C215.759 173.72 215.949 173.51 217.809 173.47C219.309 173.47 220.809 173.59 222.299 173.47C222.88 173.383 223.472 173.519 223.957 173.851C224.441 174.183 224.782 174.687 224.909 175.26C226.379 179.1 227.719 182.98 229.159 186.83C230.999 191.76 232.899 196.66 234.739 201.58C236.489 206.27 238.199 210.97 239.929 215.65C238.129 216.28 234.529 216.4 231.309 215.85ZM225.389 198.37C223.109 192.94 222.209 187.67 219.589 182.51C217.809 187.99 216.189 192.93 214.389 198.51C218.159 198.51 221.529 198.61 225.389 198.37Z" fill="white"/>
<path d="M24.8898 182.84C22.9798 181.79 21.3198 180.71 19.5298 179.94C18.5316 179.515 17.4504 179.32 16.3667 179.37C15.2829 179.421 14.2244 179.714 13.2698 180.23C12.5054 180.559 11.8442 181.089 11.3565 181.763C10.8689 182.437 10.5728 183.231 10.4998 184.06C10.4391 184.889 10.6337 185.717 11.0574 186.432C11.4811 187.147 12.1135 187.715 12.8698 188.06C14.9909 188.986 17.185 189.736 19.4298 190.3C22.9298 191.22 26.2198 192.41 28.6898 195.23C29.9873 196.682 30.9236 198.419 31.4223 200.301C31.9211 202.183 31.9682 204.156 31.5598 206.06C30.5598 211.87 26.7798 215.06 21.2698 216.5C14.9698 218.16 9.26977 216.63 4.00977 213.14C2.55977 212.14 1.46977 210.65 0.00976562 209.14L5.56977 204.04C6.56977 204.87 7.35976 205.55 8.14977 206.26C9.5509 207.569 11.2366 208.534 13.0742 209.081C14.9118 209.627 16.8512 209.74 18.7398 209.41C19.6061 209.306 20.4365 209.002 21.1658 208.523C21.8951 208.044 22.5035 207.402 22.9433 206.648C23.3831 205.895 23.6423 205.049 23.7007 204.179C23.7591 203.308 23.615 202.436 23.2798 201.63C22.4798 199.63 20.6498 198.93 18.8498 198.35C16.4898 197.59 14.0498 197.05 11.6598 196.35C8.94704 195.665 6.54656 194.081 4.8502 191.856C3.15385 189.631 2.26183 186.897 2.31977 184.1C2.43977 179.2 4.73977 175.43 9.31977 173.61C12.1477 172.363 15.2434 171.845 18.3234 172.103C21.4034 172.362 24.3693 173.389 26.9498 175.09C27.4398 175.41 27.8598 175.8 28.3198 176.15C28.7798 176.5 29.5098 177.05 30.0098 177.43C28.7492 179.609 26.9956 181.461 24.8898 182.84Z" fill="white"/>
<path d="M451.15 209L456.71 204.12C457.53 204.8 458.31 205.37 459 206.03C460.36 207.382 462.016 208.401 463.836 209.004C465.656 209.608 467.592 209.781 469.49 209.51C470.693 209.387 471.835 208.919 472.777 208.161C473.72 207.403 474.422 206.389 474.8 205.24C475.156 204.122 475.089 202.913 474.614 201.841C474.139 200.768 473.287 199.907 472.22 199.42C470.261 198.537 468.222 197.844 466.13 197.35C462.55 196.46 459.08 195.45 456.52 192.55C455.352 191.255 454.497 189.708 454.022 188.03C453.546 186.351 453.464 184.586 453.78 182.87C454.71 177.08 458.34 173.43 464.22 172.53C468.63 171.86 473.05 172.02 477.04 174.41C478.269 175.237 479.435 176.153 480.53 177.15C481.37 177.85 481.23 178.57 480.47 179.24C479.47 180.13 478.47 181.04 477.47 181.89C476.13 183 475.82 183.04 474.47 181.97C472.366 180.163 469.638 179.252 466.87 179.43C465.89 179.533 464.931 179.789 464.03 180.19C463.203 180.481 462.483 181.012 461.96 181.716C461.438 182.42 461.139 183.264 461.1 184.14C461.058 185.019 461.293 185.888 461.772 186.626C462.251 187.364 462.95 187.932 463.77 188.25C465.828 189.117 467.951 189.819 470.12 190.35C473.19 191.18 476.18 192.14 478.53 194.41C480.442 196.139 481.708 198.466 482.12 201.01C483.61 211.01 477.32 216.08 469.32 217.07C462.73 217.88 457.1 215.42 452.4 210.82C451.934 210.249 451.516 209.64 451.15 209Z" fill="white"/>
<path d="M385.31 216.15C380.2 202.36 375.16 188.74 370.14 175.15C370.037 174.593 370.003 174.025 370.04 173.46C372.57 173.46 374.96 173.38 377.34 173.52C377.69 173.572 378.023 173.706 378.311 173.911C378.6 174.116 378.836 174.387 379 174.7C380.48 178.88 381.79 183.12 383.23 187.32C384.71 191.67 386.28 196 387.8 200.32C388.32 201.79 388.8 203.26 389.49 205.22C390.13 203.83 390.67 202.87 391.03 201.84C393.03 196.1 395.007 190.353 396.96 184.6C398.04 181.41 399.14 178.22 400.09 174.99C400.41 173.93 400.88 173.39 401.94 173.38H408.99C408.17 175.76 407.5 177.82 406.75 179.86C405.25 183.94 403.7 188.01 402.18 192.09C400.66 196.17 399.03 200.56 397.48 204.79C396.353 207.877 395.24 210.97 394.14 214.07C393.57 215.71 393.2 216.07 391.49 216.07C389.45 216.19 387.47 216.15 385.31 216.15Z" fill="white"/>
<path d="M732.201 216.29C729.741 216.29 727.761 216.29 725.771 216.29C725.562 216.312 725.35 216.287 725.152 216.217C724.954 216.147 724.774 216.033 724.626 215.885C724.477 215.736 724.364 215.556 724.294 215.358C724.224 215.16 724.199 214.949 724.221 214.74C724.221 214.16 724.221 213.58 724.221 213V176.56C724.221 175.98 724.221 175.39 724.221 174.81C724.221 173.88 724.781 173.48 725.641 173.42C726.051 173.42 726.471 173.42 726.891 173.42C734.291 173.42 741.701 173.42 749.111 173.42C749.911 173.42 750.721 173.55 751.661 173.63V180.19C750.601 180.29 749.661 180.45 748.661 180.45C744.081 180.45 739.511 180.45 734.931 180.45C732.411 180.45 732.221 180.66 732.191 183.13C732.191 185.21 732.191 187.29 732.191 189.37C732.191 191.19 732.541 191.53 734.421 191.56C737.661 191.61 740.911 191.56 744.161 191.56C746.741 191.56 746.881 191.69 746.851 194.23C746.851 199 747.691 198.95 742.151 198.93C739.661 198.93 737.151 198.93 734.661 198.93C732.551 198.93 732.201 199.33 732.181 201.44C732.181 205.35 732.181 209.26 732.181 213.16L732.201 216.29Z" fill="white"/>
<path d="M502.09 216.12C502.02 214.79 501.93 213.81 501.93 212.83C501.93 203.27 501.93 193.707 501.93 184.14C501.93 183.56 501.93 182.97 501.93 182.39C501.83 180.76 501.64 180.51 500 180.47C497.26 180.41 494.51 180.47 491.76 180.47C486.65 180.47 487.35 180.55 487.32 176.03C487.32 173.56 487.44 173.42 489.8 173.42C500.54 173.42 511.277 173.42 522.01 173.42C522.59 173.42 523.16 173.51 523.91 173.58V180.28C519.43 180.76 514.91 180.21 510.12 180.6C510.07 181.68 509.98 182.6 509.98 183.6C509.98 193.247 509.98 202.897 509.98 212.55C509.98 213.21 509.98 213.88 509.98 214.55C510.003 214.76 509.979 214.972 509.91 215.171C509.842 215.37 509.73 215.552 509.582 215.703C509.435 215.854 509.257 215.971 509.059 216.044C508.862 216.118 508.65 216.147 508.44 216.13C506.41 216.14 504.43 216.12 502.09 216.12Z" fill="white"/>
<path d="M686.999 180.61V215.56C685.059 216.27 682.509 216.37 679.169 215.89C679.169 214.99 679.009 214.03 679.009 213.07C679.009 203.257 679.009 193.45 679.009 183.65V180.47H665.159C664.729 178.184 664.671 175.844 664.989 173.54H700.899V180.24C696.419 180.77 691.869 180.17 686.999 180.61Z" fill="white"/>
<path d="M674.439 66.73C676.659 66.73 678.969 66.65 681.259 66.79C681.709 66.79 682.259 67.54 682.499 68.07C682.673 68.7963 682.727 69.5463 682.659 70.29C682.659 86.29 682.659 102.27 682.659 118.23C682.659 118.81 682.659 119.39 682.659 119.97C682.678 120.18 682.651 120.391 682.582 120.59C682.512 120.788 682.4 120.97 682.254 121.121C682.108 121.273 681.931 121.392 681.735 121.469C681.539 121.546 681.329 121.581 681.119 121.57C678.889 121.57 676.659 121.57 674.509 121.57C673.879 119.26 673.849 69.31 674.439 66.73Z" fill="white"/>
<path d="M167.93 211L173.38 206.14C175.5 207.87 177.32 209.31 179.91 209.55C180.853 209.659 181.808 209.564 182.711 209.273C183.615 208.981 184.445 208.499 185.146 207.86C185.848 207.22 186.404 206.437 186.777 205.564C187.15 204.692 187.332 203.749 187.31 202.8C187.12 194.08 187.26 185.34 187.26 176.62V174C189.82 173.268 192.523 173.193 195.12 173.78C195.12 174.37 195.28 175.01 195.28 175.65C195.28 185.21 195.28 194.77 195.28 204.33C195.28 208.79 193.65 212.48 189.95 214.92C186.388 217.139 182.102 217.885 178 217C175.026 216.584 172.242 215.296 170 213.3C169.271 212.569 168.58 211.801 167.93 211Z" fill="white"/>
<path d="M7.32979 129.59C9.32979 129 11.3298 128.51 13.2398 127.81C14.7533 127.337 16.0662 126.373 16.9716 125.072C17.8769 123.77 18.3231 122.203 18.2398 120.62C18.2998 112.227 18.3465 103.83 18.3798 95.43C18.3798 91.59 18.3798 91.59 22.1998 91.59H26.9098C26.9998 92.59 27.1198 93.43 27.1198 94.23C27.1198 101.88 27.2198 109.53 27.1198 117.17C27.1605 121.238 26.177 125.251 24.2598 128.84C23.1971 130.713 21.7612 132.347 20.0411 133.643C18.321 134.938 16.3533 135.866 14.2598 136.37C12.742 136.812 11.1948 137.146 9.62979 137.37C7.90979 137.59 7.48979 137.23 7.40979 135.55C7.25979 133.57 7.32979 131.59 7.32979 129.59Z" fill="white"/>
<path d="M474.409 137.14C472.699 134.29 473.149 131.64 473.109 129.02C475.109 128.5 476.949 128.1 478.749 127.55C480.244 127.181 481.582 126.343 482.566 125.159C483.55 123.975 484.13 122.507 484.219 120.97C485.219 112.97 484.519 104.97 484.729 97.04C484.729 95.31 484.729 93.57 484.729 91.93C487.399 91.2225 490.198 91.1539 492.899 91.73C492.981 92.1056 493.034 92.4866 493.059 92.87C493.059 101.35 493.119 109.87 492.979 118.31C492.924 121.963 491.94 125.542 490.119 128.71C488.365 131.757 485.548 134.049 482.209 135.15C479.739 136 477.109 136.47 474.409 137.14Z" fill="white"/>
<path d="M308.15 216.16V173.56H315.8C315.87 174.43 315.98 175.15 315.98 175.87C315.98 188.337 315.98 200.8 315.98 213.26C315.98 215.91 315.77 216.12 313.17 216.16C311.61 216.18 310 216.16 308.15 216.16Z" fill="white"/>
<path d="M862.92 79C862.915 80.0612 862.559 81.0909 861.908 81.9289C861.257 82.7669 860.347 83.3661 859.32 83.6331C858.293 83.9001 857.207 83.82 856.23 83.4053C855.253 82.9905 854.441 82.2644 853.92 81.34C853.05 79.9 852.79 79.9 851.92 81.34C851.338 82.3067 850.446 83.0483 849.39 83.4441C848.333 83.8399 847.174 83.8666 846.1 83.52C845.168 83.1874 844.362 82.5742 843.792 81.7649C843.223 80.9555 842.918 79.9896 842.92 79C842.921 77.934 843.278 76.8989 843.935 76.0594C844.592 75.2198 845.511 74.624 846.545 74.3665C847.58 74.109 848.671 74.2047 849.645 74.6384C850.618 75.0721 851.419 75.8189 851.92 76.76C852.7 78.06 853.09 78.06 853.86 76.76C854.346 75.7411 855.193 74.9388 856.237 74.5084C857.281 74.078 858.447 74.05 859.51 74.43C860.505 74.7051 861.38 75.3035 861.998 76.131C862.615 76.9584 862.94 77.9678 862.92 79Z" fill="white"/>
<path d="M140.94 80.28C139.24 83.37 137.15 84.71 135.01 84.18C133.921 83.9282 132.946 83.3223 132.239 82.4573C131.531 81.5924 131.131 80.5171 131.1 79.4C131.098 78.3654 131.418 77.3559 132.014 76.5105C132.61 75.6651 133.454 75.0256 134.43 74.68C137.01 73.87 138.89 74.94 141.02 78.58C141.45 77.99 141.84 77.58 142.14 77.03C142.638 76.0642 143.454 75.3 144.451 74.8664C145.448 74.4327 146.563 74.3563 147.61 74.65C148.594 74.9698 149.459 75.5787 150.093 76.3975C150.726 77.2162 151.098 78.2068 151.16 79.24C151.165 80.3632 150.792 81.4554 150.101 82.3407C149.41 83.2259 148.44 83.8527 147.35 84.12C145.35 84.69 143.35 83.76 142.13 81.75C141.761 81.238 141.364 80.7472 140.94 80.28Z" fill="white"/>
<path d="M410.79 76.54C411.28 75.83 411.71 75.28 412.06 74.69C412.598 73.698 413.474 72.9323 414.53 72.5322C415.585 72.132 416.749 72.1242 417.81 72.51C418.822 72.8744 419.687 73.5607 420.273 74.4638C420.858 75.3669 421.131 76.437 421.05 77.51C420.948 78.5844 420.482 79.5918 419.729 80.3648C418.976 81.1379 417.981 81.6302 416.91 81.76C414.55 82.08 413.19 81.33 411.91 79.08C411.512 78.5186 411.078 77.9841 410.61 77.48C410.12 79.35 409.36 80.88 407.72 81.38C406.532 81.7194 405.281 81.7708 404.07 81.53C402.07 81.14 400.94 79.15 401.02 76.78C401.018 75.7865 401.346 74.8205 401.952 74.0333C402.558 73.2461 403.409 72.6823 404.37 72.43C407.29 71.81 409.06 72.87 410.79 76.54Z" fill="white"/>
<path d="M456.109 83.67C454.815 83.6804 453.562 83.2208 452.582 82.3766C451.601 81.5323 450.961 80.3609 450.779 79.08C450.629 76.75 453.439 74.08 456.059 74.08C457.321 74.0926 458.532 74.582 459.448 75.45C460.364 76.318 460.918 77.5005 460.999 78.76C461.007 79.4053 460.886 80.0458 460.644 80.6438C460.401 81.2418 460.041 81.7854 459.586 82.2426C459.131 82.6999 458.589 83.0617 457.992 83.3068C457.394 83.5519 456.755 83.6754 456.109 83.67Z" fill="white"/>
<path d="M602.87 83.67C602.228 83.7046 601.585 83.6037 600.985 83.3737C600.384 83.1437 599.839 82.7899 599.384 82.3352C598.93 81.8805 598.576 81.3352 598.346 80.7347C598.116 80.1343 598.015 79.4921 598.05 78.85C598.068 77.5987 598.575 76.4042 599.463 75.5221C600.351 74.64 601.548 74.1403 602.8 74.13C605.41 74.07 608.21 76.62 608.16 79C608.11 81.38 605.46 83.67 602.87 83.67Z" fill="white"/>
<path d="M120.33 74.52C121.613 74.5661 122.829 75.1036 123.726 76.0213C124.623 76.9391 125.133 78.1667 125.15 79.45C125.06 80.7312 124.5 81.9339 123.577 82.8272C122.654 83.7205 121.434 84.2414 120.15 84.29C117.71 84.29 115.06 81.67 115.28 79.29C115.5 76.91 117.61 74.29 120.33 74.52Z" fill="white"/>
<path d="M608.09 73.8C607.444 73.837 606.798 73.741 606.19 73.518C605.583 73.295 605.028 72.9497 604.559 72.5036C604.09 72.0574 603.718 71.5198 603.466 70.924C603.213 70.3283 603.085 69.6871 603.09 69.04C603.059 68.0642 603.318 67.101 603.836 66.273C604.353 65.4451 605.105 64.7898 605.996 64.3907C606.887 63.9915 607.877 63.8665 608.839 64.0315C609.802 64.1965 610.693 64.6441 611.4 65.3173C612.107 65.9905 612.598 66.8588 612.81 67.8119C613.022 68.7649 612.946 69.7595 612.591 70.6691C612.236 71.5786 611.619 72.3621 610.817 72.9196C610.016 73.4771 609.067 73.7836 608.09 73.8Z" fill="white"/>
<path d="M878.729 83.67C878.087 83.6892 877.447 83.5744 876.852 83.3331C876.256 83.0917 875.718 82.7291 875.27 82.2682C874.822 81.8073 874.475 81.2582 874.251 80.656C874.027 80.0537 873.931 79.4114 873.969 78.77C874.016 77.5196 874.547 76.3365 875.45 75.4706C876.353 74.6047 877.558 74.1239 878.809 74.13C880.104 74.1292 881.35 74.6312 882.282 75.5303C883.215 76.4294 883.762 77.6554 883.809 78.95C883.757 80.248 883.194 81.4728 882.242 82.3571C881.29 83.2413 880.027 83.7133 878.729 83.67Z" fill="white"/>
<path d="M119.381 69.61C119.415 70.2481 119.318 70.8865 119.094 71.4849C118.869 72.0834 118.524 72.629 118.079 73.0874C117.633 73.5458 117.098 73.9071 116.506 74.1485C115.915 74.3898 115.28 74.5061 114.641 74.49C111.871 74.49 110.041 72.49 110.081 69.49C110.047 68.8536 110.145 68.2172 110.367 67.6199C110.589 67.0227 110.931 66.4774 111.373 66.0177C111.814 65.558 112.345 65.1937 112.932 64.9473C113.52 64.7009 114.152 64.5777 114.789 64.5852C115.427 64.5928 116.055 64.7309 116.637 64.9911C117.219 65.2513 117.741 65.6281 118.171 66.0981C118.602 66.5681 118.931 67.1214 119.139 67.7237C119.347 68.326 119.429 68.9646 119.381 69.6V69.61Z" fill="white"/>
<path d="M618 79.06C618 81.91 616 83.73 613 83.67C612.376 83.6773 611.759 83.553 611.187 83.3053C610.615 83.0575 610.102 82.6919 609.681 82.2322C609.26 81.7726 608.94 81.2293 608.744 80.6379C608.547 80.0464 608.478 79.4202 608.54 78.8C608.524 78.1769 608.636 77.5573 608.869 76.9793C609.102 76.4012 609.451 75.8769 609.894 75.4385C610.337 75.0002 610.865 74.6571 611.445 74.4303C612.026 74.2036 612.647 74.098 613.27 74.12C616.08 74.13 618.4 76.58 618 79.06Z" fill="white"/>
<path d="M114.27 79.45C114.282 80.0872 114.166 80.7204 113.928 81.3118C113.69 81.9032 113.336 82.4407 112.886 82.8923C112.436 83.3439 111.9 83.7004 111.31 83.9405C110.72 84.1807 110.087 84.2995 109.45 84.29C108.833 84.278 108.225 84.1406 107.662 83.8862C107.1 83.6317 106.596 83.2656 106.179 82.8101C105.763 82.3545 105.444 81.8191 105.241 81.2363C105.038 80.6535 104.956 80.0355 105 79.42C105 76.42 106.83 74.5 109.62 74.52C110.258 74.5084 110.891 74.6302 111.479 74.8776C112.067 75.125 112.597 75.4925 113.035 75.9567C113.473 76.4208 113.809 76.9713 114.021 77.5729C114.234 78.1745 114.318 78.8138 114.27 79.45Z" fill="white"/>
<path d="M445.27 83.66C442.42 83.53 440.84 81.66 440.99 78.49C441.009 77.8681 441.156 77.2567 441.422 76.6945C441.689 76.1323 442.069 75.6314 442.539 75.2236C443.008 74.8157 443.558 74.5098 444.152 74.325C444.746 74.1402 445.372 74.0806 445.99 74.15C447.22 74.2809 448.351 74.884 449.144 75.8324C449.937 76.7807 450.332 78.0001 450.243 79.2334C450.155 80.4668 449.592 81.6177 448.671 82.4435C447.751 83.2693 446.546 83.7055 445.31 83.66H445.27Z" fill="white"/>
</g>
<defs>
<clipPath id="clip0_215_1013">
<rect width="1277.78" height="294.74" fill="white"/>
</clipPath>
</defs>
</svg>
