<svg width="170" height="58" viewBox="0 0 170 58" fill="none" xmlns="http://www.w3.org/2000/svg">
<path d="M4.2924 38.1592H0.890121V47.6579H4.22587C5.73219 47.6579 7.00566 47.1965 7.99879 46.288C8.99666 45.3795 9.5051 44.2332 9.5051 42.8824C9.5051 41.5315 9.01092 40.3948 8.03205 39.5005C7.05793 38.6111 5.79871 38.1592 4.2924 38.1592ZM6.51148 44.9657C5.94126 45.508 5.20949 45.7838 4.33516 45.7838H3.04743V40.0523H4.33516C5.20949 40.0523 5.94126 40.3234 6.51148 40.8656C7.07694 41.4031 7.3668 42.0928 7.3668 42.9157C7.3668 43.7385 7.07694 44.4235 6.51148 44.9657Z" fill="white"/>
<path d="M17.0749 43.7148C17.0749 44.3426 16.8991 44.8563 16.5475 45.2368C16.1959 45.6173 15.7302 45.8124 15.16 45.8124C14.5898 45.8124 14.1193 45.6221 13.763 45.2368C13.4066 44.8563 13.226 44.3426 13.226 43.7148V38.1592H11.0449V43.7814C11.0449 44.9895 11.4156 45.9693 12.1521 46.6971C12.8886 47.4248 13.877 47.7911 15.0887 47.7911C16.2957 47.7911 17.2888 47.4105 18.0491 46.6638C18.8046 45.917 19.1895 44.9229 19.1895 43.7148V38.1592H17.0749V43.7148Z" fill="white"/>
<path d="M27.3575 42.6826C27.7282 42.4733 28.0228 42.1927 28.2319 41.855C28.4647 41.484 28.5788 41.0654 28.5788 40.6135C28.5788 39.8953 28.2984 39.296 27.7472 38.8441C27.2007 38.3923 26.469 38.1592 25.5756 38.1592H21.3133V47.6579H25.8132C26.7351 47.6579 27.5001 47.401 28.0941 46.9016C28.688 46.3974 28.9922 45.76 28.9922 45.0038C28.9922 44.4568 28.8353 43.9716 28.5265 43.553C28.2414 43.1583 27.847 42.8681 27.3575 42.6826ZM26.0793 41.6742C25.8512 41.8788 25.5329 41.9834 25.1337 41.9834H23.4706V39.8478H25.1337C25.5281 39.8478 25.8465 39.9524 26.0793 40.1569C26.3074 40.3615 26.4214 40.6183 26.4214 40.9227C26.4262 41.2176 26.3122 41.4745 26.0793 41.6742ZM23.4753 43.5626H25.4473C25.8797 43.5626 26.2266 43.6767 26.4785 43.905C26.7351 44.1333 26.8586 44.414 26.8586 44.7564C26.8586 45.0989 26.7303 45.389 26.4785 45.6269C26.2266 45.8647 25.8797 45.9836 25.4473 45.9836H23.4753V43.5626Z" fill="white"/>
<path d="M35.4255 38.1592H33.3157L29.4668 47.6579H31.7239L32.4747 45.6839H36.1573L36.9081 47.6579H39.2745L35.4398 38.1925L35.4255 38.1592ZM35.5443 43.9573H33.0829L34.3231 40.7087L35.5443 43.9573Z" fill="white"/>
<path d="M42.6206 38.1592H40.411V47.6579H42.6206V38.1592Z" fill="white"/>
<path d="M52.3663 38.1592H48.2513V47.6579H50.4038V44.6803H52.295C53.3594 44.6803 54.2385 44.3664 54.9085 43.7528C55.5832 43.1392 55.9254 42.3449 55.9254 41.3936C55.9254 40.4328 55.5928 39.648 54.9418 39.0534C54.3003 38.4589 53.4307 38.1592 52.3663 38.1592ZM50.4086 39.9952H52.1667C52.6514 39.9952 53.0458 40.1331 53.3452 40.4043C53.6398 40.6754 53.7918 41.0274 53.7918 41.4459C53.7918 41.8645 53.6398 42.2165 53.3452 42.4876C53.0458 42.7587 52.6514 42.8967 52.1667 42.8967H50.4086V39.9952Z" fill="white"/>
<path d="M62.0507 38.0257C60.6489 38.0257 59.4514 38.5061 58.4868 39.4574C57.527 40.404 57.0375 41.5788 57.0375 42.9487C57.0375 44.3185 57.5127 45.4791 58.4535 46.4019C59.3944 47.3246 60.5824 47.7907 61.9841 47.7907C63.3859 47.7907 64.5834 47.3104 65.548 46.3686C66.5078 45.422 66.9972 44.2519 66.9972 42.8821C66.9972 41.5122 66.5221 40.3516 65.5812 39.4241C64.6404 38.4966 63.4524 38.0257 62.0507 38.0257ZM64.0464 44.9797C63.5094 45.5314 62.8299 45.8073 62.0269 45.8073C61.2143 45.8073 60.5301 45.5267 59.9979 44.9797C59.4657 44.4279 59.1948 43.7335 59.1948 42.9106C59.1948 42.0973 59.4657 41.4028 59.9979 40.8511C60.5301 40.2993 61.2143 40.0234 62.0269 40.0234C62.8299 40.0234 63.5094 40.3041 64.0464 40.8558C64.5833 41.4076 64.8542 42.0973 64.8542 42.9106C64.8542 43.7335 64.5833 44.4279 64.0464 44.9797Z" fill="white"/>
<path d="M87.8293 44.7754C87.2733 45.4603 86.532 45.8123 85.6244 45.8123C83.9851 45.8123 82.7924 44.5946 82.7924 42.9108C82.7924 41.2366 83.9851 40.0237 85.6244 40.0237C86.494 40.0237 87.2163 40.3471 87.7722 40.994L87.8055 41.032L89.3783 39.6336L89.3403 39.5956C88.3757 38.5587 87.1355 38.0307 85.6482 38.0307C82.8399 38.0307 80.6351 40.1949 80.6351 42.9536C80.6351 45.7124 82.7591 47.7957 85.5817 47.7957C87.1117 47.7957 88.3947 47.2297 89.3878 46.1167L89.4211 46.0786L87.8578 44.7421L87.8293 44.7754Z" fill="white"/>
<path d="M70.8795 38.1592H68.727V47.6579H75.465V45.7267H70.8795V38.1592Z" fill="white"/>
<path d="M78.9187 38.1592H76.7091V47.6579H78.9187V38.1592Z" fill="white"/>
<path d="M92.8983 45.7791V43.6577H97.0798V41.8883H92.8983V40.0475H97.7498V38.1592H90.7457V47.6579H97.8877V45.7791H92.8983Z" fill="white"/>
<path d="M53.0881 15.0998C53.8674 15.0998 54.4994 14.4672 54.4994 13.6871C54.4994 12.9071 53.8674 12.2745 53.0881 12.2745C52.3088 12.2745 51.6768 12.9071 51.6768 13.6871C51.6768 14.4672 52.3088 15.0998 53.0881 15.0998Z" fill="white"/>
<path d="M90.2093 12.9737C90.9886 12.9737 91.6206 12.341 91.6206 11.561C91.6206 10.7809 90.9886 10.1483 90.2093 10.1483C89.43 10.1483 88.798 10.7809 88.798 11.561C88.798 12.341 89.43 12.9737 90.2093 12.9737Z" fill="white"/>
<path d="M88.2469 16.2318C89.0261 16.2318 89.6581 15.5992 89.6581 14.8192C89.6581 14.0391 89.0261 13.4065 88.2469 13.4065C87.4676 13.4065 86.8356 14.0391 86.8356 14.8192C86.8356 15.5992 87.4676 16.2318 88.2469 16.2318Z" fill="white"/>
<path d="M90.7552 14.8192C90.7552 15.5992 91.3872 16.2318 92.1665 16.2318C92.9458 16.2318 93.5777 15.5992 93.5777 14.8192C93.5777 14.0391 92.9458 13.4065 92.1665 13.4065C91.3919 13.4065 90.7552 14.0391 90.7552 14.8192Z" fill="white"/>
<path d="M95.8535 16.5648L93.4824 18.0061C94.0383 18.9241 95.6872 22.1156 94.9222 26.639H91.6007V18.0108H88.8256V26.6438H86.7206V18.0108H83.9455V26.6438H80.0206V16.8835H77.2455V27.8424C77.2455 30.0875 75.4209 31.914 73.178 31.914H72.47V34.6917H73.178C76.4092 34.6917 79.1225 32.4372 79.8353 29.4216H97.146L97.4026 28.3609C98.8899 22.2393 96.5948 17.7873 95.8535 16.5648Z" fill="white"/>
<path d="M35.7066 16.5504L34.4617 19.0333C38.0683 20.8502 38.2821 24.4223 38.0113 26.6388H31.8244V29.4166H40.2969L40.5344 28.3274C42.2546 20.5173 37.2747 17.34 35.7066 16.5504Z" fill="white"/>
<path d="M73.9675 29.4168L74.704 26.9386C75.3645 24.7031 74.9321 22.2535 73.5446 20.3842C72.3282 18.7433 70.4702 17.6731 68.4412 17.44C66.4122 17.2117 64.3594 17.8395 62.8103 19.1618L60.3632 21.2547V13.6871H57.5881V26.639H54.471V16.8787H51.6009C47.771 16.8787 44.6585 19.999 44.6585 23.8279V29.4168H47.4336V23.8279C47.4336 21.5258 49.301 19.6565 51.6009 19.6565H51.6959V29.4168H73.9675ZM60.3584 24.9076L64.6065 21.2785C65.5759 20.4508 66.8589 20.056 68.1228 20.2035C69.3868 20.3462 70.551 21.0169 71.3065 22.0442C72.1761 23.2191 72.447 24.7554 72.0335 26.1538L71.891 26.6437H60.3537V24.9076H60.3584Z" fill="white"/>
<path d="M27.2391 31.1958C26.4598 31.1958 25.8278 31.8284 25.8278 32.6085C25.8278 33.3886 26.4598 34.0212 27.2391 34.0212C28.0184 34.0212 28.6504 33.3886 28.6504 32.6085C28.6504 31.8332 28.0184 31.1958 27.2391 31.1958Z" fill="white"/>
<path d="M12.4173 31.1958C11.638 31.1958 11.0061 31.8284 11.0061 32.6085C11.0061 33.3886 11.6428 34.0212 12.4173 34.0212C13.1966 34.0212 13.8286 33.3886 13.8286 32.6085C13.8334 31.8332 13.1966 31.1958 12.4173 31.1958Z" fill="white"/>
<path d="M8.8635 31.1958C8.08421 31.1958 7.45222 31.8284 7.45222 32.6085C7.45222 33.3886 8.08896 34.0212 8.8635 34.0212C9.6428 34.0212 10.2748 33.3886 10.2748 32.6085C10.2795 31.8332 9.6428 31.1958 8.8635 31.1958Z" fill="white"/>
<path d="M49.6247 15.0998C50.404 15.0998 51.036 14.4672 51.036 13.6871C51.036 12.9071 50.3992 12.2745 49.6247 12.2745C48.8454 12.2745 48.2134 12.9071 48.2134 13.6871C48.2134 14.4672 48.8454 15.0998 49.6247 15.0998Z" fill="white"/>
<path d="M27.386 24.941C27.386 25.8781 26.6258 26.6391 25.6897 26.6391H24.4162V16.8788H21.4891C17.7352 16.8788 14.7938 19.9325 14.7938 23.828V26.6391H3.66516V26.2633C3.66516 23.3524 4.40169 20.3653 5.73694 17.8634L3.28977 16.5554C1.74069 19.4521 0.890121 22.9005 0.890121 26.2633V29.4169H17.5736V23.828C17.5736 21.4498 19.2605 19.6566 21.4891 19.6566H21.6364V29.4169H25.6897C28.1558 29.4169 30.1611 27.4096 30.1611 24.941V16.8788H27.386V24.941Z" fill="white"/>
<path d="M168.698 32.3136C168.237 32.2862 167.772 32.3182 167.311 32.4004C167.621 32.0671 167.927 31.6698 168.219 31.204C169.25 29.551 169.455 27.6286 168.949 25.9756C168.493 26.0486 168.045 26.1765 167.612 26.3546C167.845 25.9619 168.059 25.5144 168.246 24.9938C168.903 23.1627 168.702 21.2403 167.858 19.7288C167.43 19.8932 167.019 20.1169 166.631 20.3818C166.777 19.948 166.891 19.464 166.964 18.916C167.22 16.9844 166.622 15.1488 165.477 13.8474C165.094 14.0985 164.734 14.4044 164.414 14.7424C164.464 14.2857 164.474 13.788 164.432 13.24C164.277 11.2993 163.306 9.62806 161.914 8.60063C161.59 8.92941 161.308 9.29928 161.061 9.70112C161.016 9.24448 160.92 8.75589 160.76 8.23076C160.199 6.36312 158.899 4.93842 157.321 4.22607C157.074 4.61421 156.873 5.03888 156.718 5.48182C156.577 5.04802 156.381 4.59138 156.116 4.10735C155.176 2.4041 153.603 1.28078 151.91 0.920044C151.591 1.79678 151.472 2.76028 151.582 3.73291C151.372 3.57765 151.153 3.42697 150.907 3.28084C149.242 2.27168 147.321 2.09359 145.67 2.62329C145.966 4.3311 147.024 5.94759 148.69 6.95675C148.931 7.10287 149.169 7.23073 149.401 7.34489C148.493 7.70106 147.695 8.25359 147.07 8.94767C148.001 10.0619 149.36 10.8518 150.925 11.103C151.605 12.3679 152.754 13.409 154.214 13.9752C154.611 15.3542 155.519 16.6146 156.823 17.4776C156.924 18.9114 157.544 20.3361 158.639 21.4503C158.434 22.8704 158.739 24.3956 159.574 25.7153C159.072 27.0623 159.054 28.6149 159.592 30.0853C158.821 31.2953 158.475 32.8114 158.689 34.3594C157.681 35.3777 157.024 36.7887 156.91 38.3458C155.71 39.1312 154.77 40.3687 154.328 41.871C152.987 42.3824 151.81 43.3962 151.062 44.7706C149.643 44.9898 148.279 45.7341 147.262 46.9168C145.551 46.8163 143.754 47.4556 142.394 48.8255C141.514 49.7114 141.003 50.5653 140.747 51.3735C140.319 52.8165 138.27 52.8165 137.841 51.3735C137.586 50.5653 137.075 49.7114 136.195 48.8255C134.835 47.4602 133.038 46.8163 131.327 46.9168C130.31 45.7296 128.946 44.9898 127.527 44.7706C126.784 43.3962 125.602 42.3824 124.265 41.871C123.827 40.3687 122.888 39.1312 121.683 38.3458C121.569 36.7841 120.912 35.3777 119.904 34.3594C120.119 32.8114 119.777 31.2953 119.001 30.0853C119.539 28.6149 119.521 27.0623 119.019 25.7153C119.854 24.3956 120.164 22.8704 119.959 21.4503C121.054 20.3316 121.674 18.9114 121.775 17.4776C123.079 16.6146 123.987 15.3542 124.384 13.9752C125.839 13.409 126.993 12.3679 127.673 11.103C129.233 10.8518 130.597 10.0619 131.528 8.94767C130.903 8.25359 130.105 7.70106 129.192 7.34489C129.425 7.23073 129.662 7.10744 129.908 6.95675C131.574 5.94759 132.627 4.3311 132.928 2.62329C131.282 2.09359 129.361 2.27168 127.691 3.28084C127.445 3.42697 127.226 3.57765 127.016 3.73291C127.121 2.76028 127.007 1.79678 126.688 0.920044C124.995 1.28535 123.421 2.4041 122.482 4.10735C122.217 4.59138 122.021 5.04802 121.88 5.48182C121.724 5.03888 121.524 4.61878 121.277 4.22607C119.699 4.93842 118.399 6.36312 117.838 8.23076C117.678 8.76045 117.582 9.24905 117.537 9.70112C117.295 9.29928 117.008 8.92941 116.684 8.60063C115.292 9.62806 114.316 11.2993 114.161 13.24C114.115 13.788 114.129 14.2857 114.179 14.7424C113.855 14.3999 113.499 14.0985 113.116 13.8474C111.971 15.1488 111.369 16.9799 111.629 18.916C111.702 19.464 111.816 19.948 111.962 20.3818C111.574 20.1169 111.164 19.8978 110.735 19.7288C109.891 21.2403 109.69 23.1627 110.347 24.9938C110.534 25.5144 110.749 25.9619 110.981 26.3546C110.548 26.1765 110.101 26.0486 109.645 25.9756C109.138 27.6331 109.344 29.551 110.375 31.204C110.667 31.6744 110.968 32.0671 111.282 32.4004C110.822 32.3182 110.356 32.2862 109.896 32.3136C109.745 34.0397 110.356 35.8754 111.707 37.2727C112.09 37.67 112.469 37.9896 112.843 38.2544C112.373 38.2727 111.912 38.3412 111.469 38.4599C111.688 40.1814 112.669 41.8436 114.284 42.9258C114.745 43.2318 115.183 43.4646 115.602 43.6427C115.146 43.7569 114.708 43.9213 114.302 44.1359C114.877 45.7706 116.186 47.1908 117.993 47.9077C118.504 48.1132 118.983 48.2456 119.434 48.3324C119.015 48.5424 118.622 48.7936 118.267 49.0858C119.174 50.5607 120.748 51.6749 122.669 51.9946C123.212 52.0859 123.709 52.1179 124.165 52.1042C123.8 52.3964 123.467 52.7252 123.184 53.0859C124.379 54.3371 126.159 55.0951 128.102 54.9992C128.654 54.9718 129.147 54.8988 129.589 54.7937C129.293 55.159 129.037 55.5472 128.836 55.9627C130.269 56.9353 132.167 57.3007 134.046 56.7984C134.954 56.5563 135.67 56.223 136.24 55.8303C138.07 54.5837 140.492 54.5563 142.362 55.8303C142.928 56.223 143.649 56.5563 144.557 56.7984C146.436 57.3007 148.334 56.9353 149.766 55.9627C149.565 55.5472 149.31 55.1545 149.013 54.7937C149.456 54.9033 149.949 54.9764 150.501 54.9992C152.444 55.0905 154.218 54.3371 155.418 53.0859C155.135 52.7252 154.802 52.3964 154.437 52.1042C154.894 52.1133 155.391 52.0813 155.934 51.9946C157.854 51.6749 159.433 50.5607 160.336 49.0858C159.98 48.7936 159.588 48.5378 159.168 48.3324C159.615 48.2456 160.094 48.1132 160.605 47.9077C162.416 47.1908 163.721 45.7706 164.296 44.1359C163.885 43.9258 163.452 43.7615 162.995 43.6427C163.415 43.4646 163.853 43.2318 164.314 42.9258C165.933 41.8436 166.914 40.1814 167.129 38.4599C166.686 38.3412 166.221 38.2727 165.755 38.2544C166.129 37.9942 166.508 37.67 166.891 37.2727C168.237 35.8708 168.844 34.0397 168.698 32.3136ZM128.33 46.0949C129.356 46.4784 130.296 47.2136 130.962 48.2456C131.756 49.4831 132.016 50.5653 131.824 51.5379C130.862 51.3096 129.986 50.6201 129.192 49.3826C128.531 48.3506 128.252 47.1908 128.33 46.0949ZM124.767 43.3368C125.693 43.9304 126.455 44.8437 126.884 45.9944C127.399 47.3689 127.427 48.4876 127.034 49.3963C126.145 48.9717 125.433 48.1132 124.913 46.7341C124.489 45.5834 124.462 44.3916 124.767 43.3368ZM121.866 39.8846C122.646 40.6609 123.198 41.7157 123.376 42.9304C123.59 44.387 123.38 45.4784 122.806 46.2866C122.026 45.6839 121.51 44.693 121.296 43.2409C121.118 42.0262 121.346 40.8527 121.866 39.8846ZM119.758 35.9028C120.356 36.8252 120.675 37.9713 120.593 39.1997C120.497 40.6655 120.059 41.6929 119.33 42.3596C118.691 41.6061 118.394 40.5285 118.495 39.0627C118.577 37.8343 119.042 36.7384 119.758 35.9028ZM115.799 29.4186C116.373 28.3364 117.254 27.5281 118.248 27.0623C118.413 28.1491 118.235 29.3273 117.655 30.4095C116.962 31.7063 116.145 32.4643 115.206 32.7657C114.936 31.8159 115.11 30.7154 115.799 29.4186ZM114.74 27.5372C114.676 26.5509 115.078 25.5098 116.027 24.3865C116.82 23.4504 117.847 22.8476 118.914 22.601C118.851 23.697 118.422 24.8111 117.633 25.7472C116.684 26.8751 115.726 27.4414 114.74 27.5372ZM116.633 34.3822C116.971 33.2041 117.66 32.2269 118.531 31.5648C118.924 32.5922 118.992 33.784 118.654 34.9621C118.253 36.3731 117.61 37.2864 116.757 37.7841C116.296 36.9119 116.232 35.7932 116.633 34.3822ZM118.59 21.19C117.427 22.085 116.369 22.4366 115.388 22.3271C115.534 21.3499 116.145 20.4138 117.309 19.5188C118.28 18.7699 119.412 18.3954 120.511 18.3817C120.215 19.4457 119.562 20.4457 118.59 21.19ZM129.927 8.96594C129.06 9.64175 127.942 10.0573 126.72 10.0801C125.251 10.1075 124.192 9.76048 123.467 9.08923C124.165 8.39058 125.21 8.00244 126.679 7.97504C127.906 7.95221 129.033 8.32665 129.927 8.96594ZM128.248 4.20781C129.297 3.57309 130.465 3.33107 131.555 3.44066C131.145 4.45896 130.383 5.37679 129.334 6.01151C128.075 6.77409 126.984 7.00241 126.022 6.78323C126.277 5.82429 126.989 4.96582 128.248 4.20781ZM123.431 4.62791C124.024 3.55482 124.909 2.76028 125.912 2.30821C126.063 3.395 125.867 4.57312 125.274 5.64621C124.562 6.93391 123.736 7.67823 122.792 7.97047C122.532 7.01611 122.719 5.91562 123.431 4.62791ZM122.755 11.1258C123.946 10.8427 125.132 10.9706 126.14 11.4089C125.433 12.2491 124.43 12.893 123.239 13.1761C121.811 13.514 120.703 13.3999 119.85 12.893C120.388 12.0619 121.328 11.4637 122.755 11.1258ZM118.878 8.5367C119.229 7.36315 119.932 6.39965 120.812 5.7421C121.191 6.77409 121.245 7.96591 120.89 9.13946C120.465 10.5459 119.813 11.45 118.951 11.9341C118.504 11.0619 118.454 9.9477 118.878 8.5367ZM119.585 15.0346C120.694 14.5095 121.875 14.3816 122.952 14.5962C122.441 15.5689 121.592 16.4091 120.488 16.9342C119.161 17.5644 118.052 17.6876 117.117 17.3726C117.468 16.4502 118.262 15.6648 119.585 15.0346ZM115.247 13.3222C115.342 12.0984 115.826 11.0071 116.551 10.1851C117.135 11.1167 117.441 12.2674 117.345 13.4912C117.227 14.957 116.779 15.9798 116.04 16.6328C115.415 15.8657 115.133 14.788 115.247 13.3222ZM113.326 15.4182C114.093 16.2036 114.635 17.2675 114.795 18.4822C114.991 19.9389 114.768 21.0302 114.179 21.8293C113.404 21.2129 112.902 20.2174 112.71 18.7607C112.546 17.5461 112.788 16.3817 113.326 15.4182ZM111.269 21.222C112.186 21.8293 112.938 22.7517 113.353 23.907C113.851 25.2906 113.86 26.4048 113.454 27.3089C112.569 26.8706 111.866 26.003 111.369 24.6194C110.954 23.4641 110.949 22.2723 111.269 21.222ZM110.48 27.3226C111.501 27.7199 112.432 28.4688 113.08 29.5099C113.855 30.7565 114.102 31.8479 113.896 32.8114C112.938 32.5694 112.072 31.8707 111.292 30.6241C110.648 29.583 110.388 28.4185 110.48 27.3226ZM112.482 36.5101C111.629 35.6288 111.132 34.5466 110.99 33.4552C112.076 33.6287 113.139 34.163 113.992 35.0443C115.014 36.0991 115.484 37.1129 115.484 38.0992C114.503 38.0672 113.504 37.5649 112.482 36.5101ZM114.886 42.0125C113.869 41.3322 113.153 40.3778 112.788 39.3412C113.883 39.2819 115.037 39.5787 116.059 40.2636C117.281 41.081 117.952 41.9715 118.162 42.9349C117.185 43.1085 116.104 42.8299 114.886 42.0125ZM118.39 46.8894C117.249 46.4373 116.351 45.6565 115.776 44.7204C116.834 44.4327 118.025 44.4784 119.165 44.9304C120.529 45.4693 121.373 46.1999 121.784 47.0995C120.871 47.4739 119.758 47.4282 118.39 46.8894ZM122.842 50.9123C121.633 50.7114 120.589 50.1361 119.831 49.3461C120.808 48.8438 121.98 48.6383 123.189 48.8347C124.639 49.0767 125.616 49.6109 126.204 50.4055C125.392 50.9626 124.293 51.1544 122.842 50.9123ZM128.043 53.9079C126.82 53.9672 125.675 53.6248 124.767 53.0083C125.616 52.3096 126.72 51.8621 127.942 51.8028C129.411 51.7343 130.479 52.0494 131.222 52.7024C130.543 53.4238 129.512 53.8394 128.043 53.9079ZM133.759 55.7435C132.573 56.0586 131.386 55.9673 130.369 55.5563C131.049 54.6933 132.034 54.022 133.22 53.7069C134.639 53.3279 135.752 53.4147 136.614 53.8942C136.099 54.7389 135.177 55.3645 133.759 55.7435ZM133.927 51.0767C133.065 50.2091 132.55 49.1315 132.395 48.0447C133.48 48.2045 134.552 48.7251 135.419 49.5927C136.455 50.6338 136.938 51.643 136.952 52.6293C135.967 52.6065 134.963 52.1179 133.927 51.0767ZM168.105 27.3226C168.196 28.4185 167.936 29.583 167.293 30.6241C166.517 31.8707 165.646 32.5739 164.688 32.8114C164.483 31.8433 164.729 30.7565 165.504 29.5099C166.152 28.4688 167.078 27.7199 168.105 27.3226ZM167.316 21.222C167.635 22.2723 167.626 23.4641 167.215 24.6194C166.718 26.003 166.015 26.8706 165.13 27.3089C164.724 26.4048 164.738 25.2906 165.235 23.907C165.646 22.7517 166.399 21.8248 167.316 21.222ZM163.789 18.4822C163.953 17.2675 164.492 16.2036 165.258 15.4182C165.792 16.3771 166.034 17.5461 165.874 18.7607C165.678 20.2174 165.176 21.2129 164.401 21.8293C163.817 21.0348 163.593 19.9434 163.789 18.4822ZM160.929 30.4095C160.354 29.3273 160.172 28.1491 160.336 27.0623C161.33 27.5281 162.206 28.3364 162.786 29.4186C163.479 30.7154 163.648 31.8159 163.379 32.7703C162.439 32.4643 161.618 31.7063 160.929 30.4095ZM161.823 37.7841C160.97 37.2864 160.327 36.3731 159.925 34.9621C159.588 33.784 159.661 32.5922 160.049 31.5648C160.924 32.2314 161.613 33.2041 161.946 34.3822C162.352 35.7932 162.288 36.9119 161.823 37.7841ZM160.947 25.7518C160.153 24.8157 159.729 23.7015 159.665 22.6056C160.737 22.8522 161.764 23.4549 162.553 24.391C163.502 25.5144 163.903 26.5555 163.839 27.5418C162.859 27.4414 161.896 26.8751 160.947 25.7518ZM162.028 10.1851C162.754 11.0117 163.237 12.103 163.333 13.3222C163.452 14.788 163.169 15.8657 162.539 16.6328C161.8 15.9798 161.349 14.957 161.235 13.4912C161.139 12.2674 161.444 11.1121 162.028 10.1851ZM157.772 5.74667C158.653 6.39965 159.355 7.36315 159.706 8.54127C160.126 9.9477 160.08 11.0619 159.629 11.9432C158.767 11.4592 158.114 10.555 157.69 9.14859C157.339 7.97047 157.394 6.77866 157.772 5.74667ZM152.672 2.30365C153.671 2.75571 154.561 3.55026 155.154 4.62335C155.861 5.91105 156.052 7.01154 155.792 7.96591C154.848 7.67366 154.018 6.92935 153.311 5.64164C152.718 4.56855 152.521 3.395 152.672 2.30365ZM149.251 6.01151C148.201 5.37679 147.444 4.45896 147.029 3.44066C148.119 3.33107 149.287 3.57765 150.336 4.20781C151.595 4.96582 152.307 5.82429 152.558 6.78323C151.595 7.00241 150.505 6.76953 149.251 6.01151ZM151.865 10.0801C150.637 10.0573 149.524 9.64175 148.658 8.96594C149.547 8.32665 150.678 7.95221 151.906 7.97504C153.375 8.00244 154.419 8.39058 155.117 9.08923C154.392 9.76505 153.333 10.1121 151.865 10.0801ZM152.439 11.4135C153.448 10.9751 154.629 10.8473 155.824 11.1304C157.252 11.4683 158.196 12.0665 158.73 12.8976C157.882 13.4044 156.773 13.5186 155.341 13.1807C154.15 12.8976 153.146 12.2537 152.439 11.4135ZM155.628 14.5962C156.705 14.3816 157.891 14.5049 158.995 15.0346C160.322 15.6648 161.116 16.4502 161.463 17.3726C160.528 17.6876 159.419 17.5644 158.091 16.9342C156.988 16.4091 156.139 15.5689 155.628 14.5962ZM158.073 18.3863C159.173 18.4 160.304 18.7744 161.276 19.5233C162.439 20.4183 163.05 21.3544 163.196 22.3316C162.215 22.4412 161.157 22.0896 159.994 21.1946C159.018 20.4457 158.37 19.4457 158.073 18.3863ZM158.826 35.9028C159.542 36.7384 160.007 37.8343 160.09 39.0581C160.185 40.5239 159.889 41.6016 159.255 42.355C158.525 41.6883 158.087 40.6609 157.991 39.1951C157.909 37.9713 158.228 36.8252 158.826 35.9028ZM155.204 42.9304C155.382 41.7157 155.938 40.6609 156.714 39.8846C157.234 40.8527 157.462 42.0217 157.284 43.2363C157.07 44.6884 156.554 45.6793 155.77 46.2821C155.199 45.483 154.989 44.387 155.204 42.9304ZM151.696 45.9944C152.125 44.8482 152.891 43.9304 153.812 43.3368C154.118 44.3916 154.095 45.5834 153.667 46.7341C153.151 48.1086 152.439 48.9671 151.55 49.3963C151.153 48.4876 151.18 47.3689 151.696 45.9944ZM147.622 48.2456C148.284 47.2136 149.223 46.4784 150.25 46.0949C150.327 47.1908 150.054 48.3506 149.392 49.3826C148.598 50.6201 147.722 51.3096 146.76 51.5379C146.568 50.5699 146.828 49.4831 147.622 48.2456ZM143.165 49.5927C144.027 48.7251 145.104 48.2045 146.19 48.0447C146.035 49.1315 145.524 50.2091 144.657 51.0767C143.621 52.1179 142.618 52.6065 141.632 52.6293C141.646 51.6384 142.13 50.6338 143.165 49.5927ZM144.826 55.7435C143.407 55.3645 142.481 54.7389 141.97 53.8942C142.832 53.4147 143.945 53.3279 145.364 53.7069C146.55 54.022 147.535 54.6933 148.215 55.5563C147.198 55.9627 146.012 56.0586 144.826 55.7435ZM150.542 53.9079C149.073 53.8394 148.042 53.4193 147.362 52.7024C148.106 52.0494 149.173 51.7343 150.642 51.8028C151.865 51.8621 152.969 52.3096 153.817 53.0083C152.905 53.6248 151.764 53.9672 150.542 53.9079ZM155.738 50.9123C154.291 51.1544 153.192 50.9626 152.376 50.4055C152.964 49.6109 153.945 49.0767 155.391 48.8347C156.6 48.6337 157.772 48.8392 158.748 49.3461C157.991 50.1361 156.946 50.7114 155.738 50.9123ZM160.19 46.8894C158.826 47.4282 157.713 47.4785 156.796 47.0995C157.206 46.1999 158.05 45.4693 159.414 44.9304C160.555 44.4784 161.746 44.4327 162.804 44.7204C162.234 45.6565 161.33 46.4373 160.19 46.8894ZM165.796 39.3412C165.431 40.3778 164.715 41.3322 163.693 42.0125C162.471 42.8299 161.394 43.1085 160.423 42.9349C160.632 41.9669 161.303 41.0764 162.526 40.2636C163.547 39.5787 164.702 39.2864 165.796 39.3412ZM163.096 38.0992C163.096 37.1083 163.566 36.0991 164.588 35.0443C165.441 34.163 166.508 33.6287 167.589 33.4552C167.448 34.5466 166.951 35.6288 166.098 36.5101C165.076 37.5649 164.081 38.0672 163.096 38.0992Z" fill="white"/>
<path d="M122.683 31.2405V31.9894C122.907 32.4643 124.029 34.6105 125.899 37.3138H123.235C123.235 37.3138 123.765 38.4097 125.407 38.4097H153.188C154.831 38.4097 155.36 37.3138 155.36 37.3138H152.924C154.402 35.1128 155.123 33.7931 156.286 31.5967H157.623V29.5008H150.374C142.76 23.3134 141.127 12.7377 145.561 4.8197C132.888 7.34945 123.372 18.3772 122.683 31.2405ZM123.244 31.2542C126.985 28.9345 131.292 27.5966 135.703 27.3409V31.2542H123.244ZM149.726 30.4049L149.096 31.2542H137.418V27.2998C141.601 27.3272 145.826 28.3318 149.726 30.4049ZM147.336 28.1035C139.85 25.1764 131.228 25.6011 123.933 29.5921C125.265 18.5096 133.221 9.43627 143.577 6.44075C140.643 13.5642 141.88 22.0348 147.336 28.1035Z" fill="white"/>
<path d="M138.06 47.6336H140.523C142.166 47.6336 142.695 46.5376 142.695 46.5376H135.889C135.889 46.5376 136.418 47.6336 138.06 47.6336Z" fill="white"/>
<path d="M147.659 44.2318H130.93C130.93 44.2318 131.46 45.3277 133.102 45.3277H145.483C147.13 45.3277 147.659 44.2318 147.659 44.2318Z" fill="white"/>
<path d="M151.435 41.9256H127.153C127.153 41.9256 127.682 43.0215 129.324 43.0215H149.259C150.902 43.0215 151.435 41.9256 151.435 41.9256Z" fill="white"/>
<path d="M153.735 39.62H124.854C124.854 39.62 125.383 40.7159 127.025 40.7159H151.564C153.206 40.7159 153.735 39.62 153.735 39.62Z" fill="white"/>
</svg>
